<?xml version="1.0" encoding="utf-8" standalone="no"?>
<!DOCTYPE svg PUBLIC "-//W3C//DTD SVG 1.1//EN"
  "http://www.w3.org/Graphics/SVG/1.1/DTD/svg11.dtd">
<!-- Created with matplotlib (https://matplotlib.org/) -->
<svg height="345.6pt" version="1.1" viewBox="0 0 460.8 345.6" width="460.8pt" xmlns="http://www.w3.org/2000/svg" xmlns:xlink="http://www.w3.org/1999/xlink">
 <defs>
  <style type="text/css">
*{stroke-linecap:butt;stroke-linejoin:round;}
  </style>
 </defs>
 <g id="figure_1">
  <g id="patch_1">
   <path d="M 0 345.6 
L 460.8 345.6 
L 460.8 0 
L 0 0 
z
" style="fill:#ffffff;"/>
  </g>
  <g id="axes_1">
   <g id="patch_2">
    <path d="M 60.59 136.24 
L 221.805 136.24 
L 221.805 25.44 
L 60.59 25.44 
z
" style="fill:#ffffff;"/>
   </g>
   <g id="matplotlib.axis_1">
    <g id="xtick_1">
     <g id="line2d_1">
      <defs>
       <path d="M 0 0 
L 0 3.5 
" id="md638742c23" style="stroke:#000000;stroke-width:0.8;"/>
      </defs>
      <g>
       <use style="stroke:#000000;stroke-width:0.8;" x="60.59" xlink:href="#md638742c23" y="136.24"/>
      </g>
     </g>
     <g id="text_1">
      <!-- 0 -->
      <defs>
       <path d="M 31.78125 66.40625 
Q 24.171875 66.40625 20.328125 58.90625 
Q 16.5 51.421875 16.5 36.375 
Q 16.5 21.390625 20.328125 13.890625 
Q 24.171875 6.390625 31.78125 6.390625 
Q 39.453125 6.390625 43.28125 13.890625 
Q 47.125 21.390625 47.125 36.375 
Q 47.125 51.421875 43.28125 58.90625 
Q 39.453125 66.40625 31.78125 66.40625 
z
M 31.78125 74.21875 
Q 44.046875 74.21875 50.515625 64.515625 
Q 56.984375 54.828125 56.984375 36.375 
Q 56.984375 17.96875 50.515625 8.265625 
Q 44.046875 -1.421875 31.78125 -1.421875 
Q 19.53125 -1.421875 13.0625 8.265625 
Q 6.59375 17.96875 6.59375 36.375 
Q 6.59375 54.828125 13.0625 64.515625 
Q 19.53125 74.21875 31.78125 74.21875 
z
" id="DejaVuSans-48"/>
      </defs>
      <g transform="translate(57.40875 150.838437)scale(0.1 -0.1)">
       <use xlink:href="#DejaVuSans-48"/>
      </g>
     </g>
    </g>
    <g id="xtick_2">
     <g id="line2d_2">
      <g>
       <use style="stroke:#000000;stroke-width:0.8;" x="114.328333" xlink:href="#md638742c23" y="136.24"/>
      </g>
     </g>
     <g id="text_2">
      <!-- 85 -->
      <defs>
       <path d="M 31.78125 34.625 
Q 24.75 34.625 20.71875 30.859375 
Q 16.703125 27.09375 16.703125 20.515625 
Q 16.703125 13.921875 20.71875 10.15625 
Q 24.75 6.390625 31.78125 6.390625 
Q 38.8125 6.390625 42.859375 10.171875 
Q 46.921875 13.96875 46.921875 20.515625 
Q 46.921875 27.09375 42.890625 30.859375 
Q 38.875 34.625 31.78125 34.625 
z
M 21.921875 38.8125 
Q 15.578125 40.375 12.03125 44.71875 
Q 8.5 49.078125 8.5 55.328125 
Q 8.5 64.0625 14.71875 69.140625 
Q 20.953125 74.21875 31.78125 74.21875 
Q 42.671875 74.21875 48.875 69.140625 
Q 55.078125 64.0625 55.078125 55.328125 
Q 55.078125 49.078125 51.53125 44.71875 
Q 48 40.375 41.703125 38.8125 
Q 48.828125 37.15625 52.796875 32.3125 
Q 56.78125 27.484375 56.78125 20.515625 
Q 56.78125 9.90625 50.3125 4.234375 
Q 43.84375 -1.421875 31.78125 -1.421875 
Q 19.734375 -1.421875 13.25 4.234375 
Q 6.78125 9.90625 6.78125 20.515625 
Q 6.78125 27.484375 10.78125 32.3125 
Q 14.796875 37.15625 21.921875 38.8125 
z
M 18.3125 54.390625 
Q 18.3125 48.734375 21.84375 45.5625 
Q 25.390625 42.390625 31.78125 42.390625 
Q 38.140625 42.390625 41.71875 45.5625 
Q 45.3125 48.734375 45.3125 54.390625 
Q 45.3125 60.0625 41.71875 63.234375 
Q 38.140625 66.40625 31.78125 66.40625 
Q 25.390625 66.40625 21.84375 63.234375 
Q 18.3125 60.0625 18.3125 54.390625 
z
" id="DejaVuSans-56"/>
       <path d="M 10.796875 72.90625 
L 49.515625 72.90625 
L 49.515625 64.59375 
L 19.828125 64.59375 
L 19.828125 46.734375 
Q 21.96875 47.46875 24.109375 47.828125 
Q 26.265625 48.1875 28.421875 48.1875 
Q 40.625 48.1875 47.75 41.5 
Q 54.890625 34.8125 54.890625 23.390625 
Q 54.890625 11.625 47.5625 5.09375 
Q 40.234375 -1.421875 26.90625 -1.421875 
Q 22.3125 -1.421875 17.546875 -0.640625 
Q 12.796875 0.140625 7.71875 1.703125 
L 7.71875 11.625 
Q 12.109375 9.234375 16.796875 8.0625 
Q 21.484375 6.890625 26.703125 6.890625 
Q 35.15625 6.890625 40.078125 11.328125 
Q 45.015625 15.765625 45.015625 23.390625 
Q 45.015625 31 40.078125 35.4375 
Q 35.15625 39.890625 26.703125 39.890625 
Q 22.75 39.890625 18.8125 39.015625 
Q 14.890625 38.140625 10.796875 36.28125 
z
" id="DejaVuSans-53"/>
      </defs>
      <g transform="translate(107.965833 150.838437)scale(0.1 -0.1)">
       <use xlink:href="#DejaVuSans-56"/>
       <use x="63.623047" xlink:href="#DejaVuSans-53"/>
      </g>
     </g>
    </g>
    <g id="xtick_3">
     <g id="line2d_3">
      <g>
       <use style="stroke:#000000;stroke-width:0.8;" x="168.066667" xlink:href="#md638742c23" y="136.24"/>
      </g>
     </g>
     <g id="text_3">
      <!-- 170 -->
      <defs>
       <path d="M 12.40625 8.296875 
L 28.515625 8.296875 
L 28.515625 63.921875 
L 10.984375 60.40625 
L 10.984375 69.390625 
L 28.421875 72.90625 
L 38.28125 72.90625 
L 38.28125 8.296875 
L 54.390625 8.296875 
L 54.390625 0 
L 12.40625 0 
z
" id="DejaVuSans-49"/>
       <path d="M 8.203125 72.90625 
L 55.078125 72.90625 
L 55.078125 68.703125 
L 28.609375 0 
L 18.3125 0 
L 43.21875 64.59375 
L 8.203125 64.59375 
z
" id="DejaVuSans-55"/>
      </defs>
      <g transform="translate(158.522917 150.838437)scale(0.1 -0.1)">
       <use xlink:href="#DejaVuSans-49"/>
       <use x="63.623047" xlink:href="#DejaVuSans-55"/>
       <use x="127.246094" xlink:href="#DejaVuSans-48"/>
      </g>
     </g>
    </g>
    <g id="xtick_4">
     <g id="line2d_4">
      <g>
       <use style="stroke:#000000;stroke-width:0.8;" x="221.805" xlink:href="#md638742c23" y="136.24"/>
      </g>
     </g>
     <g id="text_4">
      <!-- 255 -->
      <defs>
       <path d="M 19.1875 8.296875 
L 53.609375 8.296875 
L 53.609375 0 
L 7.328125 0 
L 7.328125 8.296875 
Q 12.9375 14.109375 22.625 23.890625 
Q 32.328125 33.6875 34.8125 36.53125 
Q 39.546875 41.84375 41.421875 45.53125 
Q 43.3125 49.21875 43.3125 52.78125 
Q 43.3125 58.59375 39.234375 62.25 
Q 35.15625 65.921875 28.609375 65.921875 
Q 23.96875 65.921875 18.8125 64.3125 
Q 13.671875 62.703125 7.8125 59.421875 
L 7.8125 69.390625 
Q 13.765625 71.78125 18.9375 73 
Q 24.125 74.21875 28.421875 74.21875 
Q 39.75 74.21875 46.484375 68.546875 
Q 53.21875 62.890625 53.21875 53.421875 
Q 53.21875 48.921875 51.53125 44.890625 
Q 49.859375 40.875 45.40625 35.40625 
Q 44.1875 33.984375 37.640625 27.21875 
Q 31.109375 20.453125 19.1875 8.296875 
z
" id="DejaVuSans-50"/>
      </defs>
      <g transform="translate(212.26125 150.838437)scale(0.1 -0.1)">
       <use xlink:href="#DejaVuSans-50"/>
       <use x="63.623047" xlink:href="#DejaVuSans-53"/>
       <use x="127.246094" xlink:href="#DejaVuSans-53"/>
      </g>
     </g>
    </g>
    <g id="text_5">
     <!-- gray value -->
     <defs>
      <path d="M 45.40625 27.984375 
Q 45.40625 37.75 41.375 43.109375 
Q 37.359375 48.484375 30.078125 48.484375 
Q 22.859375 48.484375 18.828125 43.109375 
Q 14.796875 37.75 14.796875 27.984375 
Q 14.796875 18.265625 18.828125 12.890625 
Q 22.859375 7.515625 30.078125 7.515625 
Q 37.359375 7.515625 41.375 12.890625 
Q 45.40625 18.265625 45.40625 27.984375 
z
M 54.390625 6.78125 
Q 54.390625 -7.171875 48.1875 -13.984375 
Q 42 -20.796875 29.203125 -20.796875 
Q 24.46875 -20.796875 20.265625 -20.09375 
Q 16.0625 -19.390625 12.109375 -17.921875 
L 12.109375 -9.1875 
Q 16.0625 -11.328125 19.921875 -12.34375 
Q 23.78125 -13.375 27.78125 -13.375 
Q 36.625 -13.375 41.015625 -8.765625 
Q 45.40625 -4.15625 45.40625 5.171875 
L 45.40625 9.625 
Q 42.625 4.78125 38.28125 2.390625 
Q 33.9375 0 27.875 0 
Q 17.828125 0 11.671875 7.65625 
Q 5.515625 15.328125 5.515625 27.984375 
Q 5.515625 40.671875 11.671875 48.328125 
Q 17.828125 56 27.875 56 
Q 33.9375 56 38.28125 53.609375 
Q 42.625 51.21875 45.40625 46.390625 
L 45.40625 54.6875 
L 54.390625 54.6875 
z
" id="DejaVuSans-103"/>
      <path d="M 41.109375 46.296875 
Q 39.59375 47.171875 37.8125 47.578125 
Q 36.03125 48 33.890625 48 
Q 26.265625 48 22.1875 43.046875 
Q 18.109375 38.09375 18.109375 28.8125 
L 18.109375 0 
L 9.078125 0 
L 9.078125 54.6875 
L 18.109375 54.6875 
L 18.109375 46.1875 
Q 20.953125 51.171875 25.484375 53.578125 
Q 30.03125 56 36.53125 56 
Q 37.453125 56 38.578125 55.875 
Q 39.703125 55.765625 41.0625 55.515625 
z
" id="DejaVuSans-114"/>
      <path d="M 34.28125 27.484375 
Q 23.390625 27.484375 19.1875 25 
Q 14.984375 22.515625 14.984375 16.5 
Q 14.984375 11.71875 18.140625 8.90625 
Q 21.296875 6.109375 26.703125 6.109375 
Q 34.1875 6.109375 38.703125 11.40625 
Q 43.21875 16.703125 43.21875 25.484375 
L 43.21875 27.484375 
z
M 52.203125 31.203125 
L 52.203125 0 
L 43.21875 0 
L 43.21875 8.296875 
Q 40.140625 3.328125 35.546875 0.953125 
Q 30.953125 -1.421875 24.3125 -1.421875 
Q 15.921875 -1.421875 10.953125 3.296875 
Q 6 8.015625 6 15.921875 
Q 6 25.140625 12.171875 29.828125 
Q 18.359375 34.515625 30.609375 34.515625 
L 43.21875 34.515625 
L 43.21875 35.40625 
Q 43.21875 41.609375 39.140625 45 
Q 35.0625 48.390625 27.6875 48.390625 
Q 23 48.390625 18.546875 47.265625 
Q 14.109375 46.140625 10.015625 43.890625 
L 10.015625 52.203125 
Q 14.9375 54.109375 19.578125 55.046875 
Q 24.21875 56 28.609375 56 
Q 40.484375 56 46.34375 49.84375 
Q 52.203125 43.703125 52.203125 31.203125 
z
" id="DejaVuSans-97"/>
      <path d="M 32.171875 -5.078125 
Q 28.375 -14.84375 24.75 -17.8125 
Q 21.140625 -20.796875 15.09375 -20.796875 
L 7.90625 -20.796875 
L 7.90625 -13.28125 
L 13.1875 -13.28125 
Q 16.890625 -13.28125 18.9375 -11.515625 
Q 21 -9.765625 23.484375 -3.21875 
L 25.09375 0.875 
L 2.984375 54.6875 
L 12.5 54.6875 
L 29.59375 11.921875 
L 46.6875 54.6875 
L 56.203125 54.6875 
z
" id="DejaVuSans-121"/>
      <path id="DejaVuSans-32"/>
      <path d="M 2.984375 54.6875 
L 12.5 54.6875 
L 29.59375 8.796875 
L 46.6875 54.6875 
L 56.203125 54.6875 
L 35.6875 0 
L 23.484375 0 
z
" id="DejaVuSans-118"/>
      <path d="M 9.421875 75.984375 
L 18.40625 75.984375 
L 18.40625 0 
L 9.421875 0 
z
" id="DejaVuSans-108"/>
      <path d="M 8.5 21.578125 
L 8.5 54.6875 
L 17.484375 54.6875 
L 17.484375 21.921875 
Q 17.484375 14.15625 20.5 10.265625 
Q 23.53125 6.390625 29.59375 6.390625 
Q 36.859375 6.390625 41.078125 11.03125 
Q 45.3125 15.671875 45.3125 23.6875 
L 45.3125 54.6875 
L 54.296875 54.6875 
L 54.296875 0 
L 45.3125 0 
L 45.3125 8.40625 
Q 42.046875 3.421875 37.71875 1 
Q 33.40625 -1.421875 27.6875 -1.421875 
Q 18.265625 -1.421875 13.375 4.4375 
Q 8.5 10.296875 8.5 21.578125 
z
M 31.109375 56 
z
" id="DejaVuSans-117"/>
      <path d="M 56.203125 29.59375 
L 56.203125 25.203125 
L 14.890625 25.203125 
Q 15.484375 15.921875 20.484375 11.0625 
Q 25.484375 6.203125 34.421875 6.203125 
Q 39.59375 6.203125 44.453125 7.46875 
Q 49.3125 8.734375 54.109375 11.28125 
L 54.109375 2.78125 
Q 49.265625 0.734375 44.1875 -0.34375 
Q 39.109375 -1.421875 33.890625 -1.421875 
Q 20.796875 -1.421875 13.15625 6.1875 
Q 5.515625 13.8125 5.515625 26.8125 
Q 5.515625 40.234375 12.765625 48.109375 
Q 20.015625 56 32.328125 56 
Q 43.359375 56 49.78125 48.890625 
Q 56.203125 41.796875 56.203125 29.59375 
z
M 47.21875 32.234375 
Q 47.125 39.59375 43.09375 43.984375 
Q 39.0625 48.390625 32.421875 48.390625 
Q 24.90625 48.390625 20.390625 44.140625 
Q 15.875 39.890625 15.1875 32.171875 
z
" id="DejaVuSans-101"/>
     </defs>
     <g transform="translate(114.6975 164.516562)scale(0.1 -0.1)">
      <use xlink:href="#DejaVuSans-103"/>
      <use x="63.476562" xlink:href="#DejaVuSans-114"/>
      <use x="104.589844" xlink:href="#DejaVuSans-97"/>
      <use x="165.869141" xlink:href="#DejaVuSans-121"/>
      <use x="225.048828" xlink:href="#DejaVuSans-32"/>
      <use x="256.835938" xlink:href="#DejaVuSans-118"/>
      <use x="316.015625" xlink:href="#DejaVuSans-97"/>
      <use x="377.294922" xlink:href="#DejaVuSans-108"/>
      <use x="405.078125" xlink:href="#DejaVuSans-117"/>
      <use x="468.457031" xlink:href="#DejaVuSans-101"/>
     </g>
    </g>
   </g>
   <g id="matplotlib.axis_2">
    <g id="ytick_1">
     <g id="line2d_5">
      <defs>
       <path d="M 0 0 
L -3.5 0 
" id="m58b0fb4afb" style="stroke:#000000;stroke-width:0.8;"/>
      </defs>
      <g>
       <use style="stroke:#000000;stroke-width:0.8;" x="60.59" xlink:href="#m58b0fb4afb" y="124.902977"/>
      </g>
     </g>
     <g id="text_6">
      <!-- 0.002 -->
      <defs>
       <path d="M 10.6875 12.40625 
L 21 12.40625 
L 21 0 
L 10.6875 0 
z
" id="DejaVuSans-46"/>
      </defs>
      <g transform="translate(24.961875 128.702196)scale(0.1 -0.1)">
       <use xlink:href="#DejaVuSans-48"/>
       <use x="63.623047" xlink:href="#DejaVuSans-46"/>
       <use x="95.410156" xlink:href="#DejaVuSans-48"/>
       <use x="159.033203" xlink:href="#DejaVuSans-48"/>
       <use x="222.65625" xlink:href="#DejaVuSans-50"/>
      </g>
     </g>
    </g>
    <g id="ytick_2">
     <g id="line2d_6">
      <g>
       <use style="stroke:#000000;stroke-width:0.8;" x="60.59" xlink:href="#m58b0fb4afb" y="99.117308"/>
      </g>
     </g>
     <g id="text_7">
      <!-- 0.004 -->
      <defs>
       <path d="M 37.796875 64.3125 
L 12.890625 25.390625 
L 37.796875 25.390625 
z
M 35.203125 72.90625 
L 47.609375 72.90625 
L 47.609375 25.390625 
L 58.015625 25.390625 
L 58.015625 17.1875 
L 47.609375 17.1875 
L 47.609375 0 
L 37.796875 0 
L 37.796875 17.1875 
L 4.890625 17.1875 
L 4.890625 26.703125 
z
" id="DejaVuSans-52"/>
      </defs>
      <g transform="translate(24.961875 102.916527)scale(0.1 -0.1)">
       <use xlink:href="#DejaVuSans-48"/>
       <use x="63.623047" xlink:href="#DejaVuSans-46"/>
       <use x="95.410156" xlink:href="#DejaVuSans-48"/>
       <use x="159.033203" xlink:href="#DejaVuSans-48"/>
       <use x="222.65625" xlink:href="#DejaVuSans-52"/>
      </g>
     </g>
    </g>
    <g id="ytick_3">
     <g id="line2d_7">
      <g>
       <use style="stroke:#000000;stroke-width:0.8;" x="60.59" xlink:href="#m58b0fb4afb" y="73.331639"/>
      </g>
     </g>
     <g id="text_8">
      <!-- 0.006 -->
      <defs>
       <path d="M 33.015625 40.375 
Q 26.375 40.375 22.484375 35.828125 
Q 18.609375 31.296875 18.609375 23.390625 
Q 18.609375 15.53125 22.484375 10.953125 
Q 26.375 6.390625 33.015625 6.390625 
Q 39.65625 6.390625 43.53125 10.953125 
Q 47.40625 15.53125 47.40625 23.390625 
Q 47.40625 31.296875 43.53125 35.828125 
Q 39.65625 40.375 33.015625 40.375 
z
M 52.59375 71.296875 
L 52.59375 62.3125 
Q 48.875 64.0625 45.09375 64.984375 
Q 41.3125 65.921875 37.59375 65.921875 
Q 27.828125 65.921875 22.671875 59.328125 
Q 17.53125 52.734375 16.796875 39.40625 
Q 19.671875 43.65625 24.015625 45.921875 
Q 28.375 48.1875 33.59375 48.1875 
Q 44.578125 48.1875 50.953125 41.515625 
Q 57.328125 34.859375 57.328125 23.390625 
Q 57.328125 12.15625 50.6875 5.359375 
Q 44.046875 -1.421875 33.015625 -1.421875 
Q 20.359375 -1.421875 13.671875 8.265625 
Q 6.984375 17.96875 6.984375 36.375 
Q 6.984375 53.65625 15.1875 63.9375 
Q 23.390625 74.21875 37.203125 74.21875 
Q 40.921875 74.21875 44.703125 73.484375 
Q 48.484375 72.75 52.59375 71.296875 
z
" id="DejaVuSans-54"/>
      </defs>
      <g transform="translate(24.961875 77.130857)scale(0.1 -0.1)">
       <use xlink:href="#DejaVuSans-48"/>
       <use x="63.623047" xlink:href="#DejaVuSans-46"/>
       <use x="95.410156" xlink:href="#DejaVuSans-48"/>
       <use x="159.033203" xlink:href="#DejaVuSans-48"/>
       <use x="222.65625" xlink:href="#DejaVuSans-54"/>
      </g>
     </g>
    </g>
    <g id="ytick_4">
     <g id="line2d_8">
      <g>
       <use style="stroke:#000000;stroke-width:0.8;" x="60.59" xlink:href="#m58b0fb4afb" y="47.545969"/>
      </g>
     </g>
     <g id="text_9">
      <!-- 0.008 -->
      <g transform="translate(24.961875 51.345188)scale(0.1 -0.1)">
       <use xlink:href="#DejaVuSans-48"/>
       <use x="63.623047" xlink:href="#DejaVuSans-46"/>
       <use x="95.410156" xlink:href="#DejaVuSans-48"/>
       <use x="159.033203" xlink:href="#DejaVuSans-48"/>
       <use x="222.65625" xlink:href="#DejaVuSans-56"/>
      </g>
     </g>
    </g>
    <g id="text_10">
     <!-- pixel freq -->
     <defs>
      <path d="M 18.109375 8.203125 
L 18.109375 -20.796875 
L 9.078125 -20.796875 
L 9.078125 54.6875 
L 18.109375 54.6875 
L 18.109375 46.390625 
Q 20.953125 51.265625 25.265625 53.625 
Q 29.59375 56 35.59375 56 
Q 45.5625 56 51.78125 48.09375 
Q 58.015625 40.1875 58.015625 27.296875 
Q 58.015625 14.40625 51.78125 6.484375 
Q 45.5625 -1.421875 35.59375 -1.421875 
Q 29.59375 -1.421875 25.265625 0.953125 
Q 20.953125 3.328125 18.109375 8.203125 
z
M 48.6875 27.296875 
Q 48.6875 37.203125 44.609375 42.84375 
Q 40.53125 48.484375 33.40625 48.484375 
Q 26.265625 48.484375 22.1875 42.84375 
Q 18.109375 37.203125 18.109375 27.296875 
Q 18.109375 17.390625 22.1875 11.75 
Q 26.265625 6.109375 33.40625 6.109375 
Q 40.53125 6.109375 44.609375 11.75 
Q 48.6875 17.390625 48.6875 27.296875 
z
" id="DejaVuSans-112"/>
      <path d="M 9.421875 54.6875 
L 18.40625 54.6875 
L 18.40625 0 
L 9.421875 0 
z
M 9.421875 75.984375 
L 18.40625 75.984375 
L 18.40625 64.59375 
L 9.421875 64.59375 
z
" id="DejaVuSans-105"/>
      <path d="M 54.890625 54.6875 
L 35.109375 28.078125 
L 55.90625 0 
L 45.3125 0 
L 29.390625 21.484375 
L 13.484375 0 
L 2.875 0 
L 24.125 28.609375 
L 4.6875 54.6875 
L 15.28125 54.6875 
L 29.78125 35.203125 
L 44.28125 54.6875 
z
" id="DejaVuSans-120"/>
      <path d="M 37.109375 75.984375 
L 37.109375 68.5 
L 28.515625 68.5 
Q 23.6875 68.5 21.796875 66.546875 
Q 19.921875 64.59375 19.921875 59.515625 
L 19.921875 54.6875 
L 34.71875 54.6875 
L 34.71875 47.703125 
L 19.921875 47.703125 
L 19.921875 0 
L 10.890625 0 
L 10.890625 47.703125 
L 2.296875 47.703125 
L 2.296875 54.6875 
L 10.890625 54.6875 
L 10.890625 58.5 
Q 10.890625 67.625 15.140625 71.796875 
Q 19.390625 75.984375 28.609375 75.984375 
z
" id="DejaVuSans-102"/>
      <path d="M 14.796875 27.296875 
Q 14.796875 17.390625 18.875 11.75 
Q 22.953125 6.109375 30.078125 6.109375 
Q 37.203125 6.109375 41.296875 11.75 
Q 45.40625 17.390625 45.40625 27.296875 
Q 45.40625 37.203125 41.296875 42.84375 
Q 37.203125 48.484375 30.078125 48.484375 
Q 22.953125 48.484375 18.875 42.84375 
Q 14.796875 37.203125 14.796875 27.296875 
z
M 45.40625 8.203125 
Q 42.578125 3.328125 38.25 0.953125 
Q 33.9375 -1.421875 27.875 -1.421875 
Q 17.96875 -1.421875 11.734375 6.484375 
Q 5.515625 14.40625 5.515625 27.296875 
Q 5.515625 40.1875 11.734375 48.09375 
Q 17.96875 56 27.875 56 
Q 33.9375 56 38.25 53.625 
Q 42.578125 51.265625 45.40625 46.390625 
L 45.40625 54.6875 
L 54.390625 54.6875 
L 54.390625 -20.796875 
L 45.40625 -20.796875 
z
" id="DejaVuSans-113"/>
     </defs>
     <g transform="translate(18.882188 104.215)rotate(-90)scale(0.1 -0.1)">
      <use xlink:href="#DejaVuSans-112"/>
      <use x="63.476562" xlink:href="#DejaVuSans-105"/>
      <use x="91.259766" xlink:href="#DejaVuSans-120"/>
      <use x="147.314453" xlink:href="#DejaVuSans-101"/>
      <use x="208.837891" xlink:href="#DejaVuSans-108"/>
      <use x="236.621094" xlink:href="#DejaVuSans-32"/>
      <use x="268.408203" xlink:href="#DejaVuSans-102"/>
      <use x="303.613281" xlink:href="#DejaVuSans-114"/>
      <use x="342.476562" xlink:href="#DejaVuSans-101"/>
      <use x="404" xlink:href="#DejaVuSans-113"/>
     </g>
    </g>
   </g>
   <g id="line2d_9">
    <path clip-path="url(#p03f577cae4)" d="M 60.59 96.681958 
L 61.222216 122.23015 
L 61.854431 116.800651 
L 62.486647 115.176611 
L 63.118863 111.836322 
L 63.751078 113.756978 
L 64.383294 112.000686 
L 65.01551 116.141686 
L 65.647725 116.996738 
L 66.279941 120.700382 
L 66.912157 121.051674 
L 67.544373 121.574703 
L 68.176588 117.380869 
L 68.808804 117.170485 
L 69.44102 106.752586 
L 70.073235 109.4658 
L 70.705451 97.686575 
L 71.337667 100.761468 
L 71.969882 79.469605 
L 72.602098 93.899213 
L 73.234314 78.173567 
L 73.866529 95.915762 
L 74.498745 88.323501 
L 75.130961 104.189496 
L 75.763176 106.258488 
L 76.395392 112.247484 
L 77.659824 110.360505 
L 78.292039 102.945286 
L 78.924255 102.521893 
L 79.556471 91.775656 
L 80.188686 97.750801 
L 80.820902 88.03409 
L 81.453118 99.287829 
L 82.085333 95.24881 
L 82.717549 101.727325 
L 83.349765 96.663919 
L 83.98198 106.434022 
L 85.246412 109.967047 
L 85.878627 102.503742 
L 86.510843 104.49393 
L 87.143059 90.209028 
L 87.775275 98.599152 
L 88.40749 87.128885 
L 89.039706 95.561566 
L 89.671922 79.831564 
L 90.304137 94.621735 
L 90.936353 81.981761 
L 91.568569 96.110564 
L 92.200784 90.491402 
L 92.833 103.483617 
L 93.465216 106.149414 
L 94.097431 105.673578 
L 94.729647 93.773105 
L 95.361863 100.82899 
L 95.994078 91.626762 
L 96.626294 99.797509 
L 97.25851 92.273105 
L 97.890725 99.220475 
L 98.522941 93.241923 
L 99.155157 99.335524 
L 99.787373 94.969117 
L 100.419588 99.285037 
L 101.051804 95.432554 
L 101.68402 102.401426 
L 102.316235 103.29116 
L 102.948451 106.124114 
L 103.580667 103.260834 
L 104.212882 104.589153 
L 104.845098 99.749088 
L 105.477314 100.156844 
L 106.109529 94.75661 
L 106.741745 94.992071 
L 107.373961 88.402584 
L 108.006176 90.993599 
L 108.638392 84.758866 
L 109.270608 89.168333 
L 109.902824 85.623245 
L 110.535039 94.28636 
L 111.167255 97.295797 
L 111.799471 99.033268 
L 112.431686 94.409842 
L 113.063902 96.403438 
L 113.696118 88.434585 
L 114.328333 91.710759 
L 114.960549 82.85139 
L 115.592765 90.464929 
L 116.22498 84.094483 
L 116.857196 93.170435 
L 117.489412 91.57834 
L 118.121627 96.408464 
L 118.753843 95.104496 
L 119.386059 100.309256 
L 120.018275 100.670434 
L 120.65049 105.67436 
L 121.282706 106.862218 
L 121.914922 105.480452 
L 122.547137 96.682852 
L 123.179353 101.070203 
L 123.811569 96.880446 
L 124.443784 100.661554 
L 125.076 100.302666 
L 125.708216 100.738514 
L 126.340431 99.931939 
L 126.972647 100.598165 
L 127.604863 99.728256 
L 128.237078 101.194244 
L 128.869294 97.32389 
L 129.50151 105.003611 
L 130.133725 106.548178 
L 130.765941 105.297434 
L 131.398157 99.091463 
L 132.030373 101.56553 
L 132.662588 95.46383 
L 133.294804 99.256889 
L 133.92702 93.064769 
L 134.559235 98.009719 
L 135.191451 94.198285 
L 135.823667 98.967869 
L 136.455882 96.154853 
L 137.088098 101.872031 
L 137.720314 100.424027 
L 138.352529 105.969244 
L 138.984745 106.948896 
L 139.616961 105.972204 
L 140.249176 99.620914 
L 140.881392 102.33692 
L 141.513608 95.609652 
L 142.145824 99.955619 
L 142.778039 93.090348 
L 143.410255 98.803895 
L 144.042471 94.311771 
L 144.674686 99.40031 
L 145.306902 96.422091 
L 145.939118 102.67559 
L 146.571333 103.037772 
L 147.203549 106.514557 
L 147.835765 107.045125 
L 148.46798 106.380463 
L 149.732412 101.989705 
L 150.364627 98.765918 
L 150.996843 97.003091 
L 151.629059 92.78502 
L 152.261275 93.313074 
L 152.89349 88.776662 
L 153.525706 91.71411 
L 154.157922 87.170549 
L 154.790137 93.928924 
L 155.422353 93.573444 
L 156.054569 99.448787 
L 156.686784 100.152264 
L 157.319 98.224515 
L 157.951216 90.404333 
L 158.583431 87.989913 
L 159.215647 63.529442 
L 159.847863 80.558051 
L 160.480078 66.067345 
L 161.112294 80.487346 
L 161.74451 69.5491 
L 162.376725 83.63892 
L 163.008941 79.614366 
L 163.641157 89.164758 
L 164.273373 86.768937 
L 164.905588 97.509979 
L 165.537804 99.728536 
L 166.17002 99.02383 
L 166.802235 91.604813 
L 167.434451 92.463719 
L 168.066667 84.623878 
L 168.698882 88.389403 
L 169.331098 83.101036 
L 169.963314 87.255216 
L 170.595529 81.81896 
L 171.227745 88.137914 
L 171.859961 84.649736 
L 172.492176 90.860454 
L 173.124392 89.085955 
L 173.756608 96.343288 
L 174.388824 98.459529 
L 175.021039 104.257967 
L 175.653255 104.904311 
L 176.285471 105.109277 
L 176.917686 99.582602 
L 177.549902 99.610805 
L 178.182118 93.171943 
L 178.814333 96.142733 
L 179.446549 89.951786 
L 180.078765 96.877263 
L 180.71098 93.221091 
L 181.343196 100.196497 
L 181.975412 98.533752 
L 182.607627 105.439347 
L 183.239843 106.728348 
L 183.872059 110.753237 
L 184.504275 110.382509 
L 185.13649 110.373797 
L 185.768706 105.468221 
L 186.400922 105.163116 
L 187.033137 96.084148 
L 187.665353 100.850547 
L 188.297569 94.933206 
L 188.929784 102.842467 
L 189.562 100.116409 
L 190.194216 104.066404 
L 190.826431 94.855575 
L 191.458647 105.181044 
L 192.090863 103.810335 
L 192.723078 109.971626 
L 193.355294 94.964426 
L 193.98751 106.692437 
L 194.619725 94.862277 
L 195.251941 107.765636 
L 195.884157 100.81162 
L 196.516373 106.705114 
L 197.148588 99.995663 
L 197.780804 106.90768 
L 198.41302 102.246444 
L 199.045235 108.756179 
L 199.677451 107.530455 
L 200.309667 112.400902 
L 200.941882 113.489069 
L 201.574098 116.187929 
L 202.206314 113.929943 
L 202.838529 114.841124 
L 203.470745 103.841555 
L 204.102961 110.202675 
L 204.735176 97.687859 
L 205.367392 107.49231 
L 205.999608 91.767334 
L 206.631824 108.116872 
L 207.264039 103.363262 
L 207.896255 111.102183 
L 208.528471 109.180968 
L 209.160686 114.614432 
L 209.792902 115.950011 
L 210.425118 118.008057 
L 211.057333 116.913523 
L 211.689549 116.772503 
L 212.321765 110.397533 
L 212.95398 113.696828 
L 213.586196 109.407828 
L 214.218412 112.349465 
L 214.850627 110.370837 
L 215.482843 112.660433 
L 216.115059 111.953717 
L 216.747275 113.746311 
L 217.37949 113.720173 
L 218.011706 116.347044 
L 218.643922 117.616665 
L 219.276137 120.392597 
L 220.540569 123.324069 
L 221.172784 125.897938 
L 221.805 107.787082 
L 221.805 107.787082 
" style="fill:none;stroke:#0000ff;stroke-linecap:square;stroke-width:1.5;"/>
   </g>
   <g id="line2d_10">
    <path clip-path="url(#p03f577cae4)" d="M 60.59 83.521094 
L 61.222216 125.172182 
L 61.854431 121.252537 
L 62.486647 120.345156 
L 63.118863 117.711387 
L 63.751078 119.060363 
L 64.383294 116.51632 
L 65.01551 118.877285 
L 65.647725 116.143454 
L 66.279941 119.273152 
L 66.912157 118.017095 
L 67.544373 119.821466 
L 68.176588 116.617194 
L 68.808804 114.442392 
L 69.44102 102.984079 
L 70.073235 99.295027 
L 70.705451 79.306133 
L 71.337667 78.112257 
L 71.969882 30.476364 
L 72.602098 64.045447 
L 73.234314 43.716427 
L 73.866529 68.903914 
L 74.498745 59.570561 
L 75.130961 83.602216 
L 75.763176 87.92 
L 76.395392 101.282314 
L 77.027608 102.286835 
L 77.659824 100.495289 
L 78.292039 89.234503 
L 78.924255 90.663951 
L 79.556471 81.064072 
L 80.188686 87.734216 
L 80.820902 80.228721 
L 81.453118 90.877443 
L 82.085333 88.470695 
L 82.717549 95.107774 
L 83.349765 93.978783 
L 83.98198 101.987567 
L 85.246412 107.352137 
L 85.878627 103.785228 
L 86.510843 103.232368 
L 87.143059 94.545173 
L 87.775275 95.023838 
L 88.40749 86.252274 
L 89.039706 88.402074 
L 89.671922 71.068975 
L 90.304137 85.595347 
L 90.936353 76.620195 
L 91.568569 89.661 
L 92.200784 87.095039 
L 92.833 98.854514 
L 94.097431 105.308082 
L 94.729647 101.541805 
L 95.361863 103.485636 
L 95.994078 98.016457 
L 96.626294 98.855542 
L 97.25851 93.578588 
L 97.890725 94.342288 
L 98.522941 87.780161 
L 99.155157 92.571632 
L 99.787373 89.016898 
L 100.419588 93.678704 
L 101.051804 92.250934 
L 101.68402 98.23325 
L 102.316235 100.164039 
L 102.948451 103.060005 
L 103.580667 100.900951 
L 104.212882 100.169883 
L 104.845098 93.203719 
L 105.477314 92.699456 
L 106.109529 83.74541 
L 106.741745 85.887579 
L 107.373961 72.154997 
L 108.006176 84.230894 
L 108.638392 78.929154 
L 109.270608 86.673197 
L 109.902824 84.31142 
L 110.535039 92.999589 
L 111.167255 96.002329 
L 111.799471 98.265179 
L 112.431686 94.219875 
L 113.063902 95.586926 
L 113.696118 88.502624 
L 114.328333 90.226415 
L 114.960549 84.077851 
L 115.592765 86.886364 
L 116.22498 81.860025 
L 116.857196 86.546509 
L 117.489412 83.488516 
L 118.121627 88.152432 
L 118.753843 85.91848 
L 119.386059 90.801896 
L 120.018275 86.663564 
L 120.65049 98.205975 
L 121.282706 100.526569 
L 121.914922 98.095306 
L 122.547137 86.145339 
L 123.179353 92.655459 
L 123.811569 88.127701 
L 124.443784 91.843162 
L 125.076 87.741684 
L 125.708216 90.120183 
L 126.340431 85.06408 
L 126.972647 88.767473 
L 127.604863 79.67099 
L 128.237078 91.430844 
L 128.869294 87.660995 
L 129.50151 100.543995 
L 130.133725 103.145835 
L 130.765941 101.892159 
L 131.398157 94.125928 
L 132.030373 97.131156 
L 132.662588 88.80752 
L 133.294804 93.987063 
L 133.92702 84.533787 
L 134.559235 92.69951 
L 135.191451 87.704181 
L 135.823667 94.170304 
L 136.455882 91.522897 
L 137.088098 98.151317 
L 137.720314 97.979982 
L 138.352529 103.995256 
L 138.984745 105.3024 
L 139.616961 104.472569 
L 140.249176 99.450614 
L 140.881392 100.008344 
L 141.513608 94.365179 
L 142.145824 96.541876 
L 142.778039 89.773293 
L 143.410255 94.690206 
L 144.042471 90.15471 
L 144.674686 95.906758 
L 145.306902 93.150359 
L 145.939118 100.401559 
L 146.571333 100.560717 
L 147.203549 105.755413 
L 147.835765 106.780661 
L 148.46798 105.823276 
L 149.100196 100.930553 
L 149.732412 100.846347 
L 150.364627 95.258219 
L 150.996843 96.470928 
L 151.629059 89.093528 
L 152.261275 92.204989 
L 152.89349 69.814921 
L 153.525706 86.722173 
L 154.157922 64.30299 
L 154.790137 87.729075 
L 155.422353 77.182363 
L 156.054569 98.611366 
L 156.686784 102.203657 
L 157.319 99.769525 
L 157.951216 85.822098 
L 158.583431 95.182509 
L 159.215647 88.113793 
L 159.847863 95.930353 
L 160.480078 92.282592 
L 161.112294 96.503507 
L 161.74451 94.0743 
L 162.376725 97.627247 
L 163.008941 96.834865 
L 163.641157 101.816503 
L 164.273373 103.820945 
L 164.905588 107.576453 
L 165.537804 108.935061 
L 166.17002 108.11903 
L 166.802235 105.39126 
L 167.434451 103.559397 
L 168.066667 100.015812 
L 168.698882 99.958123 
L 169.331098 97.301896 
L 169.963314 98.088325 
L 170.595529 95.488054 
L 171.227745 98.086755 
L 171.859961 96.729012 
L 172.492176 100.209335 
L 173.124392 100.355126 
L 173.756608 105.223659 
L 175.021039 110.873697 
L 175.653255 110.810055 
L 176.285471 110.587147 
L 176.917686 106.869738 
L 177.549902 106.765833 
L 178.182118 102.722369 
L 178.814333 103.844594 
L 179.446549 99.124829 
L 180.078765 103.519567 
L 180.71098 100.845805 
L 181.343196 105.974696 
L 181.975412 105.886052 
L 182.607627 110.837601 
L 183.239843 112.797721 
L 183.872059 115.541943 
L 184.504275 115.564996 
L 185.13649 115.393337 
L 185.768706 112.610638 
L 186.400922 112.151725 
L 187.033137 109.489599 
L 187.665353 109.611038 
L 188.297569 107.250127 
L 188.929784 109.27286 
L 189.562 108.301675 
L 190.194216 110.468576 
L 190.826431 108.835432 
L 191.458647 113.582797 
L 192.090863 114.716603 
L 192.723078 117.983488 
L 193.355294 115.420342 
L 193.98751 117.645365 
L 194.619725 114.45879 
L 195.251941 115.903607 
L 195.884157 113.86913 
L 196.516373 113.95496 
L 197.148588 112.515662 
L 197.780804 114.057133 
L 198.41302 113.820912 
L 199.045235 115.761983 
L 199.677451 116.31073 
L 200.309667 118.937626 
L 200.941882 120.40501 
L 201.574098 122.261442 
L 202.206314 122.002816 
L 202.838529 121.964988 
L 203.470745 117.159664 
L 204.102961 118.259106 
L 204.735176 111.40123 
L 205.367392 114.552737 
L 205.999608 106.214867 
L 206.631824 113.236826 
L 207.264039 110.534383 
L 207.896255 114.935561 
L 208.528471 114.354614 
L 209.160686 118.497925 
L 209.792902 119.934949 
L 210.425118 122.762836 
L 211.057333 123.027631 
L 211.689549 122.609739 
L 212.321765 119.033684 
L 212.95398 119.023618 
L 213.586196 115.796401 
L 214.218412 116.36712 
L 214.850627 113.932447 
L 215.482843 116.135931 
L 216.115059 115.068743 
L 216.747275 117.732547 
L 217.37949 117.148786 
L 218.011706 121.304544 
L 218.643922 122.964585 
L 219.276137 126.17838 
L 219.908353 127.462903 
L 220.540569 129.052267 
L 221.172784 131.203636 
L 221.805 116.653074 
L 221.805 116.653074 
" style="fill:none;stroke:#008000;stroke-linecap:square;stroke-width:1.5;"/>
   </g>
   <g id="patch_3">
    <path d="M 60.59 136.24 
L 60.59 25.44 
" style="fill:none;stroke:#000000;stroke-linecap:square;stroke-linejoin:miter;stroke-width:0.8;"/>
   </g>
   <g id="patch_4">
    <path d="M 221.805 136.24 
L 221.805 25.44 
" style="fill:none;stroke:#000000;stroke-linecap:square;stroke-linejoin:miter;stroke-width:0.8;"/>
   </g>
   <g id="patch_5">
    <path d="M 60.59 136.24 
L 221.805 136.24 
" style="fill:none;stroke:#000000;stroke-linecap:square;stroke-linejoin:miter;stroke-width:0.8;"/>
   </g>
   <g id="patch_6">
    <path d="M 60.59 25.44 
L 221.805 25.44 
" style="fill:none;stroke:#000000;stroke-linecap:square;stroke-linejoin:miter;stroke-width:0.8;"/>
   </g>
   <g id="text_11">
    <!-- DFDC-cA/ -->
    <defs>
     <path d="M 19.671875 64.796875 
L 19.671875 8.109375 
L 31.59375 8.109375 
Q 46.6875 8.109375 53.6875 14.9375 
Q 60.6875 21.78125 60.6875 36.53125 
Q 60.6875 51.171875 53.6875 57.984375 
Q 46.6875 64.796875 31.59375 64.796875 
z
M 9.8125 72.90625 
L 30.078125 72.90625 
Q 51.265625 72.90625 61.171875 64.09375 
Q 71.09375 55.28125 71.09375 36.53125 
Q 71.09375 17.671875 61.125 8.828125 
Q 51.171875 0 30.078125 0 
L 9.8125 0 
z
" id="DejaVuSans-68"/>
     <path d="M 9.8125 72.90625 
L 51.703125 72.90625 
L 51.703125 64.59375 
L 19.671875 64.59375 
L 19.671875 43.109375 
L 48.578125 43.109375 
L 48.578125 34.8125 
L 19.671875 34.8125 
L 19.671875 0 
L 9.8125 0 
z
" id="DejaVuSans-70"/>
     <path d="M 64.40625 67.28125 
L 64.40625 56.890625 
Q 59.421875 61.53125 53.78125 63.8125 
Q 48.140625 66.109375 41.796875 66.109375 
Q 29.296875 66.109375 22.65625 58.46875 
Q 16.015625 50.828125 16.015625 36.375 
Q 16.015625 21.96875 22.65625 14.328125 
Q 29.296875 6.6875 41.796875 6.6875 
Q 48.140625 6.6875 53.78125 8.984375 
Q 59.421875 11.28125 64.40625 15.921875 
L 64.40625 5.609375 
Q 59.234375 2.09375 53.4375 0.328125 
Q 47.65625 -1.421875 41.21875 -1.421875 
Q 24.65625 -1.421875 15.125 8.703125 
Q 5.609375 18.84375 5.609375 36.375 
Q 5.609375 53.953125 15.125 64.078125 
Q 24.65625 74.21875 41.21875 74.21875 
Q 47.75 74.21875 53.53125 72.484375 
Q 59.328125 70.75 64.40625 67.28125 
z
" id="DejaVuSans-67"/>
     <path d="M 4.890625 31.390625 
L 31.203125 31.390625 
L 31.203125 23.390625 
L 4.890625 23.390625 
z
" id="DejaVuSans-45"/>
     <path d="M 48.78125 52.59375 
L 48.78125 44.1875 
Q 44.96875 46.296875 41.140625 47.34375 
Q 37.3125 48.390625 33.40625 48.390625 
Q 24.65625 48.390625 19.8125 42.84375 
Q 14.984375 37.3125 14.984375 27.296875 
Q 14.984375 17.28125 19.8125 11.734375 
Q 24.65625 6.203125 33.40625 6.203125 
Q 37.3125 6.203125 41.140625 7.25 
Q 44.96875 8.296875 48.78125 10.40625 
L 48.78125 2.09375 
Q 45.015625 0.34375 40.984375 -0.53125 
Q 36.96875 -1.421875 32.421875 -1.421875 
Q 20.0625 -1.421875 12.78125 6.34375 
Q 5.515625 14.109375 5.515625 27.296875 
Q 5.515625 40.671875 12.859375 48.328125 
Q 20.21875 56 33.015625 56 
Q 37.15625 56 41.109375 55.140625 
Q 45.0625 54.296875 48.78125 52.59375 
z
" id="DejaVuSans-99"/>
     <path d="M 34.1875 63.1875 
L 20.796875 26.90625 
L 47.609375 26.90625 
z
M 28.609375 72.90625 
L 39.796875 72.90625 
L 67.578125 0 
L 57.328125 0 
L 50.6875 18.703125 
L 17.828125 18.703125 
L 11.1875 0 
L 0.78125 0 
z
" id="DejaVuSans-65"/>
     <path d="M 25.390625 72.90625 
L 33.6875 72.90625 
L 8.296875 -9.28125 
L 0 -9.28125 
z
" id="DejaVuSans-47"/>
    </defs>
    <g transform="translate(112.7275 19.44)scale(0.12 -0.12)">
     <use xlink:href="#DejaVuSans-68"/>
     <use x="77.001953" xlink:href="#DejaVuSans-70"/>
     <use x="134.521484" xlink:href="#DejaVuSans-68"/>
     <use x="211.523438" xlink:href="#DejaVuSans-67"/>
     <use x="281.347656" xlink:href="#DejaVuSans-45"/>
     <use x="317.431641" xlink:href="#DejaVuSans-99"/>
     <use x="372.412109" xlink:href="#DejaVuSans-65"/>
     <use x="440.820312" xlink:href="#DejaVuSans-47"/>
    </g>
   </g>
   <g id="legend_1">
    <g id="patch_7">
     <path d="M 161.575312 62.79625 
L 214.805 62.79625 
Q 216.805 62.79625 216.805 60.79625 
L 216.805 32.44 
Q 216.805 30.44 214.805 30.44 
L 161.575312 30.44 
Q 159.575312 30.44 159.575312 32.44 
L 159.575312 60.79625 
Q 159.575312 62.79625 161.575312 62.79625 
z
" style="fill:#ffffff;opacity:0.8;stroke:#cccccc;stroke-linejoin:miter;"/>
    </g>
    <g id="line2d_11">
     <path d="M 163.575312 38.538437 
L 183.575312 38.538437 
" style="fill:none;stroke:#0000ff;stroke-linecap:square;stroke-width:1.5;"/>
    </g>
    <g id="line2d_12"/>
    <g id="text_12">
     <!-- real -->
     <g transform="translate(191.575312 42.038437)scale(0.1 -0.1)">
      <use xlink:href="#DejaVuSans-114"/>
      <use x="38.863281" xlink:href="#DejaVuSans-101"/>
      <use x="100.386719" xlink:href="#DejaVuSans-97"/>
      <use x="161.666016" xlink:href="#DejaVuSans-108"/>
     </g>
    </g>
    <g id="line2d_13">
     <path d="M 163.575312 53.216563 
L 183.575312 53.216563 
" style="fill:none;stroke:#008000;stroke-linecap:square;stroke-width:1.5;"/>
    </g>
    <g id="line2d_14"/>
    <g id="text_13">
     <!-- fake -->
     <defs>
      <path d="M 9.078125 75.984375 
L 18.109375 75.984375 
L 18.109375 31.109375 
L 44.921875 54.6875 
L 56.390625 54.6875 
L 27.390625 29.109375 
L 57.625 0 
L 45.90625 0 
L 18.109375 26.703125 
L 18.109375 0 
L 9.078125 0 
z
" id="DejaVuSans-107"/>
     </defs>
     <g transform="translate(191.575312 56.716563)scale(0.1 -0.1)">
      <use xlink:href="#DejaVuSans-102"/>
      <use x="35.205078" xlink:href="#DejaVuSans-97"/>
      <use x="96.484375" xlink:href="#DejaVuSans-107"/>
      <use x="150.769531" xlink:href="#DejaVuSans-101"/>
     </g>
    </g>
   </g>
  </g>
  <g id="axes_2">
   <g id="patch_8">
    <path d="M 279.2 136.24 
L 440.415 136.24 
L 440.415 25.44 
L 279.2 25.44 
z
" style="fill:#ffffff;"/>
   </g>
   <g id="matplotlib.axis_3">
    <g id="xtick_5">
     <g id="line2d_15">
      <g>
       <use style="stroke:#000000;stroke-width:0.8;" x="279.2" xlink:href="#md638742c23" y="136.24"/>
      </g>
     </g>
     <g id="text_14">
      <!-- 0 -->
      <g transform="translate(276.01875 150.838437)scale(0.1 -0.1)">
       <use xlink:href="#DejaVuSans-48"/>
      </g>
     </g>
    </g>
    <g id="xtick_6">
     <g id="line2d_16">
      <g>
       <use style="stroke:#000000;stroke-width:0.8;" x="332.938333" xlink:href="#md638742c23" y="136.24"/>
      </g>
     </g>
     <g id="text_15">
      <!-- 85 -->
      <g transform="translate(326.575833 150.838437)scale(0.1 -0.1)">
       <use xlink:href="#DejaVuSans-56"/>
       <use x="63.623047" xlink:href="#DejaVuSans-53"/>
      </g>
     </g>
    </g>
    <g id="xtick_7">
     <g id="line2d_17">
      <g>
       <use style="stroke:#000000;stroke-width:0.8;" x="386.676667" xlink:href="#md638742c23" y="136.24"/>
      </g>
     </g>
     <g id="text_16">
      <!-- 170 -->
      <g transform="translate(377.132917 150.838437)scale(0.1 -0.1)">
       <use xlink:href="#DejaVuSans-49"/>
       <use x="63.623047" xlink:href="#DejaVuSans-55"/>
       <use x="127.246094" xlink:href="#DejaVuSans-48"/>
      </g>
     </g>
    </g>
    <g id="xtick_8">
     <g id="line2d_18">
      <g>
       <use style="stroke:#000000;stroke-width:0.8;" x="440.415" xlink:href="#md638742c23" y="136.24"/>
      </g>
     </g>
     <g id="text_17">
      <!-- 255 -->
      <g transform="translate(430.87125 150.838437)scale(0.1 -0.1)">
       <use xlink:href="#DejaVuSans-50"/>
       <use x="63.623047" xlink:href="#DejaVuSans-53"/>
       <use x="127.246094" xlink:href="#DejaVuSans-53"/>
      </g>
     </g>
    </g>
    <g id="text_18">
     <!-- gray value -->
     <g transform="translate(333.3075 164.516562)scale(0.1 -0.1)">
      <use xlink:href="#DejaVuSans-103"/>
      <use x="63.476562" xlink:href="#DejaVuSans-114"/>
      <use x="104.589844" xlink:href="#DejaVuSans-97"/>
      <use x="165.869141" xlink:href="#DejaVuSans-121"/>
      <use x="225.048828" xlink:href="#DejaVuSans-32"/>
      <use x="256.835938" xlink:href="#DejaVuSans-118"/>
      <use x="316.015625" xlink:href="#DejaVuSans-97"/>
      <use x="377.294922" xlink:href="#DejaVuSans-108"/>
      <use x="405.078125" xlink:href="#DejaVuSans-117"/>
      <use x="468.457031" xlink:href="#DejaVuSans-101"/>
     </g>
    </g>
   </g>
   <g id="matplotlib.axis_4">
    <g id="ytick_5">
     <g id="line2d_19">
      <g>
       <use style="stroke:#000000;stroke-width:0.8;" x="279.2" xlink:href="#m58b0fb4afb" y="131.203636"/>
      </g>
     </g>
     <g id="text_19">
      <!-- 0.0 -->
      <g transform="translate(256.296875 135.002855)scale(0.1 -0.1)">
       <use xlink:href="#DejaVuSans-48"/>
       <use x="63.623047" xlink:href="#DejaVuSans-46"/>
       <use x="95.410156" xlink:href="#DejaVuSans-48"/>
      </g>
     </g>
    </g>
    <g id="ytick_6">
     <g id="line2d_20">
      <g>
       <use style="stroke:#000000;stroke-width:0.8;" x="279.2" xlink:href="#m58b0fb4afb" y="87.218373"/>
      </g>
     </g>
     <g id="text_20">
      <!-- 0.2 -->
      <g transform="translate(256.296875 91.017592)scale(0.1 -0.1)">
       <use xlink:href="#DejaVuSans-48"/>
       <use x="63.623047" xlink:href="#DejaVuSans-46"/>
       <use x="95.410156" xlink:href="#DejaVuSans-50"/>
      </g>
     </g>
    </g>
    <g id="ytick_7">
     <g id="line2d_21">
      <g>
       <use style="stroke:#000000;stroke-width:0.8;" x="279.2" xlink:href="#m58b0fb4afb" y="43.23311"/>
      </g>
     </g>
     <g id="text_21">
      <!-- 0.4 -->
      <g transform="translate(256.296875 47.032329)scale(0.1 -0.1)">
       <use xlink:href="#DejaVuSans-48"/>
       <use x="63.623047" xlink:href="#DejaVuSans-46"/>
       <use x="95.410156" xlink:href="#DejaVuSans-52"/>
      </g>
     </g>
    </g>
    <g id="text_22">
     <!-- pixel freq -->
     <g transform="translate(250.217187 104.215)rotate(-90)scale(0.1 -0.1)">
      <use xlink:href="#DejaVuSans-112"/>
      <use x="63.476562" xlink:href="#DejaVuSans-105"/>
      <use x="91.259766" xlink:href="#DejaVuSans-120"/>
      <use x="147.314453" xlink:href="#DejaVuSans-101"/>
      <use x="208.837891" xlink:href="#DejaVuSans-108"/>
      <use x="236.621094" xlink:href="#DejaVuSans-32"/>
      <use x="268.408203" xlink:href="#DejaVuSans-102"/>
      <use x="303.613281" xlink:href="#DejaVuSans-114"/>
      <use x="342.476562" xlink:href="#DejaVuSans-101"/>
      <use x="404" xlink:href="#DejaVuSans-113"/>
     </g>
    </g>
   </g>
   <g id="line2d_22">
    <path clip-path="url(#p413e017a7a)" d="M 279.2 33.280272 
L 279.832216 103.981149 
L 281.096647 120.098638 
L 281.728863 125.019308 
L 282.361078 127.745267 
L 282.993294 129.145181 
L 283.62551 129.839372 
L 284.257725 130.216657 
L 285.522157 130.598482 
L 287.418804 130.871006 
L 290.579882 131.061578 
L 296.902039 131.163699 
L 320.29402 131.202125 
L 425.874039 131.137058 
L 431.56398 130.963098 
L 434.092843 130.699892 
L 435.357275 130.426093 
L 435.98949 130.187415 
L 436.621706 129.811694 
L 437.253922 129.21311 
L 437.886137 128.294692 
L 439.782784 124.451549 
L 440.415 113.564549 
L 440.415 113.564549 
" style="fill:none;stroke:#0000ff;stroke-linecap:square;stroke-width:1.5;"/>
   </g>
   <g id="line2d_23">
    <path clip-path="url(#p413e017a7a)" d="M 279.2 30.476364 
L 279.832216 102.974512 
L 281.096647 119.967603 
L 281.728863 125.083249 
L 282.361078 127.896993 
L 282.993294 129.322705 
L 283.62551 129.999784 
L 284.257725 130.358641 
L 285.522157 130.707482 
L 287.418804 130.943624 
L 290.579882 131.097259 
L 298.166471 131.180043 
L 332.306118 131.203443 
L 429.035118 131.104528 
L 432.828412 130.928998 
L 434.725059 130.681155 
L 435.98949 130.309065 
L 436.621706 129.955653 
L 437.253922 129.384207 
L 437.886137 128.493041 
L 439.782784 124.676674 
L 440.415 113.969316 
L 440.415 113.969316 
" style="fill:none;stroke:#008000;stroke-linecap:square;stroke-width:1.5;"/>
   </g>
   <g id="patch_9">
    <path d="M 279.2 136.24 
L 279.2 25.44 
" style="fill:none;stroke:#000000;stroke-linecap:square;stroke-linejoin:miter;stroke-width:0.8;"/>
   </g>
   <g id="patch_10">
    <path d="M 440.415 136.24 
L 440.415 25.44 
" style="fill:none;stroke:#000000;stroke-linecap:square;stroke-linejoin:miter;stroke-width:0.8;"/>
   </g>
   <g id="patch_11">
    <path d="M 279.2 136.24 
L 440.415 136.24 
" style="fill:none;stroke:#000000;stroke-linecap:square;stroke-linejoin:miter;stroke-width:0.8;"/>
   </g>
   <g id="patch_12">
    <path d="M 279.2 25.44 
L 440.415 25.44 
" style="fill:none;stroke:#000000;stroke-linecap:square;stroke-linejoin:miter;stroke-width:0.8;"/>
   </g>
   <g id="text_23">
    <!-- DFDC-cH/ -->
    <defs>
     <path d="M 9.8125 72.90625 
L 19.671875 72.90625 
L 19.671875 43.015625 
L 55.515625 43.015625 
L 55.515625 72.90625 
L 65.375 72.90625 
L 65.375 0 
L 55.515625 0 
L 55.515625 34.71875 
L 19.671875 34.71875 
L 19.671875 0 
L 9.8125 0 
z
" id="DejaVuSans-72"/>
    </defs>
    <g transform="translate(330.929687 19.44)scale(0.12 -0.12)">
     <use xlink:href="#DejaVuSans-68"/>
     <use x="77.001953" xlink:href="#DejaVuSans-70"/>
     <use x="134.521484" xlink:href="#DejaVuSans-68"/>
     <use x="211.523438" xlink:href="#DejaVuSans-67"/>
     <use x="281.347656" xlink:href="#DejaVuSans-45"/>
     <use x="317.431641" xlink:href="#DejaVuSans-99"/>
     <use x="372.412109" xlink:href="#DejaVuSans-72"/>
     <use x="447.607422" xlink:href="#DejaVuSans-47"/>
    </g>
   </g>
   <g id="legend_2">
    <g id="patch_13">
     <path d="M 380.185312 62.79625 
L 433.415 62.79625 
Q 435.415 62.79625 435.415 60.79625 
L 435.415 32.44 
Q 435.415 30.44 433.415 30.44 
L 380.185312 30.44 
Q 378.185312 30.44 378.185312 32.44 
L 378.185312 60.79625 
Q 378.185312 62.79625 380.185312 62.79625 
z
" style="fill:#ffffff;opacity:0.8;stroke:#cccccc;stroke-linejoin:miter;"/>
    </g>
    <g id="line2d_24">
     <path d="M 382.185312 38.538437 
L 402.185312 38.538437 
" style="fill:none;stroke:#0000ff;stroke-linecap:square;stroke-width:1.5;"/>
    </g>
    <g id="line2d_25"/>
    <g id="text_24">
     <!-- real -->
     <g transform="translate(410.185312 42.038437)scale(0.1 -0.1)">
      <use xlink:href="#DejaVuSans-114"/>
      <use x="38.863281" xlink:href="#DejaVuSans-101"/>
      <use x="100.386719" xlink:href="#DejaVuSans-97"/>
      <use x="161.666016" xlink:href="#DejaVuSans-108"/>
     </g>
    </g>
    <g id="line2d_26">
     <path d="M 382.185312 53.216563 
L 402.185312 53.216563 
" style="fill:none;stroke:#008000;stroke-linecap:square;stroke-width:1.5;"/>
    </g>
    <g id="line2d_27"/>
    <g id="text_25">
     <!-- fake -->
     <g transform="translate(410.185312 56.716563)scale(0.1 -0.1)">
      <use xlink:href="#DejaVuSans-102"/>
      <use x="35.205078" xlink:href="#DejaVuSans-97"/>
      <use x="96.484375" xlink:href="#DejaVuSans-107"/>
      <use x="150.769531" xlink:href="#DejaVuSans-101"/>
     </g>
    </g>
   </g>
  </g>
  <g id="axes_3">
   <g id="patch_14">
    <path d="M 60.59 303.64 
L 221.805 303.64 
L 221.805 192.84 
L 60.59 192.84 
z
" style="fill:#ffffff;"/>
   </g>
   <g id="matplotlib.axis_5">
    <g id="xtick_9">
     <g id="line2d_28">
      <g>
       <use style="stroke:#000000;stroke-width:0.8;" x="60.59" xlink:href="#md638742c23" y="303.64"/>
      </g>
     </g>
     <g id="text_26">
      <!-- 0 -->
      <g transform="translate(57.40875 318.238437)scale(0.1 -0.1)">
       <use xlink:href="#DejaVuSans-48"/>
      </g>
     </g>
    </g>
    <g id="xtick_10">
     <g id="line2d_29">
      <g>
       <use style="stroke:#000000;stroke-width:0.8;" x="114.328333" xlink:href="#md638742c23" y="303.64"/>
      </g>
     </g>
     <g id="text_27">
      <!-- 85 -->
      <g transform="translate(107.965833 318.238437)scale(0.1 -0.1)">
       <use xlink:href="#DejaVuSans-56"/>
       <use x="63.623047" xlink:href="#DejaVuSans-53"/>
      </g>
     </g>
    </g>
    <g id="xtick_11">
     <g id="line2d_30">
      <g>
       <use style="stroke:#000000;stroke-width:0.8;" x="168.066667" xlink:href="#md638742c23" y="303.64"/>
      </g>
     </g>
     <g id="text_28">
      <!-- 170 -->
      <g transform="translate(158.522917 318.238437)scale(0.1 -0.1)">
       <use xlink:href="#DejaVuSans-49"/>
       <use x="63.623047" xlink:href="#DejaVuSans-55"/>
       <use x="127.246094" xlink:href="#DejaVuSans-48"/>
      </g>
     </g>
    </g>
    <g id="xtick_12">
     <g id="line2d_31">
      <g>
       <use style="stroke:#000000;stroke-width:0.8;" x="221.805" xlink:href="#md638742c23" y="303.64"/>
      </g>
     </g>
     <g id="text_29">
      <!-- 255 -->
      <g transform="translate(212.26125 318.238437)scale(0.1 -0.1)">
       <use xlink:href="#DejaVuSans-50"/>
       <use x="63.623047" xlink:href="#DejaVuSans-53"/>
       <use x="127.246094" xlink:href="#DejaVuSans-53"/>
      </g>
     </g>
    </g>
    <g id="text_30">
     <!-- gray value -->
     <g transform="translate(114.6975 331.916562)scale(0.1 -0.1)">
      <use xlink:href="#DejaVuSans-103"/>
      <use x="63.476562" xlink:href="#DejaVuSans-114"/>
      <use x="104.589844" xlink:href="#DejaVuSans-97"/>
      <use x="165.869141" xlink:href="#DejaVuSans-121"/>
      <use x="225.048828" xlink:href="#DejaVuSans-32"/>
      <use x="256.835938" xlink:href="#DejaVuSans-118"/>
      <use x="316.015625" xlink:href="#DejaVuSans-97"/>
      <use x="377.294922" xlink:href="#DejaVuSans-108"/>
      <use x="405.078125" xlink:href="#DejaVuSans-117"/>
      <use x="468.457031" xlink:href="#DejaVuSans-101"/>
     </g>
    </g>
   </g>
   <g id="matplotlib.axis_6">
    <g id="ytick_8">
     <g id="line2d_32">
      <g>
       <use style="stroke:#000000;stroke-width:0.8;" x="60.59" xlink:href="#m58b0fb4afb" y="298.603636"/>
      </g>
     </g>
     <g id="text_31">
      <!-- 0.0 -->
      <g transform="translate(37.686875 302.402855)scale(0.1 -0.1)">
       <use xlink:href="#DejaVuSans-48"/>
       <use x="63.623047" xlink:href="#DejaVuSans-46"/>
       <use x="95.410156" xlink:href="#DejaVuSans-48"/>
      </g>
     </g>
    </g>
    <g id="ytick_9">
     <g id="line2d_33">
      <g>
       <use style="stroke:#000000;stroke-width:0.8;" x="60.59" xlink:href="#m58b0fb4afb" y="274.185782"/>
      </g>
     </g>
     <g id="text_32">
      <!-- 0.1 -->
      <g transform="translate(37.686875 277.985001)scale(0.1 -0.1)">
       <use xlink:href="#DejaVuSans-48"/>
       <use x="63.623047" xlink:href="#DejaVuSans-46"/>
       <use x="95.410156" xlink:href="#DejaVuSans-49"/>
      </g>
     </g>
    </g>
    <g id="ytick_10">
     <g id="line2d_34">
      <g>
       <use style="stroke:#000000;stroke-width:0.8;" x="60.59" xlink:href="#m58b0fb4afb" y="249.767927"/>
      </g>
     </g>
     <g id="text_33">
      <!-- 0.2 -->
      <g transform="translate(37.686875 253.567146)scale(0.1 -0.1)">
       <use xlink:href="#DejaVuSans-48"/>
       <use x="63.623047" xlink:href="#DejaVuSans-46"/>
       <use x="95.410156" xlink:href="#DejaVuSans-50"/>
      </g>
     </g>
    </g>
    <g id="ytick_11">
     <g id="line2d_35">
      <g>
       <use style="stroke:#000000;stroke-width:0.8;" x="60.59" xlink:href="#m58b0fb4afb" y="225.350073"/>
      </g>
     </g>
     <g id="text_34">
      <!-- 0.3 -->
      <defs>
       <path d="M 40.578125 39.3125 
Q 47.65625 37.796875 51.625 33 
Q 55.609375 28.21875 55.609375 21.1875 
Q 55.609375 10.40625 48.1875 4.484375 
Q 40.765625 -1.421875 27.09375 -1.421875 
Q 22.515625 -1.421875 17.65625 -0.515625 
Q 12.796875 0.390625 7.625 2.203125 
L 7.625 11.71875 
Q 11.71875 9.328125 16.59375 8.109375 
Q 21.484375 6.890625 26.8125 6.890625 
Q 36.078125 6.890625 40.9375 10.546875 
Q 45.796875 14.203125 45.796875 21.1875 
Q 45.796875 27.640625 41.28125 31.265625 
Q 36.765625 34.90625 28.71875 34.90625 
L 20.21875 34.90625 
L 20.21875 43.015625 
L 29.109375 43.015625 
Q 36.375 43.015625 40.234375 45.921875 
Q 44.09375 48.828125 44.09375 54.296875 
Q 44.09375 59.90625 40.109375 62.90625 
Q 36.140625 65.921875 28.71875 65.921875 
Q 24.65625 65.921875 20.015625 65.03125 
Q 15.375 64.15625 9.8125 62.3125 
L 9.8125 71.09375 
Q 15.4375 72.65625 20.34375 73.4375 
Q 25.25 74.21875 29.59375 74.21875 
Q 40.828125 74.21875 47.359375 69.109375 
Q 53.90625 64.015625 53.90625 55.328125 
Q 53.90625 49.265625 50.4375 45.09375 
Q 46.96875 40.921875 40.578125 39.3125 
z
" id="DejaVuSans-51"/>
      </defs>
      <g transform="translate(37.686875 229.149291)scale(0.1 -0.1)">
       <use xlink:href="#DejaVuSans-48"/>
       <use x="63.623047" xlink:href="#DejaVuSans-46"/>
       <use x="95.410156" xlink:href="#DejaVuSans-51"/>
      </g>
     </g>
    </g>
    <g id="ytick_12">
     <g id="line2d_36">
      <g>
       <use style="stroke:#000000;stroke-width:0.8;" x="60.59" xlink:href="#m58b0fb4afb" y="200.932218"/>
      </g>
     </g>
     <g id="text_35">
      <!-- 0.4 -->
      <g transform="translate(37.686875 204.731437)scale(0.1 -0.1)">
       <use xlink:href="#DejaVuSans-48"/>
       <use x="63.623047" xlink:href="#DejaVuSans-46"/>
       <use x="95.410156" xlink:href="#DejaVuSans-52"/>
      </g>
     </g>
    </g>
    <g id="text_36">
     <!-- pixel freq -->
     <g transform="translate(31.607187 271.615)rotate(-90)scale(0.1 -0.1)">
      <use xlink:href="#DejaVuSans-112"/>
      <use x="63.476562" xlink:href="#DejaVuSans-105"/>
      <use x="91.259766" xlink:href="#DejaVuSans-120"/>
      <use x="147.314453" xlink:href="#DejaVuSans-101"/>
      <use x="208.837891" xlink:href="#DejaVuSans-108"/>
      <use x="236.621094" xlink:href="#DejaVuSans-32"/>
      <use x="268.408203" xlink:href="#DejaVuSans-102"/>
      <use x="303.613281" xlink:href="#DejaVuSans-114"/>
      <use x="342.476562" xlink:href="#DejaVuSans-101"/>
      <use x="404" xlink:href="#DejaVuSans-113"/>
     </g>
    </g>
   </g>
   <g id="line2d_37">
    <path clip-path="url(#p8f328a833f)" d="M 60.59 203.229011 
L 61.222216 268.185169 
L 61.854431 278.217323 
L 62.486647 285.702843 
L 63.118863 290.937073 
L 63.751078 294.040059 
L 64.383294 295.739599 
L 65.01551 296.661498 
L 65.647725 297.195683 
L 66.912157 297.763856 
L 68.808804 298.160135 
L 71.337667 298.375085 
L 76.395392 298.511244 
L 88.40749 298.591076 
L 137.720314 298.603635 
L 208.528471 298.504186 
L 212.95398 298.297211 
L 214.850627 298.039317 
L 216.115059 297.716949 
L 217.37949 297.109917 
L 218.011706 296.584823 
L 218.643922 295.803921 
L 219.276137 294.642374 
L 221.172784 290.06453 
L 221.805 276.764777 
L 221.805 276.764777 
" style="fill:none;stroke:#0000ff;stroke-linecap:square;stroke-width:1.5;"/>
   </g>
   <g id="line2d_38">
    <path clip-path="url(#p8f328a833f)" d="M 60.59 197.876364 
L 61.222216 266.171666 
L 61.854431 277.152566 
L 62.486647 285.390123 
L 63.118863 291.066643 
L 63.751078 294.365729 
L 64.383294 296.095438 
L 65.01551 296.985836 
L 65.647725 297.464368 
L 66.912157 297.939022 
L 68.808804 298.246848 
L 71.969882 298.444486 
L 78.292039 298.554238 
L 98.522941 298.602363 
L 208.528471 298.510694 
L 212.95398 298.355564 
L 215.482843 298.065631 
L 216.747275 297.745363 
L 217.37949 297.470794 
L 218.011706 297.044421 
L 218.643922 296.369902 
L 219.276137 295.305157 
L 221.172784 290.608 
L 221.805 277.398868 
L 221.805 277.398868 
" style="fill:none;stroke:#008000;stroke-linecap:square;stroke-width:1.5;"/>
   </g>
   <g id="patch_15">
    <path d="M 60.59 303.64 
L 60.59 192.84 
" style="fill:none;stroke:#000000;stroke-linecap:square;stroke-linejoin:miter;stroke-width:0.8;"/>
   </g>
   <g id="patch_16">
    <path d="M 221.805 303.64 
L 221.805 192.84 
" style="fill:none;stroke:#000000;stroke-linecap:square;stroke-linejoin:miter;stroke-width:0.8;"/>
   </g>
   <g id="patch_17">
    <path d="M 60.59 303.64 
L 221.805 303.64 
" style="fill:none;stroke:#000000;stroke-linecap:square;stroke-linejoin:miter;stroke-width:0.8;"/>
   </g>
   <g id="patch_18">
    <path d="M 60.59 192.84 
L 221.805 192.84 
" style="fill:none;stroke:#000000;stroke-linecap:square;stroke-linejoin:miter;stroke-width:0.8;"/>
   </g>
   <g id="text_37">
    <!-- DFDC-cV/ -->
    <defs>
     <path d="M 28.609375 0 
L 0.78125 72.90625 
L 11.078125 72.90625 
L 34.1875 11.53125 
L 57.328125 72.90625 
L 67.578125 72.90625 
L 39.796875 0 
z
" id="DejaVuSans-86"/>
    </defs>
    <g transform="translate(112.7275 186.84)scale(0.12 -0.12)">
     <use xlink:href="#DejaVuSans-68"/>
     <use x="77.001953" xlink:href="#DejaVuSans-70"/>
     <use x="134.521484" xlink:href="#DejaVuSans-68"/>
     <use x="211.523438" xlink:href="#DejaVuSans-67"/>
     <use x="281.347656" xlink:href="#DejaVuSans-45"/>
     <use x="317.431641" xlink:href="#DejaVuSans-99"/>
     <use x="372.412109" xlink:href="#DejaVuSans-86"/>
     <use x="440.820312" xlink:href="#DejaVuSans-47"/>
    </g>
   </g>
   <g id="legend_3">
    <g id="patch_19">
     <path d="M 161.575312 230.19625 
L 214.805 230.19625 
Q 216.805 230.19625 216.805 228.19625 
L 216.805 199.84 
Q 216.805 197.84 214.805 197.84 
L 161.575312 197.84 
Q 159.575312 197.84 159.575312 199.84 
L 159.575312 228.19625 
Q 159.575312 230.19625 161.575312 230.19625 
z
" style="fill:#ffffff;opacity:0.8;stroke:#cccccc;stroke-linejoin:miter;"/>
    </g>
    <g id="line2d_39">
     <path d="M 163.575312 205.938437 
L 183.575312 205.938437 
" style="fill:none;stroke:#0000ff;stroke-linecap:square;stroke-width:1.5;"/>
    </g>
    <g id="line2d_40"/>
    <g id="text_38">
     <!-- real -->
     <g transform="translate(191.575312 209.438437)scale(0.1 -0.1)">
      <use xlink:href="#DejaVuSans-114"/>
      <use x="38.863281" xlink:href="#DejaVuSans-101"/>
      <use x="100.386719" xlink:href="#DejaVuSans-97"/>
      <use x="161.666016" xlink:href="#DejaVuSans-108"/>
     </g>
    </g>
    <g id="line2d_41">
     <path d="M 163.575312 220.616562 
L 183.575312 220.616562 
" style="fill:none;stroke:#008000;stroke-linecap:square;stroke-width:1.5;"/>
    </g>
    <g id="line2d_42"/>
    <g id="text_39">
     <!-- fake -->
     <g transform="translate(191.575312 224.116562)scale(0.1 -0.1)">
      <use xlink:href="#DejaVuSans-102"/>
      <use x="35.205078" xlink:href="#DejaVuSans-97"/>
      <use x="96.484375" xlink:href="#DejaVuSans-107"/>
      <use x="150.769531" xlink:href="#DejaVuSans-101"/>
     </g>
    </g>
   </g>
  </g>
  <g id="axes_4">
   <g id="patch_20">
    <path d="M 279.2 303.64 
L 440.415 303.64 
L 440.415 192.84 
L 279.2 192.84 
z
" style="fill:#ffffff;"/>
   </g>
   <g id="matplotlib.axis_7">
    <g id="xtick_13">
     <g id="line2d_43">
      <g>
       <use style="stroke:#000000;stroke-width:0.8;" x="279.2" xlink:href="#md638742c23" y="303.64"/>
      </g>
     </g>
     <g id="text_40">
      <!-- 0 -->
      <g transform="translate(276.01875 318.238437)scale(0.1 -0.1)">
       <use xlink:href="#DejaVuSans-48"/>
      </g>
     </g>
    </g>
    <g id="xtick_14">
     <g id="line2d_44">
      <g>
       <use style="stroke:#000000;stroke-width:0.8;" x="332.938333" xlink:href="#md638742c23" y="303.64"/>
      </g>
     </g>
     <g id="text_41">
      <!-- 85 -->
      <g transform="translate(326.575833 318.238437)scale(0.1 -0.1)">
       <use xlink:href="#DejaVuSans-56"/>
       <use x="63.623047" xlink:href="#DejaVuSans-53"/>
      </g>
     </g>
    </g>
    <g id="xtick_15">
     <g id="line2d_45">
      <g>
       <use style="stroke:#000000;stroke-width:0.8;" x="386.676667" xlink:href="#md638742c23" y="303.64"/>
      </g>
     </g>
     <g id="text_42">
      <!-- 170 -->
      <g transform="translate(377.132917 318.238437)scale(0.1 -0.1)">
       <use xlink:href="#DejaVuSans-49"/>
       <use x="63.623047" xlink:href="#DejaVuSans-55"/>
       <use x="127.246094" xlink:href="#DejaVuSans-48"/>
      </g>
     </g>
    </g>
    <g id="xtick_16">
     <g id="line2d_46">
      <g>
       <use style="stroke:#000000;stroke-width:0.8;" x="440.415" xlink:href="#md638742c23" y="303.64"/>
      </g>
     </g>
     <g id="text_43">
      <!-- 255 -->
      <g transform="translate(430.87125 318.238437)scale(0.1 -0.1)">
       <use xlink:href="#DejaVuSans-50"/>
       <use x="63.623047" xlink:href="#DejaVuSans-53"/>
       <use x="127.246094" xlink:href="#DejaVuSans-53"/>
      </g>
     </g>
    </g>
    <g id="text_44">
     <!-- gray value -->
     <g transform="translate(333.3075 331.916562)scale(0.1 -0.1)">
      <use xlink:href="#DejaVuSans-103"/>
      <use x="63.476562" xlink:href="#DejaVuSans-114"/>
      <use x="104.589844" xlink:href="#DejaVuSans-97"/>
      <use x="165.869141" xlink:href="#DejaVuSans-121"/>
      <use x="225.048828" xlink:href="#DejaVuSans-32"/>
      <use x="256.835938" xlink:href="#DejaVuSans-118"/>
      <use x="316.015625" xlink:href="#DejaVuSans-97"/>
      <use x="377.294922" xlink:href="#DejaVuSans-108"/>
      <use x="405.078125" xlink:href="#DejaVuSans-117"/>
      <use x="468.457031" xlink:href="#DejaVuSans-101"/>
     </g>
    </g>
   </g>
   <g id="matplotlib.axis_8">
    <g id="ytick_13">
     <g id="line2d_47">
      <g>
       <use style="stroke:#000000;stroke-width:0.8;" x="279.2" xlink:href="#m58b0fb4afb" y="298.603636"/>
      </g>
     </g>
     <g id="text_45">
      <!-- 0.0 -->
      <g transform="translate(256.296875 302.402855)scale(0.1 -0.1)">
       <use xlink:href="#DejaVuSans-48"/>
       <use x="63.623047" xlink:href="#DejaVuSans-46"/>
       <use x="95.410156" xlink:href="#DejaVuSans-48"/>
      </g>
     </g>
    </g>
    <g id="ytick_14">
     <g id="line2d_48">
      <g>
       <use style="stroke:#000000;stroke-width:0.8;" x="279.2" xlink:href="#m58b0fb4afb" y="274.232218"/>
      </g>
     </g>
     <g id="text_46">
      <!-- 0.2 -->
      <g transform="translate(256.296875 278.031437)scale(0.1 -0.1)">
       <use xlink:href="#DejaVuSans-48"/>
       <use x="63.623047" xlink:href="#DejaVuSans-46"/>
       <use x="95.410156" xlink:href="#DejaVuSans-50"/>
      </g>
     </g>
    </g>
    <g id="ytick_15">
     <g id="line2d_49">
      <g>
       <use style="stroke:#000000;stroke-width:0.8;" x="279.2" xlink:href="#m58b0fb4afb" y="249.860799"/>
      </g>
     </g>
     <g id="text_47">
      <!-- 0.4 -->
      <g transform="translate(256.296875 253.660018)scale(0.1 -0.1)">
       <use xlink:href="#DejaVuSans-48"/>
       <use x="63.623047" xlink:href="#DejaVuSans-46"/>
       <use x="95.410156" xlink:href="#DejaVuSans-52"/>
      </g>
     </g>
    </g>
    <g id="ytick_16">
     <g id="line2d_50">
      <g>
       <use style="stroke:#000000;stroke-width:0.8;" x="279.2" xlink:href="#m58b0fb4afb" y="225.489381"/>
      </g>
     </g>
     <g id="text_48">
      <!-- 0.6 -->
      <g transform="translate(256.296875 229.288599)scale(0.1 -0.1)">
       <use xlink:href="#DejaVuSans-48"/>
       <use x="63.623047" xlink:href="#DejaVuSans-46"/>
       <use x="95.410156" xlink:href="#DejaVuSans-54"/>
      </g>
     </g>
    </g>
    <g id="ytick_17">
     <g id="line2d_51">
      <g>
       <use style="stroke:#000000;stroke-width:0.8;" x="279.2" xlink:href="#m58b0fb4afb" y="201.117962"/>
      </g>
     </g>
     <g id="text_49">
      <!-- 0.8 -->
      <g transform="translate(256.296875 204.917181)scale(0.1 -0.1)">
       <use xlink:href="#DejaVuSans-48"/>
       <use x="63.623047" xlink:href="#DejaVuSans-46"/>
       <use x="95.410156" xlink:href="#DejaVuSans-56"/>
      </g>
     </g>
    </g>
    <g id="text_50">
     <!-- pixel freq -->
     <g transform="translate(250.217187 271.615)rotate(-90)scale(0.1 -0.1)">
      <use xlink:href="#DejaVuSans-112"/>
      <use x="63.476562" xlink:href="#DejaVuSans-105"/>
      <use x="91.259766" xlink:href="#DejaVuSans-120"/>
      <use x="147.314453" xlink:href="#DejaVuSans-101"/>
      <use x="208.837891" xlink:href="#DejaVuSans-108"/>
      <use x="236.621094" xlink:href="#DejaVuSans-32"/>
      <use x="268.408203" xlink:href="#DejaVuSans-102"/>
      <use x="303.613281" xlink:href="#DejaVuSans-114"/>
      <use x="342.476562" xlink:href="#DejaVuSans-101"/>
      <use x="404" xlink:href="#DejaVuSans-113"/>
     </g>
    </g>
   </g>
   <g id="line2d_52">
    <path clip-path="url(#p6507f04b2e)" d="M 279.2 199.889156 
L 279.832216 290.501002 
L 281.096647 295.700655 
L 281.728863 297.27131 
L 282.361078 298.049683 
L 282.993294 298.396015 
L 284.257725 298.561842 
L 289.947667 298.601977 
L 434.725059 298.587004 
L 437.253922 298.488157 
L 438.518353 298.241816 
L 439.782784 297.842951 
L 440.415 296.398364 
L 440.415 296.398364 
" style="fill:none;stroke:#0000ff;stroke-linecap:square;stroke-width:1.5;"/>
   </g>
   <g id="line2d_53">
    <path clip-path="url(#p6507f04b2e)" d="M 279.2 197.876364 
L 279.832216 291.09637 
L 281.096647 295.934681 
L 281.728863 297.389493 
L 282.361078 298.104509 
L 282.993294 298.421354 
L 284.257725 298.570342 
L 290.579882 298.602668 
L 436.621706 298.550173 
L 437.886137 298.418703 
L 439.782784 297.929508 
L 440.415 296.635113 
L 440.415 296.635113 
" style="fill:none;stroke:#008000;stroke-linecap:square;stroke-width:1.5;"/>
   </g>
   <g id="patch_21">
    <path d="M 279.2 303.64 
L 279.2 192.84 
" style="fill:none;stroke:#000000;stroke-linecap:square;stroke-linejoin:miter;stroke-width:0.8;"/>
   </g>
   <g id="patch_22">
    <path d="M 440.415 303.64 
L 440.415 192.84 
" style="fill:none;stroke:#000000;stroke-linecap:square;stroke-linejoin:miter;stroke-width:0.8;"/>
   </g>
   <g id="patch_23">
    <path d="M 279.2 303.64 
L 440.415 303.64 
" style="fill:none;stroke:#000000;stroke-linecap:square;stroke-linejoin:miter;stroke-width:0.8;"/>
   </g>
   <g id="patch_24">
    <path d="M 279.2 192.84 
L 440.415 192.84 
" style="fill:none;stroke:#000000;stroke-linecap:square;stroke-linejoin:miter;stroke-width:0.8;"/>
   </g>
   <g id="text_51">
    <!-- DFDC-cD/ -->
    <g transform="translate(330.821875 186.84)scale(0.12 -0.12)">
     <use xlink:href="#DejaVuSans-68"/>
     <use x="77.001953" xlink:href="#DejaVuSans-70"/>
     <use x="134.521484" xlink:href="#DejaVuSans-68"/>
     <use x="211.523438" xlink:href="#DejaVuSans-67"/>
     <use x="281.347656" xlink:href="#DejaVuSans-45"/>
     <use x="317.431641" xlink:href="#DejaVuSans-99"/>
     <use x="372.412109" xlink:href="#DejaVuSans-68"/>
     <use x="449.414062" xlink:href="#DejaVuSans-47"/>
    </g>
   </g>
   <g id="legend_4">
    <g id="patch_25">
     <path d="M 380.185312 230.19625 
L 433.415 230.19625 
Q 435.415 230.19625 435.415 228.19625 
L 435.415 199.84 
Q 435.415 197.84 433.415 197.84 
L 380.185312 197.84 
Q 378.185312 197.84 378.185312 199.84 
L 378.185312 228.19625 
Q 378.185312 230.19625 380.185312 230.19625 
z
" style="fill:#ffffff;opacity:0.8;stroke:#cccccc;stroke-linejoin:miter;"/>
    </g>
    <g id="line2d_54">
     <path d="M 382.185312 205.938437 
L 402.185312 205.938437 
" style="fill:none;stroke:#0000ff;stroke-linecap:square;stroke-width:1.5;"/>
    </g>
    <g id="line2d_55"/>
    <g id="text_52">
     <!-- real -->
     <g transform="translate(410.185312 209.438437)scale(0.1 -0.1)">
      <use xlink:href="#DejaVuSans-114"/>
      <use x="38.863281" xlink:href="#DejaVuSans-101"/>
      <use x="100.386719" xlink:href="#DejaVuSans-97"/>
      <use x="161.666016" xlink:href="#DejaVuSans-108"/>
     </g>
    </g>
    <g id="line2d_56">
     <path d="M 382.185312 220.616562 
L 402.185312 220.616562 
" style="fill:none;stroke:#008000;stroke-linecap:square;stroke-width:1.5;"/>
    </g>
    <g id="line2d_57"/>
    <g id="text_53">
     <!-- fake -->
     <g transform="translate(410.185312 224.116562)scale(0.1 -0.1)">
      <use xlink:href="#DejaVuSans-102"/>
      <use x="35.205078" xlink:href="#DejaVuSans-97"/>
      <use x="96.484375" xlink:href="#DejaVuSans-107"/>
      <use x="150.769531" xlink:href="#DejaVuSans-101"/>
     </g>
    </g>
   </g>
  </g>
 </g>
 <defs>
  <clipPath id="p03f577cae4">
   <rect height="110.8" width="161.215" x="60.59" y="25.44"/>
  </clipPath>
  <clipPath id="p413e017a7a">
   <rect height="110.8" width="161.215" x="279.2" y="25.44"/>
  </clipPath>
  <clipPath id="p8f328a833f">
   <rect height="110.8" width="161.215" x="60.59" y="192.84"/>
  </clipPath>
  <clipPath id="p6507f04b2e">
   <rect height="110.8" width="161.215" x="279.2" y="192.84"/>
  </clipPath>
 </defs>
</svg>
