<?xml version="1.0" encoding="utf-8" standalone="no"?>
<!DOCTYPE svg PUBLIC "-//W3C//DTD SVG 1.1//EN"
  "http://www.w3.org/Graphics/SVG/1.1/DTD/svg11.dtd">
<!-- Created with matplotlib (https://matplotlib.org/) -->
<svg height="345.6pt" version="1.1" viewBox="0 0 460.8 345.6" width="460.8pt" xmlns="http://www.w3.org/2000/svg" xmlns:xlink="http://www.w3.org/1999/xlink">
 <defs>
  <style type="text/css">
*{stroke-linecap:butt;stroke-linejoin:round;}
  </style>
 </defs>
 <g id="figure_1">
  <g id="patch_1">
   <path d="M 0 345.6 
L 460.8 345.6 
L 460.8 0 
L 0 0 
z
" style="fill:#ffffff;"/>
  </g>
  <g id="axes_1">
   <g id="patch_2">
    <path d="M 66.98 136.24 
L 225 136.24 
L 225 25.44 
L 66.98 25.44 
z
" style="fill:#ffffff;"/>
   </g>
   <g id="matplotlib.axis_1">
    <g id="xtick_1">
     <g id="line2d_1">
      <defs>
       <path d="M 0 0 
L 0 3.5 
" id="m53481f8ef2" style="stroke:#000000;stroke-width:0.8;"/>
      </defs>
      <g>
       <use style="stroke:#000000;stroke-width:0.8;" x="66.98" xlink:href="#m53481f8ef2" y="136.24"/>
      </g>
     </g>
     <g id="text_1">
      <!-- 0 -->
      <defs>
       <path d="M 31.78125 66.40625 
Q 24.171875 66.40625 20.328125 58.90625 
Q 16.5 51.421875 16.5 36.375 
Q 16.5 21.390625 20.328125 13.890625 
Q 24.171875 6.390625 31.78125 6.390625 
Q 39.453125 6.390625 43.28125 13.890625 
Q 47.125 21.390625 47.125 36.375 
Q 47.125 51.421875 43.28125 58.90625 
Q 39.453125 66.40625 31.78125 66.40625 
z
M 31.78125 74.21875 
Q 44.046875 74.21875 50.515625 64.515625 
Q 56.984375 54.828125 56.984375 36.375 
Q 56.984375 17.96875 50.515625 8.265625 
Q 44.046875 -1.421875 31.78125 -1.421875 
Q 19.53125 -1.421875 13.0625 8.265625 
Q 6.59375 17.96875 6.59375 36.375 
Q 6.59375 54.828125 13.0625 64.515625 
Q 19.53125 74.21875 31.78125 74.21875 
z
" id="DejaVuSans-48"/>
      </defs>
      <g transform="translate(63.79875 150.838437)scale(0.1 -0.1)">
       <use xlink:href="#DejaVuSans-48"/>
      </g>
     </g>
    </g>
    <g id="xtick_2">
     <g id="line2d_2">
      <g>
       <use style="stroke:#000000;stroke-width:0.8;" x="119.653333" xlink:href="#m53481f8ef2" y="136.24"/>
      </g>
     </g>
     <g id="text_2">
      <!-- 85 -->
      <defs>
       <path d="M 31.78125 34.625 
Q 24.75 34.625 20.71875 30.859375 
Q 16.703125 27.09375 16.703125 20.515625 
Q 16.703125 13.921875 20.71875 10.15625 
Q 24.75 6.390625 31.78125 6.390625 
Q 38.8125 6.390625 42.859375 10.171875 
Q 46.921875 13.96875 46.921875 20.515625 
Q 46.921875 27.09375 42.890625 30.859375 
Q 38.875 34.625 31.78125 34.625 
z
M 21.921875 38.8125 
Q 15.578125 40.375 12.03125 44.71875 
Q 8.5 49.078125 8.5 55.328125 
Q 8.5 64.0625 14.71875 69.140625 
Q 20.953125 74.21875 31.78125 74.21875 
Q 42.671875 74.21875 48.875 69.140625 
Q 55.078125 64.0625 55.078125 55.328125 
Q 55.078125 49.078125 51.53125 44.71875 
Q 48 40.375 41.703125 38.8125 
Q 48.828125 37.15625 52.796875 32.3125 
Q 56.78125 27.484375 56.78125 20.515625 
Q 56.78125 9.90625 50.3125 4.234375 
Q 43.84375 -1.421875 31.78125 -1.421875 
Q 19.734375 -1.421875 13.25 4.234375 
Q 6.78125 9.90625 6.78125 20.515625 
Q 6.78125 27.484375 10.78125 32.3125 
Q 14.796875 37.15625 21.921875 38.8125 
z
M 18.3125 54.390625 
Q 18.3125 48.734375 21.84375 45.5625 
Q 25.390625 42.390625 31.78125 42.390625 
Q 38.140625 42.390625 41.71875 45.5625 
Q 45.3125 48.734375 45.3125 54.390625 
Q 45.3125 60.0625 41.71875 63.234375 
Q 38.140625 66.40625 31.78125 66.40625 
Q 25.390625 66.40625 21.84375 63.234375 
Q 18.3125 60.0625 18.3125 54.390625 
z
" id="DejaVuSans-56"/>
       <path d="M 10.796875 72.90625 
L 49.515625 72.90625 
L 49.515625 64.59375 
L 19.828125 64.59375 
L 19.828125 46.734375 
Q 21.96875 47.46875 24.109375 47.828125 
Q 26.265625 48.1875 28.421875 48.1875 
Q 40.625 48.1875 47.75 41.5 
Q 54.890625 34.8125 54.890625 23.390625 
Q 54.890625 11.625 47.5625 5.09375 
Q 40.234375 -1.421875 26.90625 -1.421875 
Q 22.3125 -1.421875 17.546875 -0.640625 
Q 12.796875 0.140625 7.71875 1.703125 
L 7.71875 11.625 
Q 12.109375 9.234375 16.796875 8.0625 
Q 21.484375 6.890625 26.703125 6.890625 
Q 35.15625 6.890625 40.078125 11.328125 
Q 45.015625 15.765625 45.015625 23.390625 
Q 45.015625 31 40.078125 35.4375 
Q 35.15625 39.890625 26.703125 39.890625 
Q 22.75 39.890625 18.8125 39.015625 
Q 14.890625 38.140625 10.796875 36.28125 
z
" id="DejaVuSans-53"/>
      </defs>
      <g transform="translate(113.290833 150.838437)scale(0.1 -0.1)">
       <use xlink:href="#DejaVuSans-56"/>
       <use x="63.623047" xlink:href="#DejaVuSans-53"/>
      </g>
     </g>
    </g>
    <g id="xtick_3">
     <g id="line2d_3">
      <g>
       <use style="stroke:#000000;stroke-width:0.8;" x="172.326667" xlink:href="#m53481f8ef2" y="136.24"/>
      </g>
     </g>
     <g id="text_3">
      <!-- 170 -->
      <defs>
       <path d="M 12.40625 8.296875 
L 28.515625 8.296875 
L 28.515625 63.921875 
L 10.984375 60.40625 
L 10.984375 69.390625 
L 28.421875 72.90625 
L 38.28125 72.90625 
L 38.28125 8.296875 
L 54.390625 8.296875 
L 54.390625 0 
L 12.40625 0 
z
" id="DejaVuSans-49"/>
       <path d="M 8.203125 72.90625 
L 55.078125 72.90625 
L 55.078125 68.703125 
L 28.609375 0 
L 18.3125 0 
L 43.21875 64.59375 
L 8.203125 64.59375 
z
" id="DejaVuSans-55"/>
      </defs>
      <g transform="translate(162.782917 150.838437)scale(0.1 -0.1)">
       <use xlink:href="#DejaVuSans-49"/>
       <use x="63.623047" xlink:href="#DejaVuSans-55"/>
       <use x="127.246094" xlink:href="#DejaVuSans-48"/>
      </g>
     </g>
    </g>
    <g id="xtick_4">
     <g id="line2d_4">
      <g>
       <use style="stroke:#000000;stroke-width:0.8;" x="225" xlink:href="#m53481f8ef2" y="136.24"/>
      </g>
     </g>
     <g id="text_4">
      <!-- 255 -->
      <defs>
       <path d="M 19.1875 8.296875 
L 53.609375 8.296875 
L 53.609375 0 
L 7.328125 0 
L 7.328125 8.296875 
Q 12.9375 14.109375 22.625 23.890625 
Q 32.328125 33.6875 34.8125 36.53125 
Q 39.546875 41.84375 41.421875 45.53125 
Q 43.3125 49.21875 43.3125 52.78125 
Q 43.3125 58.59375 39.234375 62.25 
Q 35.15625 65.921875 28.609375 65.921875 
Q 23.96875 65.921875 18.8125 64.3125 
Q 13.671875 62.703125 7.8125 59.421875 
L 7.8125 69.390625 
Q 13.765625 71.78125 18.9375 73 
Q 24.125 74.21875 28.421875 74.21875 
Q 39.75 74.21875 46.484375 68.546875 
Q 53.21875 62.890625 53.21875 53.421875 
Q 53.21875 48.921875 51.53125 44.890625 
Q 49.859375 40.875 45.40625 35.40625 
Q 44.1875 33.984375 37.640625 27.21875 
Q 31.109375 20.453125 19.1875 8.296875 
z
" id="DejaVuSans-50"/>
      </defs>
      <g transform="translate(215.45625 150.838437)scale(0.1 -0.1)">
       <use xlink:href="#DejaVuSans-50"/>
       <use x="63.623047" xlink:href="#DejaVuSans-53"/>
       <use x="127.246094" xlink:href="#DejaVuSans-53"/>
      </g>
     </g>
    </g>
    <g id="text_5">
     <!-- gray value -->
     <defs>
      <path d="M 45.40625 27.984375 
Q 45.40625 37.75 41.375 43.109375 
Q 37.359375 48.484375 30.078125 48.484375 
Q 22.859375 48.484375 18.828125 43.109375 
Q 14.796875 37.75 14.796875 27.984375 
Q 14.796875 18.265625 18.828125 12.890625 
Q 22.859375 7.515625 30.078125 7.515625 
Q 37.359375 7.515625 41.375 12.890625 
Q 45.40625 18.265625 45.40625 27.984375 
z
M 54.390625 6.78125 
Q 54.390625 -7.171875 48.1875 -13.984375 
Q 42 -20.796875 29.203125 -20.796875 
Q 24.46875 -20.796875 20.265625 -20.09375 
Q 16.0625 -19.390625 12.109375 -17.921875 
L 12.109375 -9.1875 
Q 16.0625 -11.328125 19.921875 -12.34375 
Q 23.78125 -13.375 27.78125 -13.375 
Q 36.625 -13.375 41.015625 -8.765625 
Q 45.40625 -4.15625 45.40625 5.171875 
L 45.40625 9.625 
Q 42.625 4.78125 38.28125 2.390625 
Q 33.9375 0 27.875 0 
Q 17.828125 0 11.671875 7.65625 
Q 5.515625 15.328125 5.515625 27.984375 
Q 5.515625 40.671875 11.671875 48.328125 
Q 17.828125 56 27.875 56 
Q 33.9375 56 38.28125 53.609375 
Q 42.625 51.21875 45.40625 46.390625 
L 45.40625 54.6875 
L 54.390625 54.6875 
z
" id="DejaVuSans-103"/>
      <path d="M 41.109375 46.296875 
Q 39.59375 47.171875 37.8125 47.578125 
Q 36.03125 48 33.890625 48 
Q 26.265625 48 22.1875 43.046875 
Q 18.109375 38.09375 18.109375 28.8125 
L 18.109375 0 
L 9.078125 0 
L 9.078125 54.6875 
L 18.109375 54.6875 
L 18.109375 46.1875 
Q 20.953125 51.171875 25.484375 53.578125 
Q 30.03125 56 36.53125 56 
Q 37.453125 56 38.578125 55.875 
Q 39.703125 55.765625 41.0625 55.515625 
z
" id="DejaVuSans-114"/>
      <path d="M 34.28125 27.484375 
Q 23.390625 27.484375 19.1875 25 
Q 14.984375 22.515625 14.984375 16.5 
Q 14.984375 11.71875 18.140625 8.90625 
Q 21.296875 6.109375 26.703125 6.109375 
Q 34.1875 6.109375 38.703125 11.40625 
Q 43.21875 16.703125 43.21875 25.484375 
L 43.21875 27.484375 
z
M 52.203125 31.203125 
L 52.203125 0 
L 43.21875 0 
L 43.21875 8.296875 
Q 40.140625 3.328125 35.546875 0.953125 
Q 30.953125 -1.421875 24.3125 -1.421875 
Q 15.921875 -1.421875 10.953125 3.296875 
Q 6 8.015625 6 15.921875 
Q 6 25.140625 12.171875 29.828125 
Q 18.359375 34.515625 30.609375 34.515625 
L 43.21875 34.515625 
L 43.21875 35.40625 
Q 43.21875 41.609375 39.140625 45 
Q 35.0625 48.390625 27.6875 48.390625 
Q 23 48.390625 18.546875 47.265625 
Q 14.109375 46.140625 10.015625 43.890625 
L 10.015625 52.203125 
Q 14.9375 54.109375 19.578125 55.046875 
Q 24.21875 56 28.609375 56 
Q 40.484375 56 46.34375 49.84375 
Q 52.203125 43.703125 52.203125 31.203125 
z
" id="DejaVuSans-97"/>
      <path d="M 32.171875 -5.078125 
Q 28.375 -14.84375 24.75 -17.8125 
Q 21.140625 -20.796875 15.09375 -20.796875 
L 7.90625 -20.796875 
L 7.90625 -13.28125 
L 13.1875 -13.28125 
Q 16.890625 -13.28125 18.9375 -11.515625 
Q 21 -9.765625 23.484375 -3.21875 
L 25.09375 0.875 
L 2.984375 54.6875 
L 12.5 54.6875 
L 29.59375 11.921875 
L 46.6875 54.6875 
L 56.203125 54.6875 
z
" id="DejaVuSans-121"/>
      <path id="DejaVuSans-32"/>
      <path d="M 2.984375 54.6875 
L 12.5 54.6875 
L 29.59375 8.796875 
L 46.6875 54.6875 
L 56.203125 54.6875 
L 35.6875 0 
L 23.484375 0 
z
" id="DejaVuSans-118"/>
      <path d="M 9.421875 75.984375 
L 18.40625 75.984375 
L 18.40625 0 
L 9.421875 0 
z
" id="DejaVuSans-108"/>
      <path d="M 8.5 21.578125 
L 8.5 54.6875 
L 17.484375 54.6875 
L 17.484375 21.921875 
Q 17.484375 14.15625 20.5 10.265625 
Q 23.53125 6.390625 29.59375 6.390625 
Q 36.859375 6.390625 41.078125 11.03125 
Q 45.3125 15.671875 45.3125 23.6875 
L 45.3125 54.6875 
L 54.296875 54.6875 
L 54.296875 0 
L 45.3125 0 
L 45.3125 8.40625 
Q 42.046875 3.421875 37.71875 1 
Q 33.40625 -1.421875 27.6875 -1.421875 
Q 18.265625 -1.421875 13.375 4.4375 
Q 8.5 10.296875 8.5 21.578125 
z
M 31.109375 56 
z
" id="DejaVuSans-117"/>
      <path d="M 56.203125 29.59375 
L 56.203125 25.203125 
L 14.890625 25.203125 
Q 15.484375 15.921875 20.484375 11.0625 
Q 25.484375 6.203125 34.421875 6.203125 
Q 39.59375 6.203125 44.453125 7.46875 
Q 49.3125 8.734375 54.109375 11.28125 
L 54.109375 2.78125 
Q 49.265625 0.734375 44.1875 -0.34375 
Q 39.109375 -1.421875 33.890625 -1.421875 
Q 20.796875 -1.421875 13.15625 6.1875 
Q 5.515625 13.8125 5.515625 26.8125 
Q 5.515625 40.234375 12.765625 48.109375 
Q 20.015625 56 32.328125 56 
Q 43.359375 56 49.78125 48.890625 
Q 56.203125 41.796875 56.203125 29.59375 
z
M 47.21875 32.234375 
Q 47.125 39.59375 43.09375 43.984375 
Q 39.0625 48.390625 32.421875 48.390625 
Q 24.90625 48.390625 20.390625 44.140625 
Q 15.875 39.890625 15.1875 32.171875 
z
" id="DejaVuSans-101"/>
     </defs>
     <g transform="translate(119.49 164.516562)scale(0.1 -0.1)">
      <use xlink:href="#DejaVuSans-103"/>
      <use x="63.476562" xlink:href="#DejaVuSans-114"/>
      <use x="104.589844" xlink:href="#DejaVuSans-97"/>
      <use x="165.869141" xlink:href="#DejaVuSans-121"/>
      <use x="225.048828" xlink:href="#DejaVuSans-32"/>
      <use x="256.835938" xlink:href="#DejaVuSans-118"/>
      <use x="316.015625" xlink:href="#DejaVuSans-97"/>
      <use x="377.294922" xlink:href="#DejaVuSans-108"/>
      <use x="405.078125" xlink:href="#DejaVuSans-117"/>
      <use x="468.457031" xlink:href="#DejaVuSans-101"/>
     </g>
    </g>
   </g>
   <g id="matplotlib.axis_2">
    <g id="ytick_1">
     <g id="line2d_5">
      <defs>
       <path d="M 0 0 
L -3.5 0 
" id="m1aacb7086a" style="stroke:#000000;stroke-width:0.8;"/>
      </defs>
      <g>
       <use style="stroke:#000000;stroke-width:0.8;" x="66.98" xlink:href="#m1aacb7086a" y="126.620194"/>
      </g>
     </g>
     <g id="text_6">
      <!-- 0.0025 -->
      <defs>
       <path d="M 10.6875 12.40625 
L 21 12.40625 
L 21 0 
L 10.6875 0 
z
" id="DejaVuSans-46"/>
      </defs>
      <g transform="translate(24.989375 130.419412)scale(0.1 -0.1)">
       <use xlink:href="#DejaVuSans-48"/>
       <use x="63.623047" xlink:href="#DejaVuSans-46"/>
       <use x="95.410156" xlink:href="#DejaVuSans-48"/>
       <use x="159.033203" xlink:href="#DejaVuSans-48"/>
       <use x="222.65625" xlink:href="#DejaVuSans-50"/>
       <use x="286.279297" xlink:href="#DejaVuSans-53"/>
      </g>
     </g>
    </g>
    <g id="ytick_2">
     <g id="line2d_6">
      <g>
       <use style="stroke:#000000;stroke-width:0.8;" x="66.98" xlink:href="#m1aacb7086a" y="104.233552"/>
      </g>
     </g>
     <g id="text_7">
      <!-- 0.0050 -->
      <g transform="translate(24.989375 108.032771)scale(0.1 -0.1)">
       <use xlink:href="#DejaVuSans-48"/>
       <use x="63.623047" xlink:href="#DejaVuSans-46"/>
       <use x="95.410156" xlink:href="#DejaVuSans-48"/>
       <use x="159.033203" xlink:href="#DejaVuSans-48"/>
       <use x="222.65625" xlink:href="#DejaVuSans-53"/>
       <use x="286.279297" xlink:href="#DejaVuSans-48"/>
      </g>
     </g>
    </g>
    <g id="ytick_3">
     <g id="line2d_7">
      <g>
       <use style="stroke:#000000;stroke-width:0.8;" x="66.98" xlink:href="#m1aacb7086a" y="81.846911"/>
      </g>
     </g>
     <g id="text_8">
      <!-- 0.0075 -->
      <g transform="translate(24.989375 85.64613)scale(0.1 -0.1)">
       <use xlink:href="#DejaVuSans-48"/>
       <use x="63.623047" xlink:href="#DejaVuSans-46"/>
       <use x="95.410156" xlink:href="#DejaVuSans-48"/>
       <use x="159.033203" xlink:href="#DejaVuSans-48"/>
       <use x="222.65625" xlink:href="#DejaVuSans-55"/>
       <use x="286.279297" xlink:href="#DejaVuSans-53"/>
      </g>
     </g>
    </g>
    <g id="ytick_4">
     <g id="line2d_8">
      <g>
       <use style="stroke:#000000;stroke-width:0.8;" x="66.98" xlink:href="#m1aacb7086a" y="59.46027"/>
      </g>
     </g>
     <g id="text_9">
      <!-- 0.0100 -->
      <g transform="translate(24.989375 63.259489)scale(0.1 -0.1)">
       <use xlink:href="#DejaVuSans-48"/>
       <use x="63.623047" xlink:href="#DejaVuSans-46"/>
       <use x="95.410156" xlink:href="#DejaVuSans-48"/>
       <use x="159.033203" xlink:href="#DejaVuSans-49"/>
       <use x="222.65625" xlink:href="#DejaVuSans-48"/>
       <use x="286.279297" xlink:href="#DejaVuSans-48"/>
      </g>
     </g>
    </g>
    <g id="ytick_5">
     <g id="line2d_9">
      <g>
       <use style="stroke:#000000;stroke-width:0.8;" x="66.98" xlink:href="#m1aacb7086a" y="37.073629"/>
      </g>
     </g>
     <g id="text_10">
      <!-- 0.0125 -->
      <g transform="translate(24.989375 40.872848)scale(0.1 -0.1)">
       <use xlink:href="#DejaVuSans-48"/>
       <use x="63.623047" xlink:href="#DejaVuSans-46"/>
       <use x="95.410156" xlink:href="#DejaVuSans-48"/>
       <use x="159.033203" xlink:href="#DejaVuSans-49"/>
       <use x="222.65625" xlink:href="#DejaVuSans-50"/>
       <use x="286.279297" xlink:href="#DejaVuSans-53"/>
      </g>
     </g>
    </g>
    <g id="text_11">
     <!-- pixel freq -->
     <defs>
      <path d="M 18.109375 8.203125 
L 18.109375 -20.796875 
L 9.078125 -20.796875 
L 9.078125 54.6875 
L 18.109375 54.6875 
L 18.109375 46.390625 
Q 20.953125 51.265625 25.265625 53.625 
Q 29.59375 56 35.59375 56 
Q 45.5625 56 51.78125 48.09375 
Q 58.015625 40.1875 58.015625 27.296875 
Q 58.015625 14.40625 51.78125 6.484375 
Q 45.5625 -1.421875 35.59375 -1.421875 
Q 29.59375 -1.421875 25.265625 0.953125 
Q 20.953125 3.328125 18.109375 8.203125 
z
M 48.6875 27.296875 
Q 48.6875 37.203125 44.609375 42.84375 
Q 40.53125 48.484375 33.40625 48.484375 
Q 26.265625 48.484375 22.1875 42.84375 
Q 18.109375 37.203125 18.109375 27.296875 
Q 18.109375 17.390625 22.1875 11.75 
Q 26.265625 6.109375 33.40625 6.109375 
Q 40.53125 6.109375 44.609375 11.75 
Q 48.6875 17.390625 48.6875 27.296875 
z
" id="DejaVuSans-112"/>
      <path d="M 9.421875 54.6875 
L 18.40625 54.6875 
L 18.40625 0 
L 9.421875 0 
z
M 9.421875 75.984375 
L 18.40625 75.984375 
L 18.40625 64.59375 
L 9.421875 64.59375 
z
" id="DejaVuSans-105"/>
      <path d="M 54.890625 54.6875 
L 35.109375 28.078125 
L 55.90625 0 
L 45.3125 0 
L 29.390625 21.484375 
L 13.484375 0 
L 2.875 0 
L 24.125 28.609375 
L 4.6875 54.6875 
L 15.28125 54.6875 
L 29.78125 35.203125 
L 44.28125 54.6875 
z
" id="DejaVuSans-120"/>
      <path d="M 37.109375 75.984375 
L 37.109375 68.5 
L 28.515625 68.5 
Q 23.6875 68.5 21.796875 66.546875 
Q 19.921875 64.59375 19.921875 59.515625 
L 19.921875 54.6875 
L 34.71875 54.6875 
L 34.71875 47.703125 
L 19.921875 47.703125 
L 19.921875 0 
L 10.890625 0 
L 10.890625 47.703125 
L 2.296875 47.703125 
L 2.296875 54.6875 
L 10.890625 54.6875 
L 10.890625 58.5 
Q 10.890625 67.625 15.140625 71.796875 
Q 19.390625 75.984375 28.609375 75.984375 
z
" id="DejaVuSans-102"/>
      <path d="M 14.796875 27.296875 
Q 14.796875 17.390625 18.875 11.75 
Q 22.953125 6.109375 30.078125 6.109375 
Q 37.203125 6.109375 41.296875 11.75 
Q 45.40625 17.390625 45.40625 27.296875 
Q 45.40625 37.203125 41.296875 42.84375 
Q 37.203125 48.484375 30.078125 48.484375 
Q 22.953125 48.484375 18.875 42.84375 
Q 14.796875 37.203125 14.796875 27.296875 
z
M 45.40625 8.203125 
Q 42.578125 3.328125 38.25 0.953125 
Q 33.9375 -1.421875 27.875 -1.421875 
Q 17.96875 -1.421875 11.734375 6.484375 
Q 5.515625 14.40625 5.515625 27.296875 
Q 5.515625 40.1875 11.734375 48.09375 
Q 17.96875 56 27.875 56 
Q 33.9375 56 38.25 53.625 
Q 42.578125 51.265625 45.40625 46.390625 
L 45.40625 54.6875 
L 54.390625 54.6875 
L 54.390625 -20.796875 
L 45.40625 -20.796875 
z
" id="DejaVuSans-113"/>
     </defs>
     <g transform="translate(18.909688 104.215)rotate(-90)scale(0.1 -0.1)">
      <use xlink:href="#DejaVuSans-112"/>
      <use x="63.476562" xlink:href="#DejaVuSans-105"/>
      <use x="91.259766" xlink:href="#DejaVuSans-120"/>
      <use x="147.314453" xlink:href="#DejaVuSans-101"/>
      <use x="208.837891" xlink:href="#DejaVuSans-108"/>
      <use x="236.621094" xlink:href="#DejaVuSans-32"/>
      <use x="268.408203" xlink:href="#DejaVuSans-102"/>
      <use x="303.613281" xlink:href="#DejaVuSans-114"/>
      <use x="342.476562" xlink:href="#DejaVuSans-101"/>
      <use x="404" xlink:href="#DejaVuSans-113"/>
     </g>
    </g>
   </g>
   <g id="line2d_10">
    <path clip-path="url(#p0f62a8c0b3)" d="M 66.98 30.476364 
L 67.599686 112.172805 
L 68.219373 74.500874 
L 68.839059 109.427448 
L 69.458745 94.115672 
L 70.078431 109.910093 
L 70.698118 101.905675 
L 71.317804 109.720062 
L 71.93749 99.860321 
L 72.557176 109.846609 
L 73.176863 101.958648 
L 73.796549 109.71796 
L 74.416235 102.403455 
L 75.035922 108.816575 
L 75.655608 101.811921 
L 76.275294 108.618976 
L 76.89498 102.857931 
L 77.514667 108.721139 
L 78.134353 103.141716 
L 78.754039 108.491168 
L 79.373725 104.441661 
L 79.993412 108.647565 
L 80.613098 103.918656 
L 81.232784 107.783597 
L 81.852471 103.710127 
L 82.472157 107.186177 
L 83.091843 102.860874 
L 83.711529 106.663593 
L 84.331216 101.451619 
L 84.950902 106.744734 
L 85.570588 101.365853 
L 86.190275 106.508877 
L 86.809961 101.324231 
L 87.429647 106.360468 
L 88.049333 102.483755 
L 88.66902 106.654764 
L 89.288706 103.681118 
L 89.908392 107.041552 
L 90.528078 104.193612 
L 91.147765 106.516445 
L 91.767451 103.422558 
L 92.387137 106.414282 
L 93.006824 103.362438 
L 93.62651 106.738848 
L 94.246196 102.58844 
L 94.865882 106.971342 
L 95.485569 102.838171 
L 96.105255 106.694283 
L 96.724941 104.026705 
L 97.344627 107.571284 
L 97.964314 105.063466 
L 98.584 107.369482 
L 99.203686 105.310254 
L 99.823373 107.978253 
L 100.443059 105.86395 
L 101.062745 108.26414 
L 101.682431 106.30287 
L 102.302118 108.566844 
L 102.921804 106.796446 
L 103.54149 109.131471 
L 104.161176 107.078549 
L 104.780863 109.336637 
L 105.400549 107.164316 
L 106.020235 109.4985 
L 106.639922 106.918789 
L 107.259608 109.057056 
L 107.879294 107.281193 
L 108.49898 109.796158 
L 109.118667 108.028704 
L 109.738353 110.06691 
L 110.358039 108.658076 
L 110.977725 110.406611 
L 111.597412 108.983903 
L 112.217098 110.745892 
L 112.836784 109.381202 
L 113.456471 111.103251 
L 114.076157 109.540121 
L 114.695843 111.432021 
L 115.315529 110.164448 
L 115.935216 111.787278 
L 116.554902 110.631117 
L 117.174588 112.04836 
L 117.794275 110.612198 
L 118.413961 112.424218 
L 119.033647 111.08265 
L 119.653333 112.179532 
L 120.27302 111.035984 
L 120.892706 112.088721 
L 121.512392 111.230219 
L 122.132078 112.574729 
L 122.751765 111.117545 
L 123.371451 112.63569 
L 123.991137 110.841328 
L 124.610824 112.929986 
L 125.23051 111.113341 
L 125.850196 113.237314 
L 126.469882 111.923495 
L 127.089569 113.938158 
L 127.709255 112.089141 
L 128.328941 113.84062 
L 128.948627 112.288842 
L 129.568314 114.27912 
L 130.188 112.074426 
L 130.807686 114.303084 
L 131.427373 112.581456 
L 132.047059 114.269451 
L 132.666745 111.309258 
L 133.286431 114.461163 
L 133.906118 111.164212 
L 134.525804 114.762606 
L 135.14549 111.90836 
L 135.765176 114.900925 
L 136.384863 112.932928 
L 137.004549 115.127953 
L 137.624235 112.977073 
L 138.243922 115.318404 
L 138.863608 113.061578 
L 139.483294 115.765313 
L 140.10298 113.15323 
L 140.722667 115.920869 
L 141.342353 113.589208 
L 141.962039 115.948617 
L 142.581725 113.425243 
L 143.201412 116.308919 
L 143.821098 113.210828 
L 144.440784 116.622554 
L 145.060471 114.128189 
L 145.680157 116.919372 
L 146.299843 114.606629 
L 146.919529 117.162376 
L 147.539216 114.6575 
L 148.158902 117.47517 
L 148.778588 115.391978 
L 149.398275 117.702198 
L 150.017961 115.695102 
L 150.637647 117.666462 
L 151.257333 115.093899 
L 151.87702 117.706823 
L 152.496706 115.159064 
L 153.116392 118.522021 
L 153.736078 115.539546 
L 154.355765 118.611151 
L 154.975451 115.759847 
L 155.595137 118.68977 
L 156.214824 115.848977 
L 156.83451 118.787728 
L 157.454196 115.829637 
L 158.073882 118.861302 
L 158.693569 115.143088 
L 159.313255 119.322505 
L 159.932941 116.996729 
L 160.552627 119.887973 
L 161.172314 117.155229 
L 161.792 120.285692 
L 162.411686 117.180034 
L 163.031373 120.429477 
L 163.651059 117.983881 
L 164.270745 120.988218 
L 164.890431 118.609049 
L 165.510118 121.125275 
L 166.129804 119.097159 
L 166.74949 121.335066 
L 167.369176 118.43163 
L 167.988863 121.542755 
L 168.608549 118.522442 
L 169.228235 121.854288 
L 169.847922 118.429949 
L 170.467608 121.991345 
L 171.087294 119.330073 
L 171.70698 122.271767 
L 172.326667 119.578963 
L 172.946353 122.664862 
L 173.566039 119.898904 
L 174.185725 122.795192 
L 174.805412 120.860409 
L 175.425098 122.980599 
L 176.044784 121.22954 
L 176.664471 122.888106 
L 177.284157 120.52239 
L 177.903843 122.83261 
L 178.523529 120.786415 
L 179.143216 123.092851 
L 179.762902 120.241548 
L 180.382588 123.124383 
L 181.002275 120.405933 
L 181.621961 123.159698 
L 182.241647 119.655059 
L 182.861333 122.702279 
L 183.48102 119.619744 
L 184.100706 122.456332 
L 184.720392 119.195117 
L 185.340078 122.688405 
L 185.959765 118.169707 
L 186.579451 122.617774 
L 187.199137 118.088145 
L 187.818824 123.009608 
L 188.43851 119.629413 
L 189.058196 123.447267 
L 189.677882 119.82575 
L 190.297569 123.670932 
L 190.917255 119.02863 
L 191.536941 123.319879 
L 192.156627 118.423222 
L 192.776314 123.378738 
L 193.396 118.393372 
L 194.015686 123.541021 
L 194.635373 118.327366 
L 195.255059 123.780242 
L 195.874745 117.72406 
L 196.494431 124.229673 
L 197.114118 119.878724 
L 197.733804 124.191415 
L 198.35349 117.838415 
L 198.973176 124.002225 
L 199.592863 118.754094 
L 200.212549 124.636221 
L 200.832235 119.470494 
L 201.451922 124.765711 
L 202.071608 117.882559 
L 202.691294 124.922108 
L 203.31098 121.15975 
L 203.930667 125.417366 
L 204.550353 121.281672 
L 205.170039 125.115503 
L 205.789725 121.796269 
L 206.409412 125.171839 
L 207.029098 121.236687 
L 207.648784 125.123491 
L 208.268471 121.167738 
L 208.888157 125.130638 
L 209.507843 119.800525 
L 210.127529 124.828775 
L 210.747216 119.637401 
L 211.366902 124.54583 
L 211.986588 118.34208 
L 212.606275 124.223367 
L 213.225961 116.36988 
L 213.845647 124.16745 
L 214.465333 119.753858 
L 215.08502 123.760061 
L 215.704706 112.803018 
L 216.324392 124.149372 
L 216.944078 116.867239 
L 217.563765 124.3558 
L 218.183451 118.111689 
L 218.803137 123.883665 
L 219.422824 119.555419 
L 220.04251 123.888711 
L 220.662196 117.858175 
L 221.281882 123.448949 
L 221.901569 114.904288 
L 222.521255 123.288348 
L 223.140941 104.642203 
L 223.760627 125.950041 
L 224.380314 59.138227 
L 225 131.203636 
L 225 131.203636 
" style="fill:none;stroke:#0000ff;stroke-linecap:square;stroke-width:1.5;"/>
   </g>
   <g id="line2d_11">
    <path clip-path="url(#p0f62a8c0b3)" d="M 66.98 129.129694 
L 67.599686 128.552034 
L 68.219373 92.816147 
L 68.839059 111.372742 
L 69.458745 72.299543 
L 70.078431 98.241275 
L 70.698118 77.755362 
L 71.317804 93.987023 
L 71.93749 83.011901 
L 72.557176 93.917232 
L 73.176863 90.503825 
L 73.796549 95.609852 
L 74.416235 95.012432 
L 75.035922 97.643014 
L 75.655608 97.681693 
L 76.275294 99.320499 
L 76.89498 99.338997 
L 77.514667 100.427891 
L 78.134353 100.647351 
L 78.754039 101.853963 
L 79.373725 101.842611 
L 79.993412 102.549761 
L 80.613098 102.783937 
L 81.232784 103.715592 
L 81.852471 103.511267 
L 83.091843 104.142741 
L 83.711529 104.747729 
L 84.331216 104.520701 
L 84.950902 105.181184 
L 85.570588 104.701062 
L 86.190275 104.996198 
L 86.809961 104.723765 
L 87.429647 105.400644 
L 88.049333 105.061364 
L 88.66902 105.553678 
L 89.288706 104.920943 
L 89.908392 105.516681 
L 90.528078 105.446891 
L 91.147765 105.948034 
L 91.767451 105.78449 
L 92.387137 106.121668 
L 93.62651 106.465994 
L 94.246196 106.265453 
L 94.865882 106.715305 
L 95.485569 106.34197 
L 96.105255 106.820831 
L 96.724941 106.55092 
L 97.344627 106.735905 
L 97.964314 106.181368 
L 98.584 106.916687 
L 99.203686 106.729599 
L 99.823373 107.252604 
L 100.443059 107.126057 
L 102.921804 107.391343 
L 103.54149 107.593567 
L 104.161176 107.289181 
L 104.780863 107.735669 
L 105.400549 107.440533 
L 106.020235 107.978253 
L 106.639922 107.612065 
L 107.259608 107.897952 
L 107.879294 107.717171 
L 108.49898 107.932006 
L 109.118667 107.869784 
L 109.738353 108.365462 
L 110.358039 108.21453 
L 110.977725 108.573571 
L 111.597412 108.460898 
L 112.217098 108.816575 
L 112.836784 108.559697 
L 113.456471 109.088588 
L 114.076157 108.886785 
L 114.695843 109.181081 
L 115.935216 109.387929 
L 116.554902 109.054954 
L 117.174588 109.553995 
L 117.794275 109.189069 
L 118.413961 109.455196 
L 119.653333 109.771774 
L 120.27302 109.620422 
L 120.892706 110.035799 
L 121.512392 109.988291 
L 122.132078 110.144688 
L 122.751765 110.161926 
L 123.371451 110.746313 
L 123.991137 110.624811 
L 124.610824 111.003191 
L 125.23051 111.092741 
L 125.850196 111.738509 
L 126.469882 111.165894 
L 127.089569 111.539649 
L 128.328941 111.727158 
L 129.568314 112.313226 
L 130.188 112.399413 
L 130.807686 112.839174 
L 131.427373 112.63569 
L 132.666745 112.591125 
L 133.286431 112.93461 
L 133.906118 112.796712 
L 134.525804 112.908544 
L 135.14549 112.844219 
L 135.765176 113.425243 
L 136.384863 113.000196 
L 137.004549 113.465603 
L 137.624235 113.171308 
L 138.243922 113.577856 
L 138.863608 113.552631 
L 139.483294 113.921341 
L 140.10298 113.471069 
L 140.722667 114.041161 
L 141.342353 113.79059 
L 141.962039 114.332514 
L 142.581725 114.451073 
L 143.201412 114.785309 
L 143.821098 114.712155 
L 144.440784 115.033358 
L 145.680157 115.417624 
L 146.299843 115.280566 
L 147.539216 115.796844 
L 148.158902 115.906575 
L 148.778588 115.71234 
L 149.398275 116.214324 
L 150.017961 116.274865 
L 150.637647 116.732704 
L 151.257333 116.974447 
L 152.496706 117.019012 
L 153.116392 117.394028 
L 154.355765 117.827904 
L 154.975451 117.642498 
L 155.595137 118.09235 
L 156.214824 117.580696 
L 156.83451 117.991869 
L 157.454196 117.937634 
L 158.073882 118.448868 
L 158.693569 118.07259 
L 159.313255 118.550189 
L 159.932941 118.669169 
L 160.552627 119.052174 
L 161.172314 118.794455 
L 161.792 119.30737 
L 162.411686 119.155597 
L 163.031373 119.436019 
L 163.651059 119.395659 
L 164.270745 120.242389 
L 164.890431 120.109115 
L 165.510118 120.640949 
L 166.129804 120.785995 
L 166.74949 121.184975 
L 167.369176 120.800289 
L 167.988863 121.116867 
L 168.608549 120.7717 
L 169.228235 121.435127 
L 169.847922 120.753622 
L 170.467608 121.304796 
L 171.087294 120.957107 
L 171.70698 121.452784 
L 172.326667 121.082813 
L 172.946353 121.493565 
L 173.566039 121.504076 
L 174.185725 121.768942 
L 174.805412 121.55789 
L 175.425098 122.067021 
L 176.044784 121.956871 
L 176.664471 122.362158 
L 177.284157 122.16498 
L 177.903843 122.260415 
L 178.523529 122.073748 
L 179.143216 122.526543 
L 179.762902 122.466422 
L 180.382588 122.690507 
L 181.002275 122.635852 
L 181.621961 122.931409 
L 182.241647 122.751889 
L 182.861333 122.803601 
L 183.48102 122.730027 
L 184.100706 122.973031 
L 184.720392 122.720357 
L 185.340078 122.841018 
L 185.959765 122.645102 
L 186.579451 122.783841 
L 187.199137 122.701018 
L 187.818824 122.936034 
L 188.43851 122.192307 
L 189.058196 122.894832 
L 189.677882 122.397053 
L 190.297569 123.080239 
L 190.917255 122.427323 
L 191.536941 123.072251 
L 192.156627 122.83261 
L 192.776314 123.187026 
L 193.396 122.987746 
L 194.015686 123.478799 
L 194.635373 123.065944 
L 195.255059 123.438859 
L 195.874745 123.269008 
L 196.494431 123.733995 
L 197.114118 123.667989 
L 197.733804 124.112796 
L 198.35349 123.951353 
L 198.973176 124.352016 
L 199.592863 124.399524 
L 200.212549 124.593759 
L 200.832235 124.371355 
L 201.451922 124.444509 
L 202.071608 124.332676 
L 203.31098 124.30619 
L 203.930667 124.50589 
L 204.550353 124.174598 
L 205.170039 124.264988 
L 205.789725 123.881143 
L 206.409412 123.666307 
L 207.648784 123.726848 
L 208.268471 122.957896 
L 208.888157 123.086545 
L 209.507843 122.217112 
L 210.127529 122.193568 
L 210.747216 121.567139 
L 211.366902 121.849242 
L 211.986588 121.025635 
L 212.606275 121.748762 
L 213.225961 120.564012 
L 213.845647 121.211882 
L 214.465333 119.821126 
L 215.08502 120.145271 
L 215.704706 117.403698 
L 216.324392 118.236134 
L 216.944078 114.158459 
L 217.563765 116.942495 
L 218.183451 111.458087 
L 218.803137 116.281171 
L 219.422824 105.762628 
L 220.04251 116.884477 
L 220.662196 99.966687 
L 221.281882 119.928754 
L 221.901569 101.248134 
L 222.521255 126.360373 
L 223.140941 123.813455 
L 223.760627 129.887715 
L 224.380314 129.7536 
L 225 129.764531 
L 225 129.764531 
" style="fill:none;stroke:#008000;stroke-linecap:square;stroke-width:1.5;"/>
   </g>
   <g id="patch_3">
    <path d="M 66.98 136.24 
L 66.98 25.44 
" style="fill:none;stroke:#000000;stroke-linecap:square;stroke-linejoin:miter;stroke-width:0.8;"/>
   </g>
   <g id="patch_4">
    <path d="M 225 136.24 
L 225 25.44 
" style="fill:none;stroke:#000000;stroke-linecap:square;stroke-linejoin:miter;stroke-width:0.8;"/>
   </g>
   <g id="patch_5">
    <path d="M 66.98 136.24 
L 225 136.24 
" style="fill:none;stroke:#000000;stroke-linecap:square;stroke-linejoin:miter;stroke-width:0.8;"/>
   </g>
   <g id="patch_6">
    <path d="M 66.98 25.44 
L 225 25.44 
" style="fill:none;stroke:#000000;stroke-linecap:square;stroke-linejoin:miter;stroke-width:0.8;"/>
   </g>
   <g id="text_12">
    <!-- starGAN-cA/ -->
    <defs>
     <path d="M 44.28125 53.078125 
L 44.28125 44.578125 
Q 40.484375 46.53125 36.375 47.5 
Q 32.28125 48.484375 27.875 48.484375 
Q 21.1875 48.484375 17.84375 46.4375 
Q 14.5 44.390625 14.5 40.28125 
Q 14.5 37.15625 16.890625 35.375 
Q 19.28125 33.59375 26.515625 31.984375 
L 29.59375 31.296875 
Q 39.15625 29.25 43.1875 25.515625 
Q 47.21875 21.78125 47.21875 15.09375 
Q 47.21875 7.46875 41.1875 3.015625 
Q 35.15625 -1.421875 24.609375 -1.421875 
Q 20.21875 -1.421875 15.453125 -0.5625 
Q 10.6875 0.296875 5.421875 2 
L 5.421875 11.28125 
Q 10.40625 8.6875 15.234375 7.390625 
Q 20.0625 6.109375 24.8125 6.109375 
Q 31.15625 6.109375 34.5625 8.28125 
Q 37.984375 10.453125 37.984375 14.40625 
Q 37.984375 18.0625 35.515625 20.015625 
Q 33.0625 21.96875 24.703125 23.78125 
L 21.578125 24.515625 
Q 13.234375 26.265625 9.515625 29.90625 
Q 5.8125 33.546875 5.8125 39.890625 
Q 5.8125 47.609375 11.28125 51.796875 
Q 16.75 56 26.8125 56 
Q 31.78125 56 36.171875 55.265625 
Q 40.578125 54.546875 44.28125 53.078125 
z
" id="DejaVuSans-115"/>
     <path d="M 18.3125 70.21875 
L 18.3125 54.6875 
L 36.8125 54.6875 
L 36.8125 47.703125 
L 18.3125 47.703125 
L 18.3125 18.015625 
Q 18.3125 11.328125 20.140625 9.421875 
Q 21.96875 7.515625 27.59375 7.515625 
L 36.8125 7.515625 
L 36.8125 0 
L 27.59375 0 
Q 17.1875 0 13.234375 3.875 
Q 9.28125 7.765625 9.28125 18.015625 
L 9.28125 47.703125 
L 2.6875 47.703125 
L 2.6875 54.6875 
L 9.28125 54.6875 
L 9.28125 70.21875 
z
" id="DejaVuSans-116"/>
     <path d="M 59.515625 10.40625 
L 59.515625 29.984375 
L 43.40625 29.984375 
L 43.40625 38.09375 
L 69.28125 38.09375 
L 69.28125 6.78125 
Q 63.578125 2.734375 56.6875 0.65625 
Q 49.8125 -1.421875 42 -1.421875 
Q 24.90625 -1.421875 15.25 8.5625 
Q 5.609375 18.5625 5.609375 36.375 
Q 5.609375 54.25 15.25 64.234375 
Q 24.90625 74.21875 42 74.21875 
Q 49.125 74.21875 55.546875 72.453125 
Q 61.96875 70.703125 67.390625 67.28125 
L 67.390625 56.78125 
Q 61.921875 61.421875 55.765625 63.765625 
Q 49.609375 66.109375 42.828125 66.109375 
Q 29.4375 66.109375 22.71875 58.640625 
Q 16.015625 51.171875 16.015625 36.375 
Q 16.015625 21.625 22.71875 14.15625 
Q 29.4375 6.6875 42.828125 6.6875 
Q 48.046875 6.6875 52.140625 7.59375 
Q 56.25 8.5 59.515625 10.40625 
z
" id="DejaVuSans-71"/>
     <path d="M 34.1875 63.1875 
L 20.796875 26.90625 
L 47.609375 26.90625 
z
M 28.609375 72.90625 
L 39.796875 72.90625 
L 67.578125 0 
L 57.328125 0 
L 50.6875 18.703125 
L 17.828125 18.703125 
L 11.1875 0 
L 0.78125 0 
z
" id="DejaVuSans-65"/>
     <path d="M 9.8125 72.90625 
L 23.09375 72.90625 
L 55.421875 11.921875 
L 55.421875 72.90625 
L 64.984375 72.90625 
L 64.984375 0 
L 51.703125 0 
L 19.390625 60.984375 
L 19.390625 0 
L 9.8125 0 
z
" id="DejaVuSans-78"/>
     <path d="M 4.890625 31.390625 
L 31.203125 31.390625 
L 31.203125 23.390625 
L 4.890625 23.390625 
z
" id="DejaVuSans-45"/>
     <path d="M 48.78125 52.59375 
L 48.78125 44.1875 
Q 44.96875 46.296875 41.140625 47.34375 
Q 37.3125 48.390625 33.40625 48.390625 
Q 24.65625 48.390625 19.8125 42.84375 
Q 14.984375 37.3125 14.984375 27.296875 
Q 14.984375 17.28125 19.8125 11.734375 
Q 24.65625 6.203125 33.40625 6.203125 
Q 37.3125 6.203125 41.140625 7.25 
Q 44.96875 8.296875 48.78125 10.40625 
L 48.78125 2.09375 
Q 45.015625 0.34375 40.984375 -0.53125 
Q 36.96875 -1.421875 32.421875 -1.421875 
Q 20.0625 -1.421875 12.78125 6.34375 
Q 5.515625 14.109375 5.515625 27.296875 
Q 5.515625 40.671875 12.859375 48.328125 
Q 20.21875 56 33.015625 56 
Q 37.15625 56 41.109375 55.140625 
Q 45.0625 54.296875 48.78125 52.59375 
z
" id="DejaVuSans-99"/>
     <path d="M 25.390625 72.90625 
L 33.6875 72.90625 
L 8.296875 -9.28125 
L 0 -9.28125 
z
" id="DejaVuSans-47"/>
    </defs>
    <g transform="translate(109.537188 19.44)scale(0.12 -0.12)">
     <use xlink:href="#DejaVuSans-115"/>
     <use x="52.099609" xlink:href="#DejaVuSans-116"/>
     <use x="91.308594" xlink:href="#DejaVuSans-97"/>
     <use x="152.587891" xlink:href="#DejaVuSans-114"/>
     <use x="193.701172" xlink:href="#DejaVuSans-71"/>
     <use x="271.191406" xlink:href="#DejaVuSans-65"/>
     <use x="339.599609" xlink:href="#DejaVuSans-78"/>
     <use x="414.404297" xlink:href="#DejaVuSans-45"/>
     <use x="450.488281" xlink:href="#DejaVuSans-99"/>
     <use x="505.46875" xlink:href="#DejaVuSans-65"/>
     <use x="573.876953" xlink:href="#DejaVuSans-47"/>
    </g>
   </g>
   <g id="legend_1">
    <g id="patch_7">
     <path d="M 164.770312 62.79625 
L 218 62.79625 
Q 220 62.79625 220 60.79625 
L 220 32.44 
Q 220 30.44 218 30.44 
L 164.770312 30.44 
Q 162.770312 30.44 162.770312 32.44 
L 162.770312 60.79625 
Q 162.770312 62.79625 164.770312 62.79625 
z
" style="fill:#ffffff;opacity:0.8;stroke:#cccccc;stroke-linejoin:miter;"/>
    </g>
    <g id="line2d_12">
     <path d="M 166.770312 38.538437 
L 186.770312 38.538437 
" style="fill:none;stroke:#0000ff;stroke-linecap:square;stroke-width:1.5;"/>
    </g>
    <g id="line2d_13"/>
    <g id="text_13">
     <!-- real -->
     <g transform="translate(194.770312 42.038437)scale(0.1 -0.1)">
      <use xlink:href="#DejaVuSans-114"/>
      <use x="38.863281" xlink:href="#DejaVuSans-101"/>
      <use x="100.386719" xlink:href="#DejaVuSans-97"/>
      <use x="161.666016" xlink:href="#DejaVuSans-108"/>
     </g>
    </g>
    <g id="line2d_14">
     <path d="M 166.770312 53.216563 
L 186.770312 53.216563 
" style="fill:none;stroke:#008000;stroke-linecap:square;stroke-width:1.5;"/>
    </g>
    <g id="line2d_15"/>
    <g id="text_14">
     <!-- fake -->
     <defs>
      <path d="M 9.078125 75.984375 
L 18.109375 75.984375 
L 18.109375 31.109375 
L 44.921875 54.6875 
L 56.390625 54.6875 
L 27.390625 29.109375 
L 57.625 0 
L 45.90625 0 
L 18.109375 26.703125 
L 18.109375 0 
L 9.078125 0 
z
" id="DejaVuSans-107"/>
     </defs>
     <g transform="translate(194.770312 56.716563)scale(0.1 -0.1)">
      <use xlink:href="#DejaVuSans-102"/>
      <use x="35.205078" xlink:href="#DejaVuSans-97"/>
      <use x="96.484375" xlink:href="#DejaVuSans-107"/>
      <use x="150.769531" xlink:href="#DejaVuSans-101"/>
     </g>
    </g>
   </g>
  </g>
  <g id="axes_2">
   <g id="patch_8">
    <path d="M 282.395 136.24 
L 440.415 136.24 
L 440.415 25.44 
L 282.395 25.44 
z
" style="fill:#ffffff;"/>
   </g>
   <g id="matplotlib.axis_3">
    <g id="xtick_5">
     <g id="line2d_16">
      <g>
       <use style="stroke:#000000;stroke-width:0.8;" x="282.395" xlink:href="#m53481f8ef2" y="136.24"/>
      </g>
     </g>
     <g id="text_15">
      <!-- 0 -->
      <g transform="translate(279.21375 150.838437)scale(0.1 -0.1)">
       <use xlink:href="#DejaVuSans-48"/>
      </g>
     </g>
    </g>
    <g id="xtick_6">
     <g id="line2d_17">
      <g>
       <use style="stroke:#000000;stroke-width:0.8;" x="335.068333" xlink:href="#m53481f8ef2" y="136.24"/>
      </g>
     </g>
     <g id="text_16">
      <!-- 85 -->
      <g transform="translate(328.705833 150.838437)scale(0.1 -0.1)">
       <use xlink:href="#DejaVuSans-56"/>
       <use x="63.623047" xlink:href="#DejaVuSans-53"/>
      </g>
     </g>
    </g>
    <g id="xtick_7">
     <g id="line2d_18">
      <g>
       <use style="stroke:#000000;stroke-width:0.8;" x="387.741667" xlink:href="#m53481f8ef2" y="136.24"/>
      </g>
     </g>
     <g id="text_17">
      <!-- 170 -->
      <g transform="translate(378.197917 150.838437)scale(0.1 -0.1)">
       <use xlink:href="#DejaVuSans-49"/>
       <use x="63.623047" xlink:href="#DejaVuSans-55"/>
       <use x="127.246094" xlink:href="#DejaVuSans-48"/>
      </g>
     </g>
    </g>
    <g id="xtick_8">
     <g id="line2d_19">
      <g>
       <use style="stroke:#000000;stroke-width:0.8;" x="440.415" xlink:href="#m53481f8ef2" y="136.24"/>
      </g>
     </g>
     <g id="text_18">
      <!-- 255 -->
      <g transform="translate(430.87125 150.838437)scale(0.1 -0.1)">
       <use xlink:href="#DejaVuSans-50"/>
       <use x="63.623047" xlink:href="#DejaVuSans-53"/>
       <use x="127.246094" xlink:href="#DejaVuSans-53"/>
      </g>
     </g>
    </g>
    <g id="text_19">
     <!-- gray value -->
     <g transform="translate(334.905 164.516562)scale(0.1 -0.1)">
      <use xlink:href="#DejaVuSans-103"/>
      <use x="63.476562" xlink:href="#DejaVuSans-114"/>
      <use x="104.589844" xlink:href="#DejaVuSans-97"/>
      <use x="165.869141" xlink:href="#DejaVuSans-121"/>
      <use x="225.048828" xlink:href="#DejaVuSans-32"/>
      <use x="256.835938" xlink:href="#DejaVuSans-118"/>
      <use x="316.015625" xlink:href="#DejaVuSans-97"/>
      <use x="377.294922" xlink:href="#DejaVuSans-108"/>
      <use x="405.078125" xlink:href="#DejaVuSans-117"/>
      <use x="468.457031" xlink:href="#DejaVuSans-101"/>
     </g>
    </g>
   </g>
   <g id="matplotlib.axis_4">
    <g id="ytick_6">
     <g id="line2d_20">
      <g>
       <use style="stroke:#000000;stroke-width:0.8;" x="282.395" xlink:href="#m1aacb7086a" y="131.20372"/>
      </g>
     </g>
     <g id="text_20">
      <!-- 0.0 -->
      <g transform="translate(259.491875 135.002939)scale(0.1 -0.1)">
       <use xlink:href="#DejaVuSans-48"/>
       <use x="63.623047" xlink:href="#DejaVuSans-46"/>
       <use x="95.410156" xlink:href="#DejaVuSans-48"/>
      </g>
     </g>
    </g>
    <g id="ytick_7">
     <g id="line2d_21">
      <g>
       <use style="stroke:#000000;stroke-width:0.8;" x="282.395" xlink:href="#m1aacb7086a" y="105.716444"/>
      </g>
     </g>
     <g id="text_21">
      <!-- 0.1 -->
      <g transform="translate(259.491875 109.515663)scale(0.1 -0.1)">
       <use xlink:href="#DejaVuSans-48"/>
       <use x="63.623047" xlink:href="#DejaVuSans-46"/>
       <use x="95.410156" xlink:href="#DejaVuSans-49"/>
      </g>
     </g>
    </g>
    <g id="ytick_8">
     <g id="line2d_22">
      <g>
       <use style="stroke:#000000;stroke-width:0.8;" x="282.395" xlink:href="#m1aacb7086a" y="80.229168"/>
      </g>
     </g>
     <g id="text_22">
      <!-- 0.2 -->
      <g transform="translate(259.491875 84.028387)scale(0.1 -0.1)">
       <use xlink:href="#DejaVuSans-48"/>
       <use x="63.623047" xlink:href="#DejaVuSans-46"/>
       <use x="95.410156" xlink:href="#DejaVuSans-50"/>
      </g>
     </g>
    </g>
    <g id="ytick_9">
     <g id="line2d_23">
      <g>
       <use style="stroke:#000000;stroke-width:0.8;" x="282.395" xlink:href="#m1aacb7086a" y="54.741892"/>
      </g>
     </g>
     <g id="text_23">
      <!-- 0.3 -->
      <defs>
       <path d="M 40.578125 39.3125 
Q 47.65625 37.796875 51.625 33 
Q 55.609375 28.21875 55.609375 21.1875 
Q 55.609375 10.40625 48.1875 4.484375 
Q 40.765625 -1.421875 27.09375 -1.421875 
Q 22.515625 -1.421875 17.65625 -0.515625 
Q 12.796875 0.390625 7.625 2.203125 
L 7.625 11.71875 
Q 11.71875 9.328125 16.59375 8.109375 
Q 21.484375 6.890625 26.8125 6.890625 
Q 36.078125 6.890625 40.9375 10.546875 
Q 45.796875 14.203125 45.796875 21.1875 
Q 45.796875 27.640625 41.28125 31.265625 
Q 36.765625 34.90625 28.71875 34.90625 
L 20.21875 34.90625 
L 20.21875 43.015625 
L 29.109375 43.015625 
Q 36.375 43.015625 40.234375 45.921875 
Q 44.09375 48.828125 44.09375 54.296875 
Q 44.09375 59.90625 40.109375 62.90625 
Q 36.140625 65.921875 28.71875 65.921875 
Q 24.65625 65.921875 20.015625 65.03125 
Q 15.375 64.15625 9.8125 62.3125 
L 9.8125 71.09375 
Q 15.4375 72.65625 20.34375 73.4375 
Q 25.25 74.21875 29.59375 74.21875 
Q 40.828125 74.21875 47.359375 69.109375 
Q 53.90625 64.015625 53.90625 55.328125 
Q 53.90625 49.265625 50.4375 45.09375 
Q 46.96875 40.921875 40.578125 39.3125 
z
" id="DejaVuSans-51"/>
      </defs>
      <g transform="translate(259.491875 58.541111)scale(0.1 -0.1)">
       <use xlink:href="#DejaVuSans-48"/>
       <use x="63.623047" xlink:href="#DejaVuSans-46"/>
       <use x="95.410156" xlink:href="#DejaVuSans-51"/>
      </g>
     </g>
    </g>
    <g id="ytick_10">
     <g id="line2d_24">
      <g>
       <use style="stroke:#000000;stroke-width:0.8;" x="282.395" xlink:href="#m1aacb7086a" y="29.254616"/>
      </g>
     </g>
     <g id="text_24">
      <!-- 0.4 -->
      <defs>
       <path d="M 37.796875 64.3125 
L 12.890625 25.390625 
L 37.796875 25.390625 
z
M 35.203125 72.90625 
L 47.609375 72.90625 
L 47.609375 25.390625 
L 58.015625 25.390625 
L 58.015625 17.1875 
L 47.609375 17.1875 
L 47.609375 0 
L 37.796875 0 
L 37.796875 17.1875 
L 4.890625 17.1875 
L 4.890625 26.703125 
z
" id="DejaVuSans-52"/>
      </defs>
      <g transform="translate(259.491875 33.053834)scale(0.1 -0.1)">
       <use xlink:href="#DejaVuSans-48"/>
       <use x="63.623047" xlink:href="#DejaVuSans-46"/>
       <use x="95.410156" xlink:href="#DejaVuSans-52"/>
      </g>
     </g>
    </g>
    <g id="text_25">
     <!-- pixel freq -->
     <g transform="translate(253.412188 104.215)rotate(-90)scale(0.1 -0.1)">
      <use xlink:href="#DejaVuSans-112"/>
      <use x="63.476562" xlink:href="#DejaVuSans-105"/>
      <use x="91.259766" xlink:href="#DejaVuSans-120"/>
      <use x="147.314453" xlink:href="#DejaVuSans-101"/>
      <use x="208.837891" xlink:href="#DejaVuSans-108"/>
      <use x="236.621094" xlink:href="#DejaVuSans-32"/>
      <use x="268.408203" xlink:href="#DejaVuSans-102"/>
      <use x="303.613281" xlink:href="#DejaVuSans-114"/>
      <use x="342.476562" xlink:href="#DejaVuSans-101"/>
      <use x="404" xlink:href="#DejaVuSans-113"/>
     </g>
    </g>
   </g>
   <g id="line2d_25">
    <path clip-path="url(#pbfbd2bf364)" d="M 282.395 30.476364 
L 283.014686 108.756568 
L 283.634373 118.101428 
L 284.254059 122.909179 
L 284.873745 125.351035 
L 285.493431 125.651234 
L 286.113118 127.874323 
L 286.732804 128.697652 
L 287.35249 128.927178 
L 287.972176 129.519534 
L 289.211549 129.767991 
L 289.831235 130.221442 
L 290.450922 130.274943 
L 291.070608 130.472519 
L 297.887157 130.994585 
L 304.08402 131.128979 
L 332.589588 131.201494 
L 421.204725 131.113171 
L 426.781902 130.975582 
L 428.640961 130.869752 
L 430.50002 130.69368 
L 433.598451 130.231625 
L 434.218137 129.772813 
L 434.837824 129.703756 
L 435.45751 129.510117 
L 436.077196 128.926161 
L 436.696882 128.681749 
L 437.316569 127.867334 
L 437.936255 125.615658 
L 438.555941 125.356959 
L 439.175627 122.961244 
L 439.795314 118.067623 
L 440.415 108.365102 
L 440.415 108.365102 
" style="fill:none;stroke:#0000ff;stroke-linecap:square;stroke-width:1.5;"/>
   </g>
   <g id="line2d_26">
    <path clip-path="url(#pbfbd2bf364)" d="M 282.395 37.977419 
L 283.014686 106.554277 
L 283.634373 116.758677 
L 284.254059 121.993828 
L 284.873745 124.787027 
L 285.493431 125.261743 
L 286.113118 127.683628 
L 286.732804 128.558795 
L 287.35249 128.833829 
L 287.972176 129.45506 
L 288.591863 129.672954 
L 289.211549 129.734258 
L 289.831235 130.206101 
L 295.408412 130.901427 
L 297.887157 131.018398 
L 305.323392 131.152385 
L 328.871471 131.201937 
L 423.683471 131.075034 
L 429.880333 130.796052 
L 433.598451 130.2078 
L 434.218137 129.715351 
L 434.837824 129.666564 
L 435.45751 129.452104 
L 436.077196 128.837574 
L 436.696882 128.563857 
L 437.316569 127.717349 
L 437.936255 125.370289 
L 438.555941 125.006585 
L 439.175627 122.520082 
L 439.795314 117.59213 
L 440.415 107.966253 
L 440.415 107.966253 
" style="fill:none;stroke:#008000;stroke-linecap:square;stroke-width:1.5;"/>
   </g>
   <g id="patch_9">
    <path d="M 282.395 136.24 
L 282.395 25.44 
" style="fill:none;stroke:#000000;stroke-linecap:square;stroke-linejoin:miter;stroke-width:0.8;"/>
   </g>
   <g id="patch_10">
    <path d="M 440.415 136.24 
L 440.415 25.44 
" style="fill:none;stroke:#000000;stroke-linecap:square;stroke-linejoin:miter;stroke-width:0.8;"/>
   </g>
   <g id="patch_11">
    <path d="M 282.395 136.24 
L 440.415 136.24 
" style="fill:none;stroke:#000000;stroke-linecap:square;stroke-linejoin:miter;stroke-width:0.8;"/>
   </g>
   <g id="patch_12">
    <path d="M 282.395 25.44 
L 440.415 25.44 
" style="fill:none;stroke:#000000;stroke-linecap:square;stroke-linejoin:miter;stroke-width:0.8;"/>
   </g>
   <g id="text_26">
    <!-- starGAN-cH/ -->
    <defs>
     <path d="M 9.8125 72.90625 
L 19.671875 72.90625 
L 19.671875 43.015625 
L 55.515625 43.015625 
L 55.515625 72.90625 
L 65.375 72.90625 
L 65.375 0 
L 55.515625 0 
L 55.515625 34.71875 
L 19.671875 34.71875 
L 19.671875 0 
L 9.8125 0 
z
" id="DejaVuSans-72"/>
    </defs>
    <g transform="translate(324.544375 19.44)scale(0.12 -0.12)">
     <use xlink:href="#DejaVuSans-115"/>
     <use x="52.099609" xlink:href="#DejaVuSans-116"/>
     <use x="91.308594" xlink:href="#DejaVuSans-97"/>
     <use x="152.587891" xlink:href="#DejaVuSans-114"/>
     <use x="193.701172" xlink:href="#DejaVuSans-71"/>
     <use x="271.191406" xlink:href="#DejaVuSans-65"/>
     <use x="339.599609" xlink:href="#DejaVuSans-78"/>
     <use x="414.404297" xlink:href="#DejaVuSans-45"/>
     <use x="450.488281" xlink:href="#DejaVuSans-99"/>
     <use x="505.46875" xlink:href="#DejaVuSans-72"/>
     <use x="580.664062" xlink:href="#DejaVuSans-47"/>
    </g>
   </g>
   <g id="legend_2">
    <g id="patch_13">
     <path d="M 380.185312 62.79625 
L 433.415 62.79625 
Q 435.415 62.79625 435.415 60.79625 
L 435.415 32.44 
Q 435.415 30.44 433.415 30.44 
L 380.185312 30.44 
Q 378.185312 30.44 378.185312 32.44 
L 378.185312 60.79625 
Q 378.185312 62.79625 380.185312 62.79625 
z
" style="fill:#ffffff;opacity:0.8;stroke:#cccccc;stroke-linejoin:miter;"/>
    </g>
    <g id="line2d_27">
     <path d="M 382.185312 38.538437 
L 402.185312 38.538437 
" style="fill:none;stroke:#0000ff;stroke-linecap:square;stroke-width:1.5;"/>
    </g>
    <g id="line2d_28"/>
    <g id="text_27">
     <!-- real -->
     <g transform="translate(410.185312 42.038437)scale(0.1 -0.1)">
      <use xlink:href="#DejaVuSans-114"/>
      <use x="38.863281" xlink:href="#DejaVuSans-101"/>
      <use x="100.386719" xlink:href="#DejaVuSans-97"/>
      <use x="161.666016" xlink:href="#DejaVuSans-108"/>
     </g>
    </g>
    <g id="line2d_29">
     <path d="M 382.185312 53.216563 
L 402.185312 53.216563 
" style="fill:none;stroke:#008000;stroke-linecap:square;stroke-width:1.5;"/>
    </g>
    <g id="line2d_30"/>
    <g id="text_28">
     <!-- fake -->
     <g transform="translate(410.185312 56.716563)scale(0.1 -0.1)">
      <use xlink:href="#DejaVuSans-102"/>
      <use x="35.205078" xlink:href="#DejaVuSans-97"/>
      <use x="96.484375" xlink:href="#DejaVuSans-107"/>
      <use x="150.769531" xlink:href="#DejaVuSans-101"/>
     </g>
    </g>
   </g>
  </g>
  <g id="axes_3">
   <g id="patch_14">
    <path d="M 66.98 303.64 
L 225 303.64 
L 225 192.84 
L 66.98 192.84 
z
" style="fill:#ffffff;"/>
   </g>
   <g id="matplotlib.axis_5">
    <g id="xtick_9">
     <g id="line2d_31">
      <g>
       <use style="stroke:#000000;stroke-width:0.8;" x="66.98" xlink:href="#m53481f8ef2" y="303.64"/>
      </g>
     </g>
     <g id="text_29">
      <!-- 0 -->
      <g transform="translate(63.79875 318.238437)scale(0.1 -0.1)">
       <use xlink:href="#DejaVuSans-48"/>
      </g>
     </g>
    </g>
    <g id="xtick_10">
     <g id="line2d_32">
      <g>
       <use style="stroke:#000000;stroke-width:0.8;" x="119.653333" xlink:href="#m53481f8ef2" y="303.64"/>
      </g>
     </g>
     <g id="text_30">
      <!-- 85 -->
      <g transform="translate(113.290833 318.238437)scale(0.1 -0.1)">
       <use xlink:href="#DejaVuSans-56"/>
       <use x="63.623047" xlink:href="#DejaVuSans-53"/>
      </g>
     </g>
    </g>
    <g id="xtick_11">
     <g id="line2d_33">
      <g>
       <use style="stroke:#000000;stroke-width:0.8;" x="172.326667" xlink:href="#m53481f8ef2" y="303.64"/>
      </g>
     </g>
     <g id="text_31">
      <!-- 170 -->
      <g transform="translate(162.782917 318.238437)scale(0.1 -0.1)">
       <use xlink:href="#DejaVuSans-49"/>
       <use x="63.623047" xlink:href="#DejaVuSans-55"/>
       <use x="127.246094" xlink:href="#DejaVuSans-48"/>
      </g>
     </g>
    </g>
    <g id="xtick_12">
     <g id="line2d_34">
      <g>
       <use style="stroke:#000000;stroke-width:0.8;" x="225" xlink:href="#m53481f8ef2" y="303.64"/>
      </g>
     </g>
     <g id="text_32">
      <!-- 255 -->
      <g transform="translate(215.45625 318.238437)scale(0.1 -0.1)">
       <use xlink:href="#DejaVuSans-50"/>
       <use x="63.623047" xlink:href="#DejaVuSans-53"/>
       <use x="127.246094" xlink:href="#DejaVuSans-53"/>
      </g>
     </g>
    </g>
    <g id="text_33">
     <!-- gray value -->
     <g transform="translate(119.49 331.916562)scale(0.1 -0.1)">
      <use xlink:href="#DejaVuSans-103"/>
      <use x="63.476562" xlink:href="#DejaVuSans-114"/>
      <use x="104.589844" xlink:href="#DejaVuSans-97"/>
      <use x="165.869141" xlink:href="#DejaVuSans-121"/>
      <use x="225.048828" xlink:href="#DejaVuSans-32"/>
      <use x="256.835938" xlink:href="#DejaVuSans-118"/>
      <use x="316.015625" xlink:href="#DejaVuSans-97"/>
      <use x="377.294922" xlink:href="#DejaVuSans-108"/>
      <use x="405.078125" xlink:href="#DejaVuSans-117"/>
      <use x="468.457031" xlink:href="#DejaVuSans-101"/>
     </g>
    </g>
   </g>
   <g id="matplotlib.axis_6">
    <g id="ytick_11">
     <g id="line2d_35">
      <g>
       <use style="stroke:#000000;stroke-width:0.8;" x="66.98" xlink:href="#m1aacb7086a" y="298.603779"/>
      </g>
     </g>
     <g id="text_34">
      <!-- 0.0 -->
      <g transform="translate(44.076875 302.402997)scale(0.1 -0.1)">
       <use xlink:href="#DejaVuSans-48"/>
       <use x="63.623047" xlink:href="#DejaVuSans-46"/>
       <use x="95.410156" xlink:href="#DejaVuSans-48"/>
      </g>
     </g>
    </g>
    <g id="ytick_12">
     <g id="line2d_36">
      <g>
       <use style="stroke:#000000;stroke-width:0.8;" x="66.98" xlink:href="#m1aacb7086a" y="268.329543"/>
      </g>
     </g>
     <g id="text_35">
      <!-- 0.1 -->
      <g transform="translate(44.076875 272.128762)scale(0.1 -0.1)">
       <use xlink:href="#DejaVuSans-48"/>
       <use x="63.623047" xlink:href="#DejaVuSans-46"/>
       <use x="95.410156" xlink:href="#DejaVuSans-49"/>
      </g>
     </g>
    </g>
    <g id="ytick_13">
     <g id="line2d_37">
      <g>
       <use style="stroke:#000000;stroke-width:0.8;" x="66.98" xlink:href="#m1aacb7086a" y="238.055308"/>
      </g>
     </g>
     <g id="text_36">
      <!-- 0.2 -->
      <g transform="translate(44.076875 241.854527)scale(0.1 -0.1)">
       <use xlink:href="#DejaVuSans-48"/>
       <use x="63.623047" xlink:href="#DejaVuSans-46"/>
       <use x="95.410156" xlink:href="#DejaVuSans-50"/>
      </g>
     </g>
    </g>
    <g id="ytick_14">
     <g id="line2d_38">
      <g>
       <use style="stroke:#000000;stroke-width:0.8;" x="66.98" xlink:href="#m1aacb7086a" y="207.781073"/>
      </g>
     </g>
     <g id="text_37">
      <!-- 0.3 -->
      <g transform="translate(44.076875 211.580291)scale(0.1 -0.1)">
       <use xlink:href="#DejaVuSans-48"/>
       <use x="63.623047" xlink:href="#DejaVuSans-46"/>
       <use x="95.410156" xlink:href="#DejaVuSans-51"/>
      </g>
     </g>
    </g>
    <g id="text_38">
     <!-- pixel freq -->
     <g transform="translate(37.997187 271.615)rotate(-90)scale(0.1 -0.1)">
      <use xlink:href="#DejaVuSans-112"/>
      <use x="63.476562" xlink:href="#DejaVuSans-105"/>
      <use x="91.259766" xlink:href="#DejaVuSans-120"/>
      <use x="147.314453" xlink:href="#DejaVuSans-101"/>
      <use x="208.837891" xlink:href="#DejaVuSans-108"/>
      <use x="236.621094" xlink:href="#DejaVuSans-32"/>
      <use x="268.408203" xlink:href="#DejaVuSans-102"/>
      <use x="303.613281" xlink:href="#DejaVuSans-114"/>
      <use x="342.476562" xlink:href="#DejaVuSans-101"/>
      <use x="404" xlink:href="#DejaVuSans-113"/>
     </g>
    </g>
   </g>
   <g id="line2d_39">
    <path clip-path="url(#p464fbd8b69)" d="M 66.98 197.876364 
L 67.599686 270.535296 
L 68.219373 282.153818 
L 68.839059 287.392225 
L 69.458745 290.871818 
L 70.078431 291.866144 
L 70.698118 293.735555 
L 71.317804 294.748586 
L 72.557176 296.21066 
L 73.176863 296.361212 
L 73.796549 296.836294 
L 75.035922 297.36715 
L 75.655608 297.574245 
L 76.89498 297.794246 
L 79.373725 298.100269 
L 81.852471 298.306767 
L 101.682431 298.58287 
L 200.212549 298.537855 
L 210.747216 298.303299 
L 214.465333 297.985976 
L 216.944078 297.56974 
L 218.803137 296.833195 
L 219.422824 296.362889 
L 220.04251 296.197199 
L 221.281882 294.756546 
L 221.901569 293.742478 
L 222.521255 291.887535 
L 223.140941 290.875158 
L 223.760627 287.424135 
L 224.380314 282.208357 
L 225 270.500529 
L 225 270.500529 
" style="fill:none;stroke:#0000ff;stroke-linecap:square;stroke-width:1.5;"/>
   </g>
   <g id="line2d_40">
    <path clip-path="url(#p464fbd8b69)" d="M 66.98 204.375264 
L 67.599686 268.293 
L 68.219373 280.626021 
L 68.839059 286.446738 
L 69.458745 290.265742 
L 70.078431 291.5529 
L 70.698118 293.50505 
L 71.317804 294.597622 
L 72.557176 296.126471 
L 73.176863 296.322636 
L 73.796549 296.803886 
L 75.655608 297.578524 
L 76.89498 297.81055 
L 78.754039 298.109082 
L 81.232784 298.294245 
L 85.570588 298.45098 
L 92.387137 298.550477 
L 125.850196 298.602627 
L 202.691294 298.529057 
L 210.747216 298.344889 
L 215.08502 297.941743 
L 216.944078 297.61339 
L 218.803137 296.873292 
L 219.422824 296.412112 
L 220.04251 296.241361 
L 221.281882 294.783908 
L 221.901569 293.7747 
L 222.521255 291.944646 
L 223.140941 290.749963 
L 223.760627 287.168898 
L 224.380314 281.51633 
L 225 269.209732 
L 225 269.209732 
" style="fill:none;stroke:#008000;stroke-linecap:square;stroke-width:1.5;"/>
   </g>
   <g id="patch_15">
    <path d="M 66.98 303.64 
L 66.98 192.84 
" style="fill:none;stroke:#000000;stroke-linecap:square;stroke-linejoin:miter;stroke-width:0.8;"/>
   </g>
   <g id="patch_16">
    <path d="M 225 303.64 
L 225 192.84 
" style="fill:none;stroke:#000000;stroke-linecap:square;stroke-linejoin:miter;stroke-width:0.8;"/>
   </g>
   <g id="patch_17">
    <path d="M 66.98 303.64 
L 225 303.64 
" style="fill:none;stroke:#000000;stroke-linecap:square;stroke-linejoin:miter;stroke-width:0.8;"/>
   </g>
   <g id="patch_18">
    <path d="M 66.98 192.84 
L 225 192.84 
" style="fill:none;stroke:#000000;stroke-linecap:square;stroke-linejoin:miter;stroke-width:0.8;"/>
   </g>
   <g id="text_39">
    <!-- starGAN-cV/ -->
    <defs>
     <path d="M 28.609375 0 
L 0.78125 72.90625 
L 11.078125 72.90625 
L 34.1875 11.53125 
L 57.328125 72.90625 
L 67.578125 72.90625 
L 39.796875 0 
z
" id="DejaVuSans-86"/>
    </defs>
    <g transform="translate(109.537188 186.84)scale(0.12 -0.12)">
     <use xlink:href="#DejaVuSans-115"/>
     <use x="52.099609" xlink:href="#DejaVuSans-116"/>
     <use x="91.308594" xlink:href="#DejaVuSans-97"/>
     <use x="152.587891" xlink:href="#DejaVuSans-114"/>
     <use x="193.701172" xlink:href="#DejaVuSans-71"/>
     <use x="271.191406" xlink:href="#DejaVuSans-65"/>
     <use x="339.599609" xlink:href="#DejaVuSans-78"/>
     <use x="414.404297" xlink:href="#DejaVuSans-45"/>
     <use x="450.488281" xlink:href="#DejaVuSans-99"/>
     <use x="505.46875" xlink:href="#DejaVuSans-86"/>
     <use x="573.876953" xlink:href="#DejaVuSans-47"/>
    </g>
   </g>
   <g id="legend_3">
    <g id="patch_19">
     <path d="M 164.770312 230.19625 
L 218 230.19625 
Q 220 230.19625 220 228.19625 
L 220 199.84 
Q 220 197.84 218 197.84 
L 164.770312 197.84 
Q 162.770312 197.84 162.770312 199.84 
L 162.770312 228.19625 
Q 162.770312 230.19625 164.770312 230.19625 
z
" style="fill:#ffffff;opacity:0.8;stroke:#cccccc;stroke-linejoin:miter;"/>
    </g>
    <g id="line2d_41">
     <path d="M 166.770312 205.938437 
L 186.770312 205.938437 
" style="fill:none;stroke:#0000ff;stroke-linecap:square;stroke-width:1.5;"/>
    </g>
    <g id="line2d_42"/>
    <g id="text_40">
     <!-- real -->
     <g transform="translate(194.770312 209.438437)scale(0.1 -0.1)">
      <use xlink:href="#DejaVuSans-114"/>
      <use x="38.863281" xlink:href="#DejaVuSans-101"/>
      <use x="100.386719" xlink:href="#DejaVuSans-97"/>
      <use x="161.666016" xlink:href="#DejaVuSans-108"/>
     </g>
    </g>
    <g id="line2d_43">
     <path d="M 166.770312 220.616562 
L 186.770312 220.616562 
" style="fill:none;stroke:#008000;stroke-linecap:square;stroke-width:1.5;"/>
    </g>
    <g id="line2d_44"/>
    <g id="text_41">
     <!-- fake -->
     <g transform="translate(194.770312 224.116562)scale(0.1 -0.1)">
      <use xlink:href="#DejaVuSans-102"/>
      <use x="35.205078" xlink:href="#DejaVuSans-97"/>
      <use x="96.484375" xlink:href="#DejaVuSans-107"/>
      <use x="150.769531" xlink:href="#DejaVuSans-101"/>
     </g>
    </g>
   </g>
  </g>
  <g id="axes_4">
   <g id="patch_20">
    <path d="M 282.395 303.64 
L 440.415 303.64 
L 440.415 192.84 
L 282.395 192.84 
z
" style="fill:#ffffff;"/>
   </g>
   <g id="matplotlib.axis_7">
    <g id="xtick_13">
     <g id="line2d_45">
      <g>
       <use style="stroke:#000000;stroke-width:0.8;" x="282.395" xlink:href="#m53481f8ef2" y="303.64"/>
      </g>
     </g>
     <g id="text_42">
      <!-- 0 -->
      <g transform="translate(279.21375 318.238437)scale(0.1 -0.1)">
       <use xlink:href="#DejaVuSans-48"/>
      </g>
     </g>
    </g>
    <g id="xtick_14">
     <g id="line2d_46">
      <g>
       <use style="stroke:#000000;stroke-width:0.8;" x="335.068333" xlink:href="#m53481f8ef2" y="303.64"/>
      </g>
     </g>
     <g id="text_43">
      <!-- 85 -->
      <g transform="translate(328.705833 318.238437)scale(0.1 -0.1)">
       <use xlink:href="#DejaVuSans-56"/>
       <use x="63.623047" xlink:href="#DejaVuSans-53"/>
      </g>
     </g>
    </g>
    <g id="xtick_15">
     <g id="line2d_47">
      <g>
       <use style="stroke:#000000;stroke-width:0.8;" x="387.741667" xlink:href="#m53481f8ef2" y="303.64"/>
      </g>
     </g>
     <g id="text_44">
      <!-- 170 -->
      <g transform="translate(378.197917 318.238437)scale(0.1 -0.1)">
       <use xlink:href="#DejaVuSans-49"/>
       <use x="63.623047" xlink:href="#DejaVuSans-55"/>
       <use x="127.246094" xlink:href="#DejaVuSans-48"/>
      </g>
     </g>
    </g>
    <g id="xtick_16">
     <g id="line2d_48">
      <g>
       <use style="stroke:#000000;stroke-width:0.8;" x="440.415" xlink:href="#m53481f8ef2" y="303.64"/>
      </g>
     </g>
     <g id="text_45">
      <!-- 255 -->
      <g transform="translate(430.87125 318.238437)scale(0.1 -0.1)">
       <use xlink:href="#DejaVuSans-50"/>
       <use x="63.623047" xlink:href="#DejaVuSans-53"/>
       <use x="127.246094" xlink:href="#DejaVuSans-53"/>
      </g>
     </g>
    </g>
    <g id="text_46">
     <!-- gray value -->
     <g transform="translate(334.905 331.916562)scale(0.1 -0.1)">
      <use xlink:href="#DejaVuSans-103"/>
      <use x="63.476562" xlink:href="#DejaVuSans-114"/>
      <use x="104.589844" xlink:href="#DejaVuSans-97"/>
      <use x="165.869141" xlink:href="#DejaVuSans-121"/>
      <use x="225.048828" xlink:href="#DejaVuSans-32"/>
      <use x="256.835938" xlink:href="#DejaVuSans-118"/>
      <use x="316.015625" xlink:href="#DejaVuSans-97"/>
      <use x="377.294922" xlink:href="#DejaVuSans-108"/>
      <use x="405.078125" xlink:href="#DejaVuSans-117"/>
      <use x="468.457031" xlink:href="#DejaVuSans-101"/>
     </g>
    </g>
   </g>
   <g id="matplotlib.axis_8">
    <g id="ytick_15">
     <g id="line2d_49">
      <g>
       <use style="stroke:#000000;stroke-width:0.8;" x="282.395" xlink:href="#m1aacb7086a" y="298.603636"/>
      </g>
     </g>
     <g id="text_47">
      <!-- 0.0 -->
      <g transform="translate(259.491875 302.402855)scale(0.1 -0.1)">
       <use xlink:href="#DejaVuSans-48"/>
       <use x="63.623047" xlink:href="#DejaVuSans-46"/>
       <use x="95.410156" xlink:href="#DejaVuSans-48"/>
      </g>
     </g>
    </g>
    <g id="ytick_16">
     <g id="line2d_50">
      <g>
       <use style="stroke:#000000;stroke-width:0.8;" x="282.395" xlink:href="#m1aacb7086a" y="271.658747"/>
      </g>
     </g>
     <g id="text_48">
      <!-- 0.2 -->
      <g transform="translate(259.491875 275.457965)scale(0.1 -0.1)">
       <use xlink:href="#DejaVuSans-48"/>
       <use x="63.623047" xlink:href="#DejaVuSans-46"/>
       <use x="95.410156" xlink:href="#DejaVuSans-50"/>
      </g>
     </g>
    </g>
    <g id="ytick_17">
     <g id="line2d_51">
      <g>
       <use style="stroke:#000000;stroke-width:0.8;" x="282.395" xlink:href="#m1aacb7086a" y="244.713857"/>
      </g>
     </g>
     <g id="text_49">
      <!-- 0.4 -->
      <g transform="translate(259.491875 248.513076)scale(0.1 -0.1)">
       <use xlink:href="#DejaVuSans-48"/>
       <use x="63.623047" xlink:href="#DejaVuSans-46"/>
       <use x="95.410156" xlink:href="#DejaVuSans-52"/>
      </g>
     </g>
    </g>
    <g id="ytick_18">
     <g id="line2d_52">
      <g>
       <use style="stroke:#000000;stroke-width:0.8;" x="282.395" xlink:href="#m1aacb7086a" y="217.768967"/>
      </g>
     </g>
     <g id="text_50">
      <!-- 0.6 -->
      <defs>
       <path d="M 33.015625 40.375 
Q 26.375 40.375 22.484375 35.828125 
Q 18.609375 31.296875 18.609375 23.390625 
Q 18.609375 15.53125 22.484375 10.953125 
Q 26.375 6.390625 33.015625 6.390625 
Q 39.65625 6.390625 43.53125 10.953125 
Q 47.40625 15.53125 47.40625 23.390625 
Q 47.40625 31.296875 43.53125 35.828125 
Q 39.65625 40.375 33.015625 40.375 
z
M 52.59375 71.296875 
L 52.59375 62.3125 
Q 48.875 64.0625 45.09375 64.984375 
Q 41.3125 65.921875 37.59375 65.921875 
Q 27.828125 65.921875 22.671875 59.328125 
Q 17.53125 52.734375 16.796875 39.40625 
Q 19.671875 43.65625 24.015625 45.921875 
Q 28.375 48.1875 33.59375 48.1875 
Q 44.578125 48.1875 50.953125 41.515625 
Q 57.328125 34.859375 57.328125 23.390625 
Q 57.328125 12.15625 50.6875 5.359375 
Q 44.046875 -1.421875 33.015625 -1.421875 
Q 20.359375 -1.421875 13.671875 8.265625 
Q 6.984375 17.96875 6.984375 36.375 
Q 6.984375 53.65625 15.1875 63.9375 
Q 23.390625 74.21875 37.203125 74.21875 
Q 40.921875 74.21875 44.703125 73.484375 
Q 48.484375 72.75 52.59375 71.296875 
z
" id="DejaVuSans-54"/>
      </defs>
      <g transform="translate(259.491875 221.568186)scale(0.1 -0.1)">
       <use xlink:href="#DejaVuSans-48"/>
       <use x="63.623047" xlink:href="#DejaVuSans-46"/>
       <use x="95.410156" xlink:href="#DejaVuSans-54"/>
      </g>
     </g>
    </g>
    <g id="text_51">
     <!-- pixel freq -->
     <g transform="translate(253.412188 271.615)rotate(-90)scale(0.1 -0.1)">
      <use xlink:href="#DejaVuSans-112"/>
      <use x="63.476562" xlink:href="#DejaVuSans-105"/>
      <use x="91.259766" xlink:href="#DejaVuSans-120"/>
      <use x="147.314453" xlink:href="#DejaVuSans-101"/>
      <use x="208.837891" xlink:href="#DejaVuSans-108"/>
      <use x="236.621094" xlink:href="#DejaVuSans-32"/>
      <use x="268.408203" xlink:href="#DejaVuSans-102"/>
      <use x="303.613281" xlink:href="#DejaVuSans-114"/>
      <use x="342.476562" xlink:href="#DejaVuSans-101"/>
      <use x="404" xlink:href="#DejaVuSans-113"/>
     </g>
    </g>
   </g>
   <g id="line2d_53">
    <path clip-path="url(#pf7492c26a5)" d="M 282.395 197.876364 
L 283.014686 289.812884 
L 283.634373 295.086943 
L 284.254059 296.93256 
L 284.873745 297.639251 
L 286.732804 298.354741 
L 289.211549 298.528194 
L 292.929667 298.588576 
L 313.999 298.603579 
L 434.837824 298.505461 
L 436.696882 298.355487 
L 437.316569 298.232264 
L 438.555941 297.642193 
L 439.175627 296.928816 
L 439.795314 295.094761 
L 440.415 289.81184 
L 440.415 289.81184 
" style="fill:none;stroke:#0000ff;stroke-linecap:square;stroke-width:1.5;"/>
   </g>
   <g id="line2d_54">
    <path clip-path="url(#pf7492c26a5)" d="M 282.395 209.78718 
L 283.014686 286.268783 
L 283.634373 294.041214 
L 284.254059 296.576855 
L 284.873745 297.524402 
L 286.113118 298.251221 
L 287.35249 298.44692 
L 289.831235 298.569796 
L 300.365902 298.603345 
L 434.837824 298.538081 
L 436.696882 298.398329 
L 437.316569 298.27687 
L 438.555941 297.544953 
L 439.175627 296.557253 
L 439.795314 293.707699 
L 440.415 284.224316 
L 440.415 284.224316 
" style="fill:none;stroke:#008000;stroke-linecap:square;stroke-width:1.5;"/>
   </g>
   <g id="patch_21">
    <path d="M 282.395 303.64 
L 282.395 192.84 
" style="fill:none;stroke:#000000;stroke-linecap:square;stroke-linejoin:miter;stroke-width:0.8;"/>
   </g>
   <g id="patch_22">
    <path d="M 440.415 303.64 
L 440.415 192.84 
" style="fill:none;stroke:#000000;stroke-linecap:square;stroke-linejoin:miter;stroke-width:0.8;"/>
   </g>
   <g id="patch_23">
    <path d="M 282.395 303.64 
L 440.415 303.64 
" style="fill:none;stroke:#000000;stroke-linecap:square;stroke-linejoin:miter;stroke-width:0.8;"/>
   </g>
   <g id="patch_24">
    <path d="M 282.395 192.84 
L 440.415 192.84 
" style="fill:none;stroke:#000000;stroke-linecap:square;stroke-linejoin:miter;stroke-width:0.8;"/>
   </g>
   <g id="text_52">
    <!-- starGAN-cD/ -->
    <defs>
     <path d="M 19.671875 64.796875 
L 19.671875 8.109375 
L 31.59375 8.109375 
Q 46.6875 8.109375 53.6875 14.9375 
Q 60.6875 21.78125 60.6875 36.53125 
Q 60.6875 51.171875 53.6875 57.984375 
Q 46.6875 64.796875 31.59375 64.796875 
z
M 9.8125 72.90625 
L 30.078125 72.90625 
Q 51.265625 72.90625 61.171875 64.09375 
Q 71.09375 55.28125 71.09375 36.53125 
Q 71.09375 17.671875 61.125 8.828125 
Q 51.171875 0 30.078125 0 
L 9.8125 0 
z
" id="DejaVuSans-68"/>
    </defs>
    <g transform="translate(324.436562 186.84)scale(0.12 -0.12)">
     <use xlink:href="#DejaVuSans-115"/>
     <use x="52.099609" xlink:href="#DejaVuSans-116"/>
     <use x="91.308594" xlink:href="#DejaVuSans-97"/>
     <use x="152.587891" xlink:href="#DejaVuSans-114"/>
     <use x="193.701172" xlink:href="#DejaVuSans-71"/>
     <use x="271.191406" xlink:href="#DejaVuSans-65"/>
     <use x="339.599609" xlink:href="#DejaVuSans-78"/>
     <use x="414.404297" xlink:href="#DejaVuSans-45"/>
     <use x="450.488281" xlink:href="#DejaVuSans-99"/>
     <use x="505.46875" xlink:href="#DejaVuSans-68"/>
     <use x="582.470703" xlink:href="#DejaVuSans-47"/>
    </g>
   </g>
   <g id="legend_4">
    <g id="patch_25">
     <path d="M 380.185312 230.19625 
L 433.415 230.19625 
Q 435.415 230.19625 435.415 228.19625 
L 435.415 199.84 
Q 435.415 197.84 433.415 197.84 
L 380.185312 197.84 
Q 378.185312 197.84 378.185312 199.84 
L 378.185312 228.19625 
Q 378.185312 230.19625 380.185312 230.19625 
z
" style="fill:#ffffff;opacity:0.8;stroke:#cccccc;stroke-linejoin:miter;"/>
    </g>
    <g id="line2d_55">
     <path d="M 382.185312 205.938437 
L 402.185312 205.938437 
" style="fill:none;stroke:#0000ff;stroke-linecap:square;stroke-width:1.5;"/>
    </g>
    <g id="line2d_56"/>
    <g id="text_53">
     <!-- real -->
     <g transform="translate(410.185312 209.438437)scale(0.1 -0.1)">
      <use xlink:href="#DejaVuSans-114"/>
      <use x="38.863281" xlink:href="#DejaVuSans-101"/>
      <use x="100.386719" xlink:href="#DejaVuSans-97"/>
      <use x="161.666016" xlink:href="#DejaVuSans-108"/>
     </g>
    </g>
    <g id="line2d_57">
     <path d="M 382.185312 220.616562 
L 402.185312 220.616562 
" style="fill:none;stroke:#008000;stroke-linecap:square;stroke-width:1.5;"/>
    </g>
    <g id="line2d_58"/>
    <g id="text_54">
     <!-- fake -->
     <g transform="translate(410.185312 224.116562)scale(0.1 -0.1)">
      <use xlink:href="#DejaVuSans-102"/>
      <use x="35.205078" xlink:href="#DejaVuSans-97"/>
      <use x="96.484375" xlink:href="#DejaVuSans-107"/>
      <use x="150.769531" xlink:href="#DejaVuSans-101"/>
     </g>
    </g>
   </g>
  </g>
 </g>
 <defs>
  <clipPath id="p0f62a8c0b3">
   <rect height="110.8" width="158.02" x="66.98" y="25.44"/>
  </clipPath>
  <clipPath id="pbfbd2bf364">
   <rect height="110.8" width="158.02" x="282.395" y="25.44"/>
  </clipPath>
  <clipPath id="p464fbd8b69">
   <rect height="110.8" width="158.02" x="66.98" y="192.84"/>
  </clipPath>
  <clipPath id="pf7492c26a5">
   <rect height="110.8" width="158.02" x="282.395" y="192.84"/>
  </clipPath>
 </defs>
</svg>
