<?xml version="1.0" encoding="utf-8" standalone="no"?>
<!DOCTYPE svg PUBLIC "-//W3C//DTD SVG 1.1//EN"
  "http://www.w3.org/Graphics/SVG/1.1/DTD/svg11.dtd">
<!-- Created with matplotlib (https://matplotlib.org/) -->
<svg height="345.6pt" version="1.1" viewBox="0 0 460.8 345.6" width="460.8pt" xmlns="http://www.w3.org/2000/svg" xmlns:xlink="http://www.w3.org/1999/xlink">
 <defs>
  <style type="text/css">
*{stroke-linecap:butt;stroke-linejoin:round;}
  </style>
 </defs>
 <g id="figure_1">
  <g id="patch_1">
   <path d="M 0 345.6 
L 460.8 345.6 
L 460.8 0 
L 0 0 
z
" style="fill:#ffffff;"/>
  </g>
  <g id="axes_1">
   <g id="patch_2">
    <path d="M 60.59 136.24 
L 214.425 136.24 
L 214.425 25.44 
L 60.59 25.44 
z
" style="fill:#ffffff;"/>
   </g>
   <g id="matplotlib.axis_1">
    <g id="xtick_1">
     <g id="line2d_1">
      <defs>
       <path d="M 0 0 
L 0 3.5 
" id="m1dc2d4ff69" style="stroke:#000000;stroke-width:0.8;"/>
      </defs>
      <g>
       <use style="stroke:#000000;stroke-width:0.8;" x="60.59" xlink:href="#m1dc2d4ff69" y="136.24"/>
      </g>
     </g>
     <g id="text_1">
      <!-- 0 -->
      <defs>
       <path d="M 31.78125 66.40625 
Q 24.171875 66.40625 20.328125 58.90625 
Q 16.5 51.421875 16.5 36.375 
Q 16.5 21.390625 20.328125 13.890625 
Q 24.171875 6.390625 31.78125 6.390625 
Q 39.453125 6.390625 43.28125 13.890625 
Q 47.125 21.390625 47.125 36.375 
Q 47.125 51.421875 43.28125 58.90625 
Q 39.453125 66.40625 31.78125 66.40625 
z
M 31.78125 74.21875 
Q 44.046875 74.21875 50.515625 64.515625 
Q 56.984375 54.828125 56.984375 36.375 
Q 56.984375 17.96875 50.515625 8.265625 
Q 44.046875 -1.421875 31.78125 -1.421875 
Q 19.53125 -1.421875 13.0625 8.265625 
Q 6.59375 17.96875 6.59375 36.375 
Q 6.59375 54.828125 13.0625 64.515625 
Q 19.53125 74.21875 31.78125 74.21875 
z
" id="DejaVuSans-48"/>
      </defs>
      <g transform="translate(57.40875 150.838437)scale(0.1 -0.1)">
       <use xlink:href="#DejaVuSans-48"/>
      </g>
     </g>
    </g>
    <g id="xtick_2">
     <g id="line2d_2">
      <g>
       <use style="stroke:#000000;stroke-width:0.8;" x="111.868333" xlink:href="#m1dc2d4ff69" y="136.24"/>
      </g>
     </g>
     <g id="text_2">
      <!-- 85 -->
      <defs>
       <path d="M 31.78125 34.625 
Q 24.75 34.625 20.71875 30.859375 
Q 16.703125 27.09375 16.703125 20.515625 
Q 16.703125 13.921875 20.71875 10.15625 
Q 24.75 6.390625 31.78125 6.390625 
Q 38.8125 6.390625 42.859375 10.171875 
Q 46.921875 13.96875 46.921875 20.515625 
Q 46.921875 27.09375 42.890625 30.859375 
Q 38.875 34.625 31.78125 34.625 
z
M 21.921875 38.8125 
Q 15.578125 40.375 12.03125 44.71875 
Q 8.5 49.078125 8.5 55.328125 
Q 8.5 64.0625 14.71875 69.140625 
Q 20.953125 74.21875 31.78125 74.21875 
Q 42.671875 74.21875 48.875 69.140625 
Q 55.078125 64.0625 55.078125 55.328125 
Q 55.078125 49.078125 51.53125 44.71875 
Q 48 40.375 41.703125 38.8125 
Q 48.828125 37.15625 52.796875 32.3125 
Q 56.78125 27.484375 56.78125 20.515625 
Q 56.78125 9.90625 50.3125 4.234375 
Q 43.84375 -1.421875 31.78125 -1.421875 
Q 19.734375 -1.421875 13.25 4.234375 
Q 6.78125 9.90625 6.78125 20.515625 
Q 6.78125 27.484375 10.78125 32.3125 
Q 14.796875 37.15625 21.921875 38.8125 
z
M 18.3125 54.390625 
Q 18.3125 48.734375 21.84375 45.5625 
Q 25.390625 42.390625 31.78125 42.390625 
Q 38.140625 42.390625 41.71875 45.5625 
Q 45.3125 48.734375 45.3125 54.390625 
Q 45.3125 60.0625 41.71875 63.234375 
Q 38.140625 66.40625 31.78125 66.40625 
Q 25.390625 66.40625 21.84375 63.234375 
Q 18.3125 60.0625 18.3125 54.390625 
z
" id="DejaVuSans-56"/>
       <path d="M 10.796875 72.90625 
L 49.515625 72.90625 
L 49.515625 64.59375 
L 19.828125 64.59375 
L 19.828125 46.734375 
Q 21.96875 47.46875 24.109375 47.828125 
Q 26.265625 48.1875 28.421875 48.1875 
Q 40.625 48.1875 47.75 41.5 
Q 54.890625 34.8125 54.890625 23.390625 
Q 54.890625 11.625 47.5625 5.09375 
Q 40.234375 -1.421875 26.90625 -1.421875 
Q 22.3125 -1.421875 17.546875 -0.640625 
Q 12.796875 0.140625 7.71875 1.703125 
L 7.71875 11.625 
Q 12.109375 9.234375 16.796875 8.0625 
Q 21.484375 6.890625 26.703125 6.890625 
Q 35.15625 6.890625 40.078125 11.328125 
Q 45.015625 15.765625 45.015625 23.390625 
Q 45.015625 31 40.078125 35.4375 
Q 35.15625 39.890625 26.703125 39.890625 
Q 22.75 39.890625 18.8125 39.015625 
Q 14.890625 38.140625 10.796875 36.28125 
z
" id="DejaVuSans-53"/>
      </defs>
      <g transform="translate(105.505833 150.838437)scale(0.1 -0.1)">
       <use xlink:href="#DejaVuSans-56"/>
       <use x="63.623047" xlink:href="#DejaVuSans-53"/>
      </g>
     </g>
    </g>
    <g id="xtick_3">
     <g id="line2d_3">
      <g>
       <use style="stroke:#000000;stroke-width:0.8;" x="163.146667" xlink:href="#m1dc2d4ff69" y="136.24"/>
      </g>
     </g>
     <g id="text_3">
      <!-- 170 -->
      <defs>
       <path d="M 12.40625 8.296875 
L 28.515625 8.296875 
L 28.515625 63.921875 
L 10.984375 60.40625 
L 10.984375 69.390625 
L 28.421875 72.90625 
L 38.28125 72.90625 
L 38.28125 8.296875 
L 54.390625 8.296875 
L 54.390625 0 
L 12.40625 0 
z
" id="DejaVuSans-49"/>
       <path d="M 8.203125 72.90625 
L 55.078125 72.90625 
L 55.078125 68.703125 
L 28.609375 0 
L 18.3125 0 
L 43.21875 64.59375 
L 8.203125 64.59375 
z
" id="DejaVuSans-55"/>
      </defs>
      <g transform="translate(153.602917 150.838437)scale(0.1 -0.1)">
       <use xlink:href="#DejaVuSans-49"/>
       <use x="63.623047" xlink:href="#DejaVuSans-55"/>
       <use x="127.246094" xlink:href="#DejaVuSans-48"/>
      </g>
     </g>
    </g>
    <g id="xtick_4">
     <g id="line2d_4">
      <g>
       <use style="stroke:#000000;stroke-width:0.8;" x="214.425" xlink:href="#m1dc2d4ff69" y="136.24"/>
      </g>
     </g>
     <g id="text_4">
      <!-- 255 -->
      <defs>
       <path d="M 19.1875 8.296875 
L 53.609375 8.296875 
L 53.609375 0 
L 7.328125 0 
L 7.328125 8.296875 
Q 12.9375 14.109375 22.625 23.890625 
Q 32.328125 33.6875 34.8125 36.53125 
Q 39.546875 41.84375 41.421875 45.53125 
Q 43.3125 49.21875 43.3125 52.78125 
Q 43.3125 58.59375 39.234375 62.25 
Q 35.15625 65.921875 28.609375 65.921875 
Q 23.96875 65.921875 18.8125 64.3125 
Q 13.671875 62.703125 7.8125 59.421875 
L 7.8125 69.390625 
Q 13.765625 71.78125 18.9375 73 
Q 24.125 74.21875 28.421875 74.21875 
Q 39.75 74.21875 46.484375 68.546875 
Q 53.21875 62.890625 53.21875 53.421875 
Q 53.21875 48.921875 51.53125 44.890625 
Q 49.859375 40.875 45.40625 35.40625 
Q 44.1875 33.984375 37.640625 27.21875 
Q 31.109375 20.453125 19.1875 8.296875 
z
" id="DejaVuSans-50"/>
      </defs>
      <g transform="translate(204.88125 150.838437)scale(0.1 -0.1)">
       <use xlink:href="#DejaVuSans-50"/>
       <use x="63.623047" xlink:href="#DejaVuSans-53"/>
       <use x="127.246094" xlink:href="#DejaVuSans-53"/>
      </g>
     </g>
    </g>
    <g id="text_5">
     <!-- gray value -->
     <defs>
      <path d="M 45.40625 27.984375 
Q 45.40625 37.75 41.375 43.109375 
Q 37.359375 48.484375 30.078125 48.484375 
Q 22.859375 48.484375 18.828125 43.109375 
Q 14.796875 37.75 14.796875 27.984375 
Q 14.796875 18.265625 18.828125 12.890625 
Q 22.859375 7.515625 30.078125 7.515625 
Q 37.359375 7.515625 41.375 12.890625 
Q 45.40625 18.265625 45.40625 27.984375 
z
M 54.390625 6.78125 
Q 54.390625 -7.171875 48.1875 -13.984375 
Q 42 -20.796875 29.203125 -20.796875 
Q 24.46875 -20.796875 20.265625 -20.09375 
Q 16.0625 -19.390625 12.109375 -17.921875 
L 12.109375 -9.1875 
Q 16.0625 -11.328125 19.921875 -12.34375 
Q 23.78125 -13.375 27.78125 -13.375 
Q 36.625 -13.375 41.015625 -8.765625 
Q 45.40625 -4.15625 45.40625 5.171875 
L 45.40625 9.625 
Q 42.625 4.78125 38.28125 2.390625 
Q 33.9375 0 27.875 0 
Q 17.828125 0 11.671875 7.65625 
Q 5.515625 15.328125 5.515625 27.984375 
Q 5.515625 40.671875 11.671875 48.328125 
Q 17.828125 56 27.875 56 
Q 33.9375 56 38.28125 53.609375 
Q 42.625 51.21875 45.40625 46.390625 
L 45.40625 54.6875 
L 54.390625 54.6875 
z
" id="DejaVuSans-103"/>
      <path d="M 41.109375 46.296875 
Q 39.59375 47.171875 37.8125 47.578125 
Q 36.03125 48 33.890625 48 
Q 26.265625 48 22.1875 43.046875 
Q 18.109375 38.09375 18.109375 28.8125 
L 18.109375 0 
L 9.078125 0 
L 9.078125 54.6875 
L 18.109375 54.6875 
L 18.109375 46.1875 
Q 20.953125 51.171875 25.484375 53.578125 
Q 30.03125 56 36.53125 56 
Q 37.453125 56 38.578125 55.875 
Q 39.703125 55.765625 41.0625 55.515625 
z
" id="DejaVuSans-114"/>
      <path d="M 34.28125 27.484375 
Q 23.390625 27.484375 19.1875 25 
Q 14.984375 22.515625 14.984375 16.5 
Q 14.984375 11.71875 18.140625 8.90625 
Q 21.296875 6.109375 26.703125 6.109375 
Q 34.1875 6.109375 38.703125 11.40625 
Q 43.21875 16.703125 43.21875 25.484375 
L 43.21875 27.484375 
z
M 52.203125 31.203125 
L 52.203125 0 
L 43.21875 0 
L 43.21875 8.296875 
Q 40.140625 3.328125 35.546875 0.953125 
Q 30.953125 -1.421875 24.3125 -1.421875 
Q 15.921875 -1.421875 10.953125 3.296875 
Q 6 8.015625 6 15.921875 
Q 6 25.140625 12.171875 29.828125 
Q 18.359375 34.515625 30.609375 34.515625 
L 43.21875 34.515625 
L 43.21875 35.40625 
Q 43.21875 41.609375 39.140625 45 
Q 35.0625 48.390625 27.6875 48.390625 
Q 23 48.390625 18.546875 47.265625 
Q 14.109375 46.140625 10.015625 43.890625 
L 10.015625 52.203125 
Q 14.9375 54.109375 19.578125 55.046875 
Q 24.21875 56 28.609375 56 
Q 40.484375 56 46.34375 49.84375 
Q 52.203125 43.703125 52.203125 31.203125 
z
" id="DejaVuSans-97"/>
      <path d="M 32.171875 -5.078125 
Q 28.375 -14.84375 24.75 -17.8125 
Q 21.140625 -20.796875 15.09375 -20.796875 
L 7.90625 -20.796875 
L 7.90625 -13.28125 
L 13.1875 -13.28125 
Q 16.890625 -13.28125 18.9375 -11.515625 
Q 21 -9.765625 23.484375 -3.21875 
L 25.09375 0.875 
L 2.984375 54.6875 
L 12.5 54.6875 
L 29.59375 11.921875 
L 46.6875 54.6875 
L 56.203125 54.6875 
z
" id="DejaVuSans-121"/>
      <path id="DejaVuSans-32"/>
      <path d="M 2.984375 54.6875 
L 12.5 54.6875 
L 29.59375 8.796875 
L 46.6875 54.6875 
L 56.203125 54.6875 
L 35.6875 0 
L 23.484375 0 
z
" id="DejaVuSans-118"/>
      <path d="M 9.421875 75.984375 
L 18.40625 75.984375 
L 18.40625 0 
L 9.421875 0 
z
" id="DejaVuSans-108"/>
      <path d="M 8.5 21.578125 
L 8.5 54.6875 
L 17.484375 54.6875 
L 17.484375 21.921875 
Q 17.484375 14.15625 20.5 10.265625 
Q 23.53125 6.390625 29.59375 6.390625 
Q 36.859375 6.390625 41.078125 11.03125 
Q 45.3125 15.671875 45.3125 23.6875 
L 45.3125 54.6875 
L 54.296875 54.6875 
L 54.296875 0 
L 45.3125 0 
L 45.3125 8.40625 
Q 42.046875 3.421875 37.71875 1 
Q 33.40625 -1.421875 27.6875 -1.421875 
Q 18.265625 -1.421875 13.375 4.4375 
Q 8.5 10.296875 8.5 21.578125 
z
M 31.109375 56 
z
" id="DejaVuSans-117"/>
      <path d="M 56.203125 29.59375 
L 56.203125 25.203125 
L 14.890625 25.203125 
Q 15.484375 15.921875 20.484375 11.0625 
Q 25.484375 6.203125 34.421875 6.203125 
Q 39.59375 6.203125 44.453125 7.46875 
Q 49.3125 8.734375 54.109375 11.28125 
L 54.109375 2.78125 
Q 49.265625 0.734375 44.1875 -0.34375 
Q 39.109375 -1.421875 33.890625 -1.421875 
Q 20.796875 -1.421875 13.15625 6.1875 
Q 5.515625 13.8125 5.515625 26.8125 
Q 5.515625 40.234375 12.765625 48.109375 
Q 20.015625 56 32.328125 56 
Q 43.359375 56 49.78125 48.890625 
Q 56.203125 41.796875 56.203125 29.59375 
z
M 47.21875 32.234375 
Q 47.125 39.59375 43.09375 43.984375 
Q 39.0625 48.390625 32.421875 48.390625 
Q 24.90625 48.390625 20.390625 44.140625 
Q 15.875 39.890625 15.1875 32.171875 
z
" id="DejaVuSans-101"/>
     </defs>
     <g transform="translate(111.0075 164.516562)scale(0.1 -0.1)">
      <use xlink:href="#DejaVuSans-103"/>
      <use x="63.476562" xlink:href="#DejaVuSans-114"/>
      <use x="104.589844" xlink:href="#DejaVuSans-97"/>
      <use x="165.869141" xlink:href="#DejaVuSans-121"/>
      <use x="225.048828" xlink:href="#DejaVuSans-32"/>
      <use x="256.835938" xlink:href="#DejaVuSans-118"/>
      <use x="316.015625" xlink:href="#DejaVuSans-97"/>
      <use x="377.294922" xlink:href="#DejaVuSans-108"/>
      <use x="405.078125" xlink:href="#DejaVuSans-117"/>
      <use x="468.457031" xlink:href="#DejaVuSans-101"/>
     </g>
    </g>
   </g>
   <g id="matplotlib.axis_2">
    <g id="ytick_1">
     <g id="line2d_5">
      <defs>
       <path d="M 0 0 
L -3.5 0 
" id="me1e5dc2fd1" style="stroke:#000000;stroke-width:0.8;"/>
      </defs>
      <g>
       <use style="stroke:#000000;stroke-width:0.8;" x="60.59" xlink:href="#me1e5dc2fd1" y="98.018766"/>
      </g>
     </g>
     <g id="text_6">
      <!-- 0.000 -->
      <defs>
       <path d="M 10.6875 12.40625 
L 21 12.40625 
L 21 0 
L 10.6875 0 
z
" id="DejaVuSans-46"/>
      </defs>
      <g transform="translate(24.961875 101.817985)scale(0.1 -0.1)">
       <use xlink:href="#DejaVuSans-48"/>
       <use x="63.623047" xlink:href="#DejaVuSans-46"/>
       <use x="95.410156" xlink:href="#DejaVuSans-48"/>
       <use x="159.033203" xlink:href="#DejaVuSans-48"/>
       <use x="222.65625" xlink:href="#DejaVuSans-48"/>
      </g>
     </g>
    </g>
    <g id="ytick_2">
     <g id="line2d_6">
      <g>
       <use style="stroke:#000000;stroke-width:0.8;" x="60.59" xlink:href="#me1e5dc2fd1" y="58.430624"/>
      </g>
     </g>
     <g id="text_7">
      <!-- 0.001 -->
      <g transform="translate(24.961875 62.229843)scale(0.1 -0.1)">
       <use xlink:href="#DejaVuSans-48"/>
       <use x="63.623047" xlink:href="#DejaVuSans-46"/>
       <use x="95.410156" xlink:href="#DejaVuSans-48"/>
       <use x="159.033203" xlink:href="#DejaVuSans-48"/>
       <use x="222.65625" xlink:href="#DejaVuSans-49"/>
      </g>
     </g>
    </g>
    <g id="text_8">
     <!-- pixel freq difference -->
     <defs>
      <path d="M 18.109375 8.203125 
L 18.109375 -20.796875 
L 9.078125 -20.796875 
L 9.078125 54.6875 
L 18.109375 54.6875 
L 18.109375 46.390625 
Q 20.953125 51.265625 25.265625 53.625 
Q 29.59375 56 35.59375 56 
Q 45.5625 56 51.78125 48.09375 
Q 58.015625 40.1875 58.015625 27.296875 
Q 58.015625 14.40625 51.78125 6.484375 
Q 45.5625 -1.421875 35.59375 -1.421875 
Q 29.59375 -1.421875 25.265625 0.953125 
Q 20.953125 3.328125 18.109375 8.203125 
z
M 48.6875 27.296875 
Q 48.6875 37.203125 44.609375 42.84375 
Q 40.53125 48.484375 33.40625 48.484375 
Q 26.265625 48.484375 22.1875 42.84375 
Q 18.109375 37.203125 18.109375 27.296875 
Q 18.109375 17.390625 22.1875 11.75 
Q 26.265625 6.109375 33.40625 6.109375 
Q 40.53125 6.109375 44.609375 11.75 
Q 48.6875 17.390625 48.6875 27.296875 
z
" id="DejaVuSans-112"/>
      <path d="M 9.421875 54.6875 
L 18.40625 54.6875 
L 18.40625 0 
L 9.421875 0 
z
M 9.421875 75.984375 
L 18.40625 75.984375 
L 18.40625 64.59375 
L 9.421875 64.59375 
z
" id="DejaVuSans-105"/>
      <path d="M 54.890625 54.6875 
L 35.109375 28.078125 
L 55.90625 0 
L 45.3125 0 
L 29.390625 21.484375 
L 13.484375 0 
L 2.875 0 
L 24.125 28.609375 
L 4.6875 54.6875 
L 15.28125 54.6875 
L 29.78125 35.203125 
L 44.28125 54.6875 
z
" id="DejaVuSans-120"/>
      <path d="M 37.109375 75.984375 
L 37.109375 68.5 
L 28.515625 68.5 
Q 23.6875 68.5 21.796875 66.546875 
Q 19.921875 64.59375 19.921875 59.515625 
L 19.921875 54.6875 
L 34.71875 54.6875 
L 34.71875 47.703125 
L 19.921875 47.703125 
L 19.921875 0 
L 10.890625 0 
L 10.890625 47.703125 
L 2.296875 47.703125 
L 2.296875 54.6875 
L 10.890625 54.6875 
L 10.890625 58.5 
Q 10.890625 67.625 15.140625 71.796875 
Q 19.390625 75.984375 28.609375 75.984375 
z
" id="DejaVuSans-102"/>
      <path d="M 14.796875 27.296875 
Q 14.796875 17.390625 18.875 11.75 
Q 22.953125 6.109375 30.078125 6.109375 
Q 37.203125 6.109375 41.296875 11.75 
Q 45.40625 17.390625 45.40625 27.296875 
Q 45.40625 37.203125 41.296875 42.84375 
Q 37.203125 48.484375 30.078125 48.484375 
Q 22.953125 48.484375 18.875 42.84375 
Q 14.796875 37.203125 14.796875 27.296875 
z
M 45.40625 8.203125 
Q 42.578125 3.328125 38.25 0.953125 
Q 33.9375 -1.421875 27.875 -1.421875 
Q 17.96875 -1.421875 11.734375 6.484375 
Q 5.515625 14.40625 5.515625 27.296875 
Q 5.515625 40.1875 11.734375 48.09375 
Q 17.96875 56 27.875 56 
Q 33.9375 56 38.25 53.625 
Q 42.578125 51.265625 45.40625 46.390625 
L 45.40625 54.6875 
L 54.390625 54.6875 
L 54.390625 -20.796875 
L 45.40625 -20.796875 
z
" id="DejaVuSans-113"/>
      <path d="M 45.40625 46.390625 
L 45.40625 75.984375 
L 54.390625 75.984375 
L 54.390625 0 
L 45.40625 0 
L 45.40625 8.203125 
Q 42.578125 3.328125 38.25 0.953125 
Q 33.9375 -1.421875 27.875 -1.421875 
Q 17.96875 -1.421875 11.734375 6.484375 
Q 5.515625 14.40625 5.515625 27.296875 
Q 5.515625 40.1875 11.734375 48.09375 
Q 17.96875 56 27.875 56 
Q 33.9375 56 38.25 53.625 
Q 42.578125 51.265625 45.40625 46.390625 
z
M 14.796875 27.296875 
Q 14.796875 17.390625 18.875 11.75 
Q 22.953125 6.109375 30.078125 6.109375 
Q 37.203125 6.109375 41.296875 11.75 
Q 45.40625 17.390625 45.40625 27.296875 
Q 45.40625 37.203125 41.296875 42.84375 
Q 37.203125 48.484375 30.078125 48.484375 
Q 22.953125 48.484375 18.875 42.84375 
Q 14.796875 37.203125 14.796875 27.296875 
z
" id="DejaVuSans-100"/>
      <path d="M 54.890625 33.015625 
L 54.890625 0 
L 45.90625 0 
L 45.90625 32.71875 
Q 45.90625 40.484375 42.875 44.328125 
Q 39.84375 48.1875 33.796875 48.1875 
Q 26.515625 48.1875 22.3125 43.546875 
Q 18.109375 38.921875 18.109375 30.90625 
L 18.109375 0 
L 9.078125 0 
L 9.078125 54.6875 
L 18.109375 54.6875 
L 18.109375 46.1875 
Q 21.34375 51.125 25.703125 53.5625 
Q 30.078125 56 35.796875 56 
Q 45.21875 56 50.046875 50.171875 
Q 54.890625 44.34375 54.890625 33.015625 
z
" id="DejaVuSans-110"/>
      <path d="M 48.78125 52.59375 
L 48.78125 44.1875 
Q 44.96875 46.296875 41.140625 47.34375 
Q 37.3125 48.390625 33.40625 48.390625 
Q 24.65625 48.390625 19.8125 42.84375 
Q 14.984375 37.3125 14.984375 27.296875 
Q 14.984375 17.28125 19.8125 11.734375 
Q 24.65625 6.203125 33.40625 6.203125 
Q 37.3125 6.203125 41.140625 7.25 
Q 44.96875 8.296875 48.78125 10.40625 
L 48.78125 2.09375 
Q 45.015625 0.34375 40.984375 -0.53125 
Q 36.96875 -1.421875 32.421875 -1.421875 
Q 20.0625 -1.421875 12.78125 6.34375 
Q 5.515625 14.109375 5.515625 27.296875 
Q 5.515625 40.671875 12.859375 48.328125 
Q 20.21875 56 33.015625 56 
Q 37.15625 56 41.109375 55.140625 
Q 45.0625 54.296875 48.78125 52.59375 
z
" id="DejaVuSans-99"/>
     </defs>
     <g transform="translate(18.882188 130.978281)rotate(-90)scale(0.1 -0.1)">
      <use xlink:href="#DejaVuSans-112"/>
      <use x="63.476562" xlink:href="#DejaVuSans-105"/>
      <use x="91.259766" xlink:href="#DejaVuSans-120"/>
      <use x="147.314453" xlink:href="#DejaVuSans-101"/>
      <use x="208.837891" xlink:href="#DejaVuSans-108"/>
      <use x="236.621094" xlink:href="#DejaVuSans-32"/>
      <use x="268.408203" xlink:href="#DejaVuSans-102"/>
      <use x="303.613281" xlink:href="#DejaVuSans-114"/>
      <use x="342.476562" xlink:href="#DejaVuSans-101"/>
      <use x="404" xlink:href="#DejaVuSans-113"/>
      <use x="467.476562" xlink:href="#DejaVuSans-32"/>
      <use x="499.263672" xlink:href="#DejaVuSans-100"/>
      <use x="562.740234" xlink:href="#DejaVuSans-105"/>
      <use x="590.523438" xlink:href="#DejaVuSans-102"/>
      <use x="625.728516" xlink:href="#DejaVuSans-102"/>
      <use x="660.933594" xlink:href="#DejaVuSans-101"/>
      <use x="722.457031" xlink:href="#DejaVuSans-114"/>
      <use x="761.320312" xlink:href="#DejaVuSans-101"/>
      <use x="822.84375" xlink:href="#DejaVuSans-110"/>
      <use x="886.222656" xlink:href="#DejaVuSans-99"/>
      <use x="941.203125" xlink:href="#DejaVuSans-101"/>
     </g>
    </g>
   </g>
   <g id="line2d_7">
    <path clip-path="url(#p57314feae9)" d="M 60.59 34.176803 
L 61.193275 78.973304 
L 61.796549 39.84442 
L 62.399824 73.335878 
L 63.003098 30.476364 
L 63.606373 82.145634 
L 64.209647 90.309429 
L 64.812922 92.205414 
L 65.416196 103.575925 
L 66.019471 98.89037 
L 66.622745 105.254357 
L 67.22602 101.320454 
L 67.829294 101.697503 
L 68.432569 100.621917 
L 69.035843 94.91479 
L 69.639118 99.128949 
L 70.242392 86.967736 
L 70.845667 96.60937 
L 71.448941 86.626739 
L 72.052216 96.733518 
L 72.65549 100.792118 
L 73.258765 102.295773 
L 73.862039 103.207496 
L 74.465314 107.077409 
L 75.068588 102.642383 
L 75.671863 109.913061 
L 76.275137 115.494033 
L 76.878412 109.620841 
L 77.481686 87.662262 
L 78.084961 105.811712 
L 78.688235 54.702631 
L 79.29151 104.953965 
L 79.894784 84.475903 
L 80.498059 110.330728 
L 81.101333 112.73562 
L 81.704608 116.476873 
L 82.307882 108.178324 
L 82.911157 121.338531 
L 83.514431 127.289029 
L 84.117706 123.940479 
L 84.72098 131.203636 
L 85.324255 124.384485 
L 85.927529 130.30417 
L 86.530804 123.003223 
L 87.134078 124.42781 
L 87.737353 114.596343 
L 88.340627 93.437082 
L 88.943902 109.427292 
L 89.547176 92.20098 
L 90.150451 110.905432 
L 90.753725 106.253156 
L 91.357 112.068909 
L 91.960275 97.143082 
L 92.563549 112.764926 
L 93.166824 116.872699 
L 93.770098 112.294811 
L 94.373373 97.537211 
L 94.976647 103.832312 
L 95.579922 83.627923 
L 96.183196 99.954355 
L 96.786471 89.446703 
L 97.389745 101.373414 
L 97.99302 91.378417 
L 98.596294 105.895794 
L 99.199569 107.497336 
L 99.802843 107.611772 
L 100.406118 99.346365 
L 101.009392 109.835733 
L 101.612667 110.353477 
L 102.215941 109.059223 
L 102.819216 95.302937 
L 103.42249 103.327287 
L 104.025765 86.547614 
L 104.629039 102.786649 
L 105.232314 96.589461 
L 105.835588 106.499656 
L 106.438863 104.077962 
L 107.042137 110.511313 
L 107.645412 111.703329 
L 108.248686 112.003067 
L 108.851961 110.432911 
L 109.455235 114.300458 
L 110.05851 115.904749 
L 110.661784 116.624928 
L 111.265059 119.721523 
L 111.868333 116.913231 
L 112.471608 115.413508 
L 113.074882 116.135391 
L 113.678157 114.884511 
L 114.281431 116.664055 
L 114.884706 118.90153 
L 115.48798 116.711307 
L 116.091255 116.799606 
L 116.694529 116.385607 
L 117.297804 117.342849 
L 117.901078 115.277144 
L 118.504353 114.625982 
L 119.107627 114.975403 
L 119.710902 118.187512 
L 120.314176 114.683166 
L 120.917451 115.607086 
L 121.520725 112.621435 
L 122.124 111.332875 
L 122.727275 112.706835 
L 123.330549 117.474592 
L 123.933824 113.399889 
L 124.537098 111.810121 
L 125.140373 113.805599 
L 125.743647 117.195033 
L 126.346922 112.100122 
L 126.950196 110.600582 
L 127.553471 111.064361 
L 128.156745 112.886274 
L 128.76002 109.498758 
L 129.363294 109.289516 
L 130.569843 101.901806 
L 131.173118 104.180186 
L 131.776392 103.372309 
L 132.379667 104.551397 
L 132.982941 103.352356 
L 133.586216 105.246191 
L 134.18949 104.041047 
L 134.792765 104.87345 
L 135.396039 104.868676 
L 135.999314 103.269302 
L 136.602588 98.999275 
L 137.205863 101.207419 
L 137.809137 96.770244 
L 138.412412 99.437988 
L 139.015686 93.675974 
L 139.618961 98.802098 
L 140.222235 95.54039 
L 140.82551 98.158985 
L 141.428784 93.691054 
L 142.032059 97.276661 
L 142.635333 94.555624 
L 143.238608 97.692821 
L 143.841882 98.055356 
L 144.445157 97.126329 
L 145.048431 95.513387 
L 145.651706 94.522176 
L 146.25498 90.784885 
L 146.858255 93.187683 
L 147.461529 90.093716 
L 148.064804 92.217955 
L 148.668078 90.44446 
L 149.271353 92.632585 
L 149.874627 93.098455 
L 150.477902 94.312633 
L 151.081176 97.720359 
L 151.684451 95.21853 
L 152.287725 94.854572 
L 152.891 94.746587 
L 153.494275 95.413029 
L 154.097549 93.316622 
L 154.700824 93.977326 
L 155.304098 91.241255 
L 155.907373 87.445403 
L 156.510647 90.193033 
L 157.113922 91.805266 
L 157.717196 90.673318 
L 158.320471 90.062381 
L 158.923745 91.32709 
L 159.52702 91.284562 
L 160.130294 92.25798 
L 160.733569 92.415003 
L 161.336843 91.768302 
L 161.940118 90.848645 
L 162.543392 91.143492 
L 163.146667 90.577029 
L 163.749941 89.246921 
L 164.353216 86.792386 
L 164.95649 87.090182 
L 165.559765 82.76911 
L 166.163039 86.982758 
L 166.766314 87.299749 
L 167.369588 88.15906 
L 167.972863 89.540923 
L 168.576137 90.446276 
L 169.179412 92.882462 
L 169.782686 91.146471 
L 170.385961 90.983685 
L 170.989235 91.270256 
L 171.59251 89.336875 
L 172.195784 89.937374 
L 172.799059 87.64664 
L 173.402333 87.080042 
L 174.005608 82.689644 
L 174.608882 85.357578 
L 175.212157 80.898753 
L 175.815431 85.700435 
L 176.418706 87.582865 
L 177.02198 87.523947 
L 177.625255 87.229596 
L 178.228529 89.479889 
L 178.831804 90.999648 
L 179.435078 90.561933 
L 180.038353 92.452016 
L 180.641627 89.606103 
L 181.244902 94.435211 
L 181.848176 88.184941 
L 182.451451 90.600372 
L 183.054725 88.263193 
L 183.658 91.761448 
L 184.261275 90.510585 
L 184.864549 99.572389 
L 185.467824 93.27305 
L 186.071098 95.279321 
L 186.674373 94.811094 
L 187.277647 102.0351 
L 187.880922 94.792362 
L 188.484196 93.830545 
L 189.087471 92.266529 
L 189.690745 91.253412 
L 190.29402 89.713336 
L 190.897294 91.17135 
L 191.500569 88.080825 
L 192.103843 90.491923 
L 192.707118 88.520329 
L 193.310392 90.479192 
L 193.913667 90.873634 
L 195.120216 92.309957 
L 195.72349 91.824511 
L 196.326765 92.341841 
L 196.930039 94.383203 
L 197.533314 90.102736 
L 198.136588 88.561007 
L 198.739863 85.585784 
L 199.343137 84.146492 
L 200.549686 83.162928 
L 201.152961 84.114257 
L 201.756235 84.750768 
L 202.35951 86.855028 
L 202.962784 87.056424 
L 203.566059 90.65114 
L 204.169333 91.261553 
L 204.772608 91.555967 
L 205.375882 85.468072 
L 205.979157 89.902315 
L 206.582431 82.568483 
L 207.185706 90.753279 
L 207.78898 122.519182 
L 208.392255 90.864621 
L 208.995529 88.772535 
L 209.598804 87.446746 
L 210.202078 87.766407 
L 211.408627 90.74586 
L 212.011902 91.984884 
L 212.615176 92.680961 
L 213.218451 92.700161 
L 213.821725 93.132342 
L 214.425 89.523369 
L 214.425 89.523369 
" style="fill:none;stroke:#ff0000;stroke-linecap:square;stroke-width:1.5;"/>
   </g>
   <g id="patch_3">
    <path d="M 60.59 136.24 
L 60.59 25.44 
" style="fill:none;stroke:#000000;stroke-linecap:square;stroke-linejoin:miter;stroke-width:0.8;"/>
   </g>
   <g id="patch_4">
    <path d="M 214.425 136.24 
L 214.425 25.44 
" style="fill:none;stroke:#000000;stroke-linecap:square;stroke-linejoin:miter;stroke-width:0.8;"/>
   </g>
   <g id="patch_5">
    <path d="M 60.59 136.24 
L 214.425 136.24 
" style="fill:none;stroke:#000000;stroke-linecap:square;stroke-linejoin:miter;stroke-width:0.8;"/>
   </g>
   <g id="patch_6">
    <path d="M 60.59 25.44 
L 214.425 25.44 
" style="fill:none;stroke:#000000;stroke-linecap:square;stroke-linejoin:miter;stroke-width:0.8;"/>
   </g>
   <g id="text_9">
    <!-- CelebDFV2-cA/ -->
    <defs>
     <path d="M 64.40625 67.28125 
L 64.40625 56.890625 
Q 59.421875 61.53125 53.78125 63.8125 
Q 48.140625 66.109375 41.796875 66.109375 
Q 29.296875 66.109375 22.65625 58.46875 
Q 16.015625 50.828125 16.015625 36.375 
Q 16.015625 21.96875 22.65625 14.328125 
Q 29.296875 6.6875 41.796875 6.6875 
Q 48.140625 6.6875 53.78125 8.984375 
Q 59.421875 11.28125 64.40625 15.921875 
L 64.40625 5.609375 
Q 59.234375 2.09375 53.4375 0.328125 
Q 47.65625 -1.421875 41.21875 -1.421875 
Q 24.65625 -1.421875 15.125 8.703125 
Q 5.609375 18.84375 5.609375 36.375 
Q 5.609375 53.953125 15.125 64.078125 
Q 24.65625 74.21875 41.21875 74.21875 
Q 47.75 74.21875 53.53125 72.484375 
Q 59.328125 70.75 64.40625 67.28125 
z
" id="DejaVuSans-67"/>
     <path d="M 48.6875 27.296875 
Q 48.6875 37.203125 44.609375 42.84375 
Q 40.53125 48.484375 33.40625 48.484375 
Q 26.265625 48.484375 22.1875 42.84375 
Q 18.109375 37.203125 18.109375 27.296875 
Q 18.109375 17.390625 22.1875 11.75 
Q 26.265625 6.109375 33.40625 6.109375 
Q 40.53125 6.109375 44.609375 11.75 
Q 48.6875 17.390625 48.6875 27.296875 
z
M 18.109375 46.390625 
Q 20.953125 51.265625 25.265625 53.625 
Q 29.59375 56 35.59375 56 
Q 45.5625 56 51.78125 48.09375 
Q 58.015625 40.1875 58.015625 27.296875 
Q 58.015625 14.40625 51.78125 6.484375 
Q 45.5625 -1.421875 35.59375 -1.421875 
Q 29.59375 -1.421875 25.265625 0.953125 
Q 20.953125 3.328125 18.109375 8.203125 
L 18.109375 0 
L 9.078125 0 
L 9.078125 75.984375 
L 18.109375 75.984375 
z
" id="DejaVuSans-98"/>
     <path d="M 19.671875 64.796875 
L 19.671875 8.109375 
L 31.59375 8.109375 
Q 46.6875 8.109375 53.6875 14.9375 
Q 60.6875 21.78125 60.6875 36.53125 
Q 60.6875 51.171875 53.6875 57.984375 
Q 46.6875 64.796875 31.59375 64.796875 
z
M 9.8125 72.90625 
L 30.078125 72.90625 
Q 51.265625 72.90625 61.171875 64.09375 
Q 71.09375 55.28125 71.09375 36.53125 
Q 71.09375 17.671875 61.125 8.828125 
Q 51.171875 0 30.078125 0 
L 9.8125 0 
z
" id="DejaVuSans-68"/>
     <path d="M 9.8125 72.90625 
L 51.703125 72.90625 
L 51.703125 64.59375 
L 19.671875 64.59375 
L 19.671875 43.109375 
L 48.578125 43.109375 
L 48.578125 34.8125 
L 19.671875 34.8125 
L 19.671875 0 
L 9.8125 0 
z
" id="DejaVuSans-70"/>
     <path d="M 28.609375 0 
L 0.78125 72.90625 
L 11.078125 72.90625 
L 34.1875 11.53125 
L 57.328125 72.90625 
L 67.578125 72.90625 
L 39.796875 0 
z
" id="DejaVuSans-86"/>
     <path d="M 4.890625 31.390625 
L 31.203125 31.390625 
L 31.203125 23.390625 
L 4.890625 23.390625 
z
" id="DejaVuSans-45"/>
     <path d="M 34.1875 63.1875 
L 20.796875 26.90625 
L 47.609375 26.90625 
z
M 28.609375 72.90625 
L 39.796875 72.90625 
L 67.578125 0 
L 57.328125 0 
L 50.6875 18.703125 
L 17.828125 18.703125 
L 11.1875 0 
L 0.78125 0 
z
" id="DejaVuSans-65"/>
     <path d="M 25.390625 72.90625 
L 33.6875 72.90625 
L 8.296875 -9.28125 
L 0 -9.28125 
z
" id="DejaVuSans-47"/>
    </defs>
    <g transform="translate(92.875938 19.44)scale(0.12 -0.12)">
     <use xlink:href="#DejaVuSans-67"/>
     <use x="69.824219" xlink:href="#DejaVuSans-101"/>
     <use x="131.347656" xlink:href="#DejaVuSans-108"/>
     <use x="159.130859" xlink:href="#DejaVuSans-101"/>
     <use x="220.654297" xlink:href="#DejaVuSans-98"/>
     <use x="284.130859" xlink:href="#DejaVuSans-68"/>
     <use x="361.132812" xlink:href="#DejaVuSans-70"/>
     <use x="418.652344" xlink:href="#DejaVuSans-86"/>
     <use x="487.060547" xlink:href="#DejaVuSans-50"/>
     <use x="550.683594" xlink:href="#DejaVuSans-45"/>
     <use x="586.767578" xlink:href="#DejaVuSans-99"/>
     <use x="641.748047" xlink:href="#DejaVuSans-65"/>
     <use x="710.15625" xlink:href="#DejaVuSans-47"/>
    </g>
   </g>
   <g id="legend_1">
    <g id="patch_7">
     <path d="M 159.257813 48.118125 
L 207.425 48.118125 
Q 209.425 48.118125 209.425 46.118125 
L 209.425 32.44 
Q 209.425 30.44 207.425 30.44 
L 159.257813 30.44 
Q 157.257813 30.44 157.257813 32.44 
L 157.257813 46.118125 
Q 157.257813 48.118125 159.257813 48.118125 
z
" style="fill:#ffffff;opacity:0.8;stroke:#cccccc;stroke-linejoin:miter;"/>
    </g>
    <g id="line2d_8">
     <path d="M 161.257813 38.538438 
L 181.257813 38.538438 
" style="fill:none;stroke:#ff0000;stroke-linecap:square;stroke-width:1.5;"/>
    </g>
    <g id="line2d_9"/>
    <g id="text_10">
     <!-- diff -->
     <g transform="translate(189.257813 42.038438)scale(0.1 -0.1)">
      <use xlink:href="#DejaVuSans-100"/>
      <use x="63.476562" xlink:href="#DejaVuSans-105"/>
      <use x="91.259766" xlink:href="#DejaVuSans-102"/>
      <use x="126.464844" xlink:href="#DejaVuSans-102"/>
     </g>
    </g>
   </g>
  </g>
  <g id="axes_2">
   <g id="patch_8">
    <path d="M 286.58 136.24 
L 440.415 136.24 
L 440.415 25.44 
L 286.58 25.44 
z
" style="fill:#ffffff;"/>
   </g>
   <g id="matplotlib.axis_3">
    <g id="xtick_5">
     <g id="line2d_10">
      <g>
       <use style="stroke:#000000;stroke-width:0.8;" x="286.58" xlink:href="#m1dc2d4ff69" y="136.24"/>
      </g>
     </g>
     <g id="text_11">
      <!-- 0 -->
      <g transform="translate(283.39875 150.838437)scale(0.1 -0.1)">
       <use xlink:href="#DejaVuSans-48"/>
      </g>
     </g>
    </g>
    <g id="xtick_6">
     <g id="line2d_11">
      <g>
       <use style="stroke:#000000;stroke-width:0.8;" x="337.858333" xlink:href="#m1dc2d4ff69" y="136.24"/>
      </g>
     </g>
     <g id="text_12">
      <!-- 85 -->
      <g transform="translate(331.495833 150.838437)scale(0.1 -0.1)">
       <use xlink:href="#DejaVuSans-56"/>
       <use x="63.623047" xlink:href="#DejaVuSans-53"/>
      </g>
     </g>
    </g>
    <g id="xtick_7">
     <g id="line2d_12">
      <g>
       <use style="stroke:#000000;stroke-width:0.8;" x="389.136667" xlink:href="#m1dc2d4ff69" y="136.24"/>
      </g>
     </g>
     <g id="text_13">
      <!-- 170 -->
      <g transform="translate(379.592917 150.838437)scale(0.1 -0.1)">
       <use xlink:href="#DejaVuSans-49"/>
       <use x="63.623047" xlink:href="#DejaVuSans-55"/>
       <use x="127.246094" xlink:href="#DejaVuSans-48"/>
      </g>
     </g>
    </g>
    <g id="xtick_8">
     <g id="line2d_13">
      <g>
       <use style="stroke:#000000;stroke-width:0.8;" x="440.415" xlink:href="#m1dc2d4ff69" y="136.24"/>
      </g>
     </g>
     <g id="text_14">
      <!-- 255 -->
      <g transform="translate(430.87125 150.838437)scale(0.1 -0.1)">
       <use xlink:href="#DejaVuSans-50"/>
       <use x="63.623047" xlink:href="#DejaVuSans-53"/>
       <use x="127.246094" xlink:href="#DejaVuSans-53"/>
      </g>
     </g>
    </g>
    <g id="text_15">
     <!-- gray value -->
     <g transform="translate(336.9975 164.516562)scale(0.1 -0.1)">
      <use xlink:href="#DejaVuSans-103"/>
      <use x="63.476562" xlink:href="#DejaVuSans-114"/>
      <use x="104.589844" xlink:href="#DejaVuSans-97"/>
      <use x="165.869141" xlink:href="#DejaVuSans-121"/>
      <use x="225.048828" xlink:href="#DejaVuSans-32"/>
      <use x="256.835938" xlink:href="#DejaVuSans-118"/>
      <use x="316.015625" xlink:href="#DejaVuSans-97"/>
      <use x="377.294922" xlink:href="#DejaVuSans-108"/>
      <use x="405.078125" xlink:href="#DejaVuSans-117"/>
      <use x="468.457031" xlink:href="#DejaVuSans-101"/>
     </g>
    </g>
   </g>
   <g id="matplotlib.axis_4">
    <g id="ytick_3">
     <g id="line2d_14">
      <g>
       <use style="stroke:#000000;stroke-width:0.8;" x="286.58" xlink:href="#me1e5dc2fd1" y="112.860543"/>
      </g>
     </g>
     <g id="text_16">
      <!-- 0.00 -->
      <g transform="translate(257.314375 116.659762)scale(0.1 -0.1)">
       <use xlink:href="#DejaVuSans-48"/>
       <use x="63.623047" xlink:href="#DejaVuSans-46"/>
       <use x="95.410156" xlink:href="#DejaVuSans-48"/>
       <use x="159.033203" xlink:href="#DejaVuSans-48"/>
      </g>
     </g>
    </g>
    <g id="ytick_4">
     <g id="line2d_15">
      <g>
       <use style="stroke:#000000;stroke-width:0.8;" x="286.58" xlink:href="#me1e5dc2fd1" y="72.456066"/>
      </g>
     </g>
     <g id="text_17">
      <!-- 0.01 -->
      <g transform="translate(257.314375 76.255285)scale(0.1 -0.1)">
       <use xlink:href="#DejaVuSans-48"/>
       <use x="63.623047" xlink:href="#DejaVuSans-46"/>
       <use x="95.410156" xlink:href="#DejaVuSans-48"/>
       <use x="159.033203" xlink:href="#DejaVuSans-49"/>
      </g>
     </g>
    </g>
    <g id="ytick_5">
     <g id="line2d_16">
      <g>
       <use style="stroke:#000000;stroke-width:0.8;" x="286.58" xlink:href="#me1e5dc2fd1" y="32.051588"/>
      </g>
     </g>
     <g id="text_18">
      <!-- 0.02 -->
      <g transform="translate(257.314375 35.850807)scale(0.1 -0.1)">
       <use xlink:href="#DejaVuSans-48"/>
       <use x="63.623047" xlink:href="#DejaVuSans-46"/>
       <use x="95.410156" xlink:href="#DejaVuSans-48"/>
       <use x="159.033203" xlink:href="#DejaVuSans-50"/>
      </g>
     </g>
    </g>
    <g id="text_19">
     <!-- pixel freq difference -->
     <g transform="translate(251.234687 130.978281)rotate(-90)scale(0.1 -0.1)">
      <use xlink:href="#DejaVuSans-112"/>
      <use x="63.476562" xlink:href="#DejaVuSans-105"/>
      <use x="91.259766" xlink:href="#DejaVuSans-120"/>
      <use x="147.314453" xlink:href="#DejaVuSans-101"/>
      <use x="208.837891" xlink:href="#DejaVuSans-108"/>
      <use x="236.621094" xlink:href="#DejaVuSans-32"/>
      <use x="268.408203" xlink:href="#DejaVuSans-102"/>
      <use x="303.613281" xlink:href="#DejaVuSans-114"/>
      <use x="342.476562" xlink:href="#DejaVuSans-101"/>
      <use x="404" xlink:href="#DejaVuSans-113"/>
      <use x="467.476562" xlink:href="#DejaVuSans-32"/>
      <use x="499.263672" xlink:href="#DejaVuSans-100"/>
      <use x="562.740234" xlink:href="#DejaVuSans-105"/>
      <use x="590.523438" xlink:href="#DejaVuSans-102"/>
      <use x="625.728516" xlink:href="#DejaVuSans-102"/>
      <use x="660.933594" xlink:href="#DejaVuSans-101"/>
      <use x="722.457031" xlink:href="#DejaVuSans-114"/>
      <use x="761.320312" xlink:href="#DejaVuSans-101"/>
      <use x="822.84375" xlink:href="#DejaVuSans-110"/>
      <use x="886.222656" xlink:href="#DejaVuSans-99"/>
      <use x="941.203125" xlink:href="#DejaVuSans-101"/>
     </g>
    </g>
   </g>
   <g id="line2d_17">
    <path clip-path="url(#p01d1a25e80)" d="M 286.58 30.476364 
L 287.183275 98.293817 
L 287.786549 108.32781 
L 288.389824 112.316608 
L 288.993098 113.885263 
L 290.199647 114.716557 
L 291.406196 115.082875 
L 292.612745 115.153669 
L 293.819294 114.878632 
L 296.835667 113.797153 
L 298.64549 113.405666 
L 301.058588 113.139049 
L 304.678235 112.962377 
L 310.107706 112.896022 
L 331.825588 112.86125 
L 424.729863 112.970603 
L 428.34951 113.16776 
L 431.969157 113.618007 
L 433.77898 114.03359 
L 434.985529 114.540411 
L 436.192078 115.492199 
L 436.795353 116.312947 
L 438.001902 118.716469 
L 438.605176 120.118562 
L 439.208451 121.218267 
L 439.811725 121.473829 
L 440.415 131.203636 
L 440.415 131.203636 
" style="fill:none;stroke:#ff0000;stroke-linecap:square;stroke-width:1.5;"/>
   </g>
   <g id="patch_9">
    <path d="M 286.58 136.24 
L 286.58 25.44 
" style="fill:none;stroke:#000000;stroke-linecap:square;stroke-linejoin:miter;stroke-width:0.8;"/>
   </g>
   <g id="patch_10">
    <path d="M 440.415 136.24 
L 440.415 25.44 
" style="fill:none;stroke:#000000;stroke-linecap:square;stroke-linejoin:miter;stroke-width:0.8;"/>
   </g>
   <g id="patch_11">
    <path d="M 286.58 136.24 
L 440.415 136.24 
" style="fill:none;stroke:#000000;stroke-linecap:square;stroke-linejoin:miter;stroke-width:0.8;"/>
   </g>
   <g id="patch_12">
    <path d="M 286.58 25.44 
L 440.415 25.44 
" style="fill:none;stroke:#000000;stroke-linecap:square;stroke-linejoin:miter;stroke-width:0.8;"/>
   </g>
   <g id="text_20">
    <!-- CelebDFV2-cH/ -->
    <defs>
     <path d="M 9.8125 72.90625 
L 19.671875 72.90625 
L 19.671875 43.015625 
L 55.515625 43.015625 
L 55.515625 72.90625 
L 65.375 72.90625 
L 65.375 0 
L 55.515625 0 
L 55.515625 34.71875 
L 19.671875 34.71875 
L 19.671875 0 
L 9.8125 0 
z
" id="DejaVuSans-72"/>
    </defs>
    <g transform="translate(318.458125 19.44)scale(0.12 -0.12)">
     <use xlink:href="#DejaVuSans-67"/>
     <use x="69.824219" xlink:href="#DejaVuSans-101"/>
     <use x="131.347656" xlink:href="#DejaVuSans-108"/>
     <use x="159.130859" xlink:href="#DejaVuSans-101"/>
     <use x="220.654297" xlink:href="#DejaVuSans-98"/>
     <use x="284.130859" xlink:href="#DejaVuSans-68"/>
     <use x="361.132812" xlink:href="#DejaVuSans-70"/>
     <use x="418.652344" xlink:href="#DejaVuSans-86"/>
     <use x="487.060547" xlink:href="#DejaVuSans-50"/>
     <use x="550.683594" xlink:href="#DejaVuSans-45"/>
     <use x="586.767578" xlink:href="#DejaVuSans-99"/>
     <use x="641.748047" xlink:href="#DejaVuSans-72"/>
     <use x="716.943359" xlink:href="#DejaVuSans-47"/>
    </g>
   </g>
   <g id="legend_2">
    <g id="patch_13">
     <path d="M 385.247813 48.118125 
L 433.415 48.118125 
Q 435.415 48.118125 435.415 46.118125 
L 435.415 32.44 
Q 435.415 30.44 433.415 30.44 
L 385.247813 30.44 
Q 383.247813 30.44 383.247813 32.44 
L 383.247813 46.118125 
Q 383.247813 48.118125 385.247813 48.118125 
z
" style="fill:#ffffff;opacity:0.8;stroke:#cccccc;stroke-linejoin:miter;"/>
    </g>
    <g id="line2d_18">
     <path d="M 387.247813 38.538438 
L 407.247813 38.538438 
" style="fill:none;stroke:#ff0000;stroke-linecap:square;stroke-width:1.5;"/>
    </g>
    <g id="line2d_19"/>
    <g id="text_21">
     <!-- diff -->
     <g transform="translate(415.247813 42.038438)scale(0.1 -0.1)">
      <use xlink:href="#DejaVuSans-100"/>
      <use x="63.476562" xlink:href="#DejaVuSans-105"/>
      <use x="91.259766" xlink:href="#DejaVuSans-102"/>
      <use x="126.464844" xlink:href="#DejaVuSans-102"/>
     </g>
    </g>
   </g>
  </g>
  <g id="axes_3">
   <g id="patch_14">
    <path d="M 60.59 303.64 
L 214.425 303.64 
L 214.425 192.84 
L 60.59 192.84 
z
" style="fill:#ffffff;"/>
   </g>
   <g id="matplotlib.axis_5">
    <g id="xtick_9">
     <g id="line2d_20">
      <g>
       <use style="stroke:#000000;stroke-width:0.8;" x="60.59" xlink:href="#m1dc2d4ff69" y="303.64"/>
      </g>
     </g>
     <g id="text_22">
      <!-- 0 -->
      <g transform="translate(57.40875 318.238437)scale(0.1 -0.1)">
       <use xlink:href="#DejaVuSans-48"/>
      </g>
     </g>
    </g>
    <g id="xtick_10">
     <g id="line2d_21">
      <g>
       <use style="stroke:#000000;stroke-width:0.8;" x="111.868333" xlink:href="#m1dc2d4ff69" y="303.64"/>
      </g>
     </g>
     <g id="text_23">
      <!-- 85 -->
      <g transform="translate(105.505833 318.238437)scale(0.1 -0.1)">
       <use xlink:href="#DejaVuSans-56"/>
       <use x="63.623047" xlink:href="#DejaVuSans-53"/>
      </g>
     </g>
    </g>
    <g id="xtick_11">
     <g id="line2d_22">
      <g>
       <use style="stroke:#000000;stroke-width:0.8;" x="163.146667" xlink:href="#m1dc2d4ff69" y="303.64"/>
      </g>
     </g>
     <g id="text_24">
      <!-- 170 -->
      <g transform="translate(153.602917 318.238437)scale(0.1 -0.1)">
       <use xlink:href="#DejaVuSans-49"/>
       <use x="63.623047" xlink:href="#DejaVuSans-55"/>
       <use x="127.246094" xlink:href="#DejaVuSans-48"/>
      </g>
     </g>
    </g>
    <g id="xtick_12">
     <g id="line2d_23">
      <g>
       <use style="stroke:#000000;stroke-width:0.8;" x="214.425" xlink:href="#m1dc2d4ff69" y="303.64"/>
      </g>
     </g>
     <g id="text_25">
      <!-- 255 -->
      <g transform="translate(204.88125 318.238437)scale(0.1 -0.1)">
       <use xlink:href="#DejaVuSans-50"/>
       <use x="63.623047" xlink:href="#DejaVuSans-53"/>
       <use x="127.246094" xlink:href="#DejaVuSans-53"/>
      </g>
     </g>
    </g>
    <g id="text_26">
     <!-- gray value -->
     <g transform="translate(111.0075 331.916562)scale(0.1 -0.1)">
      <use xlink:href="#DejaVuSans-103"/>
      <use x="63.476562" xlink:href="#DejaVuSans-114"/>
      <use x="104.589844" xlink:href="#DejaVuSans-97"/>
      <use x="165.869141" xlink:href="#DejaVuSans-121"/>
      <use x="225.048828" xlink:href="#DejaVuSans-32"/>
      <use x="256.835938" xlink:href="#DejaVuSans-118"/>
      <use x="316.015625" xlink:href="#DejaVuSans-97"/>
      <use x="377.294922" xlink:href="#DejaVuSans-108"/>
      <use x="405.078125" xlink:href="#DejaVuSans-117"/>
      <use x="468.457031" xlink:href="#DejaVuSans-101"/>
     </g>
    </g>
   </g>
   <g id="matplotlib.axis_6">
    <g id="ytick_6">
     <g id="line2d_24">
      <g>
       <use style="stroke:#000000;stroke-width:0.8;" x="60.59" xlink:href="#me1e5dc2fd1" y="290.356428"/>
      </g>
     </g>
     <g id="text_27">
      <!-- 0.00 -->
      <g transform="translate(31.324375 294.155646)scale(0.1 -0.1)">
       <use xlink:href="#DejaVuSans-48"/>
       <use x="63.623047" xlink:href="#DejaVuSans-46"/>
       <use x="95.410156" xlink:href="#DejaVuSans-48"/>
       <use x="159.033203" xlink:href="#DejaVuSans-48"/>
      </g>
     </g>
    </g>
    <g id="ytick_7">
     <g id="line2d_25">
      <g>
       <use style="stroke:#000000;stroke-width:0.8;" x="60.59" xlink:href="#me1e5dc2fd1" y="250.857917"/>
      </g>
     </g>
     <g id="text_28">
      <!-- 0.01 -->
      <g transform="translate(31.324375 254.657136)scale(0.1 -0.1)">
       <use xlink:href="#DejaVuSans-48"/>
       <use x="63.623047" xlink:href="#DejaVuSans-46"/>
       <use x="95.410156" xlink:href="#DejaVuSans-48"/>
       <use x="159.033203" xlink:href="#DejaVuSans-49"/>
      </g>
     </g>
    </g>
    <g id="ytick_8">
     <g id="line2d_26">
      <g>
       <use style="stroke:#000000;stroke-width:0.8;" x="60.59" xlink:href="#me1e5dc2fd1" y="211.359407"/>
      </g>
     </g>
     <g id="text_29">
      <!-- 0.02 -->
      <g transform="translate(31.324375 215.158626)scale(0.1 -0.1)">
       <use xlink:href="#DejaVuSans-48"/>
       <use x="63.623047" xlink:href="#DejaVuSans-46"/>
       <use x="95.410156" xlink:href="#DejaVuSans-48"/>
       <use x="159.033203" xlink:href="#DejaVuSans-50"/>
      </g>
     </g>
    </g>
    <g id="text_30">
     <!-- pixel freq difference -->
     <g transform="translate(25.244687 298.378281)rotate(-90)scale(0.1 -0.1)">
      <use xlink:href="#DejaVuSans-112"/>
      <use x="63.476562" xlink:href="#DejaVuSans-105"/>
      <use x="91.259766" xlink:href="#DejaVuSans-120"/>
      <use x="147.314453" xlink:href="#DejaVuSans-101"/>
      <use x="208.837891" xlink:href="#DejaVuSans-108"/>
      <use x="236.621094" xlink:href="#DejaVuSans-32"/>
      <use x="268.408203" xlink:href="#DejaVuSans-102"/>
      <use x="303.613281" xlink:href="#DejaVuSans-114"/>
      <use x="342.476562" xlink:href="#DejaVuSans-101"/>
      <use x="404" xlink:href="#DejaVuSans-113"/>
      <use x="467.476562" xlink:href="#DejaVuSans-32"/>
      <use x="499.263672" xlink:href="#DejaVuSans-100"/>
      <use x="562.740234" xlink:href="#DejaVuSans-105"/>
      <use x="590.523438" xlink:href="#DejaVuSans-102"/>
      <use x="625.728516" xlink:href="#DejaVuSans-102"/>
      <use x="660.933594" xlink:href="#DejaVuSans-101"/>
      <use x="722.457031" xlink:href="#DejaVuSans-114"/>
      <use x="761.320312" xlink:href="#DejaVuSans-101"/>
      <use x="822.84375" xlink:href="#DejaVuSans-110"/>
      <use x="886.222656" xlink:href="#DejaVuSans-99"/>
      <use x="941.203125" xlink:href="#DejaVuSans-101"/>
     </g>
    </g>
   </g>
   <g id="line2d_27">
    <path clip-path="url(#p431bb9a9e2)" d="M 60.59 197.876364 
L 61.193275 275.611383 
L 61.796549 287.257505 
L 62.399824 294.473175 
L 63.003098 297.993316 
L 63.606373 298.603636 
L 64.209647 297.833102 
L 65.416196 295.03482 
L 66.019471 293.957777 
L 66.622745 293.113591 
L 67.829294 292.048922 
L 69.035843 291.443749 
L 70.242392 291.088163 
L 72.052216 290.756351 
L 74.465314 290.55097 
L 79.894784 290.401793 
L 95.579922 290.3585 
L 195.72349 290.410262 
L 202.35951 290.656838 
L 204.772608 291.002603 
L 205.979157 291.335177 
L 207.185706 291.849395 
L 208.392255 292.727553 
L 209.598804 294.13298 
L 211.408627 297.05126 
L 212.011902 297.523356 
L 212.615176 297.149875 
L 213.218451 295.411437 
L 213.821725 292.78051 
L 214.425 286.304279 
L 214.425 286.304279 
" style="fill:none;stroke:#ff0000;stroke-linecap:square;stroke-width:1.5;"/>
   </g>
   <g id="patch_15">
    <path d="M 60.59 303.64 
L 60.59 192.84 
" style="fill:none;stroke:#000000;stroke-linecap:square;stroke-linejoin:miter;stroke-width:0.8;"/>
   </g>
   <g id="patch_16">
    <path d="M 214.425 303.64 
L 214.425 192.84 
" style="fill:none;stroke:#000000;stroke-linecap:square;stroke-linejoin:miter;stroke-width:0.8;"/>
   </g>
   <g id="patch_17">
    <path d="M 60.59 303.64 
L 214.425 303.64 
" style="fill:none;stroke:#000000;stroke-linecap:square;stroke-linejoin:miter;stroke-width:0.8;"/>
   </g>
   <g id="patch_18">
    <path d="M 60.59 192.84 
L 214.425 192.84 
" style="fill:none;stroke:#000000;stroke-linecap:square;stroke-linejoin:miter;stroke-width:0.8;"/>
   </g>
   <g id="text_31">
    <!-- CelebDFV2-cV/ -->
    <g transform="translate(92.875938 186.84)scale(0.12 -0.12)">
     <use xlink:href="#DejaVuSans-67"/>
     <use x="69.824219" xlink:href="#DejaVuSans-101"/>
     <use x="131.347656" xlink:href="#DejaVuSans-108"/>
     <use x="159.130859" xlink:href="#DejaVuSans-101"/>
     <use x="220.654297" xlink:href="#DejaVuSans-98"/>
     <use x="284.130859" xlink:href="#DejaVuSans-68"/>
     <use x="361.132812" xlink:href="#DejaVuSans-70"/>
     <use x="418.652344" xlink:href="#DejaVuSans-86"/>
     <use x="487.060547" xlink:href="#DejaVuSans-50"/>
     <use x="550.683594" xlink:href="#DejaVuSans-45"/>
     <use x="586.767578" xlink:href="#DejaVuSans-99"/>
     <use x="641.748047" xlink:href="#DejaVuSans-86"/>
     <use x="710.15625" xlink:href="#DejaVuSans-47"/>
    </g>
   </g>
   <g id="legend_3">
    <g id="patch_19">
     <path d="M 159.257813 215.518125 
L 207.425 215.518125 
Q 209.425 215.518125 209.425 213.518125 
L 209.425 199.84 
Q 209.425 197.84 207.425 197.84 
L 159.257813 197.84 
Q 157.257813 197.84 157.257813 199.84 
L 157.257813 213.518125 
Q 157.257813 215.518125 159.257813 215.518125 
z
" style="fill:#ffffff;opacity:0.8;stroke:#cccccc;stroke-linejoin:miter;"/>
    </g>
    <g id="line2d_28">
     <path d="M 161.257813 205.938437 
L 181.257813 205.938437 
" style="fill:none;stroke:#ff0000;stroke-linecap:square;stroke-width:1.5;"/>
    </g>
    <g id="line2d_29"/>
    <g id="text_32">
     <!-- diff -->
     <g transform="translate(189.257813 209.438437)scale(0.1 -0.1)">
      <use xlink:href="#DejaVuSans-100"/>
      <use x="63.476562" xlink:href="#DejaVuSans-105"/>
      <use x="91.259766" xlink:href="#DejaVuSans-102"/>
      <use x="126.464844" xlink:href="#DejaVuSans-102"/>
     </g>
    </g>
   </g>
  </g>
  <g id="axes_4">
   <g id="patch_20">
    <path d="M 286.58 303.64 
L 440.415 303.64 
L 440.415 192.84 
L 286.58 192.84 
z
" style="fill:#ffffff;"/>
   </g>
   <g id="matplotlib.axis_7">
    <g id="xtick_13">
     <g id="line2d_30">
      <g>
       <use style="stroke:#000000;stroke-width:0.8;" x="286.58" xlink:href="#m1dc2d4ff69" y="303.64"/>
      </g>
     </g>
     <g id="text_33">
      <!-- 0 -->
      <g transform="translate(283.39875 318.238437)scale(0.1 -0.1)">
       <use xlink:href="#DejaVuSans-48"/>
      </g>
     </g>
    </g>
    <g id="xtick_14">
     <g id="line2d_31">
      <g>
       <use style="stroke:#000000;stroke-width:0.8;" x="337.858333" xlink:href="#m1dc2d4ff69" y="303.64"/>
      </g>
     </g>
     <g id="text_34">
      <!-- 85 -->
      <g transform="translate(331.495833 318.238437)scale(0.1 -0.1)">
       <use xlink:href="#DejaVuSans-56"/>
       <use x="63.623047" xlink:href="#DejaVuSans-53"/>
      </g>
     </g>
    </g>
    <g id="xtick_15">
     <g id="line2d_32">
      <g>
       <use style="stroke:#000000;stroke-width:0.8;" x="389.136667" xlink:href="#m1dc2d4ff69" y="303.64"/>
      </g>
     </g>
     <g id="text_35">
      <!-- 170 -->
      <g transform="translate(379.592917 318.238437)scale(0.1 -0.1)">
       <use xlink:href="#DejaVuSans-49"/>
       <use x="63.623047" xlink:href="#DejaVuSans-55"/>
       <use x="127.246094" xlink:href="#DejaVuSans-48"/>
      </g>
     </g>
    </g>
    <g id="xtick_16">
     <g id="line2d_33">
      <g>
       <use style="stroke:#000000;stroke-width:0.8;" x="440.415" xlink:href="#m1dc2d4ff69" y="303.64"/>
      </g>
     </g>
     <g id="text_36">
      <!-- 255 -->
      <g transform="translate(430.87125 318.238437)scale(0.1 -0.1)">
       <use xlink:href="#DejaVuSans-50"/>
       <use x="63.623047" xlink:href="#DejaVuSans-53"/>
       <use x="127.246094" xlink:href="#DejaVuSans-53"/>
      </g>
     </g>
    </g>
    <g id="text_37">
     <!-- gray value -->
     <g transform="translate(336.9975 331.916562)scale(0.1 -0.1)">
      <use xlink:href="#DejaVuSans-103"/>
      <use x="63.476562" xlink:href="#DejaVuSans-114"/>
      <use x="104.589844" xlink:href="#DejaVuSans-97"/>
      <use x="165.869141" xlink:href="#DejaVuSans-121"/>
      <use x="225.048828" xlink:href="#DejaVuSans-32"/>
      <use x="256.835938" xlink:href="#DejaVuSans-118"/>
      <use x="316.015625" xlink:href="#DejaVuSans-97"/>
      <use x="377.294922" xlink:href="#DejaVuSans-108"/>
      <use x="405.078125" xlink:href="#DejaVuSans-117"/>
      <use x="468.457031" xlink:href="#DejaVuSans-101"/>
     </g>
    </g>
   </g>
   <g id="matplotlib.axis_8">
    <g id="ytick_9">
     <g id="line2d_34">
      <g>
       <use style="stroke:#000000;stroke-width:0.8;" x="286.58" xlink:href="#me1e5dc2fd1" y="302.566246"/>
      </g>
     </g>
     <g id="text_38">
      <!-- 0.01 -->
      <defs>
       <path d="M 10.59375 35.5 
L 73.1875 35.5 
L 73.1875 27.203125 
L 10.59375 27.203125 
z
" id="DejaVuSans-8722"/>
      </defs>
      <g transform="translate(248.934687 306.365464)scale(0.1 -0.1)">
       <use xlink:href="#DejaVuSans-8722"/>
       <use x="83.789062" xlink:href="#DejaVuSans-48"/>
       <use x="147.412109" xlink:href="#DejaVuSans-46"/>
       <use x="179.199219" xlink:href="#DejaVuSans-48"/>
       <use x="242.822266" xlink:href="#DejaVuSans-49"/>
      </g>
     </g>
    </g>
    <g id="ytick_10">
     <g id="line2d_35">
      <g>
       <use style="stroke:#000000;stroke-width:0.8;" x="286.58" xlink:href="#me1e5dc2fd1" y="272.57883"/>
      </g>
     </g>
     <g id="text_39">
      <!-- 0.00 -->
      <g transform="translate(257.314375 276.378049)scale(0.1 -0.1)">
       <use xlink:href="#DejaVuSans-48"/>
       <use x="63.623047" xlink:href="#DejaVuSans-46"/>
       <use x="95.410156" xlink:href="#DejaVuSans-48"/>
       <use x="159.033203" xlink:href="#DejaVuSans-48"/>
      </g>
     </g>
    </g>
    <g id="ytick_11">
     <g id="line2d_36">
      <g>
       <use style="stroke:#000000;stroke-width:0.8;" x="286.58" xlink:href="#me1e5dc2fd1" y="242.591414"/>
      </g>
     </g>
     <g id="text_40">
      <!-- 0.01 -->
      <g transform="translate(257.314375 246.390633)scale(0.1 -0.1)">
       <use xlink:href="#DejaVuSans-48"/>
       <use x="63.623047" xlink:href="#DejaVuSans-46"/>
       <use x="95.410156" xlink:href="#DejaVuSans-48"/>
       <use x="159.033203" xlink:href="#DejaVuSans-49"/>
      </g>
     </g>
    </g>
    <g id="ytick_12">
     <g id="line2d_37">
      <g>
       <use style="stroke:#000000;stroke-width:0.8;" x="286.58" xlink:href="#me1e5dc2fd1" y="212.603998"/>
      </g>
     </g>
     <g id="text_41">
      <!-- 0.02 -->
      <g transform="translate(257.314375 216.403217)scale(0.1 -0.1)">
       <use xlink:href="#DejaVuSans-48"/>
       <use x="63.623047" xlink:href="#DejaVuSans-46"/>
       <use x="95.410156" xlink:href="#DejaVuSans-48"/>
       <use x="159.033203" xlink:href="#DejaVuSans-50"/>
      </g>
     </g>
    </g>
    <g id="text_42">
     <!-- pixel freq difference -->
     <g transform="translate(242.855 298.378281)rotate(-90)scale(0.1 -0.1)">
      <use xlink:href="#DejaVuSans-112"/>
      <use x="63.476562" xlink:href="#DejaVuSans-105"/>
      <use x="91.259766" xlink:href="#DejaVuSans-120"/>
      <use x="147.314453" xlink:href="#DejaVuSans-101"/>
      <use x="208.837891" xlink:href="#DejaVuSans-108"/>
      <use x="236.621094" xlink:href="#DejaVuSans-32"/>
      <use x="268.408203" xlink:href="#DejaVuSans-102"/>
      <use x="303.613281" xlink:href="#DejaVuSans-114"/>
      <use x="342.476562" xlink:href="#DejaVuSans-101"/>
      <use x="404" xlink:href="#DejaVuSans-113"/>
      <use x="467.476562" xlink:href="#DejaVuSans-32"/>
      <use x="499.263672" xlink:href="#DejaVuSans-100"/>
      <use x="562.740234" xlink:href="#DejaVuSans-105"/>
      <use x="590.523438" xlink:href="#DejaVuSans-102"/>
      <use x="625.728516" xlink:href="#DejaVuSans-102"/>
      <use x="660.933594" xlink:href="#DejaVuSans-101"/>
      <use x="722.457031" xlink:href="#DejaVuSans-114"/>
      <use x="761.320312" xlink:href="#DejaVuSans-101"/>
      <use x="822.84375" xlink:href="#DejaVuSans-110"/>
      <use x="886.222656" xlink:href="#DejaVuSans-99"/>
      <use x="941.203125" xlink:href="#DejaVuSans-101"/>
     </g>
    </g>
   </g>
   <g id="line2d_38">
    <path clip-path="url(#p4fa2a78e0c)" d="M 286.58 197.876364 
L 287.183275 298.603636 
L 288.389824 281.957939 
L 288.993098 276.785209 
L 289.596373 274.176653 
L 290.199647 273.086718 
L 290.802922 272.738313 
L 292.009471 272.590344 
L 298.64549 272.578459 
L 436.795353 272.672609 
L 437.398627 272.819895 
L 438.001902 273.132062 
L 438.605176 273.679186 
L 439.811725 275.250371 
L 440.415 281.252094 
L 440.415 281.252094 
" style="fill:none;stroke:#ff0000;stroke-linecap:square;stroke-width:1.5;"/>
   </g>
   <g id="patch_21">
    <path d="M 286.58 303.64 
L 286.58 192.84 
" style="fill:none;stroke:#000000;stroke-linecap:square;stroke-linejoin:miter;stroke-width:0.8;"/>
   </g>
   <g id="patch_22">
    <path d="M 440.415 303.64 
L 440.415 192.84 
" style="fill:none;stroke:#000000;stroke-linecap:square;stroke-linejoin:miter;stroke-width:0.8;"/>
   </g>
   <g id="patch_23">
    <path d="M 286.58 303.64 
L 440.415 303.64 
" style="fill:none;stroke:#000000;stroke-linecap:square;stroke-linejoin:miter;stroke-width:0.8;"/>
   </g>
   <g id="patch_24">
    <path d="M 286.58 192.84 
L 440.415 192.84 
" style="fill:none;stroke:#000000;stroke-linecap:square;stroke-linejoin:miter;stroke-width:0.8;"/>
   </g>
   <g id="text_43">
    <!-- CelebDFV2-cD/ -->
    <g transform="translate(318.350312 186.84)scale(0.12 -0.12)">
     <use xlink:href="#DejaVuSans-67"/>
     <use x="69.824219" xlink:href="#DejaVuSans-101"/>
     <use x="131.347656" xlink:href="#DejaVuSans-108"/>
     <use x="159.130859" xlink:href="#DejaVuSans-101"/>
     <use x="220.654297" xlink:href="#DejaVuSans-98"/>
     <use x="284.130859" xlink:href="#DejaVuSans-68"/>
     <use x="361.132812" xlink:href="#DejaVuSans-70"/>
     <use x="418.652344" xlink:href="#DejaVuSans-86"/>
     <use x="487.060547" xlink:href="#DejaVuSans-50"/>
     <use x="550.683594" xlink:href="#DejaVuSans-45"/>
     <use x="586.767578" xlink:href="#DejaVuSans-99"/>
     <use x="641.748047" xlink:href="#DejaVuSans-68"/>
     <use x="718.75" xlink:href="#DejaVuSans-47"/>
    </g>
   </g>
   <g id="legend_4">
    <g id="patch_25">
     <path d="M 385.247813 215.518125 
L 433.415 215.518125 
Q 435.415 215.518125 435.415 213.518125 
L 435.415 199.84 
Q 435.415 197.84 433.415 197.84 
L 385.247813 197.84 
Q 383.247813 197.84 383.247813 199.84 
L 383.247813 213.518125 
Q 383.247813 215.518125 385.247813 215.518125 
z
" style="fill:#ffffff;opacity:0.8;stroke:#cccccc;stroke-linejoin:miter;"/>
    </g>
    <g id="line2d_39">
     <path d="M 387.247813 205.938437 
L 407.247813 205.938437 
" style="fill:none;stroke:#ff0000;stroke-linecap:square;stroke-width:1.5;"/>
    </g>
    <g id="line2d_40"/>
    <g id="text_44">
     <!-- diff -->
     <g transform="translate(415.247813 209.438437)scale(0.1 -0.1)">
      <use xlink:href="#DejaVuSans-100"/>
      <use x="63.476562" xlink:href="#DejaVuSans-105"/>
      <use x="91.259766" xlink:href="#DejaVuSans-102"/>
      <use x="126.464844" xlink:href="#DejaVuSans-102"/>
     </g>
    </g>
   </g>
  </g>
 </g>
 <defs>
  <clipPath id="p57314feae9">
   <rect height="110.8" width="153.835" x="60.59" y="25.44"/>
  </clipPath>
  <clipPath id="p01d1a25e80">
   <rect height="110.8" width="153.835" x="286.58" y="25.44"/>
  </clipPath>
  <clipPath id="p431bb9a9e2">
   <rect height="110.8" width="153.835" x="60.59" y="192.84"/>
  </clipPath>
  <clipPath id="p4fa2a78e0c">
   <rect height="110.8" width="153.835" x="286.58" y="192.84"/>
  </clipPath>
 </defs>
</svg>
