<?xml version="1.0" encoding="utf-8" standalone="no"?>
<!DOCTYPE svg PUBLIC "-//W3C//DTD SVG 1.1//EN"
  "http://www.w3.org/Graphics/SVG/1.1/DTD/svg11.dtd">
<!-- Created with matplotlib (https://matplotlib.org/) -->
<svg height="345.6pt" version="1.1" viewBox="0 0 460.8 345.6" width="460.8pt" xmlns="http://www.w3.org/2000/svg" xmlns:xlink="http://www.w3.org/1999/xlink">
 <defs>
  <style type="text/css">
*{stroke-linecap:butt;stroke-linejoin:round;}
  </style>
 </defs>
 <g id="figure_1">
  <g id="patch_1">
   <path d="M 0 345.6 
L 460.8 345.6 
L 460.8 0 
L 0 0 
z
" style="fill:#ffffff;"/>
  </g>
  <g id="axes_1">
   <g id="patch_2">
    <path d="M 60.59 136.24 
L 221.805 136.24 
L 221.805 25.44 
L 60.59 25.44 
z
" style="fill:#ffffff;"/>
   </g>
   <g id="matplotlib.axis_1">
    <g id="xtick_1">
     <g id="line2d_1">
      <defs>
       <path d="M 0 0 
L 0 3.5 
" id="m150bee2ef0" style="stroke:#000000;stroke-width:0.8;"/>
      </defs>
      <g>
       <use style="stroke:#000000;stroke-width:0.8;" x="60.59" xlink:href="#m150bee2ef0" y="136.24"/>
      </g>
     </g>
     <g id="text_1">
      <!-- 0 -->
      <defs>
       <path d="M 31.78125 66.40625 
Q 24.171875 66.40625 20.328125 58.90625 
Q 16.5 51.421875 16.5 36.375 
Q 16.5 21.390625 20.328125 13.890625 
Q 24.171875 6.390625 31.78125 6.390625 
Q 39.453125 6.390625 43.28125 13.890625 
Q 47.125 21.390625 47.125 36.375 
Q 47.125 51.421875 43.28125 58.90625 
Q 39.453125 66.40625 31.78125 66.40625 
z
M 31.78125 74.21875 
Q 44.046875 74.21875 50.515625 64.515625 
Q 56.984375 54.828125 56.984375 36.375 
Q 56.984375 17.96875 50.515625 8.265625 
Q 44.046875 -1.421875 31.78125 -1.421875 
Q 19.53125 -1.421875 13.0625 8.265625 
Q 6.59375 17.96875 6.59375 36.375 
Q 6.59375 54.828125 13.0625 64.515625 
Q 19.53125 74.21875 31.78125 74.21875 
z
" id="DejaVuSans-48"/>
      </defs>
      <g transform="translate(57.40875 150.838437)scale(0.1 -0.1)">
       <use xlink:href="#DejaVuSans-48"/>
      </g>
     </g>
    </g>
    <g id="xtick_2">
     <g id="line2d_2">
      <g>
       <use style="stroke:#000000;stroke-width:0.8;" x="114.328333" xlink:href="#m150bee2ef0" y="136.24"/>
      </g>
     </g>
     <g id="text_2">
      <!-- 85 -->
      <defs>
       <path d="M 31.78125 34.625 
Q 24.75 34.625 20.71875 30.859375 
Q 16.703125 27.09375 16.703125 20.515625 
Q 16.703125 13.921875 20.71875 10.15625 
Q 24.75 6.390625 31.78125 6.390625 
Q 38.8125 6.390625 42.859375 10.171875 
Q 46.921875 13.96875 46.921875 20.515625 
Q 46.921875 27.09375 42.890625 30.859375 
Q 38.875 34.625 31.78125 34.625 
z
M 21.921875 38.8125 
Q 15.578125 40.375 12.03125 44.71875 
Q 8.5 49.078125 8.5 55.328125 
Q 8.5 64.0625 14.71875 69.140625 
Q 20.953125 74.21875 31.78125 74.21875 
Q 42.671875 74.21875 48.875 69.140625 
Q 55.078125 64.0625 55.078125 55.328125 
Q 55.078125 49.078125 51.53125 44.71875 
Q 48 40.375 41.703125 38.8125 
Q 48.828125 37.15625 52.796875 32.3125 
Q 56.78125 27.484375 56.78125 20.515625 
Q 56.78125 9.90625 50.3125 4.234375 
Q 43.84375 -1.421875 31.78125 -1.421875 
Q 19.734375 -1.421875 13.25 4.234375 
Q 6.78125 9.90625 6.78125 20.515625 
Q 6.78125 27.484375 10.78125 32.3125 
Q 14.796875 37.15625 21.921875 38.8125 
z
M 18.3125 54.390625 
Q 18.3125 48.734375 21.84375 45.5625 
Q 25.390625 42.390625 31.78125 42.390625 
Q 38.140625 42.390625 41.71875 45.5625 
Q 45.3125 48.734375 45.3125 54.390625 
Q 45.3125 60.0625 41.71875 63.234375 
Q 38.140625 66.40625 31.78125 66.40625 
Q 25.390625 66.40625 21.84375 63.234375 
Q 18.3125 60.0625 18.3125 54.390625 
z
" id="DejaVuSans-56"/>
       <path d="M 10.796875 72.90625 
L 49.515625 72.90625 
L 49.515625 64.59375 
L 19.828125 64.59375 
L 19.828125 46.734375 
Q 21.96875 47.46875 24.109375 47.828125 
Q 26.265625 48.1875 28.421875 48.1875 
Q 40.625 48.1875 47.75 41.5 
Q 54.890625 34.8125 54.890625 23.390625 
Q 54.890625 11.625 47.5625 5.09375 
Q 40.234375 -1.421875 26.90625 -1.421875 
Q 22.3125 -1.421875 17.546875 -0.640625 
Q 12.796875 0.140625 7.71875 1.703125 
L 7.71875 11.625 
Q 12.109375 9.234375 16.796875 8.0625 
Q 21.484375 6.890625 26.703125 6.890625 
Q 35.15625 6.890625 40.078125 11.328125 
Q 45.015625 15.765625 45.015625 23.390625 
Q 45.015625 31 40.078125 35.4375 
Q 35.15625 39.890625 26.703125 39.890625 
Q 22.75 39.890625 18.8125 39.015625 
Q 14.890625 38.140625 10.796875 36.28125 
z
" id="DejaVuSans-53"/>
      </defs>
      <g transform="translate(107.965833 150.838437)scale(0.1 -0.1)">
       <use xlink:href="#DejaVuSans-56"/>
       <use x="63.623047" xlink:href="#DejaVuSans-53"/>
      </g>
     </g>
    </g>
    <g id="xtick_3">
     <g id="line2d_3">
      <g>
       <use style="stroke:#000000;stroke-width:0.8;" x="168.066667" xlink:href="#m150bee2ef0" y="136.24"/>
      </g>
     </g>
     <g id="text_3">
      <!-- 170 -->
      <defs>
       <path d="M 12.40625 8.296875 
L 28.515625 8.296875 
L 28.515625 63.921875 
L 10.984375 60.40625 
L 10.984375 69.390625 
L 28.421875 72.90625 
L 38.28125 72.90625 
L 38.28125 8.296875 
L 54.390625 8.296875 
L 54.390625 0 
L 12.40625 0 
z
" id="DejaVuSans-49"/>
       <path d="M 8.203125 72.90625 
L 55.078125 72.90625 
L 55.078125 68.703125 
L 28.609375 0 
L 18.3125 0 
L 43.21875 64.59375 
L 8.203125 64.59375 
z
" id="DejaVuSans-55"/>
      </defs>
      <g transform="translate(158.522917 150.838437)scale(0.1 -0.1)">
       <use xlink:href="#DejaVuSans-49"/>
       <use x="63.623047" xlink:href="#DejaVuSans-55"/>
       <use x="127.246094" xlink:href="#DejaVuSans-48"/>
      </g>
     </g>
    </g>
    <g id="xtick_4">
     <g id="line2d_4">
      <g>
       <use style="stroke:#000000;stroke-width:0.8;" x="221.805" xlink:href="#m150bee2ef0" y="136.24"/>
      </g>
     </g>
     <g id="text_4">
      <!-- 255 -->
      <defs>
       <path d="M 19.1875 8.296875 
L 53.609375 8.296875 
L 53.609375 0 
L 7.328125 0 
L 7.328125 8.296875 
Q 12.9375 14.109375 22.625 23.890625 
Q 32.328125 33.6875 34.8125 36.53125 
Q 39.546875 41.84375 41.421875 45.53125 
Q 43.3125 49.21875 43.3125 52.78125 
Q 43.3125 58.59375 39.234375 62.25 
Q 35.15625 65.921875 28.609375 65.921875 
Q 23.96875 65.921875 18.8125 64.3125 
Q 13.671875 62.703125 7.8125 59.421875 
L 7.8125 69.390625 
Q 13.765625 71.78125 18.9375 73 
Q 24.125 74.21875 28.421875 74.21875 
Q 39.75 74.21875 46.484375 68.546875 
Q 53.21875 62.890625 53.21875 53.421875 
Q 53.21875 48.921875 51.53125 44.890625 
Q 49.859375 40.875 45.40625 35.40625 
Q 44.1875 33.984375 37.640625 27.21875 
Q 31.109375 20.453125 19.1875 8.296875 
z
" id="DejaVuSans-50"/>
      </defs>
      <g transform="translate(212.26125 150.838437)scale(0.1 -0.1)">
       <use xlink:href="#DejaVuSans-50"/>
       <use x="63.623047" xlink:href="#DejaVuSans-53"/>
       <use x="127.246094" xlink:href="#DejaVuSans-53"/>
      </g>
     </g>
    </g>
    <g id="text_5">
     <!-- gray value -->
     <defs>
      <path d="M 45.40625 27.984375 
Q 45.40625 37.75 41.375 43.109375 
Q 37.359375 48.484375 30.078125 48.484375 
Q 22.859375 48.484375 18.828125 43.109375 
Q 14.796875 37.75 14.796875 27.984375 
Q 14.796875 18.265625 18.828125 12.890625 
Q 22.859375 7.515625 30.078125 7.515625 
Q 37.359375 7.515625 41.375 12.890625 
Q 45.40625 18.265625 45.40625 27.984375 
z
M 54.390625 6.78125 
Q 54.390625 -7.171875 48.1875 -13.984375 
Q 42 -20.796875 29.203125 -20.796875 
Q 24.46875 -20.796875 20.265625 -20.09375 
Q 16.0625 -19.390625 12.109375 -17.921875 
L 12.109375 -9.1875 
Q 16.0625 -11.328125 19.921875 -12.34375 
Q 23.78125 -13.375 27.78125 -13.375 
Q 36.625 -13.375 41.015625 -8.765625 
Q 45.40625 -4.15625 45.40625 5.171875 
L 45.40625 9.625 
Q 42.625 4.78125 38.28125 2.390625 
Q 33.9375 0 27.875 0 
Q 17.828125 0 11.671875 7.65625 
Q 5.515625 15.328125 5.515625 27.984375 
Q 5.515625 40.671875 11.671875 48.328125 
Q 17.828125 56 27.875 56 
Q 33.9375 56 38.28125 53.609375 
Q 42.625 51.21875 45.40625 46.390625 
L 45.40625 54.6875 
L 54.390625 54.6875 
z
" id="DejaVuSans-103"/>
      <path d="M 41.109375 46.296875 
Q 39.59375 47.171875 37.8125 47.578125 
Q 36.03125 48 33.890625 48 
Q 26.265625 48 22.1875 43.046875 
Q 18.109375 38.09375 18.109375 28.8125 
L 18.109375 0 
L 9.078125 0 
L 9.078125 54.6875 
L 18.109375 54.6875 
L 18.109375 46.1875 
Q 20.953125 51.171875 25.484375 53.578125 
Q 30.03125 56 36.53125 56 
Q 37.453125 56 38.578125 55.875 
Q 39.703125 55.765625 41.0625 55.515625 
z
" id="DejaVuSans-114"/>
      <path d="M 34.28125 27.484375 
Q 23.390625 27.484375 19.1875 25 
Q 14.984375 22.515625 14.984375 16.5 
Q 14.984375 11.71875 18.140625 8.90625 
Q 21.296875 6.109375 26.703125 6.109375 
Q 34.1875 6.109375 38.703125 11.40625 
Q 43.21875 16.703125 43.21875 25.484375 
L 43.21875 27.484375 
z
M 52.203125 31.203125 
L 52.203125 0 
L 43.21875 0 
L 43.21875 8.296875 
Q 40.140625 3.328125 35.546875 0.953125 
Q 30.953125 -1.421875 24.3125 -1.421875 
Q 15.921875 -1.421875 10.953125 3.296875 
Q 6 8.015625 6 15.921875 
Q 6 25.140625 12.171875 29.828125 
Q 18.359375 34.515625 30.609375 34.515625 
L 43.21875 34.515625 
L 43.21875 35.40625 
Q 43.21875 41.609375 39.140625 45 
Q 35.0625 48.390625 27.6875 48.390625 
Q 23 48.390625 18.546875 47.265625 
Q 14.109375 46.140625 10.015625 43.890625 
L 10.015625 52.203125 
Q 14.9375 54.109375 19.578125 55.046875 
Q 24.21875 56 28.609375 56 
Q 40.484375 56 46.34375 49.84375 
Q 52.203125 43.703125 52.203125 31.203125 
z
" id="DejaVuSans-97"/>
      <path d="M 32.171875 -5.078125 
Q 28.375 -14.84375 24.75 -17.8125 
Q 21.140625 -20.796875 15.09375 -20.796875 
L 7.90625 -20.796875 
L 7.90625 -13.28125 
L 13.1875 -13.28125 
Q 16.890625 -13.28125 18.9375 -11.515625 
Q 21 -9.765625 23.484375 -3.21875 
L 25.09375 0.875 
L 2.984375 54.6875 
L 12.5 54.6875 
L 29.59375 11.921875 
L 46.6875 54.6875 
L 56.203125 54.6875 
z
" id="DejaVuSans-121"/>
      <path id="DejaVuSans-32"/>
      <path d="M 2.984375 54.6875 
L 12.5 54.6875 
L 29.59375 8.796875 
L 46.6875 54.6875 
L 56.203125 54.6875 
L 35.6875 0 
L 23.484375 0 
z
" id="DejaVuSans-118"/>
      <path d="M 9.421875 75.984375 
L 18.40625 75.984375 
L 18.40625 0 
L 9.421875 0 
z
" id="DejaVuSans-108"/>
      <path d="M 8.5 21.578125 
L 8.5 54.6875 
L 17.484375 54.6875 
L 17.484375 21.921875 
Q 17.484375 14.15625 20.5 10.265625 
Q 23.53125 6.390625 29.59375 6.390625 
Q 36.859375 6.390625 41.078125 11.03125 
Q 45.3125 15.671875 45.3125 23.6875 
L 45.3125 54.6875 
L 54.296875 54.6875 
L 54.296875 0 
L 45.3125 0 
L 45.3125 8.40625 
Q 42.046875 3.421875 37.71875 1 
Q 33.40625 -1.421875 27.6875 -1.421875 
Q 18.265625 -1.421875 13.375 4.4375 
Q 8.5 10.296875 8.5 21.578125 
z
M 31.109375 56 
z
" id="DejaVuSans-117"/>
      <path d="M 56.203125 29.59375 
L 56.203125 25.203125 
L 14.890625 25.203125 
Q 15.484375 15.921875 20.484375 11.0625 
Q 25.484375 6.203125 34.421875 6.203125 
Q 39.59375 6.203125 44.453125 7.46875 
Q 49.3125 8.734375 54.109375 11.28125 
L 54.109375 2.78125 
Q 49.265625 0.734375 44.1875 -0.34375 
Q 39.109375 -1.421875 33.890625 -1.421875 
Q 20.796875 -1.421875 13.15625 6.1875 
Q 5.515625 13.8125 5.515625 26.8125 
Q 5.515625 40.234375 12.765625 48.109375 
Q 20.015625 56 32.328125 56 
Q 43.359375 56 49.78125 48.890625 
Q 56.203125 41.796875 56.203125 29.59375 
z
M 47.21875 32.234375 
Q 47.125 39.59375 43.09375 43.984375 
Q 39.0625 48.390625 32.421875 48.390625 
Q 24.90625 48.390625 20.390625 44.140625 
Q 15.875 39.890625 15.1875 32.171875 
z
" id="DejaVuSans-101"/>
     </defs>
     <g transform="translate(114.6975 164.516562)scale(0.1 -0.1)">
      <use xlink:href="#DejaVuSans-103"/>
      <use x="63.476562" xlink:href="#DejaVuSans-114"/>
      <use x="104.589844" xlink:href="#DejaVuSans-97"/>
      <use x="165.869141" xlink:href="#DejaVuSans-121"/>
      <use x="225.048828" xlink:href="#DejaVuSans-32"/>
      <use x="256.835938" xlink:href="#DejaVuSans-118"/>
      <use x="316.015625" xlink:href="#DejaVuSans-97"/>
      <use x="377.294922" xlink:href="#DejaVuSans-108"/>
      <use x="405.078125" xlink:href="#DejaVuSans-117"/>
      <use x="468.457031" xlink:href="#DejaVuSans-101"/>
     </g>
    </g>
   </g>
   <g id="matplotlib.axis_2">
    <g id="ytick_1">
     <g id="line2d_5">
      <defs>
       <path d="M 0 0 
L -3.5 0 
" id="m0f131baa4f" style="stroke:#000000;stroke-width:0.8;"/>
      </defs>
      <g>
       <use style="stroke:#000000;stroke-width:0.8;" x="60.59" xlink:href="#m0f131baa4f" y="109.258116"/>
      </g>
     </g>
     <g id="text_6">
      <!-- 0.004 -->
      <defs>
       <path d="M 10.6875 12.40625 
L 21 12.40625 
L 21 0 
L 10.6875 0 
z
" id="DejaVuSans-46"/>
       <path d="M 37.796875 64.3125 
L 12.890625 25.390625 
L 37.796875 25.390625 
z
M 35.203125 72.90625 
L 47.609375 72.90625 
L 47.609375 25.390625 
L 58.015625 25.390625 
L 58.015625 17.1875 
L 47.609375 17.1875 
L 47.609375 0 
L 37.796875 0 
L 37.796875 17.1875 
L 4.890625 17.1875 
L 4.890625 26.703125 
z
" id="DejaVuSans-52"/>
      </defs>
      <g transform="translate(24.961875 113.057334)scale(0.1 -0.1)">
       <use xlink:href="#DejaVuSans-48"/>
       <use x="63.623047" xlink:href="#DejaVuSans-46"/>
       <use x="95.410156" xlink:href="#DejaVuSans-48"/>
       <use x="159.033203" xlink:href="#DejaVuSans-48"/>
       <use x="222.65625" xlink:href="#DejaVuSans-52"/>
      </g>
     </g>
    </g>
    <g id="ytick_2">
     <g id="line2d_6">
      <g>
       <use style="stroke:#000000;stroke-width:0.8;" x="60.59" xlink:href="#m0f131baa4f" y="78.619818"/>
      </g>
     </g>
     <g id="text_7">
      <!-- 0.006 -->
      <defs>
       <path d="M 33.015625 40.375 
Q 26.375 40.375 22.484375 35.828125 
Q 18.609375 31.296875 18.609375 23.390625 
Q 18.609375 15.53125 22.484375 10.953125 
Q 26.375 6.390625 33.015625 6.390625 
Q 39.65625 6.390625 43.53125 10.953125 
Q 47.40625 15.53125 47.40625 23.390625 
Q 47.40625 31.296875 43.53125 35.828125 
Q 39.65625 40.375 33.015625 40.375 
z
M 52.59375 71.296875 
L 52.59375 62.3125 
Q 48.875 64.0625 45.09375 64.984375 
Q 41.3125 65.921875 37.59375 65.921875 
Q 27.828125 65.921875 22.671875 59.328125 
Q 17.53125 52.734375 16.796875 39.40625 
Q 19.671875 43.65625 24.015625 45.921875 
Q 28.375 48.1875 33.59375 48.1875 
Q 44.578125 48.1875 50.953125 41.515625 
Q 57.328125 34.859375 57.328125 23.390625 
Q 57.328125 12.15625 50.6875 5.359375 
Q 44.046875 -1.421875 33.015625 -1.421875 
Q 20.359375 -1.421875 13.671875 8.265625 
Q 6.984375 17.96875 6.984375 36.375 
Q 6.984375 53.65625 15.1875 63.9375 
Q 23.390625 74.21875 37.203125 74.21875 
Q 40.921875 74.21875 44.703125 73.484375 
Q 48.484375 72.75 52.59375 71.296875 
z
" id="DejaVuSans-54"/>
      </defs>
      <g transform="translate(24.961875 82.419037)scale(0.1 -0.1)">
       <use xlink:href="#DejaVuSans-48"/>
       <use x="63.623047" xlink:href="#DejaVuSans-46"/>
       <use x="95.410156" xlink:href="#DejaVuSans-48"/>
       <use x="159.033203" xlink:href="#DejaVuSans-48"/>
       <use x="222.65625" xlink:href="#DejaVuSans-54"/>
      </g>
     </g>
    </g>
    <g id="ytick_3">
     <g id="line2d_7">
      <g>
       <use style="stroke:#000000;stroke-width:0.8;" x="60.59" xlink:href="#m0f131baa4f" y="47.98152"/>
      </g>
     </g>
     <g id="text_8">
      <!-- 0.008 -->
      <g transform="translate(24.961875 51.780739)scale(0.1 -0.1)">
       <use xlink:href="#DejaVuSans-48"/>
       <use x="63.623047" xlink:href="#DejaVuSans-46"/>
       <use x="95.410156" xlink:href="#DejaVuSans-48"/>
       <use x="159.033203" xlink:href="#DejaVuSans-48"/>
       <use x="222.65625" xlink:href="#DejaVuSans-56"/>
      </g>
     </g>
    </g>
    <g id="text_9">
     <!-- pixel freq -->
     <defs>
      <path d="M 18.109375 8.203125 
L 18.109375 -20.796875 
L 9.078125 -20.796875 
L 9.078125 54.6875 
L 18.109375 54.6875 
L 18.109375 46.390625 
Q 20.953125 51.265625 25.265625 53.625 
Q 29.59375 56 35.59375 56 
Q 45.5625 56 51.78125 48.09375 
Q 58.015625 40.1875 58.015625 27.296875 
Q 58.015625 14.40625 51.78125 6.484375 
Q 45.5625 -1.421875 35.59375 -1.421875 
Q 29.59375 -1.421875 25.265625 0.953125 
Q 20.953125 3.328125 18.109375 8.203125 
z
M 48.6875 27.296875 
Q 48.6875 37.203125 44.609375 42.84375 
Q 40.53125 48.484375 33.40625 48.484375 
Q 26.265625 48.484375 22.1875 42.84375 
Q 18.109375 37.203125 18.109375 27.296875 
Q 18.109375 17.390625 22.1875 11.75 
Q 26.265625 6.109375 33.40625 6.109375 
Q 40.53125 6.109375 44.609375 11.75 
Q 48.6875 17.390625 48.6875 27.296875 
z
" id="DejaVuSans-112"/>
      <path d="M 9.421875 54.6875 
L 18.40625 54.6875 
L 18.40625 0 
L 9.421875 0 
z
M 9.421875 75.984375 
L 18.40625 75.984375 
L 18.40625 64.59375 
L 9.421875 64.59375 
z
" id="DejaVuSans-105"/>
      <path d="M 54.890625 54.6875 
L 35.109375 28.078125 
L 55.90625 0 
L 45.3125 0 
L 29.390625 21.484375 
L 13.484375 0 
L 2.875 0 
L 24.125 28.609375 
L 4.6875 54.6875 
L 15.28125 54.6875 
L 29.78125 35.203125 
L 44.28125 54.6875 
z
" id="DejaVuSans-120"/>
      <path d="M 37.109375 75.984375 
L 37.109375 68.5 
L 28.515625 68.5 
Q 23.6875 68.5 21.796875 66.546875 
Q 19.921875 64.59375 19.921875 59.515625 
L 19.921875 54.6875 
L 34.71875 54.6875 
L 34.71875 47.703125 
L 19.921875 47.703125 
L 19.921875 0 
L 10.890625 0 
L 10.890625 47.703125 
L 2.296875 47.703125 
L 2.296875 54.6875 
L 10.890625 54.6875 
L 10.890625 58.5 
Q 10.890625 67.625 15.140625 71.796875 
Q 19.390625 75.984375 28.609375 75.984375 
z
" id="DejaVuSans-102"/>
      <path d="M 14.796875 27.296875 
Q 14.796875 17.390625 18.875 11.75 
Q 22.953125 6.109375 30.078125 6.109375 
Q 37.203125 6.109375 41.296875 11.75 
Q 45.40625 17.390625 45.40625 27.296875 
Q 45.40625 37.203125 41.296875 42.84375 
Q 37.203125 48.484375 30.078125 48.484375 
Q 22.953125 48.484375 18.875 42.84375 
Q 14.796875 37.203125 14.796875 27.296875 
z
M 45.40625 8.203125 
Q 42.578125 3.328125 38.25 0.953125 
Q 33.9375 -1.421875 27.875 -1.421875 
Q 17.96875 -1.421875 11.734375 6.484375 
Q 5.515625 14.40625 5.515625 27.296875 
Q 5.515625 40.1875 11.734375 48.09375 
Q 17.96875 56 27.875 56 
Q 33.9375 56 38.25 53.625 
Q 42.578125 51.265625 45.40625 46.390625 
L 45.40625 54.6875 
L 54.390625 54.6875 
L 54.390625 -20.796875 
L 45.40625 -20.796875 
z
" id="DejaVuSans-113"/>
     </defs>
     <g transform="translate(18.882188 104.215)rotate(-90)scale(0.1 -0.1)">
      <use xlink:href="#DejaVuSans-112"/>
      <use x="63.476562" xlink:href="#DejaVuSans-105"/>
      <use x="91.259766" xlink:href="#DejaVuSans-120"/>
      <use x="147.314453" xlink:href="#DejaVuSans-101"/>
      <use x="208.837891" xlink:href="#DejaVuSans-108"/>
      <use x="236.621094" xlink:href="#DejaVuSans-32"/>
      <use x="268.408203" xlink:href="#DejaVuSans-102"/>
      <use x="303.613281" xlink:href="#DejaVuSans-114"/>
      <use x="342.476562" xlink:href="#DejaVuSans-101"/>
      <use x="404" xlink:href="#DejaVuSans-113"/>
     </g>
    </g>
   </g>
   <g id="line2d_8">
    <path clip-path="url(#pa1ec6be4a8)" d="M 60.59 55.180845 
L 61.222216 118.57053 
L 61.854431 89.02237 
L 62.486647 108.341145 
L 63.118863 87.262764 
L 63.751078 109.011501 
L 64.383294 101.679314 
L 65.01551 111.941051 
L 65.647725 108.118794 
L 66.279941 115.639679 
L 66.912157 112.284859 
L 67.544373 116.499533 
L 68.176588 112.815362 
L 68.808804 112.428418 
L 69.44102 90.891449 
L 70.073235 106.488559 
L 70.705451 84.399219 
L 71.337667 104.858156 
L 71.969882 95.628814 
L 72.602098 106.855504 
L 73.234314 102.284034 
L 73.866529 109.128819 
L 74.498745 105.535157 
L 75.130961 110.804827 
L 75.763176 99.023696 
L 76.395392 110.654991 
L 77.027608 104.17715 
L 77.659824 106.306839 
L 78.292039 90.624361 
L 78.924255 96.365808 
L 79.556471 73.586314 
L 80.188686 93.634838 
L 80.820902 83.082277 
L 81.453118 96.343874 
L 82.085333 88.603777 
L 82.717549 99.704836 
L 83.349765 93.425074 
L 83.98198 103.499082 
L 84.614196 98.47393 
L 85.246412 106.018885 
L 85.878627 100.675666 
L 86.510843 102.71114 
L 87.143059 89.304682 
L 87.775275 94.416837 
L 88.40749 78.091112 
L 89.039706 92.545689 
L 89.671922 82.20406 
L 90.304137 95.12542 
L 90.936353 87.261162 
L 91.568569 99.571626 
L 92.200784 95.692681 
L 92.833 104.908202 
L 93.465216 102.335014 
L 94.097431 108.765847 
L 94.729647 106.402623 
L 95.361863 106.232389 
L 95.994078 95.644438 
L 96.626294 99.737555 
L 97.25851 89.596174 
L 97.890725 98.443215 
L 98.522941 91.493497 
L 99.155157 101.08441 
L 99.787373 96.262579 
L 100.419588 105.720215 
L 101.051804 105.70626 
L 101.68402 110.456311 
L 102.316235 107.668051 
L 102.948451 113.868788 
L 103.580667 112.602493 
L 104.212882 112.20283 
L 104.845098 104.446775 
L 105.477314 107.829338 
L 106.109529 103.100854 
L 106.741745 107.070609 
L 107.373961 103.835912 
L 108.006176 109.226974 
L 108.638392 107.822127 
L 109.270608 112.526773 
L 109.902824 112.525605 
L 110.535039 116.277751 
L 111.167255 116.307598 
L 111.799471 118.567592 
L 112.431686 116.752298 
L 113.063902 115.740638 
L 113.696118 108.282586 
L 114.328333 111.51124 
L 114.960549 105.19649 
L 115.592765 110.830534 
L 116.22498 108.623022 
L 116.857196 112.328528 
L 117.489412 109.996954 
L 118.121627 114.715355 
L 118.753843 114.590058 
L 119.386059 117.234558 
L 120.018275 115.517519 
L 120.65049 121.021392 
L 121.282706 122.034889 
L 121.914922 120.900869 
L 122.547137 114.990088 
L 123.179353 116.513789 
L 123.811569 112.153886 
L 124.443784 114.523486 
L 125.076 110.911328 
L 125.708216 114.47077 
L 126.340431 111.241381 
L 126.972647 116.113792 
L 127.604863 116.408724 
L 128.237078 118.463194 
L 128.869294 117.188552 
L 129.50151 121.792574 
L 130.133725 122.722038 
L 130.765941 121.50058 
L 131.398157 116.427086 
L 132.030373 117.05394 
L 132.662588 112.04428 
L 133.294804 115.30622 
L 133.92702 113.326634 
L 134.559235 115.638677 
L 135.191451 114.630856 
L 135.823667 117.15303 
L 136.455882 117.232121 
L 137.088098 118.885259 
L 137.720314 117.73261 
L 138.352529 122.028245 
L 138.984745 122.855515 
L 139.616961 121.666008 
L 140.249176 117.200338 
L 140.881392 117.362961 
L 141.513608 113.260864 
L 142.145824 115.469944 
L 142.778039 112.653807 
L 143.410255 115.82023 
L 144.042471 113.960933 
L 144.674686 117.638929 
L 145.306902 118.104128 
L 145.939118 119.841833 
L 146.571333 118.787205 
L 147.203549 122.430145 
L 147.835765 122.956775 
L 148.46798 122.103697 
L 149.100196 117.992319 
L 149.732412 118.19801 
L 150.364627 113.624303 
L 150.996843 116.070324 
L 151.629059 111.855616 
L 152.261275 116.561331 
L 152.89349 115.09719 
L 153.525706 118.283044 
L 154.157922 118.577341 
L 154.790137 119.744714 
L 155.422353 118.597072 
L 156.054569 122.122227 
L 156.686784 122.762536 
L 157.319 121.793943 
L 157.951216 118.065568 
L 158.583431 118.108969 
L 159.215647 114.582246 
L 159.847863 116.264229 
L 160.480078 114.38173 
L 161.112294 116.045885 
L 161.74451 114.40323 
L 162.376725 116.909279 
L 163.008941 116.574051 
L 163.641157 118.422931 
L 164.273373 117.855637 
L 164.905588 120.611079 
L 165.537804 121.009807 
L 166.17002 119.480497 
L 166.802235 114.719762 
L 167.434451 114.77308 
L 168.066667 109.587575 
L 168.698882 111.979478 
L 169.331098 108.833354 
L 169.963314 111.419863 
L 170.595529 109.1802 
L 171.227745 111.907831 
L 171.859961 110.515471 
L 172.492176 113.393005 
L 173.124392 113.21449 
L 173.756608 115.39339 
L 174.388824 114.989521 
L 175.021039 118.156211 
L 175.653255 118.248589 
L 176.285471 117.494802 
L 176.917686 113.883678 
L 177.549902 113.856001 
L 178.182118 110.830133 
L 178.814333 111.725244 
L 179.446549 109.328834 
L 180.078765 111.838456 
L 180.71098 111.373289 
L 181.343196 113.179836 
L 181.975412 113.35608 
L 182.607627 115.185396 
L 183.239843 115.673599 
L 183.872059 117.704365 
L 184.504275 117.735114 
L 185.13649 116.837433 
L 185.768706 112.838932 
L 186.400922 112.98336 
L 187.033137 107.774352 
L 187.665353 110.772576 
L 188.297569 108.801704 
L 188.929784 110.372078 
L 189.562 109.113695 
L 190.194216 111.173374 
L 190.826431 108.795628 
L 191.458647 113.361355 
L 192.090863 113.647306 
L 192.723078 116.244098 
L 193.355294 113.756812 
L 193.98751 115.67016 
L 194.619725 112.203297 
L 195.251941 112.397236 
L 195.884157 109.640759 
L 196.516373 110.241806 
L 197.148588 108.191342 
L 197.780804 109.987105 
L 198.41302 109.038377 
L 199.045235 111.45445 
L 199.677451 111.402936 
L 200.309667 113.767562 
L 200.941882 113.168718 
L 201.574098 117.168287 
L 202.206314 117.248881 
L 202.838529 116.841773 
L 203.470745 113.296653 
L 204.102961 113.174995 
L 204.735176 110.35208 
L 205.367392 111.112078 
L 205.999608 109.855631 
L 206.631824 111.168934 
L 207.264039 111.014557 
L 207.896255 112.837096 
L 208.528471 113.390301 
L 209.160686 115.379869 
L 209.792902 116.017741 
L 210.425118 118.411112 
L 211.057333 118.51975 
L 211.689549 117.379654 
L 212.321765 111.772385 
L 212.95398 113.057877 
L 213.586196 108.739639 
L 214.218412 110.102854 
L 214.850627 95.777414 
L 215.482843 110.900711 
L 216.115059 111.769213 
L 216.747275 115.024442 
L 217.37949 116.110387 
L 218.011706 118.613464 
L 218.643922 119.48457 
L 219.276137 122.505898 
L 219.908353 124.313813 
L 220.540569 126.800398 
L 221.172784 131.203636 
L 221.805 101.974212 
L 221.805 101.974212 
" style="fill:none;stroke:#0000ff;stroke-linecap:square;stroke-width:1.5;"/>
   </g>
   <g id="line2d_9">
    <path clip-path="url(#pa1ec6be4a8)" d="M 60.59 30.476364 
L 61.222216 111.20064 
L 61.854431 66.511047 
L 62.486647 98.789779 
L 63.118863 61.126349 
L 63.751078 102.869185 
L 64.383294 98.696086 
L 65.01551 109.691498 
L 65.647725 110.269209 
L 66.279941 115.976957 
L 66.912157 115.084765 
L 67.544373 117.777165 
L 68.176588 114.238897 
L 68.808804 113.435742 
L 69.44102 89.690325 
L 70.073235 106.918159 
L 70.705451 80.122878 
L 71.337667 104.312772 
L 71.969882 91.22052 
L 72.602098 106.35816 
L 73.234314 103.357218 
L 73.866529 110.783863 
L 74.498745 107.543003 
L 75.130961 114.310187 
L 75.763176 100.812865 
L 76.395392 115.257643 
L 77.027608 110.939433 
L 77.659824 110.796414 
L 78.292039 86.616777 
L 78.924255 99.38139 
L 79.556471 56.82457 
L 80.188686 96.318504 
L 80.820902 77.841689 
L 81.453118 101.108148 
L 82.085333 94.298656 
L 82.717549 106.847442 
L 83.349765 97.356448 
L 83.98198 112.522969 
L 84.614196 109.800441 
L 85.246412 116.049631 
L 85.878627 113.516985 
L 86.510843 112.913699 
L 87.143059 101.79794 
L 87.775275 104.084899 
L 88.40749 88.310437 
L 89.039706 98.960599 
L 89.671922 80.431117 
L 90.304137 99.540098 
L 90.936353 85.009893 
L 91.568569 104.55829 
L 92.200784 98.879085 
L 92.833 110.345088 
L 93.465216 101.996157 
L 94.097431 114.472066 
L 94.729647 113.698399 
L 95.361863 111.756691 
L 95.994078 95.458094 
L 96.626294 101.987182 
L 97.25851 84.02745 
L 97.890725 99.192216 
L 98.522941 88.176426 
L 99.155157 102.382535 
L 99.787373 93.693009 
L 100.419588 108.768334 
L 101.051804 109.374116 
L 101.68402 114.16845 
L 102.316235 108.181782 
L 102.948451 118.441518 
L 104.212882 116.475078 
L 104.845098 103.395849 
L 105.477314 109.88354 
L 106.109529 98.661942 
L 106.741745 108.915604 
L 107.373961 103.282824 
L 108.006176 112.508765 
L 108.638392 110.166812 
L 109.270608 117.360928 
L 109.902824 117.821025 
L 110.535039 121.689158 
L 111.167255 121.111413 
L 111.799471 124.868006 
L 112.431686 123.673513 
L 113.063902 122.940535 
L 113.696118 116.680751 
L 114.328333 118.8227 
L 114.960549 111.927612 
L 115.592765 117.840999 
L 116.22498 115.149443 
L 116.857196 119.543566 
L 117.489412 118.077812 
L 118.121627 121.948678 
L 118.753843 121.857549 
L 119.386059 124.341847 
L 120.018275 122.995226 
L 120.65049 127.699747 
L 121.282706 128.461268 
L 121.914922 127.462461 
L 122.547137 122.794648 
L 123.179353 122.962297 
L 123.811569 118.959916 
L 124.443784 120.17418 
L 125.076 116.063396 
L 125.708216 120.15451 
L 126.340431 118.770067 
L 126.972647 122.065718 
L 127.604863 121.745469 
L 128.237078 124.572115 
L 128.869294 124.609059 
L 129.50151 127.241538 
L 130.133725 127.590736 
L 130.765941 126.548744 
L 131.398157 122.180262 
L 132.030373 121.496273 
L 132.662588 116.405644 
L 133.294804 118.227343 
L 133.92702 114.829227 
L 134.559235 118.022919 
L 135.191451 116.702479 
L 135.823667 119.680917 
L 136.455882 119.296023 
L 137.088098 121.682006 
L 137.720314 120.06301 
L 138.352529 124.680755 
L 138.984745 125.506177 
L 139.616961 123.697771 
L 140.249176 117.579758 
L 140.881392 118.596852 
L 141.513608 112.777732 
L 142.145824 116.019131 
L 142.778039 110.973307 
L 143.410255 116.12335 
L 144.042471 113.001893 
L 144.674686 117.693188 
L 145.306902 116.429463 
L 145.939118 119.554666 
L 146.571333 117.447097 
L 147.203549 122.304016 
L 147.835765 122.970934 
L 148.46798 121.758357 
L 149.100196 117.02283 
L 149.732412 116.844958 
L 150.364627 110.825058 
L 150.996843 114.200873 
L 151.629059 108.788914 
L 152.261275 114.316631 
L 152.89349 112.166214 
L 153.525706 116.19879 
L 154.157922 116.673362 
L 154.790137 118.310577 
L 155.422353 118.481599 
L 156.054569 121.038638 
L 156.686784 121.538109 
L 157.319 120.52773 
L 157.951216 117.057244 
L 158.583431 116.289413 
L 159.215647 113.018358 
L 159.847863 113.641583 
L 160.480078 110.290229 
L 161.112294 113.017615 
L 161.74451 111.998835 
L 162.376725 114.066862 
L 163.008941 113.495223 
L 163.641157 115.833499 
L 164.273373 115.249748 
L 164.905588 118.381867 
L 165.537804 118.841358 
L 166.17002 117.061798 
L 166.802235 111.94519 
L 167.434451 112.112603 
L 168.066667 106.707898 
L 168.698882 108.585097 
L 169.331098 104.489159 
L 169.963314 107.190904 
L 170.595529 103.279146 
L 171.227745 107.637304 
L 171.859961 106.367607 
L 172.492176 109.577663 
L 173.124392 109.933878 
L 173.756608 112.463116 
L 174.388824 113.00196 
L 175.021039 115.496886 
L 175.653255 115.526273 
L 176.285471 114.883378 
L 176.917686 110.524107 
L 177.549902 110.728801 
L 178.182118 106.816503 
L 178.814333 107.492361 
L 179.446549 103.39703 
L 180.078765 106.939043 
L 180.71098 104.748476 
L 181.343196 108.413096 
L 181.975412 109.317772 
L 182.607627 111.124288 
L 183.239843 111.498588 
L 183.872059 114.400135 
L 184.504275 115.018974 
L 185.13649 113.951913 
L 185.768706 110.684805 
L 186.400922 109.72797 
L 187.033137 106.387648 
L 187.665353 106.967249 
L 188.297569 105.931059 
L 188.929784 106.597032 
L 189.562 106.692344 
L 190.194216 108.267985 
L 190.826431 109.396822 
L 191.458647 111.524938 
L 192.090863 112.587242 
L 192.723078 115.002847 
L 193.355294 115.310985 
L 193.98751 114.42166 
L 194.619725 110.58261 
L 195.251941 110.171333 
L 195.884157 107.022817 
L 196.516373 107.027911 
L 197.148588 105.541645 
L 197.780804 106.141489 
L 198.41302 106.125766 
L 199.045235 107.778906 
L 199.677451 108.485399 
L 200.309667 111.00266 
L 200.941882 110.711425 
L 201.574098 114.959189 
L 202.838529 114.645012 
L 203.470745 111.889825 
L 204.102961 110.111784 
L 204.735176 106.692277 
L 205.367392 106.300973 
L 205.999608 104.487573 
L 206.631824 105.610978 
L 207.264039 105.265896 
L 207.896255 107.456564 
L 208.528471 108.256076 
L 209.160686 111.059915 
L 209.792902 111.77572 
L 210.425118 115.560113 
L 211.057333 115.904958 
L 211.689549 114.878789 
L 212.321765 106.91573 
L 212.95398 109.91711 
L 213.586196 102.76095 
L 214.218412 107.291379 
L 214.850627 105.25817 
L 215.482843 108.132321 
L 216.115059 108.191263 
L 216.747275 110.933461 
L 217.37949 112.143103 
L 218.011706 115.265639 
L 218.643922 116.670224 
L 219.276137 120.171008 
L 219.908353 122.24828 
L 220.540569 124.742294 
L 221.172784 129.312771 
L 221.805 98.686807 
L 221.805 98.686807 
" style="fill:none;stroke:#008000;stroke-linecap:square;stroke-width:1.5;"/>
   </g>
   <g id="patch_3">
    <path d="M 60.59 136.24 
L 60.59 25.44 
" style="fill:none;stroke:#000000;stroke-linecap:square;stroke-linejoin:miter;stroke-width:0.8;"/>
   </g>
   <g id="patch_4">
    <path d="M 221.805 136.24 
L 221.805 25.44 
" style="fill:none;stroke:#000000;stroke-linecap:square;stroke-linejoin:miter;stroke-width:0.8;"/>
   </g>
   <g id="patch_5">
    <path d="M 60.59 136.24 
L 221.805 136.24 
" style="fill:none;stroke:#000000;stroke-linecap:square;stroke-linejoin:miter;stroke-width:0.8;"/>
   </g>
   <g id="patch_6">
    <path d="M 60.59 25.44 
L 221.805 25.44 
" style="fill:none;stroke:#000000;stroke-linecap:square;stroke-linejoin:miter;stroke-width:0.8;"/>
   </g>
   <g id="text_10">
    <!-- CelebDFV2-cA/ -->
    <defs>
     <path d="M 64.40625 67.28125 
L 64.40625 56.890625 
Q 59.421875 61.53125 53.78125 63.8125 
Q 48.140625 66.109375 41.796875 66.109375 
Q 29.296875 66.109375 22.65625 58.46875 
Q 16.015625 50.828125 16.015625 36.375 
Q 16.015625 21.96875 22.65625 14.328125 
Q 29.296875 6.6875 41.796875 6.6875 
Q 48.140625 6.6875 53.78125 8.984375 
Q 59.421875 11.28125 64.40625 15.921875 
L 64.40625 5.609375 
Q 59.234375 2.09375 53.4375 0.328125 
Q 47.65625 -1.421875 41.21875 -1.421875 
Q 24.65625 -1.421875 15.125 8.703125 
Q 5.609375 18.84375 5.609375 36.375 
Q 5.609375 53.953125 15.125 64.078125 
Q 24.65625 74.21875 41.21875 74.21875 
Q 47.75 74.21875 53.53125 72.484375 
Q 59.328125 70.75 64.40625 67.28125 
z
" id="DejaVuSans-67"/>
     <path d="M 48.6875 27.296875 
Q 48.6875 37.203125 44.609375 42.84375 
Q 40.53125 48.484375 33.40625 48.484375 
Q 26.265625 48.484375 22.1875 42.84375 
Q 18.109375 37.203125 18.109375 27.296875 
Q 18.109375 17.390625 22.1875 11.75 
Q 26.265625 6.109375 33.40625 6.109375 
Q 40.53125 6.109375 44.609375 11.75 
Q 48.6875 17.390625 48.6875 27.296875 
z
M 18.109375 46.390625 
Q 20.953125 51.265625 25.265625 53.625 
Q 29.59375 56 35.59375 56 
Q 45.5625 56 51.78125 48.09375 
Q 58.015625 40.1875 58.015625 27.296875 
Q 58.015625 14.40625 51.78125 6.484375 
Q 45.5625 -1.421875 35.59375 -1.421875 
Q 29.59375 -1.421875 25.265625 0.953125 
Q 20.953125 3.328125 18.109375 8.203125 
L 18.109375 0 
L 9.078125 0 
L 9.078125 75.984375 
L 18.109375 75.984375 
z
" id="DejaVuSans-98"/>
     <path d="M 19.671875 64.796875 
L 19.671875 8.109375 
L 31.59375 8.109375 
Q 46.6875 8.109375 53.6875 14.9375 
Q 60.6875 21.78125 60.6875 36.53125 
Q 60.6875 51.171875 53.6875 57.984375 
Q 46.6875 64.796875 31.59375 64.796875 
z
M 9.8125 72.90625 
L 30.078125 72.90625 
Q 51.265625 72.90625 61.171875 64.09375 
Q 71.09375 55.28125 71.09375 36.53125 
Q 71.09375 17.671875 61.125 8.828125 
Q 51.171875 0 30.078125 0 
L 9.8125 0 
z
" id="DejaVuSans-68"/>
     <path d="M 9.8125 72.90625 
L 51.703125 72.90625 
L 51.703125 64.59375 
L 19.671875 64.59375 
L 19.671875 43.109375 
L 48.578125 43.109375 
L 48.578125 34.8125 
L 19.671875 34.8125 
L 19.671875 0 
L 9.8125 0 
z
" id="DejaVuSans-70"/>
     <path d="M 28.609375 0 
L 0.78125 72.90625 
L 11.078125 72.90625 
L 34.1875 11.53125 
L 57.328125 72.90625 
L 67.578125 72.90625 
L 39.796875 0 
z
" id="DejaVuSans-86"/>
     <path d="M 4.890625 31.390625 
L 31.203125 31.390625 
L 31.203125 23.390625 
L 4.890625 23.390625 
z
" id="DejaVuSans-45"/>
     <path d="M 48.78125 52.59375 
L 48.78125 44.1875 
Q 44.96875 46.296875 41.140625 47.34375 
Q 37.3125 48.390625 33.40625 48.390625 
Q 24.65625 48.390625 19.8125 42.84375 
Q 14.984375 37.3125 14.984375 27.296875 
Q 14.984375 17.28125 19.8125 11.734375 
Q 24.65625 6.203125 33.40625 6.203125 
Q 37.3125 6.203125 41.140625 7.25 
Q 44.96875 8.296875 48.78125 10.40625 
L 48.78125 2.09375 
Q 45.015625 0.34375 40.984375 -0.53125 
Q 36.96875 -1.421875 32.421875 -1.421875 
Q 20.0625 -1.421875 12.78125 6.34375 
Q 5.515625 14.109375 5.515625 27.296875 
Q 5.515625 40.671875 12.859375 48.328125 
Q 20.21875 56 33.015625 56 
Q 37.15625 56 41.109375 55.140625 
Q 45.0625 54.296875 48.78125 52.59375 
z
" id="DejaVuSans-99"/>
     <path d="M 34.1875 63.1875 
L 20.796875 26.90625 
L 47.609375 26.90625 
z
M 28.609375 72.90625 
L 39.796875 72.90625 
L 67.578125 0 
L 57.328125 0 
L 50.6875 18.703125 
L 17.828125 18.703125 
L 11.1875 0 
L 0.78125 0 
z
" id="DejaVuSans-65"/>
     <path d="M 25.390625 72.90625 
L 33.6875 72.90625 
L 8.296875 -9.28125 
L 0 -9.28125 
z
" id="DejaVuSans-47"/>
    </defs>
    <g transform="translate(96.565937 19.44)scale(0.12 -0.12)">
     <use xlink:href="#DejaVuSans-67"/>
     <use x="69.824219" xlink:href="#DejaVuSans-101"/>
     <use x="131.347656" xlink:href="#DejaVuSans-108"/>
     <use x="159.130859" xlink:href="#DejaVuSans-101"/>
     <use x="220.654297" xlink:href="#DejaVuSans-98"/>
     <use x="284.130859" xlink:href="#DejaVuSans-68"/>
     <use x="361.132812" xlink:href="#DejaVuSans-70"/>
     <use x="418.652344" xlink:href="#DejaVuSans-86"/>
     <use x="487.060547" xlink:href="#DejaVuSans-50"/>
     <use x="550.683594" xlink:href="#DejaVuSans-45"/>
     <use x="586.767578" xlink:href="#DejaVuSans-99"/>
     <use x="641.748047" xlink:href="#DejaVuSans-65"/>
     <use x="710.15625" xlink:href="#DejaVuSans-47"/>
    </g>
   </g>
   <g id="legend_1">
    <g id="patch_7">
     <path d="M 161.575312 62.79625 
L 214.805 62.79625 
Q 216.805 62.79625 216.805 60.79625 
L 216.805 32.44 
Q 216.805 30.44 214.805 30.44 
L 161.575312 30.44 
Q 159.575312 30.44 159.575312 32.44 
L 159.575312 60.79625 
Q 159.575312 62.79625 161.575312 62.79625 
z
" style="fill:#ffffff;opacity:0.8;stroke:#cccccc;stroke-linejoin:miter;"/>
    </g>
    <g id="line2d_10">
     <path d="M 163.575312 38.538437 
L 183.575312 38.538437 
" style="fill:none;stroke:#0000ff;stroke-linecap:square;stroke-width:1.5;"/>
    </g>
    <g id="line2d_11"/>
    <g id="text_11">
     <!-- real -->
     <g transform="translate(191.575312 42.038437)scale(0.1 -0.1)">
      <use xlink:href="#DejaVuSans-114"/>
      <use x="38.863281" xlink:href="#DejaVuSans-101"/>
      <use x="100.386719" xlink:href="#DejaVuSans-97"/>
      <use x="161.666016" xlink:href="#DejaVuSans-108"/>
     </g>
    </g>
    <g id="line2d_12">
     <path d="M 163.575312 53.216563 
L 183.575312 53.216563 
" style="fill:none;stroke:#008000;stroke-linecap:square;stroke-width:1.5;"/>
    </g>
    <g id="line2d_13"/>
    <g id="text_12">
     <!-- fake -->
     <defs>
      <path d="M 9.078125 75.984375 
L 18.109375 75.984375 
L 18.109375 31.109375 
L 44.921875 54.6875 
L 56.390625 54.6875 
L 27.390625 29.109375 
L 57.625 0 
L 45.90625 0 
L 18.109375 26.703125 
L 18.109375 0 
L 9.078125 0 
z
" id="DejaVuSans-107"/>
     </defs>
     <g transform="translate(191.575312 56.716563)scale(0.1 -0.1)">
      <use xlink:href="#DejaVuSans-102"/>
      <use x="35.205078" xlink:href="#DejaVuSans-97"/>
      <use x="96.484375" xlink:href="#DejaVuSans-107"/>
      <use x="150.769531" xlink:href="#DejaVuSans-101"/>
     </g>
    </g>
   </g>
  </g>
  <g id="axes_2">
   <g id="patch_8">
    <path d="M 279.2 136.24 
L 440.415 136.24 
L 440.415 25.44 
L 279.2 25.44 
z
" style="fill:#ffffff;"/>
   </g>
   <g id="matplotlib.axis_3">
    <g id="xtick_5">
     <g id="line2d_14">
      <g>
       <use style="stroke:#000000;stroke-width:0.8;" x="279.2" xlink:href="#m150bee2ef0" y="136.24"/>
      </g>
     </g>
     <g id="text_13">
      <!-- 0 -->
      <g transform="translate(276.01875 150.838437)scale(0.1 -0.1)">
       <use xlink:href="#DejaVuSans-48"/>
      </g>
     </g>
    </g>
    <g id="xtick_6">
     <g id="line2d_15">
      <g>
       <use style="stroke:#000000;stroke-width:0.8;" x="332.938333" xlink:href="#m150bee2ef0" y="136.24"/>
      </g>
     </g>
     <g id="text_14">
      <!-- 85 -->
      <g transform="translate(326.575833 150.838437)scale(0.1 -0.1)">
       <use xlink:href="#DejaVuSans-56"/>
       <use x="63.623047" xlink:href="#DejaVuSans-53"/>
      </g>
     </g>
    </g>
    <g id="xtick_7">
     <g id="line2d_16">
      <g>
       <use style="stroke:#000000;stroke-width:0.8;" x="386.676667" xlink:href="#m150bee2ef0" y="136.24"/>
      </g>
     </g>
     <g id="text_15">
      <!-- 170 -->
      <g transform="translate(377.132917 150.838437)scale(0.1 -0.1)">
       <use xlink:href="#DejaVuSans-49"/>
       <use x="63.623047" xlink:href="#DejaVuSans-55"/>
       <use x="127.246094" xlink:href="#DejaVuSans-48"/>
      </g>
     </g>
    </g>
    <g id="xtick_8">
     <g id="line2d_17">
      <g>
       <use style="stroke:#000000;stroke-width:0.8;" x="440.415" xlink:href="#m150bee2ef0" y="136.24"/>
      </g>
     </g>
     <g id="text_16">
      <!-- 255 -->
      <g transform="translate(430.87125 150.838437)scale(0.1 -0.1)">
       <use xlink:href="#DejaVuSans-50"/>
       <use x="63.623047" xlink:href="#DejaVuSans-53"/>
       <use x="127.246094" xlink:href="#DejaVuSans-53"/>
      </g>
     </g>
    </g>
    <g id="text_17">
     <!-- gray value -->
     <g transform="translate(333.3075 164.516562)scale(0.1 -0.1)">
      <use xlink:href="#DejaVuSans-103"/>
      <use x="63.476562" xlink:href="#DejaVuSans-114"/>
      <use x="104.589844" xlink:href="#DejaVuSans-97"/>
      <use x="165.869141" xlink:href="#DejaVuSans-121"/>
      <use x="225.048828" xlink:href="#DejaVuSans-32"/>
      <use x="256.835938" xlink:href="#DejaVuSans-118"/>
      <use x="316.015625" xlink:href="#DejaVuSans-97"/>
      <use x="377.294922" xlink:href="#DejaVuSans-108"/>
      <use x="405.078125" xlink:href="#DejaVuSans-117"/>
      <use x="468.457031" xlink:href="#DejaVuSans-101"/>
     </g>
    </g>
   </g>
   <g id="matplotlib.axis_4">
    <g id="ytick_4">
     <g id="line2d_18">
      <g>
       <use style="stroke:#000000;stroke-width:0.8;" x="279.2" xlink:href="#m0f131baa4f" y="131.203637"/>
      </g>
     </g>
     <g id="text_18">
      <!-- 0.0 -->
      <g transform="translate(256.296875 135.002856)scale(0.1 -0.1)">
       <use xlink:href="#DejaVuSans-48"/>
       <use x="63.623047" xlink:href="#DejaVuSans-46"/>
       <use x="95.410156" xlink:href="#DejaVuSans-48"/>
      </g>
     </g>
    </g>
    <g id="ytick_5">
     <g id="line2d_19">
      <g>
       <use style="stroke:#000000;stroke-width:0.8;" x="279.2" xlink:href="#m0f131baa4f" y="107.21465"/>
      </g>
     </g>
     <g id="text_19">
      <!-- 0.1 -->
      <g transform="translate(256.296875 111.013868)scale(0.1 -0.1)">
       <use xlink:href="#DejaVuSans-48"/>
       <use x="63.623047" xlink:href="#DejaVuSans-46"/>
       <use x="95.410156" xlink:href="#DejaVuSans-49"/>
      </g>
     </g>
    </g>
    <g id="ytick_6">
     <g id="line2d_20">
      <g>
       <use style="stroke:#000000;stroke-width:0.8;" x="279.2" xlink:href="#m0f131baa4f" y="83.225662"/>
      </g>
     </g>
     <g id="text_20">
      <!-- 0.2 -->
      <g transform="translate(256.296875 87.024881)scale(0.1 -0.1)">
       <use xlink:href="#DejaVuSans-48"/>
       <use x="63.623047" xlink:href="#DejaVuSans-46"/>
       <use x="95.410156" xlink:href="#DejaVuSans-50"/>
      </g>
     </g>
    </g>
    <g id="ytick_7">
     <g id="line2d_21">
      <g>
       <use style="stroke:#000000;stroke-width:0.8;" x="279.2" xlink:href="#m0f131baa4f" y="59.236674"/>
      </g>
     </g>
     <g id="text_21">
      <!-- 0.3 -->
      <defs>
       <path d="M 40.578125 39.3125 
Q 47.65625 37.796875 51.625 33 
Q 55.609375 28.21875 55.609375 21.1875 
Q 55.609375 10.40625 48.1875 4.484375 
Q 40.765625 -1.421875 27.09375 -1.421875 
Q 22.515625 -1.421875 17.65625 -0.515625 
Q 12.796875 0.390625 7.625 2.203125 
L 7.625 11.71875 
Q 11.71875 9.328125 16.59375 8.109375 
Q 21.484375 6.890625 26.8125 6.890625 
Q 36.078125 6.890625 40.9375 10.546875 
Q 45.796875 14.203125 45.796875 21.1875 
Q 45.796875 27.640625 41.28125 31.265625 
Q 36.765625 34.90625 28.71875 34.90625 
L 20.21875 34.90625 
L 20.21875 43.015625 
L 29.109375 43.015625 
Q 36.375 43.015625 40.234375 45.921875 
Q 44.09375 48.828125 44.09375 54.296875 
Q 44.09375 59.90625 40.109375 62.90625 
Q 36.140625 65.921875 28.71875 65.921875 
Q 24.65625 65.921875 20.015625 65.03125 
Q 15.375 64.15625 9.8125 62.3125 
L 9.8125 71.09375 
Q 15.4375 72.65625 20.34375 73.4375 
Q 25.25 74.21875 29.59375 74.21875 
Q 40.828125 74.21875 47.359375 69.109375 
Q 53.90625 64.015625 53.90625 55.328125 
Q 53.90625 49.265625 50.4375 45.09375 
Q 46.96875 40.921875 40.578125 39.3125 
z
" id="DejaVuSans-51"/>
      </defs>
      <g transform="translate(256.296875 63.035893)scale(0.1 -0.1)">
       <use xlink:href="#DejaVuSans-48"/>
       <use x="63.623047" xlink:href="#DejaVuSans-46"/>
       <use x="95.410156" xlink:href="#DejaVuSans-51"/>
      </g>
     </g>
    </g>
    <g id="ytick_8">
     <g id="line2d_22">
      <g>
       <use style="stroke:#000000;stroke-width:0.8;" x="279.2" xlink:href="#m0f131baa4f" y="35.247687"/>
      </g>
     </g>
     <g id="text_22">
      <!-- 0.4 -->
      <g transform="translate(256.296875 39.046905)scale(0.1 -0.1)">
       <use xlink:href="#DejaVuSans-48"/>
       <use x="63.623047" xlink:href="#DejaVuSans-46"/>
       <use x="95.410156" xlink:href="#DejaVuSans-52"/>
      </g>
     </g>
    </g>
    <g id="text_23">
     <!-- pixel freq -->
     <g transform="translate(250.217187 104.215)rotate(-90)scale(0.1 -0.1)">
      <use xlink:href="#DejaVuSans-112"/>
      <use x="63.476562" xlink:href="#DejaVuSans-105"/>
      <use x="91.259766" xlink:href="#DejaVuSans-120"/>
      <use x="147.314453" xlink:href="#DejaVuSans-101"/>
      <use x="208.837891" xlink:href="#DejaVuSans-108"/>
      <use x="236.621094" xlink:href="#DejaVuSans-32"/>
      <use x="268.408203" xlink:href="#DejaVuSans-102"/>
      <use x="303.613281" xlink:href="#DejaVuSans-114"/>
      <use x="342.476562" xlink:href="#DejaVuSans-101"/>
      <use x="404" xlink:href="#DejaVuSans-113"/>
     </g>
    </g>
   </g>
   <g id="line2d_23">
    <path clip-path="url(#p7440a36ada)" d="M 279.2 35.367686 
L 279.832216 100.36828 
L 281.096647 117.449555 
L 281.728863 123.103472 
L 282.361078 126.445967 
L 282.993294 128.315653 
L 283.62551 129.315271 
L 284.257725 129.879089 
L 285.522157 130.45629 
L 287.418804 130.854038 
L 289.947667 131.066441 
L 295.005392 131.174186 
L 313.971863 131.202875 
L 428.402902 131.125586 
L 432.196196 130.937187 
L 434.092843 130.655301 
L 435.357275 130.284632 
L 435.98949 129.959603 
L 436.621706 129.453111 
L 437.253922 128.672885 
L 437.886137 127.524379 
L 439.782784 123.178605 
L 440.415 110.780313 
L 440.415 110.780313 
" style="fill:none;stroke:#0000ff;stroke-linecap:square;stroke-width:1.5;"/>
   </g>
   <g id="line2d_24">
    <path clip-path="url(#p7440a36ada)" d="M 279.2 30.476364 
L 279.832216 99.503423 
L 281.096647 117.417261 
L 281.728863 123.164311 
L 282.361078 126.532209 
L 282.993294 128.425848 
L 283.62551 129.438813 
L 284.257725 130.011034 
L 285.522157 130.592438 
L 287.418804 130.959848 
L 289.947667 131.122049 
L 296.269824 131.192473 
L 351.904804 131.203634 
L 430.299549 131.097487 
L 432.828412 130.926701 
L 434.725059 130.60172 
L 435.98949 130.11585 
L 436.621706 129.658088 
L 437.253922 128.942719 
L 437.886137 127.872058 
L 439.782784 123.689993 
L 440.415 111.869381 
L 440.415 111.869381 
" style="fill:none;stroke:#008000;stroke-linecap:square;stroke-width:1.5;"/>
   </g>
   <g id="patch_9">
    <path d="M 279.2 136.24 
L 279.2 25.44 
" style="fill:none;stroke:#000000;stroke-linecap:square;stroke-linejoin:miter;stroke-width:0.8;"/>
   </g>
   <g id="patch_10">
    <path d="M 440.415 136.24 
L 440.415 25.44 
" style="fill:none;stroke:#000000;stroke-linecap:square;stroke-linejoin:miter;stroke-width:0.8;"/>
   </g>
   <g id="patch_11">
    <path d="M 279.2 136.24 
L 440.415 136.24 
" style="fill:none;stroke:#000000;stroke-linecap:square;stroke-linejoin:miter;stroke-width:0.8;"/>
   </g>
   <g id="patch_12">
    <path d="M 279.2 25.44 
L 440.415 25.44 
" style="fill:none;stroke:#000000;stroke-linecap:square;stroke-linejoin:miter;stroke-width:0.8;"/>
   </g>
   <g id="text_24">
    <!-- CelebDFV2-cH/ -->
    <defs>
     <path d="M 9.8125 72.90625 
L 19.671875 72.90625 
L 19.671875 43.015625 
L 55.515625 43.015625 
L 55.515625 72.90625 
L 65.375 72.90625 
L 65.375 0 
L 55.515625 0 
L 55.515625 34.71875 
L 19.671875 34.71875 
L 19.671875 0 
L 9.8125 0 
z
" id="DejaVuSans-72"/>
    </defs>
    <g transform="translate(314.768125 19.44)scale(0.12 -0.12)">
     <use xlink:href="#DejaVuSans-67"/>
     <use x="69.824219" xlink:href="#DejaVuSans-101"/>
     <use x="131.347656" xlink:href="#DejaVuSans-108"/>
     <use x="159.130859" xlink:href="#DejaVuSans-101"/>
     <use x="220.654297" xlink:href="#DejaVuSans-98"/>
     <use x="284.130859" xlink:href="#DejaVuSans-68"/>
     <use x="361.132812" xlink:href="#DejaVuSans-70"/>
     <use x="418.652344" xlink:href="#DejaVuSans-86"/>
     <use x="487.060547" xlink:href="#DejaVuSans-50"/>
     <use x="550.683594" xlink:href="#DejaVuSans-45"/>
     <use x="586.767578" xlink:href="#DejaVuSans-99"/>
     <use x="641.748047" xlink:href="#DejaVuSans-72"/>
     <use x="716.943359" xlink:href="#DejaVuSans-47"/>
    </g>
   </g>
   <g id="legend_2">
    <g id="patch_13">
     <path d="M 380.185312 62.79625 
L 433.415 62.79625 
Q 435.415 62.79625 435.415 60.79625 
L 435.415 32.44 
Q 435.415 30.44 433.415 30.44 
L 380.185312 30.44 
Q 378.185312 30.44 378.185312 32.44 
L 378.185312 60.79625 
Q 378.185312 62.79625 380.185312 62.79625 
z
" style="fill:#ffffff;opacity:0.8;stroke:#cccccc;stroke-linejoin:miter;"/>
    </g>
    <g id="line2d_25">
     <path d="M 382.185312 38.538437 
L 402.185312 38.538437 
" style="fill:none;stroke:#0000ff;stroke-linecap:square;stroke-width:1.5;"/>
    </g>
    <g id="line2d_26"/>
    <g id="text_25">
     <!-- real -->
     <g transform="translate(410.185312 42.038437)scale(0.1 -0.1)">
      <use xlink:href="#DejaVuSans-114"/>
      <use x="38.863281" xlink:href="#DejaVuSans-101"/>
      <use x="100.386719" xlink:href="#DejaVuSans-97"/>
      <use x="161.666016" xlink:href="#DejaVuSans-108"/>
     </g>
    </g>
    <g id="line2d_27">
     <path d="M 382.185312 53.216563 
L 402.185312 53.216563 
" style="fill:none;stroke:#008000;stroke-linecap:square;stroke-width:1.5;"/>
    </g>
    <g id="line2d_28"/>
    <g id="text_26">
     <!-- fake -->
     <g transform="translate(410.185312 56.716563)scale(0.1 -0.1)">
      <use xlink:href="#DejaVuSans-102"/>
      <use x="35.205078" xlink:href="#DejaVuSans-97"/>
      <use x="96.484375" xlink:href="#DejaVuSans-107"/>
      <use x="150.769531" xlink:href="#DejaVuSans-101"/>
     </g>
    </g>
   </g>
  </g>
  <g id="axes_3">
   <g id="patch_14">
    <path d="M 60.59 303.64 
L 221.805 303.64 
L 221.805 192.84 
L 60.59 192.84 
z
" style="fill:#ffffff;"/>
   </g>
   <g id="matplotlib.axis_5">
    <g id="xtick_9">
     <g id="line2d_29">
      <g>
       <use style="stroke:#000000;stroke-width:0.8;" x="60.59" xlink:href="#m150bee2ef0" y="303.64"/>
      </g>
     </g>
     <g id="text_27">
      <!-- 0 -->
      <g transform="translate(57.40875 318.238437)scale(0.1 -0.1)">
       <use xlink:href="#DejaVuSans-48"/>
      </g>
     </g>
    </g>
    <g id="xtick_10">
     <g id="line2d_30">
      <g>
       <use style="stroke:#000000;stroke-width:0.8;" x="114.328333" xlink:href="#m150bee2ef0" y="303.64"/>
      </g>
     </g>
     <g id="text_28">
      <!-- 85 -->
      <g transform="translate(107.965833 318.238437)scale(0.1 -0.1)">
       <use xlink:href="#DejaVuSans-56"/>
       <use x="63.623047" xlink:href="#DejaVuSans-53"/>
      </g>
     </g>
    </g>
    <g id="xtick_11">
     <g id="line2d_31">
      <g>
       <use style="stroke:#000000;stroke-width:0.8;" x="168.066667" xlink:href="#m150bee2ef0" y="303.64"/>
      </g>
     </g>
     <g id="text_29">
      <!-- 170 -->
      <g transform="translate(158.522917 318.238437)scale(0.1 -0.1)">
       <use xlink:href="#DejaVuSans-49"/>
       <use x="63.623047" xlink:href="#DejaVuSans-55"/>
       <use x="127.246094" xlink:href="#DejaVuSans-48"/>
      </g>
     </g>
    </g>
    <g id="xtick_12">
     <g id="line2d_32">
      <g>
       <use style="stroke:#000000;stroke-width:0.8;" x="221.805" xlink:href="#m150bee2ef0" y="303.64"/>
      </g>
     </g>
     <g id="text_30">
      <!-- 255 -->
      <g transform="translate(212.26125 318.238437)scale(0.1 -0.1)">
       <use xlink:href="#DejaVuSans-50"/>
       <use x="63.623047" xlink:href="#DejaVuSans-53"/>
       <use x="127.246094" xlink:href="#DejaVuSans-53"/>
      </g>
     </g>
    </g>
    <g id="text_31">
     <!-- gray value -->
     <g transform="translate(114.6975 331.916562)scale(0.1 -0.1)">
      <use xlink:href="#DejaVuSans-103"/>
      <use x="63.476562" xlink:href="#DejaVuSans-114"/>
      <use x="104.589844" xlink:href="#DejaVuSans-97"/>
      <use x="165.869141" xlink:href="#DejaVuSans-121"/>
      <use x="225.048828" xlink:href="#DejaVuSans-32"/>
      <use x="256.835938" xlink:href="#DejaVuSans-118"/>
      <use x="316.015625" xlink:href="#DejaVuSans-97"/>
      <use x="377.294922" xlink:href="#DejaVuSans-108"/>
      <use x="405.078125" xlink:href="#DejaVuSans-117"/>
      <use x="468.457031" xlink:href="#DejaVuSans-101"/>
     </g>
    </g>
   </g>
   <g id="matplotlib.axis_6">
    <g id="ytick_9">
     <g id="line2d_33">
      <g>
       <use style="stroke:#000000;stroke-width:0.8;" x="60.59" xlink:href="#m0f131baa4f" y="298.603636"/>
      </g>
     </g>
     <g id="text_32">
      <!-- 0.0 -->
      <g transform="translate(37.686875 302.402855)scale(0.1 -0.1)">
       <use xlink:href="#DejaVuSans-48"/>
       <use x="63.623047" xlink:href="#DejaVuSans-46"/>
       <use x="95.410156" xlink:href="#DejaVuSans-48"/>
      </g>
     </g>
    </g>
    <g id="ytick_10">
     <g id="line2d_34">
      <g>
       <use style="stroke:#000000;stroke-width:0.8;" x="60.59" xlink:href="#m0f131baa4f" y="270.907829"/>
      </g>
     </g>
     <g id="text_33">
      <!-- 0.1 -->
      <g transform="translate(37.686875 274.707048)scale(0.1 -0.1)">
       <use xlink:href="#DejaVuSans-48"/>
       <use x="63.623047" xlink:href="#DejaVuSans-46"/>
       <use x="95.410156" xlink:href="#DejaVuSans-49"/>
      </g>
     </g>
    </g>
    <g id="ytick_11">
     <g id="line2d_35">
      <g>
       <use style="stroke:#000000;stroke-width:0.8;" x="60.59" xlink:href="#m0f131baa4f" y="243.212021"/>
      </g>
     </g>
     <g id="text_34">
      <!-- 0.2 -->
      <g transform="translate(37.686875 247.01124)scale(0.1 -0.1)">
       <use xlink:href="#DejaVuSans-48"/>
       <use x="63.623047" xlink:href="#DejaVuSans-46"/>
       <use x="95.410156" xlink:href="#DejaVuSans-50"/>
      </g>
     </g>
    </g>
    <g id="ytick_12">
     <g id="line2d_36">
      <g>
       <use style="stroke:#000000;stroke-width:0.8;" x="60.59" xlink:href="#m0f131baa4f" y="215.516214"/>
      </g>
     </g>
     <g id="text_35">
      <!-- 0.3 -->
      <g transform="translate(37.686875 219.315433)scale(0.1 -0.1)">
       <use xlink:href="#DejaVuSans-48"/>
       <use x="63.623047" xlink:href="#DejaVuSans-46"/>
       <use x="95.410156" xlink:href="#DejaVuSans-51"/>
      </g>
     </g>
    </g>
    <g id="text_36">
     <!-- pixel freq -->
     <g transform="translate(31.607187 271.615)rotate(-90)scale(0.1 -0.1)">
      <use xlink:href="#DejaVuSans-112"/>
      <use x="63.476562" xlink:href="#DejaVuSans-105"/>
      <use x="91.259766" xlink:href="#DejaVuSans-120"/>
      <use x="147.314453" xlink:href="#DejaVuSans-101"/>
      <use x="208.837891" xlink:href="#DejaVuSans-108"/>
      <use x="236.621094" xlink:href="#DejaVuSans-32"/>
      <use x="268.408203" xlink:href="#DejaVuSans-102"/>
      <use x="303.613281" xlink:href="#DejaVuSans-114"/>
      <use x="342.476562" xlink:href="#DejaVuSans-101"/>
      <use x="404" xlink:href="#DejaVuSans-113"/>
     </g>
    </g>
   </g>
   <g id="line2d_37">
    <path clip-path="url(#p5d37e744be)" d="M 60.59 204.360937 
L 61.222216 264.879813 
L 62.486647 282.330285 
L 63.118863 288.672646 
L 63.751078 292.664139 
L 64.383294 294.968547 
L 65.01551 296.273031 
L 65.647725 297.023489 
L 66.279941 297.478455 
L 67.544373 297.965443 
L 69.44102 298.284396 
L 72.602098 298.477154 
L 79.556471 298.577952 
L 108.006176 298.603489 
L 209.792902 298.493188 
L 213.586196 298.273902 
L 215.482843 297.945151 
L 216.747275 297.444892 
L 217.37949 296.983741 
L 218.011706 296.251868 
L 218.643922 295.088515 
L 219.276137 293.326276 
L 221.172784 286.526326 
L 221.805 268.197443 
L 221.805 268.197443 
" style="fill:none;stroke:#0000ff;stroke-linecap:square;stroke-width:1.5;"/>
   </g>
   <g id="line2d_38">
    <path clip-path="url(#p5d37e744be)" d="M 60.59 197.876364 
L 61.222216 263.845911 
L 62.486647 282.618945 
L 63.118863 289.208135 
L 63.751078 293.242422 
L 64.383294 295.492801 
L 65.01551 296.696385 
L 65.647725 297.351531 
L 66.279941 297.730976 
L 67.544373 298.116127 
L 69.44102 298.360638 
L 73.234314 298.518776 
L 83.349765 298.593511 
L 147.203549 298.603634 
L 210.425118 298.504648 
L 214.218412 298.300373 
L 216.115059 297.953082 
L 216.747275 297.709698 
L 217.37949 297.312804 
L 218.011706 296.653403 
L 218.643922 295.557947 
L 219.276137 293.828811 
L 221.172784 286.6963 
L 221.805 267.913312 
L 221.805 267.913312 
" style="fill:none;stroke:#008000;stroke-linecap:square;stroke-width:1.5;"/>
   </g>
   <g id="patch_15">
    <path d="M 60.59 303.64 
L 60.59 192.84 
" style="fill:none;stroke:#000000;stroke-linecap:square;stroke-linejoin:miter;stroke-width:0.8;"/>
   </g>
   <g id="patch_16">
    <path d="M 221.805 303.64 
L 221.805 192.84 
" style="fill:none;stroke:#000000;stroke-linecap:square;stroke-linejoin:miter;stroke-width:0.8;"/>
   </g>
   <g id="patch_17">
    <path d="M 60.59 303.64 
L 221.805 303.64 
" style="fill:none;stroke:#000000;stroke-linecap:square;stroke-linejoin:miter;stroke-width:0.8;"/>
   </g>
   <g id="patch_18">
    <path d="M 60.59 192.84 
L 221.805 192.84 
" style="fill:none;stroke:#000000;stroke-linecap:square;stroke-linejoin:miter;stroke-width:0.8;"/>
   </g>
   <g id="text_37">
    <!-- CelebDFV2-cV/ -->
    <g transform="translate(96.565937 186.84)scale(0.12 -0.12)">
     <use xlink:href="#DejaVuSans-67"/>
     <use x="69.824219" xlink:href="#DejaVuSans-101"/>
     <use x="131.347656" xlink:href="#DejaVuSans-108"/>
     <use x="159.130859" xlink:href="#DejaVuSans-101"/>
     <use x="220.654297" xlink:href="#DejaVuSans-98"/>
     <use x="284.130859" xlink:href="#DejaVuSans-68"/>
     <use x="361.132812" xlink:href="#DejaVuSans-70"/>
     <use x="418.652344" xlink:href="#DejaVuSans-86"/>
     <use x="487.060547" xlink:href="#DejaVuSans-50"/>
     <use x="550.683594" xlink:href="#DejaVuSans-45"/>
     <use x="586.767578" xlink:href="#DejaVuSans-99"/>
     <use x="641.748047" xlink:href="#DejaVuSans-86"/>
     <use x="710.15625" xlink:href="#DejaVuSans-47"/>
    </g>
   </g>
   <g id="legend_3">
    <g id="patch_19">
     <path d="M 161.575312 230.19625 
L 214.805 230.19625 
Q 216.805 230.19625 216.805 228.19625 
L 216.805 199.84 
Q 216.805 197.84 214.805 197.84 
L 161.575312 197.84 
Q 159.575312 197.84 159.575312 199.84 
L 159.575312 228.19625 
Q 159.575312 230.19625 161.575312 230.19625 
z
" style="fill:#ffffff;opacity:0.8;stroke:#cccccc;stroke-linejoin:miter;"/>
    </g>
    <g id="line2d_39">
     <path d="M 163.575312 205.938437 
L 183.575312 205.938437 
" style="fill:none;stroke:#0000ff;stroke-linecap:square;stroke-width:1.5;"/>
    </g>
    <g id="line2d_40"/>
    <g id="text_38">
     <!-- real -->
     <g transform="translate(191.575312 209.438437)scale(0.1 -0.1)">
      <use xlink:href="#DejaVuSans-114"/>
      <use x="38.863281" xlink:href="#DejaVuSans-101"/>
      <use x="100.386719" xlink:href="#DejaVuSans-97"/>
      <use x="161.666016" xlink:href="#DejaVuSans-108"/>
     </g>
    </g>
    <g id="line2d_41">
     <path d="M 163.575312 220.616562 
L 183.575312 220.616562 
" style="fill:none;stroke:#008000;stroke-linecap:square;stroke-width:1.5;"/>
    </g>
    <g id="line2d_42"/>
    <g id="text_39">
     <!-- fake -->
     <g transform="translate(191.575312 224.116562)scale(0.1 -0.1)">
      <use xlink:href="#DejaVuSans-102"/>
      <use x="35.205078" xlink:href="#DejaVuSans-97"/>
      <use x="96.484375" xlink:href="#DejaVuSans-107"/>
      <use x="150.769531" xlink:href="#DejaVuSans-101"/>
     </g>
    </g>
   </g>
  </g>
  <g id="axes_4">
   <g id="patch_20">
    <path d="M 279.2 303.64 
L 440.415 303.64 
L 440.415 192.84 
L 279.2 192.84 
z
" style="fill:#ffffff;"/>
   </g>
   <g id="matplotlib.axis_7">
    <g id="xtick_13">
     <g id="line2d_43">
      <g>
       <use style="stroke:#000000;stroke-width:0.8;" x="279.2" xlink:href="#m150bee2ef0" y="303.64"/>
      </g>
     </g>
     <g id="text_40">
      <!-- 0 -->
      <g transform="translate(276.01875 318.238437)scale(0.1 -0.1)">
       <use xlink:href="#DejaVuSans-48"/>
      </g>
     </g>
    </g>
    <g id="xtick_14">
     <g id="line2d_44">
      <g>
       <use style="stroke:#000000;stroke-width:0.8;" x="332.938333" xlink:href="#m150bee2ef0" y="303.64"/>
      </g>
     </g>
     <g id="text_41">
      <!-- 85 -->
      <g transform="translate(326.575833 318.238437)scale(0.1 -0.1)">
       <use xlink:href="#DejaVuSans-56"/>
       <use x="63.623047" xlink:href="#DejaVuSans-53"/>
      </g>
     </g>
    </g>
    <g id="xtick_15">
     <g id="line2d_45">
      <g>
       <use style="stroke:#000000;stroke-width:0.8;" x="386.676667" xlink:href="#m150bee2ef0" y="303.64"/>
      </g>
     </g>
     <g id="text_42">
      <!-- 170 -->
      <g transform="translate(377.132917 318.238437)scale(0.1 -0.1)">
       <use xlink:href="#DejaVuSans-49"/>
       <use x="63.623047" xlink:href="#DejaVuSans-55"/>
       <use x="127.246094" xlink:href="#DejaVuSans-48"/>
      </g>
     </g>
    </g>
    <g id="xtick_16">
     <g id="line2d_46">
      <g>
       <use style="stroke:#000000;stroke-width:0.8;" x="440.415" xlink:href="#m150bee2ef0" y="303.64"/>
      </g>
     </g>
     <g id="text_43">
      <!-- 255 -->
      <g transform="translate(430.87125 318.238437)scale(0.1 -0.1)">
       <use xlink:href="#DejaVuSans-50"/>
       <use x="63.623047" xlink:href="#DejaVuSans-53"/>
       <use x="127.246094" xlink:href="#DejaVuSans-53"/>
      </g>
     </g>
    </g>
    <g id="text_44">
     <!-- gray value -->
     <g transform="translate(333.3075 331.916562)scale(0.1 -0.1)">
      <use xlink:href="#DejaVuSans-103"/>
      <use x="63.476562" xlink:href="#DejaVuSans-114"/>
      <use x="104.589844" xlink:href="#DejaVuSans-97"/>
      <use x="165.869141" xlink:href="#DejaVuSans-121"/>
      <use x="225.048828" xlink:href="#DejaVuSans-32"/>
      <use x="256.835938" xlink:href="#DejaVuSans-118"/>
      <use x="316.015625" xlink:href="#DejaVuSans-97"/>
      <use x="377.294922" xlink:href="#DejaVuSans-108"/>
      <use x="405.078125" xlink:href="#DejaVuSans-117"/>
      <use x="468.457031" xlink:href="#DejaVuSans-101"/>
     </g>
    </g>
   </g>
   <g id="matplotlib.axis_8">
    <g id="ytick_13">
     <g id="line2d_47">
      <g>
       <use style="stroke:#000000;stroke-width:0.8;" x="279.2" xlink:href="#m0f131baa4f" y="298.603636"/>
      </g>
     </g>
     <g id="text_45">
      <!-- 0.0 -->
      <g transform="translate(256.296875 302.402855)scale(0.1 -0.1)">
       <use xlink:href="#DejaVuSans-48"/>
       <use x="63.623047" xlink:href="#DejaVuSans-46"/>
       <use x="95.410156" xlink:href="#DejaVuSans-48"/>
      </g>
     </g>
    </g>
    <g id="ytick_14">
     <g id="line2d_48">
      <g>
       <use style="stroke:#000000;stroke-width:0.8;" x="279.2" xlink:href="#m0f131baa4f" y="275.049459"/>
      </g>
     </g>
     <g id="text_46">
      <!-- 0.2 -->
      <g transform="translate(256.296875 278.848678)scale(0.1 -0.1)">
       <use xlink:href="#DejaVuSans-48"/>
       <use x="63.623047" xlink:href="#DejaVuSans-46"/>
       <use x="95.410156" xlink:href="#DejaVuSans-50"/>
      </g>
     </g>
    </g>
    <g id="ytick_15">
     <g id="line2d_49">
      <g>
       <use style="stroke:#000000;stroke-width:0.8;" x="279.2" xlink:href="#m0f131baa4f" y="251.495282"/>
      </g>
     </g>
     <g id="text_47">
      <!-- 0.4 -->
      <g transform="translate(256.296875 255.294501)scale(0.1 -0.1)">
       <use xlink:href="#DejaVuSans-48"/>
       <use x="63.623047" xlink:href="#DejaVuSans-46"/>
       <use x="95.410156" xlink:href="#DejaVuSans-52"/>
      </g>
     </g>
    </g>
    <g id="ytick_16">
     <g id="line2d_50">
      <g>
       <use style="stroke:#000000;stroke-width:0.8;" x="279.2" xlink:href="#m0f131baa4f" y="227.941105"/>
      </g>
     </g>
     <g id="text_48">
      <!-- 0.6 -->
      <g transform="translate(256.296875 231.740323)scale(0.1 -0.1)">
       <use xlink:href="#DejaVuSans-48"/>
       <use x="63.623047" xlink:href="#DejaVuSans-46"/>
       <use x="95.410156" xlink:href="#DejaVuSans-54"/>
      </g>
     </g>
    </g>
    <g id="ytick_17">
     <g id="line2d_51">
      <g>
       <use style="stroke:#000000;stroke-width:0.8;" x="279.2" xlink:href="#m0f131baa4f" y="204.386927"/>
      </g>
     </g>
     <g id="text_49">
      <!-- 0.8 -->
      <g transform="translate(256.296875 208.186146)scale(0.1 -0.1)">
       <use xlink:href="#DejaVuSans-48"/>
       <use x="63.623047" xlink:href="#DejaVuSans-46"/>
       <use x="95.410156" xlink:href="#DejaVuSans-56"/>
      </g>
     </g>
    </g>
    <g id="text_50">
     <!-- pixel freq -->
     <g transform="translate(250.217187 271.615)rotate(-90)scale(0.1 -0.1)">
      <use xlink:href="#DejaVuSans-112"/>
      <use x="63.476562" xlink:href="#DejaVuSans-105"/>
      <use x="91.259766" xlink:href="#DejaVuSans-120"/>
      <use x="147.314453" xlink:href="#DejaVuSans-101"/>
      <use x="208.837891" xlink:href="#DejaVuSans-108"/>
      <use x="236.621094" xlink:href="#DejaVuSans-32"/>
      <use x="268.408203" xlink:href="#DejaVuSans-102"/>
      <use x="303.613281" xlink:href="#DejaVuSans-114"/>
      <use x="342.476562" xlink:href="#DejaVuSans-101"/>
      <use x="404" xlink:href="#DejaVuSans-113"/>
     </g>
    </g>
   </g>
   <g id="line2d_52">
    <path clip-path="url(#p12a67e114e)" d="M 279.2 200.810186 
L 279.832216 290.813815 
L 281.096647 295.976207 
L 281.728863 297.463008 
L 282.361078 298.171141 
L 282.993294 298.475994 
L 284.257725 298.594072 
L 297.534255 298.603635 
L 437.886137 298.503952 
L 439.150569 298.244769 
L 439.782784 298.110823 
L 440.415 297.082292 
L 440.415 297.082292 
" style="fill:none;stroke:#0000ff;stroke-linecap:square;stroke-width:1.5;"/>
   </g>
   <g id="line2d_53">
    <path clip-path="url(#p12a67e114e)" d="M 279.2 197.876364 
L 279.832216 291.835899 
L 281.096647 296.344557 
L 281.728863 297.628207 
L 282.361078 298.233893 
L 282.993294 298.495941 
L 284.257725 298.595798 
L 301.327549 298.603631 
L 437.886137 298.525679 
L 439.782784 298.215744 
L 440.415 297.422921 
L 440.415 297.422921 
" style="fill:none;stroke:#008000;stroke-linecap:square;stroke-width:1.5;"/>
   </g>
   <g id="patch_21">
    <path d="M 279.2 303.64 
L 279.2 192.84 
" style="fill:none;stroke:#000000;stroke-linecap:square;stroke-linejoin:miter;stroke-width:0.8;"/>
   </g>
   <g id="patch_22">
    <path d="M 440.415 303.64 
L 440.415 192.84 
" style="fill:none;stroke:#000000;stroke-linecap:square;stroke-linejoin:miter;stroke-width:0.8;"/>
   </g>
   <g id="patch_23">
    <path d="M 279.2 303.64 
L 440.415 303.64 
" style="fill:none;stroke:#000000;stroke-linecap:square;stroke-linejoin:miter;stroke-width:0.8;"/>
   </g>
   <g id="patch_24">
    <path d="M 279.2 192.84 
L 440.415 192.84 
" style="fill:none;stroke:#000000;stroke-linecap:square;stroke-linejoin:miter;stroke-width:0.8;"/>
   </g>
   <g id="text_51">
    <!-- CelebDFV2-cD/ -->
    <g transform="translate(314.660312 186.84)scale(0.12 -0.12)">
     <use xlink:href="#DejaVuSans-67"/>
     <use x="69.824219" xlink:href="#DejaVuSans-101"/>
     <use x="131.347656" xlink:href="#DejaVuSans-108"/>
     <use x="159.130859" xlink:href="#DejaVuSans-101"/>
     <use x="220.654297" xlink:href="#DejaVuSans-98"/>
     <use x="284.130859" xlink:href="#DejaVuSans-68"/>
     <use x="361.132812" xlink:href="#DejaVuSans-70"/>
     <use x="418.652344" xlink:href="#DejaVuSans-86"/>
     <use x="487.060547" xlink:href="#DejaVuSans-50"/>
     <use x="550.683594" xlink:href="#DejaVuSans-45"/>
     <use x="586.767578" xlink:href="#DejaVuSans-99"/>
     <use x="641.748047" xlink:href="#DejaVuSans-68"/>
     <use x="718.75" xlink:href="#DejaVuSans-47"/>
    </g>
   </g>
   <g id="legend_4">
    <g id="patch_25">
     <path d="M 380.185312 230.19625 
L 433.415 230.19625 
Q 435.415 230.19625 435.415 228.19625 
L 435.415 199.84 
Q 435.415 197.84 433.415 197.84 
L 380.185312 197.84 
Q 378.185312 197.84 378.185312 199.84 
L 378.185312 228.19625 
Q 378.185312 230.19625 380.185312 230.19625 
z
" style="fill:#ffffff;opacity:0.8;stroke:#cccccc;stroke-linejoin:miter;"/>
    </g>
    <g id="line2d_54">
     <path d="M 382.185312 205.938437 
L 402.185312 205.938437 
" style="fill:none;stroke:#0000ff;stroke-linecap:square;stroke-width:1.5;"/>
    </g>
    <g id="line2d_55"/>
    <g id="text_52">
     <!-- real -->
     <g transform="translate(410.185312 209.438437)scale(0.1 -0.1)">
      <use xlink:href="#DejaVuSans-114"/>
      <use x="38.863281" xlink:href="#DejaVuSans-101"/>
      <use x="100.386719" xlink:href="#DejaVuSans-97"/>
      <use x="161.666016" xlink:href="#DejaVuSans-108"/>
     </g>
    </g>
    <g id="line2d_56">
     <path d="M 382.185312 220.616562 
L 402.185312 220.616562 
" style="fill:none;stroke:#008000;stroke-linecap:square;stroke-width:1.5;"/>
    </g>
    <g id="line2d_57"/>
    <g id="text_53">
     <!-- fake -->
     <g transform="translate(410.185312 224.116562)scale(0.1 -0.1)">
      <use xlink:href="#DejaVuSans-102"/>
      <use x="35.205078" xlink:href="#DejaVuSans-97"/>
      <use x="96.484375" xlink:href="#DejaVuSans-107"/>
      <use x="150.769531" xlink:href="#DejaVuSans-101"/>
     </g>
    </g>
   </g>
  </g>
 </g>
 <defs>
  <clipPath id="pa1ec6be4a8">
   <rect height="110.8" width="161.215" x="60.59" y="25.44"/>
  </clipPath>
  <clipPath id="p7440a36ada">
   <rect height="110.8" width="161.215" x="279.2" y="25.44"/>
  </clipPath>
  <clipPath id="p5d37e744be">
   <rect height="110.8" width="161.215" x="60.59" y="192.84"/>
  </clipPath>
  <clipPath id="p12a67e114e">
   <rect height="110.8" width="161.215" x="279.2" y="192.84"/>
  </clipPath>
 </defs>
</svg>
