<?xml version="1.0" encoding="utf-8" standalone="no"?>
<!DOCTYPE svg PUBLIC "-//W3C//DTD SVG 1.1//EN"
  "http://www.w3.org/Graphics/SVG/1.1/DTD/svg11.dtd">
<!-- Created with matplotlib (https://matplotlib.org/) -->
<svg height="345.6pt" version="1.1" viewBox="0 0 460.8 345.6" width="460.8pt" xmlns="http://www.w3.org/2000/svg" xmlns:xlink="http://www.w3.org/1999/xlink">
 <defs>
  <style type="text/css">
*{stroke-linecap:butt;stroke-linejoin:round;}
  </style>
 </defs>
 <g id="figure_1">
  <g id="patch_1">
   <path d="M 0 345.6 
L 460.8 345.6 
L 460.8 0 
L 0 0 
z
" style="fill:#ffffff;"/>
  </g>
  <g id="axes_1">
   <g id="patch_2">
    <path d="M 66.98 136.24 
L 214.425 136.24 
L 214.425 25.44 
L 66.98 25.44 
z
" style="fill:#ffffff;"/>
   </g>
   <g id="matplotlib.axis_1">
    <g id="xtick_1">
     <g id="line2d_1">
      <defs>
       <path d="M 0 0 
L 0 3.5 
" id="ma54d682875" style="stroke:#000000;stroke-width:0.8;"/>
      </defs>
      <g>
       <use style="stroke:#000000;stroke-width:0.8;" x="66.98" xlink:href="#ma54d682875" y="136.24"/>
      </g>
     </g>
     <g id="text_1">
      <!-- 0 -->
      <defs>
       <path d="M 31.78125 66.40625 
Q 24.171875 66.40625 20.328125 58.90625 
Q 16.5 51.421875 16.5 36.375 
Q 16.5 21.390625 20.328125 13.890625 
Q 24.171875 6.390625 31.78125 6.390625 
Q 39.453125 6.390625 43.28125 13.890625 
Q 47.125 21.390625 47.125 36.375 
Q 47.125 51.421875 43.28125 58.90625 
Q 39.453125 66.40625 31.78125 66.40625 
z
M 31.78125 74.21875 
Q 44.046875 74.21875 50.515625 64.515625 
Q 56.984375 54.828125 56.984375 36.375 
Q 56.984375 17.96875 50.515625 8.265625 
Q 44.046875 -1.421875 31.78125 -1.421875 
Q 19.53125 -1.421875 13.0625 8.265625 
Q 6.59375 17.96875 6.59375 36.375 
Q 6.59375 54.828125 13.0625 64.515625 
Q 19.53125 74.21875 31.78125 74.21875 
z
" id="DejaVuSans-48"/>
      </defs>
      <g transform="translate(63.79875 150.838437)scale(0.1 -0.1)">
       <use xlink:href="#DejaVuSans-48"/>
      </g>
     </g>
    </g>
    <g id="xtick_2">
     <g id="line2d_2">
      <g>
       <use style="stroke:#000000;stroke-width:0.8;" x="116.128333" xlink:href="#ma54d682875" y="136.24"/>
      </g>
     </g>
     <g id="text_2">
      <!-- 85 -->
      <defs>
       <path d="M 31.78125 34.625 
Q 24.75 34.625 20.71875 30.859375 
Q 16.703125 27.09375 16.703125 20.515625 
Q 16.703125 13.921875 20.71875 10.15625 
Q 24.75 6.390625 31.78125 6.390625 
Q 38.8125 6.390625 42.859375 10.171875 
Q 46.921875 13.96875 46.921875 20.515625 
Q 46.921875 27.09375 42.890625 30.859375 
Q 38.875 34.625 31.78125 34.625 
z
M 21.921875 38.8125 
Q 15.578125 40.375 12.03125 44.71875 
Q 8.5 49.078125 8.5 55.328125 
Q 8.5 64.0625 14.71875 69.140625 
Q 20.953125 74.21875 31.78125 74.21875 
Q 42.671875 74.21875 48.875 69.140625 
Q 55.078125 64.0625 55.078125 55.328125 
Q 55.078125 49.078125 51.53125 44.71875 
Q 48 40.375 41.703125 38.8125 
Q 48.828125 37.15625 52.796875 32.3125 
Q 56.78125 27.484375 56.78125 20.515625 
Q 56.78125 9.90625 50.3125 4.234375 
Q 43.84375 -1.421875 31.78125 -1.421875 
Q 19.734375 -1.421875 13.25 4.234375 
Q 6.78125 9.90625 6.78125 20.515625 
Q 6.78125 27.484375 10.78125 32.3125 
Q 14.796875 37.15625 21.921875 38.8125 
z
M 18.3125 54.390625 
Q 18.3125 48.734375 21.84375 45.5625 
Q 25.390625 42.390625 31.78125 42.390625 
Q 38.140625 42.390625 41.71875 45.5625 
Q 45.3125 48.734375 45.3125 54.390625 
Q 45.3125 60.0625 41.71875 63.234375 
Q 38.140625 66.40625 31.78125 66.40625 
Q 25.390625 66.40625 21.84375 63.234375 
Q 18.3125 60.0625 18.3125 54.390625 
z
" id="DejaVuSans-56"/>
       <path d="M 10.796875 72.90625 
L 49.515625 72.90625 
L 49.515625 64.59375 
L 19.828125 64.59375 
L 19.828125 46.734375 
Q 21.96875 47.46875 24.109375 47.828125 
Q 26.265625 48.1875 28.421875 48.1875 
Q 40.625 48.1875 47.75 41.5 
Q 54.890625 34.8125 54.890625 23.390625 
Q 54.890625 11.625 47.5625 5.09375 
Q 40.234375 -1.421875 26.90625 -1.421875 
Q 22.3125 -1.421875 17.546875 -0.640625 
Q 12.796875 0.140625 7.71875 1.703125 
L 7.71875 11.625 
Q 12.109375 9.234375 16.796875 8.0625 
Q 21.484375 6.890625 26.703125 6.890625 
Q 35.15625 6.890625 40.078125 11.328125 
Q 45.015625 15.765625 45.015625 23.390625 
Q 45.015625 31 40.078125 35.4375 
Q 35.15625 39.890625 26.703125 39.890625 
Q 22.75 39.890625 18.8125 39.015625 
Q 14.890625 38.140625 10.796875 36.28125 
z
" id="DejaVuSans-53"/>
      </defs>
      <g transform="translate(109.765833 150.838437)scale(0.1 -0.1)">
       <use xlink:href="#DejaVuSans-56"/>
       <use x="63.623047" xlink:href="#DejaVuSans-53"/>
      </g>
     </g>
    </g>
    <g id="xtick_3">
     <g id="line2d_3">
      <g>
       <use style="stroke:#000000;stroke-width:0.8;" x="165.276667" xlink:href="#ma54d682875" y="136.24"/>
      </g>
     </g>
     <g id="text_3">
      <!-- 170 -->
      <defs>
       <path d="M 12.40625 8.296875 
L 28.515625 8.296875 
L 28.515625 63.921875 
L 10.984375 60.40625 
L 10.984375 69.390625 
L 28.421875 72.90625 
L 38.28125 72.90625 
L 38.28125 8.296875 
L 54.390625 8.296875 
L 54.390625 0 
L 12.40625 0 
z
" id="DejaVuSans-49"/>
       <path d="M 8.203125 72.90625 
L 55.078125 72.90625 
L 55.078125 68.703125 
L 28.609375 0 
L 18.3125 0 
L 43.21875 64.59375 
L 8.203125 64.59375 
z
" id="DejaVuSans-55"/>
      </defs>
      <g transform="translate(155.732917 150.838437)scale(0.1 -0.1)">
       <use xlink:href="#DejaVuSans-49"/>
       <use x="63.623047" xlink:href="#DejaVuSans-55"/>
       <use x="127.246094" xlink:href="#DejaVuSans-48"/>
      </g>
     </g>
    </g>
    <g id="xtick_4">
     <g id="line2d_4">
      <g>
       <use style="stroke:#000000;stroke-width:0.8;" x="214.425" xlink:href="#ma54d682875" y="136.24"/>
      </g>
     </g>
     <g id="text_4">
      <!-- 255 -->
      <defs>
       <path d="M 19.1875 8.296875 
L 53.609375 8.296875 
L 53.609375 0 
L 7.328125 0 
L 7.328125 8.296875 
Q 12.9375 14.109375 22.625 23.890625 
Q 32.328125 33.6875 34.8125 36.53125 
Q 39.546875 41.84375 41.421875 45.53125 
Q 43.3125 49.21875 43.3125 52.78125 
Q 43.3125 58.59375 39.234375 62.25 
Q 35.15625 65.921875 28.609375 65.921875 
Q 23.96875 65.921875 18.8125 64.3125 
Q 13.671875 62.703125 7.8125 59.421875 
L 7.8125 69.390625 
Q 13.765625 71.78125 18.9375 73 
Q 24.125 74.21875 28.421875 74.21875 
Q 39.75 74.21875 46.484375 68.546875 
Q 53.21875 62.890625 53.21875 53.421875 
Q 53.21875 48.921875 51.53125 44.890625 
Q 49.859375 40.875 45.40625 35.40625 
Q 44.1875 33.984375 37.640625 27.21875 
Q 31.109375 20.453125 19.1875 8.296875 
z
" id="DejaVuSans-50"/>
      </defs>
      <g transform="translate(204.88125 150.838437)scale(0.1 -0.1)">
       <use xlink:href="#DejaVuSans-50"/>
       <use x="63.623047" xlink:href="#DejaVuSans-53"/>
       <use x="127.246094" xlink:href="#DejaVuSans-53"/>
      </g>
     </g>
    </g>
    <g id="text_5">
     <!-- gray value -->
     <defs>
      <path d="M 45.40625 27.984375 
Q 45.40625 37.75 41.375 43.109375 
Q 37.359375 48.484375 30.078125 48.484375 
Q 22.859375 48.484375 18.828125 43.109375 
Q 14.796875 37.75 14.796875 27.984375 
Q 14.796875 18.265625 18.828125 12.890625 
Q 22.859375 7.515625 30.078125 7.515625 
Q 37.359375 7.515625 41.375 12.890625 
Q 45.40625 18.265625 45.40625 27.984375 
z
M 54.390625 6.78125 
Q 54.390625 -7.171875 48.1875 -13.984375 
Q 42 -20.796875 29.203125 -20.796875 
Q 24.46875 -20.796875 20.265625 -20.09375 
Q 16.0625 -19.390625 12.109375 -17.921875 
L 12.109375 -9.1875 
Q 16.0625 -11.328125 19.921875 -12.34375 
Q 23.78125 -13.375 27.78125 -13.375 
Q 36.625 -13.375 41.015625 -8.765625 
Q 45.40625 -4.15625 45.40625 5.171875 
L 45.40625 9.625 
Q 42.625 4.78125 38.28125 2.390625 
Q 33.9375 0 27.875 0 
Q 17.828125 0 11.671875 7.65625 
Q 5.515625 15.328125 5.515625 27.984375 
Q 5.515625 40.671875 11.671875 48.328125 
Q 17.828125 56 27.875 56 
Q 33.9375 56 38.28125 53.609375 
Q 42.625 51.21875 45.40625 46.390625 
L 45.40625 54.6875 
L 54.390625 54.6875 
z
" id="DejaVuSans-103"/>
      <path d="M 41.109375 46.296875 
Q 39.59375 47.171875 37.8125 47.578125 
Q 36.03125 48 33.890625 48 
Q 26.265625 48 22.1875 43.046875 
Q 18.109375 38.09375 18.109375 28.8125 
L 18.109375 0 
L 9.078125 0 
L 9.078125 54.6875 
L 18.109375 54.6875 
L 18.109375 46.1875 
Q 20.953125 51.171875 25.484375 53.578125 
Q 30.03125 56 36.53125 56 
Q 37.453125 56 38.578125 55.875 
Q 39.703125 55.765625 41.0625 55.515625 
z
" id="DejaVuSans-114"/>
      <path d="M 34.28125 27.484375 
Q 23.390625 27.484375 19.1875 25 
Q 14.984375 22.515625 14.984375 16.5 
Q 14.984375 11.71875 18.140625 8.90625 
Q 21.296875 6.109375 26.703125 6.109375 
Q 34.1875 6.109375 38.703125 11.40625 
Q 43.21875 16.703125 43.21875 25.484375 
L 43.21875 27.484375 
z
M 52.203125 31.203125 
L 52.203125 0 
L 43.21875 0 
L 43.21875 8.296875 
Q 40.140625 3.328125 35.546875 0.953125 
Q 30.953125 -1.421875 24.3125 -1.421875 
Q 15.921875 -1.421875 10.953125 3.296875 
Q 6 8.015625 6 15.921875 
Q 6 25.140625 12.171875 29.828125 
Q 18.359375 34.515625 30.609375 34.515625 
L 43.21875 34.515625 
L 43.21875 35.40625 
Q 43.21875 41.609375 39.140625 45 
Q 35.0625 48.390625 27.6875 48.390625 
Q 23 48.390625 18.546875 47.265625 
Q 14.109375 46.140625 10.015625 43.890625 
L 10.015625 52.203125 
Q 14.9375 54.109375 19.578125 55.046875 
Q 24.21875 56 28.609375 56 
Q 40.484375 56 46.34375 49.84375 
Q 52.203125 43.703125 52.203125 31.203125 
z
" id="DejaVuSans-97"/>
      <path d="M 32.171875 -5.078125 
Q 28.375 -14.84375 24.75 -17.8125 
Q 21.140625 -20.796875 15.09375 -20.796875 
L 7.90625 -20.796875 
L 7.90625 -13.28125 
L 13.1875 -13.28125 
Q 16.890625 -13.28125 18.9375 -11.515625 
Q 21 -9.765625 23.484375 -3.21875 
L 25.09375 0.875 
L 2.984375 54.6875 
L 12.5 54.6875 
L 29.59375 11.921875 
L 46.6875 54.6875 
L 56.203125 54.6875 
z
" id="DejaVuSans-121"/>
      <path id="DejaVuSans-32"/>
      <path d="M 2.984375 54.6875 
L 12.5 54.6875 
L 29.59375 8.796875 
L 46.6875 54.6875 
L 56.203125 54.6875 
L 35.6875 0 
L 23.484375 0 
z
" id="DejaVuSans-118"/>
      <path d="M 9.421875 75.984375 
L 18.40625 75.984375 
L 18.40625 0 
L 9.421875 0 
z
" id="DejaVuSans-108"/>
      <path d="M 8.5 21.578125 
L 8.5 54.6875 
L 17.484375 54.6875 
L 17.484375 21.921875 
Q 17.484375 14.15625 20.5 10.265625 
Q 23.53125 6.390625 29.59375 6.390625 
Q 36.859375 6.390625 41.078125 11.03125 
Q 45.3125 15.671875 45.3125 23.6875 
L 45.3125 54.6875 
L 54.296875 54.6875 
L 54.296875 0 
L 45.3125 0 
L 45.3125 8.40625 
Q 42.046875 3.421875 37.71875 1 
Q 33.40625 -1.421875 27.6875 -1.421875 
Q 18.265625 -1.421875 13.375 4.4375 
Q 8.5 10.296875 8.5 21.578125 
z
M 31.109375 56 
z
" id="DejaVuSans-117"/>
      <path d="M 56.203125 29.59375 
L 56.203125 25.203125 
L 14.890625 25.203125 
Q 15.484375 15.921875 20.484375 11.0625 
Q 25.484375 6.203125 34.421875 6.203125 
Q 39.59375 6.203125 44.453125 7.46875 
Q 49.3125 8.734375 54.109375 11.28125 
L 54.109375 2.78125 
Q 49.265625 0.734375 44.1875 -0.34375 
Q 39.109375 -1.421875 33.890625 -1.421875 
Q 20.796875 -1.421875 13.15625 6.1875 
Q 5.515625 13.8125 5.515625 26.8125 
Q 5.515625 40.234375 12.765625 48.109375 
Q 20.015625 56 32.328125 56 
Q 43.359375 56 49.78125 48.890625 
Q 56.203125 41.796875 56.203125 29.59375 
z
M 47.21875 32.234375 
Q 47.125 39.59375 43.09375 43.984375 
Q 39.0625 48.390625 32.421875 48.390625 
Q 24.90625 48.390625 20.390625 44.140625 
Q 15.875 39.890625 15.1875 32.171875 
z
" id="DejaVuSans-101"/>
     </defs>
     <g transform="translate(114.2025 164.516562)scale(0.1 -0.1)">
      <use xlink:href="#DejaVuSans-103"/>
      <use x="63.476562" xlink:href="#DejaVuSans-114"/>
      <use x="104.589844" xlink:href="#DejaVuSans-97"/>
      <use x="165.869141" xlink:href="#DejaVuSans-121"/>
      <use x="225.048828" xlink:href="#DejaVuSans-32"/>
      <use x="256.835938" xlink:href="#DejaVuSans-118"/>
      <use x="316.015625" xlink:href="#DejaVuSans-97"/>
      <use x="377.294922" xlink:href="#DejaVuSans-108"/>
      <use x="405.078125" xlink:href="#DejaVuSans-117"/>
      <use x="468.457031" xlink:href="#DejaVuSans-101"/>
     </g>
    </g>
   </g>
   <g id="matplotlib.axis_2">
    <g id="ytick_1">
     <g id="line2d_5">
      <defs>
       <path d="M 0 0 
L -3.5 0 
" id="mac990e3785" style="stroke:#000000;stroke-width:0.8;"/>
      </defs>
      <g>
       <use style="stroke:#000000;stroke-width:0.8;" x="66.98" xlink:href="#mac990e3785" y="96.522552"/>
      </g>
     </g>
     <g id="text_6">
      <!-- 0.0000 -->
      <defs>
       <path d="M 10.6875 12.40625 
L 21 12.40625 
L 21 0 
L 10.6875 0 
z
" id="DejaVuSans-46"/>
      </defs>
      <g transform="translate(24.989375 100.321771)scale(0.1 -0.1)">
       <use xlink:href="#DejaVuSans-48"/>
       <use x="63.623047" xlink:href="#DejaVuSans-46"/>
       <use x="95.410156" xlink:href="#DejaVuSans-48"/>
       <use x="159.033203" xlink:href="#DejaVuSans-48"/>
       <use x="222.65625" xlink:href="#DejaVuSans-48"/>
       <use x="286.279297" xlink:href="#DejaVuSans-48"/>
      </g>
     </g>
    </g>
    <g id="ytick_2">
     <g id="line2d_6">
      <g>
       <use style="stroke:#000000;stroke-width:0.8;" x="66.98" xlink:href="#mac990e3785" y="56.423393"/>
      </g>
     </g>
     <g id="text_7">
      <!-- 0.0005 -->
      <g transform="translate(24.989375 60.222612)scale(0.1 -0.1)">
       <use xlink:href="#DejaVuSans-48"/>
       <use x="63.623047" xlink:href="#DejaVuSans-46"/>
       <use x="95.410156" xlink:href="#DejaVuSans-48"/>
       <use x="159.033203" xlink:href="#DejaVuSans-48"/>
       <use x="222.65625" xlink:href="#DejaVuSans-48"/>
       <use x="286.279297" xlink:href="#DejaVuSans-53"/>
      </g>
     </g>
    </g>
    <g id="text_8">
     <!-- pixel freq difference -->
     <defs>
      <path d="M 18.109375 8.203125 
L 18.109375 -20.796875 
L 9.078125 -20.796875 
L 9.078125 54.6875 
L 18.109375 54.6875 
L 18.109375 46.390625 
Q 20.953125 51.265625 25.265625 53.625 
Q 29.59375 56 35.59375 56 
Q 45.5625 56 51.78125 48.09375 
Q 58.015625 40.1875 58.015625 27.296875 
Q 58.015625 14.40625 51.78125 6.484375 
Q 45.5625 -1.421875 35.59375 -1.421875 
Q 29.59375 -1.421875 25.265625 0.953125 
Q 20.953125 3.328125 18.109375 8.203125 
z
M 48.6875 27.296875 
Q 48.6875 37.203125 44.609375 42.84375 
Q 40.53125 48.484375 33.40625 48.484375 
Q 26.265625 48.484375 22.1875 42.84375 
Q 18.109375 37.203125 18.109375 27.296875 
Q 18.109375 17.390625 22.1875 11.75 
Q 26.265625 6.109375 33.40625 6.109375 
Q 40.53125 6.109375 44.609375 11.75 
Q 48.6875 17.390625 48.6875 27.296875 
z
" id="DejaVuSans-112"/>
      <path d="M 9.421875 54.6875 
L 18.40625 54.6875 
L 18.40625 0 
L 9.421875 0 
z
M 9.421875 75.984375 
L 18.40625 75.984375 
L 18.40625 64.59375 
L 9.421875 64.59375 
z
" id="DejaVuSans-105"/>
      <path d="M 54.890625 54.6875 
L 35.109375 28.078125 
L 55.90625 0 
L 45.3125 0 
L 29.390625 21.484375 
L 13.484375 0 
L 2.875 0 
L 24.125 28.609375 
L 4.6875 54.6875 
L 15.28125 54.6875 
L 29.78125 35.203125 
L 44.28125 54.6875 
z
" id="DejaVuSans-120"/>
      <path d="M 37.109375 75.984375 
L 37.109375 68.5 
L 28.515625 68.5 
Q 23.6875 68.5 21.796875 66.546875 
Q 19.921875 64.59375 19.921875 59.515625 
L 19.921875 54.6875 
L 34.71875 54.6875 
L 34.71875 47.703125 
L 19.921875 47.703125 
L 19.921875 0 
L 10.890625 0 
L 10.890625 47.703125 
L 2.296875 47.703125 
L 2.296875 54.6875 
L 10.890625 54.6875 
L 10.890625 58.5 
Q 10.890625 67.625 15.140625 71.796875 
Q 19.390625 75.984375 28.609375 75.984375 
z
" id="DejaVuSans-102"/>
      <path d="M 14.796875 27.296875 
Q 14.796875 17.390625 18.875 11.75 
Q 22.953125 6.109375 30.078125 6.109375 
Q 37.203125 6.109375 41.296875 11.75 
Q 45.40625 17.390625 45.40625 27.296875 
Q 45.40625 37.203125 41.296875 42.84375 
Q 37.203125 48.484375 30.078125 48.484375 
Q 22.953125 48.484375 18.875 42.84375 
Q 14.796875 37.203125 14.796875 27.296875 
z
M 45.40625 8.203125 
Q 42.578125 3.328125 38.25 0.953125 
Q 33.9375 -1.421875 27.875 -1.421875 
Q 17.96875 -1.421875 11.734375 6.484375 
Q 5.515625 14.40625 5.515625 27.296875 
Q 5.515625 40.1875 11.734375 48.09375 
Q 17.96875 56 27.875 56 
Q 33.9375 56 38.25 53.625 
Q 42.578125 51.265625 45.40625 46.390625 
L 45.40625 54.6875 
L 54.390625 54.6875 
L 54.390625 -20.796875 
L 45.40625 -20.796875 
z
" id="DejaVuSans-113"/>
      <path d="M 45.40625 46.390625 
L 45.40625 75.984375 
L 54.390625 75.984375 
L 54.390625 0 
L 45.40625 0 
L 45.40625 8.203125 
Q 42.578125 3.328125 38.25 0.953125 
Q 33.9375 -1.421875 27.875 -1.421875 
Q 17.96875 -1.421875 11.734375 6.484375 
Q 5.515625 14.40625 5.515625 27.296875 
Q 5.515625 40.1875 11.734375 48.09375 
Q 17.96875 56 27.875 56 
Q 33.9375 56 38.25 53.625 
Q 42.578125 51.265625 45.40625 46.390625 
z
M 14.796875 27.296875 
Q 14.796875 17.390625 18.875 11.75 
Q 22.953125 6.109375 30.078125 6.109375 
Q 37.203125 6.109375 41.296875 11.75 
Q 45.40625 17.390625 45.40625 27.296875 
Q 45.40625 37.203125 41.296875 42.84375 
Q 37.203125 48.484375 30.078125 48.484375 
Q 22.953125 48.484375 18.875 42.84375 
Q 14.796875 37.203125 14.796875 27.296875 
z
" id="DejaVuSans-100"/>
      <path d="M 54.890625 33.015625 
L 54.890625 0 
L 45.90625 0 
L 45.90625 32.71875 
Q 45.90625 40.484375 42.875 44.328125 
Q 39.84375 48.1875 33.796875 48.1875 
Q 26.515625 48.1875 22.3125 43.546875 
Q 18.109375 38.921875 18.109375 30.90625 
L 18.109375 0 
L 9.078125 0 
L 9.078125 54.6875 
L 18.109375 54.6875 
L 18.109375 46.1875 
Q 21.34375 51.125 25.703125 53.5625 
Q 30.078125 56 35.796875 56 
Q 45.21875 56 50.046875 50.171875 
Q 54.890625 44.34375 54.890625 33.015625 
z
" id="DejaVuSans-110"/>
      <path d="M 48.78125 52.59375 
L 48.78125 44.1875 
Q 44.96875 46.296875 41.140625 47.34375 
Q 37.3125 48.390625 33.40625 48.390625 
Q 24.65625 48.390625 19.8125 42.84375 
Q 14.984375 37.3125 14.984375 27.296875 
Q 14.984375 17.28125 19.8125 11.734375 
Q 24.65625 6.203125 33.40625 6.203125 
Q 37.3125 6.203125 41.140625 7.25 
Q 44.96875 8.296875 48.78125 10.40625 
L 48.78125 2.09375 
Q 45.015625 0.34375 40.984375 -0.53125 
Q 36.96875 -1.421875 32.421875 -1.421875 
Q 20.0625 -1.421875 12.78125 6.34375 
Q 5.515625 14.109375 5.515625 27.296875 
Q 5.515625 40.671875 12.859375 48.328125 
Q 20.21875 56 33.015625 56 
Q 37.15625 56 41.109375 55.140625 
Q 45.0625 54.296875 48.78125 52.59375 
z
" id="DejaVuSans-99"/>
     </defs>
     <g transform="translate(18.909687 130.978281)rotate(-90)scale(0.1 -0.1)">
      <use xlink:href="#DejaVuSans-112"/>
      <use x="63.476562" xlink:href="#DejaVuSans-105"/>
      <use x="91.259766" xlink:href="#DejaVuSans-120"/>
      <use x="147.314453" xlink:href="#DejaVuSans-101"/>
      <use x="208.837891" xlink:href="#DejaVuSans-108"/>
      <use x="236.621094" xlink:href="#DejaVuSans-32"/>
      <use x="268.408203" xlink:href="#DejaVuSans-102"/>
      <use x="303.613281" xlink:href="#DejaVuSans-114"/>
      <use x="342.476562" xlink:href="#DejaVuSans-101"/>
      <use x="404" xlink:href="#DejaVuSans-113"/>
      <use x="467.476562" xlink:href="#DejaVuSans-32"/>
      <use x="499.263672" xlink:href="#DejaVuSans-100"/>
      <use x="562.740234" xlink:href="#DejaVuSans-105"/>
      <use x="590.523438" xlink:href="#DejaVuSans-102"/>
      <use x="625.728516" xlink:href="#DejaVuSans-102"/>
      <use x="660.933594" xlink:href="#DejaVuSans-101"/>
      <use x="722.457031" xlink:href="#DejaVuSans-114"/>
      <use x="761.320312" xlink:href="#DejaVuSans-101"/>
      <use x="822.84375" xlink:href="#DejaVuSans-110"/>
      <use x="886.222656" xlink:href="#DejaVuSans-99"/>
      <use x="941.203125" xlink:href="#DejaVuSans-101"/>
     </g>
    </g>
   </g>
   <g id="line2d_7">
    <path clip-path="url(#peea7c17a90)" d="M 66.98 64.005794 
L 68.136431 92.325517 
L 68.714647 94.412667 
L 69.292863 100.446741 
L 69.871078 100.128926 
L 70.449294 99.608217 
L 71.02751 96.440608 
L 71.605725 97.47123 
L 72.183941 97.388207 
L 72.762157 98.84304 
L 73.340373 98.529979 
L 74.496804 94.905734 
L 75.07502 94.267933 
L 75.653235 92.709691 
L 76.231451 94.134404 
L 76.809667 91.14415 
L 77.387882 95.064082 
L 77.966098 91.348829 
L 78.544314 95.084961 
L 79.122529 91.27237 
L 79.700745 92.443384 
L 80.278961 90.710902 
L 80.857176 90.847919 
L 81.435392 87.841571 
L 82.013608 88.799547 
L 82.591824 88.556654 
L 83.170039 88.985473 
L 83.748255 90.060642 
L 84.326471 92.098598 
L 84.904686 92.566386 
L 85.482902 94.530757 
L 86.061118 93.285642 
L 86.639333 94.203802 
L 87.217549 93.504284 
L 87.795765 93.522072 
L 88.952196 92.607543 
L 90.108627 88.74275 
L 90.686843 86.883896 
L 91.265059 86.388024 
L 91.843275 85.407268 
L 92.999706 87.524088 
L 93.577922 89.73798 
L 94.156137 92.435996 
L 94.734353 97.457838 
L 95.312569 101.025491 
L 95.890784 109.519439 
L 96.469 111.099764 
L 97.047216 110.942172 
L 97.625431 107.334667 
L 98.203647 107.10757 
L 99.360078 115.181305 
L 99.938294 113.500792 
L 100.51651 111.254858 
L 101.094725 107.670963 
L 101.672941 106.18666 
L 102.251157 105.046259 
L 102.829373 104.832128 
L 103.985804 108.265842 
L 104.56402 107.362519 
L 105.142235 106.680616 
L 105.720451 104.64677 
L 106.298667 104.451183 
L 106.876882 105.348493 
L 107.455098 105.846014 
L 108.033314 107.361151 
L 108.611529 108.087276 
L 109.189745 106.771923 
L 109.767961 106.603381 
L 110.346176 102.884384 
L 111.502608 98.076477 
L 112.080824 98.825452 
L 112.659039 97.712324 
L 113.237255 98.337618 
L 113.815471 98.109018 
L 114.393686 97.722173 
L 114.971902 96.733021 
L 115.550118 97.210059 
L 116.128333 97.309312 
L 116.706549 100.617483 
L 117.284765 97.670093 
L 117.86298 97.938247 
L 118.441196 93.782532 
L 119.019412 92.627641 
L 119.597627 92.221252 
L 120.754059 92.643002 
L 121.332275 92.402514 
L 121.91049 91.61883 
L 123.066922 91.736378 
L 123.645137 91.093087 
L 124.223353 88.801643 
L 124.801569 87.2551 
L 125.379784 86.545057 
L 126.536216 86.198033 
L 127.114431 87.801429 
L 128.270863 79.458447 
L 128.849078 78.660068 
L 129.427294 82.839438 
L 130.00551 86.193635 
L 130.583725 86.901389 
L 131.161941 87.242272 
L 131.740157 86.82198 
L 132.318373 85.056824 
L 132.896588 84.727931 
L 133.474804 83.634763 
L 134.05302 82.780451 
L 134.631235 83.371837 
L 135.209451 81.34429 
L 135.787667 82.215009 
L 136.944098 85.191939 
L 137.522314 86.335215 
L 138.678745 85.887143 
L 139.256961 85.230942 
L 139.835176 85.227336 
L 140.413392 83.489501 
L 140.991608 84.070258 
L 141.569824 83.875119 
L 142.148039 86.426918 
L 142.726255 87.577702 
L 143.304471 89.574567 
L 143.882686 89.225352 
L 144.460902 91.141873 
L 145.039118 91.816629 
L 145.617333 94.291378 
L 146.773765 95.514782 
L 147.35198 95.871478 
L 147.930196 94.86559 
L 148.508412 93.282355 
L 149.086627 92.195714 
L 149.664843 92.208097 
L 150.243059 90.883733 
L 150.821275 90.527417 
L 151.39949 91.266359 
L 152.555922 86.98831 
L 153.134137 86.267882 
L 153.712353 84.336687 
L 154.290569 87.668455 
L 154.868784 88.760638 
L 156.025216 87.988095 
L 156.603431 81.035929 
L 157.759863 74.163403 
L 158.338078 67.165065 
L 158.916294 75.514853 
L 159.49451 73.982755 
L 160.072725 79.221636 
L 160.650941 80.945109 
L 162.963804 117.47704 
L 163.54202 111.448862 
L 164.120235 115.005305 
L 164.698451 120.147618 
L 165.276667 118.609227 
L 165.854882 104.668175 
L 166.433098 100.145822 
L 167.011314 96.609699 
L 167.589529 99.061356 
L 168.167745 99.298802 
L 168.745961 104.261164 
L 169.324176 102.898337 
L 169.902392 103.455431 
L 170.480608 102.24594 
L 171.058824 101.897664 
L 172.215255 107.810626 
L 172.793471 106.494903 
L 173.371686 111.914104 
L 173.949902 110.439648 
L 174.528118 121.68504 
L 175.106333 117.996519 
L 175.684549 131.203636 
L 176.262765 114.672597 
L 176.84098 124.609692 
L 177.419196 111.222609 
L 177.997412 111.860922 
L 178.575627 111.634807 
L 179.153843 115.858532 
L 179.732059 111.963043 
L 180.310275 112.868834 
L 180.88849 111.3628 
L 181.466706 109.499891 
L 182.044922 110.119354 
L 182.623137 108.551891 
L 183.201353 110.417026 
L 183.779569 110.143788 
L 184.357784 111.809527 
L 184.936 110.784426 
L 185.514216 111.673102 
L 186.092431 110.331482 
L 186.670647 110.97764 
L 187.248863 110.865396 
L 187.827078 111.839886 
L 188.405294 110.875354 
L 188.98351 110.218012 
L 189.561725 109.372679 
L 190.139941 107.479184 
L 191.874588 104.016813 
L 192.452804 103.803559 
L 193.03102 102.790996 
L 193.609235 100.794235 
L 194.187451 100.796483 
L 194.765667 99.787415 
L 195.343882 100.322316 
L 195.922098 100.239596 
L 197.078529 97.401975 
L 197.656745 95.02665 
L 198.813176 93.647866 
L 199.391392 92.782502 
L 199.969608 90.911637 
L 200.547824 91.790462 
L 201.126039 90.682038 
L 201.704255 92.188076 
L 202.282471 92.379788 
L 202.860686 97.131229 
L 203.438902 99.201865 
L 204.017118 98.244063 
L 204.595333 94.874273 
L 205.173549 93.578807 
L 205.751765 88.550977 
L 206.32998 91.749509 
L 206.908196 30.476364 
L 207.486412 90.27061 
L 208.064627 97.272243 
L 208.642843 98.384481 
L 209.221059 98.059213 
L 209.799275 97.595392 
L 210.37749 96.300702 
L 210.955706 96.7565 
L 211.533922 97.03334 
L 212.112137 97.664975 
L 212.690353 96.935046 
L 213.268569 96.94714 
L 213.846784 97.599685 
L 214.425 97.496572 
L 214.425 97.496572 
" style="fill:none;stroke:#ff0000;stroke-linecap:square;stroke-width:1.5;"/>
   </g>
   <g id="patch_3">
    <path d="M 66.98 136.24 
L 66.98 25.44 
" style="fill:none;stroke:#000000;stroke-linecap:square;stroke-linejoin:miter;stroke-width:0.8;"/>
   </g>
   <g id="patch_4">
    <path d="M 214.425 136.24 
L 214.425 25.44 
" style="fill:none;stroke:#000000;stroke-linecap:square;stroke-linejoin:miter;stroke-width:0.8;"/>
   </g>
   <g id="patch_5">
    <path d="M 66.98 136.24 
L 214.425 136.24 
" style="fill:none;stroke:#000000;stroke-linecap:square;stroke-linejoin:miter;stroke-width:0.8;"/>
   </g>
   <g id="patch_6">
    <path d="M 66.98 25.44 
L 214.425 25.44 
" style="fill:none;stroke:#000000;stroke-linecap:square;stroke-linejoin:miter;stroke-width:0.8;"/>
   </g>
   <g id="text_9">
    <!-- DFD-cA/ -->
    <defs>
     <path d="M 19.671875 64.796875 
L 19.671875 8.109375 
L 31.59375 8.109375 
Q 46.6875 8.109375 53.6875 14.9375 
Q 60.6875 21.78125 60.6875 36.53125 
Q 60.6875 51.171875 53.6875 57.984375 
Q 46.6875 64.796875 31.59375 64.796875 
z
M 9.8125 72.90625 
L 30.078125 72.90625 
Q 51.265625 72.90625 61.171875 64.09375 
Q 71.09375 55.28125 71.09375 36.53125 
Q 71.09375 17.671875 61.125 8.828125 
Q 51.171875 0 30.078125 0 
L 9.8125 0 
z
" id="DejaVuSans-68"/>
     <path d="M 9.8125 72.90625 
L 51.703125 72.90625 
L 51.703125 64.59375 
L 19.671875 64.59375 
L 19.671875 43.109375 
L 48.578125 43.109375 
L 48.578125 34.8125 
L 19.671875 34.8125 
L 19.671875 0 
L 9.8125 0 
z
" id="DejaVuSans-70"/>
     <path d="M 4.890625 31.390625 
L 31.203125 31.390625 
L 31.203125 23.390625 
L 4.890625 23.390625 
z
" id="DejaVuSans-45"/>
     <path d="M 34.1875 63.1875 
L 20.796875 26.90625 
L 47.609375 26.90625 
z
M 28.609375 72.90625 
L 39.796875 72.90625 
L 67.578125 0 
L 57.328125 0 
L 50.6875 18.703125 
L 17.828125 18.703125 
L 11.1875 0 
L 0.78125 0 
z
" id="DejaVuSans-65"/>
     <path d="M 25.390625 72.90625 
L 33.6875 72.90625 
L 8.296875 -9.28125 
L 0 -9.28125 
z
" id="DejaVuSans-47"/>
    </defs>
    <g transform="translate(116.422187 19.44)scale(0.12 -0.12)">
     <use xlink:href="#DejaVuSans-68"/>
     <use x="77.001953" xlink:href="#DejaVuSans-70"/>
     <use x="134.521484" xlink:href="#DejaVuSans-68"/>
     <use x="211.523438" xlink:href="#DejaVuSans-45"/>
     <use x="247.607422" xlink:href="#DejaVuSans-99"/>
     <use x="302.587891" xlink:href="#DejaVuSans-65"/>
     <use x="370.996094" xlink:href="#DejaVuSans-47"/>
    </g>
   </g>
   <g id="legend_1">
    <g id="patch_7">
     <path d="M 73.98 48.118125 
L 122.147188 48.118125 
Q 124.147188 48.118125 124.147188 46.118125 
L 124.147188 32.44 
Q 124.147188 30.44 122.147188 30.44 
L 73.98 30.44 
Q 71.98 30.44 71.98 32.44 
L 71.98 46.118125 
Q 71.98 48.118125 73.98 48.118125 
z
" style="fill:#ffffff;opacity:0.8;stroke:#cccccc;stroke-linejoin:miter;"/>
    </g>
    <g id="line2d_8">
     <path d="M 75.98 38.538438 
L 95.98 38.538438 
" style="fill:none;stroke:#ff0000;stroke-linecap:square;stroke-width:1.5;"/>
    </g>
    <g id="line2d_9"/>
    <g id="text_10">
     <!-- diff -->
     <g transform="translate(103.98 42.038438)scale(0.1 -0.1)">
      <use xlink:href="#DejaVuSans-100"/>
      <use x="63.476562" xlink:href="#DejaVuSans-105"/>
      <use x="91.259766" xlink:href="#DejaVuSans-102"/>
      <use x="126.464844" xlink:href="#DejaVuSans-102"/>
     </g>
    </g>
   </g>
  </g>
  <g id="axes_2">
   <g id="patch_8">
    <path d="M 292.97 136.24 
L 440.415 136.24 
L 440.415 25.44 
L 292.97 25.44 
z
" style="fill:#ffffff;"/>
   </g>
   <g id="matplotlib.axis_3">
    <g id="xtick_5">
     <g id="line2d_10">
      <g>
       <use style="stroke:#000000;stroke-width:0.8;" x="292.97" xlink:href="#ma54d682875" y="136.24"/>
      </g>
     </g>
     <g id="text_11">
      <!-- 0 -->
      <g transform="translate(289.78875 150.838437)scale(0.1 -0.1)">
       <use xlink:href="#DejaVuSans-48"/>
      </g>
     </g>
    </g>
    <g id="xtick_6">
     <g id="line2d_11">
      <g>
       <use style="stroke:#000000;stroke-width:0.8;" x="342.118333" xlink:href="#ma54d682875" y="136.24"/>
      </g>
     </g>
     <g id="text_12">
      <!-- 85 -->
      <g transform="translate(335.755833 150.838437)scale(0.1 -0.1)">
       <use xlink:href="#DejaVuSans-56"/>
       <use x="63.623047" xlink:href="#DejaVuSans-53"/>
      </g>
     </g>
    </g>
    <g id="xtick_7">
     <g id="line2d_12">
      <g>
       <use style="stroke:#000000;stroke-width:0.8;" x="391.266667" xlink:href="#ma54d682875" y="136.24"/>
      </g>
     </g>
     <g id="text_13">
      <!-- 170 -->
      <g transform="translate(381.722917 150.838437)scale(0.1 -0.1)">
       <use xlink:href="#DejaVuSans-49"/>
       <use x="63.623047" xlink:href="#DejaVuSans-55"/>
       <use x="127.246094" xlink:href="#DejaVuSans-48"/>
      </g>
     </g>
    </g>
    <g id="xtick_8">
     <g id="line2d_13">
      <g>
       <use style="stroke:#000000;stroke-width:0.8;" x="440.415" xlink:href="#ma54d682875" y="136.24"/>
      </g>
     </g>
     <g id="text_14">
      <!-- 255 -->
      <g transform="translate(430.87125 150.838437)scale(0.1 -0.1)">
       <use xlink:href="#DejaVuSans-50"/>
       <use x="63.623047" xlink:href="#DejaVuSans-53"/>
       <use x="127.246094" xlink:href="#DejaVuSans-53"/>
      </g>
     </g>
    </g>
    <g id="text_15">
     <!-- gray value -->
     <g transform="translate(340.1925 164.516562)scale(0.1 -0.1)">
      <use xlink:href="#DejaVuSans-103"/>
      <use x="63.476562" xlink:href="#DejaVuSans-114"/>
      <use x="104.589844" xlink:href="#DejaVuSans-97"/>
      <use x="165.869141" xlink:href="#DejaVuSans-121"/>
      <use x="225.048828" xlink:href="#DejaVuSans-32"/>
      <use x="256.835938" xlink:href="#DejaVuSans-118"/>
      <use x="316.015625" xlink:href="#DejaVuSans-97"/>
      <use x="377.294922" xlink:href="#DejaVuSans-108"/>
      <use x="405.078125" xlink:href="#DejaVuSans-117"/>
      <use x="468.457031" xlink:href="#DejaVuSans-101"/>
     </g>
    </g>
   </g>
   <g id="matplotlib.axis_4">
    <g id="ytick_3">
     <g id="line2d_14">
      <g>
       <use style="stroke:#000000;stroke-width:0.8;" x="292.97" xlink:href="#mac990e3785" y="131.330026"/>
      </g>
     </g>
     <g id="text_16">
      <!-- −0.002 -->
      <defs>
       <path d="M 10.59375 35.5 
L 73.1875 35.5 
L 73.1875 27.203125 
L 10.59375 27.203125 
z
" id="DejaVuSans-8722"/>
      </defs>
      <g transform="translate(248.962188 135.129244)scale(0.1 -0.1)">
       <use xlink:href="#DejaVuSans-8722"/>
       <use x="83.789062" xlink:href="#DejaVuSans-48"/>
       <use x="147.412109" xlink:href="#DejaVuSans-46"/>
       <use x="179.199219" xlink:href="#DejaVuSans-48"/>
       <use x="242.822266" xlink:href="#DejaVuSans-48"/>
       <use x="306.445312" xlink:href="#DejaVuSans-50"/>
      </g>
     </g>
    </g>
    <g id="ytick_4">
     <g id="line2d_15">
      <g>
       <use style="stroke:#000000;stroke-width:0.8;" x="292.97" xlink:href="#mac990e3785" y="101.114217"/>
      </g>
     </g>
     <g id="text_17">
      <!-- 0.000 -->
      <g transform="translate(257.341875 104.913436)scale(0.1 -0.1)">
       <use xlink:href="#DejaVuSans-48"/>
       <use x="63.623047" xlink:href="#DejaVuSans-46"/>
       <use x="95.410156" xlink:href="#DejaVuSans-48"/>
       <use x="159.033203" xlink:href="#DejaVuSans-48"/>
       <use x="222.65625" xlink:href="#DejaVuSans-48"/>
      </g>
     </g>
    </g>
    <g id="ytick_5">
     <g id="line2d_16">
      <g>
       <use style="stroke:#000000;stroke-width:0.8;" x="292.97" xlink:href="#mac990e3785" y="70.898409"/>
      </g>
     </g>
     <g id="text_18">
      <!-- 0.002 -->
      <g transform="translate(257.341875 74.697628)scale(0.1 -0.1)">
       <use xlink:href="#DejaVuSans-48"/>
       <use x="63.623047" xlink:href="#DejaVuSans-46"/>
       <use x="95.410156" xlink:href="#DejaVuSans-48"/>
       <use x="159.033203" xlink:href="#DejaVuSans-48"/>
       <use x="222.65625" xlink:href="#DejaVuSans-50"/>
      </g>
     </g>
    </g>
    <g id="ytick_6">
     <g id="line2d_17">
      <g>
       <use style="stroke:#000000;stroke-width:0.8;" x="292.97" xlink:href="#mac990e3785" y="40.682601"/>
      </g>
     </g>
     <g id="text_19">
      <!-- 0.004 -->
      <defs>
       <path d="M 37.796875 64.3125 
L 12.890625 25.390625 
L 37.796875 25.390625 
z
M 35.203125 72.90625 
L 47.609375 72.90625 
L 47.609375 25.390625 
L 58.015625 25.390625 
L 58.015625 17.1875 
L 47.609375 17.1875 
L 47.609375 0 
L 37.796875 0 
L 37.796875 17.1875 
L 4.890625 17.1875 
L 4.890625 26.703125 
z
" id="DejaVuSans-52"/>
      </defs>
      <g transform="translate(257.341875 44.481819)scale(0.1 -0.1)">
       <use xlink:href="#DejaVuSans-48"/>
       <use x="63.623047" xlink:href="#DejaVuSans-46"/>
       <use x="95.410156" xlink:href="#DejaVuSans-48"/>
       <use x="159.033203" xlink:href="#DejaVuSans-48"/>
       <use x="222.65625" xlink:href="#DejaVuSans-52"/>
      </g>
     </g>
    </g>
    <g id="text_20">
     <!-- pixel freq difference -->
     <g transform="translate(242.8825 130.978281)rotate(-90)scale(0.1 -0.1)">
      <use xlink:href="#DejaVuSans-112"/>
      <use x="63.476562" xlink:href="#DejaVuSans-105"/>
      <use x="91.259766" xlink:href="#DejaVuSans-120"/>
      <use x="147.314453" xlink:href="#DejaVuSans-101"/>
      <use x="208.837891" xlink:href="#DejaVuSans-108"/>
      <use x="236.621094" xlink:href="#DejaVuSans-32"/>
      <use x="268.408203" xlink:href="#DejaVuSans-102"/>
      <use x="303.613281" xlink:href="#DejaVuSans-114"/>
      <use x="342.476562" xlink:href="#DejaVuSans-101"/>
      <use x="404" xlink:href="#DejaVuSans-113"/>
      <use x="467.476562" xlink:href="#DejaVuSans-32"/>
      <use x="499.263672" xlink:href="#DejaVuSans-100"/>
      <use x="562.740234" xlink:href="#DejaVuSans-105"/>
      <use x="590.523438" xlink:href="#DejaVuSans-102"/>
      <use x="625.728516" xlink:href="#DejaVuSans-102"/>
      <use x="660.933594" xlink:href="#DejaVuSans-101"/>
      <use x="722.457031" xlink:href="#DejaVuSans-114"/>
      <use x="761.320312" xlink:href="#DejaVuSans-101"/>
      <use x="822.84375" xlink:href="#DejaVuSans-110"/>
      <use x="886.222656" xlink:href="#DejaVuSans-99"/>
      <use x="941.203125" xlink:href="#DejaVuSans-101"/>
     </g>
    </g>
   </g>
   <g id="line2d_18">
    <path clip-path="url(#p7859e13248)" d="M 292.97 30.476364 
L 293.548216 52.981386 
L 294.126431 82.910132 
L 294.704647 95.37615 
L 295.282863 101.629277 
L 295.861078 103.23167 
L 296.439294 103.269085 
L 297.595725 102.249054 
L 298.173941 102.010499 
L 298.752157 102.024867 
L 299.908588 102.411595 
L 300.486804 102.660474 
L 301.643235 102.748576 
L 303.377882 102.459214 
L 303.956098 102.298641 
L 305.690745 102.070096 
L 308.581824 101.669874 
L 314.36398 101.332022 
L 346.165843 101.123065 
L 384.906294 101.11949 
L 406.87849 101.235981 
L 412.660647 101.32818 
L 416.129941 101.347637 
L 419.599235 101.437543 
L 421.912098 101.376657 
L 428.850686 101.700151 
L 430.585333 101.900261 
L 431.163549 101.875179 
L 432.898196 102.093614 
L 434.054627 102.124086 
L 434.632843 102.186363 
L 435.211059 102.090696 
L 435.789275 102.297905 
L 436.36749 102.672835 
L 436.945706 103.597457 
L 437.523922 105.141684 
L 438.102137 107.950745 
L 439.258569 114.776361 
L 439.836784 115.562952 
L 440.415 131.203636 
L 440.415 131.203636 
" style="fill:none;stroke:#ff0000;stroke-linecap:square;stroke-width:1.5;"/>
   </g>
   <g id="patch_9">
    <path d="M 292.97 136.24 
L 292.97 25.44 
" style="fill:none;stroke:#000000;stroke-linecap:square;stroke-linejoin:miter;stroke-width:0.8;"/>
   </g>
   <g id="patch_10">
    <path d="M 440.415 136.24 
L 440.415 25.44 
" style="fill:none;stroke:#000000;stroke-linecap:square;stroke-linejoin:miter;stroke-width:0.8;"/>
   </g>
   <g id="patch_11">
    <path d="M 292.97 136.24 
L 440.415 136.24 
" style="fill:none;stroke:#000000;stroke-linecap:square;stroke-linejoin:miter;stroke-width:0.8;"/>
   </g>
   <g id="patch_12">
    <path d="M 292.97 25.44 
L 440.415 25.44 
" style="fill:none;stroke:#000000;stroke-linecap:square;stroke-linejoin:miter;stroke-width:0.8;"/>
   </g>
   <g id="text_21">
    <!-- DFD-cH/ -->
    <defs>
     <path d="M 9.8125 72.90625 
L 19.671875 72.90625 
L 19.671875 43.015625 
L 55.515625 43.015625 
L 55.515625 72.90625 
L 65.375 72.90625 
L 65.375 0 
L 55.515625 0 
L 55.515625 34.71875 
L 19.671875 34.71875 
L 19.671875 0 
L 9.8125 0 
z
" id="DejaVuSans-72"/>
    </defs>
    <g transform="translate(342.004375 19.44)scale(0.12 -0.12)">
     <use xlink:href="#DejaVuSans-68"/>
     <use x="77.001953" xlink:href="#DejaVuSans-70"/>
     <use x="134.521484" xlink:href="#DejaVuSans-68"/>
     <use x="211.523438" xlink:href="#DejaVuSans-45"/>
     <use x="247.607422" xlink:href="#DejaVuSans-99"/>
     <use x="302.587891" xlink:href="#DejaVuSans-72"/>
     <use x="377.783203" xlink:href="#DejaVuSans-47"/>
    </g>
   </g>
   <g id="legend_2">
    <g id="patch_13">
     <path d="M 385.247813 48.118125 
L 433.415 48.118125 
Q 435.415 48.118125 435.415 46.118125 
L 435.415 32.44 
Q 435.415 30.44 433.415 30.44 
L 385.247813 30.44 
Q 383.247813 30.44 383.247813 32.44 
L 383.247813 46.118125 
Q 383.247813 48.118125 385.247813 48.118125 
z
" style="fill:#ffffff;opacity:0.8;stroke:#cccccc;stroke-linejoin:miter;"/>
    </g>
    <g id="line2d_19">
     <path d="M 387.247813 38.538438 
L 407.247813 38.538438 
" style="fill:none;stroke:#ff0000;stroke-linecap:square;stroke-width:1.5;"/>
    </g>
    <g id="line2d_20"/>
    <g id="text_22">
     <!-- diff -->
     <g transform="translate(415.247813 42.038438)scale(0.1 -0.1)">
      <use xlink:href="#DejaVuSans-100"/>
      <use x="63.476562" xlink:href="#DejaVuSans-105"/>
      <use x="91.259766" xlink:href="#DejaVuSans-102"/>
      <use x="126.464844" xlink:href="#DejaVuSans-102"/>
     </g>
    </g>
   </g>
  </g>
  <g id="axes_3">
   <g id="patch_14">
    <path d="M 66.98 303.64 
L 214.425 303.64 
L 214.425 192.84 
L 66.98 192.84 
z
" style="fill:#ffffff;"/>
   </g>
   <g id="matplotlib.axis_5">
    <g id="xtick_9">
     <g id="line2d_21">
      <g>
       <use style="stroke:#000000;stroke-width:0.8;" x="66.98" xlink:href="#ma54d682875" y="303.64"/>
      </g>
     </g>
     <g id="text_23">
      <!-- 0 -->
      <g transform="translate(63.79875 318.238437)scale(0.1 -0.1)">
       <use xlink:href="#DejaVuSans-48"/>
      </g>
     </g>
    </g>
    <g id="xtick_10">
     <g id="line2d_22">
      <g>
       <use style="stroke:#000000;stroke-width:0.8;" x="116.128333" xlink:href="#ma54d682875" y="303.64"/>
      </g>
     </g>
     <g id="text_24">
      <!-- 85 -->
      <g transform="translate(109.765833 318.238437)scale(0.1 -0.1)">
       <use xlink:href="#DejaVuSans-56"/>
       <use x="63.623047" xlink:href="#DejaVuSans-53"/>
      </g>
     </g>
    </g>
    <g id="xtick_11">
     <g id="line2d_23">
      <g>
       <use style="stroke:#000000;stroke-width:0.8;" x="165.276667" xlink:href="#ma54d682875" y="303.64"/>
      </g>
     </g>
     <g id="text_25">
      <!-- 170 -->
      <g transform="translate(155.732917 318.238437)scale(0.1 -0.1)">
       <use xlink:href="#DejaVuSans-49"/>
       <use x="63.623047" xlink:href="#DejaVuSans-55"/>
       <use x="127.246094" xlink:href="#DejaVuSans-48"/>
      </g>
     </g>
    </g>
    <g id="xtick_12">
     <g id="line2d_24">
      <g>
       <use style="stroke:#000000;stroke-width:0.8;" x="214.425" xlink:href="#ma54d682875" y="303.64"/>
      </g>
     </g>
     <g id="text_26">
      <!-- 255 -->
      <g transform="translate(204.88125 318.238437)scale(0.1 -0.1)">
       <use xlink:href="#DejaVuSans-50"/>
       <use x="63.623047" xlink:href="#DejaVuSans-53"/>
       <use x="127.246094" xlink:href="#DejaVuSans-53"/>
      </g>
     </g>
    </g>
    <g id="text_27">
     <!-- gray value -->
     <g transform="translate(114.2025 331.916562)scale(0.1 -0.1)">
      <use xlink:href="#DejaVuSans-103"/>
      <use x="63.476562" xlink:href="#DejaVuSans-114"/>
      <use x="104.589844" xlink:href="#DejaVuSans-97"/>
      <use x="165.869141" xlink:href="#DejaVuSans-121"/>
      <use x="225.048828" xlink:href="#DejaVuSans-32"/>
      <use x="256.835938" xlink:href="#DejaVuSans-118"/>
      <use x="316.015625" xlink:href="#DejaVuSans-97"/>
      <use x="377.294922" xlink:href="#DejaVuSans-108"/>
      <use x="405.078125" xlink:href="#DejaVuSans-117"/>
      <use x="468.457031" xlink:href="#DejaVuSans-101"/>
     </g>
    </g>
   </g>
   <g id="matplotlib.axis_6">
    <g id="ytick_7">
     <g id="line2d_25">
      <g>
       <use style="stroke:#000000;stroke-width:0.8;" x="66.98" xlink:href="#mac990e3785" y="284.410737"/>
      </g>
     </g>
     <g id="text_28">
      <!-- 0.000 -->
      <g transform="translate(31.351875 288.209955)scale(0.1 -0.1)">
       <use xlink:href="#DejaVuSans-48"/>
       <use x="63.623047" xlink:href="#DejaVuSans-46"/>
       <use x="95.410156" xlink:href="#DejaVuSans-48"/>
       <use x="159.033203" xlink:href="#DejaVuSans-48"/>
       <use x="222.65625" xlink:href="#DejaVuSans-48"/>
      </g>
     </g>
    </g>
    <g id="ytick_8">
     <g id="line2d_26">
      <g>
       <use style="stroke:#000000;stroke-width:0.8;" x="66.98" xlink:href="#mac990e3785" y="250.222831"/>
      </g>
     </g>
     <g id="text_29">
      <!-- 0.002 -->
      <g transform="translate(31.351875 254.02205)scale(0.1 -0.1)">
       <use xlink:href="#DejaVuSans-48"/>
       <use x="63.623047" xlink:href="#DejaVuSans-46"/>
       <use x="95.410156" xlink:href="#DejaVuSans-48"/>
       <use x="159.033203" xlink:href="#DejaVuSans-48"/>
       <use x="222.65625" xlink:href="#DejaVuSans-50"/>
      </g>
     </g>
    </g>
    <g id="ytick_9">
     <g id="line2d_27">
      <g>
       <use style="stroke:#000000;stroke-width:0.8;" x="66.98" xlink:href="#mac990e3785" y="216.034926"/>
      </g>
     </g>
     <g id="text_30">
      <!-- 0.004 -->
      <g transform="translate(31.351875 219.834145)scale(0.1 -0.1)">
       <use xlink:href="#DejaVuSans-48"/>
       <use x="63.623047" xlink:href="#DejaVuSans-46"/>
       <use x="95.410156" xlink:href="#DejaVuSans-48"/>
       <use x="159.033203" xlink:href="#DejaVuSans-48"/>
       <use x="222.65625" xlink:href="#DejaVuSans-52"/>
      </g>
     </g>
    </g>
    <g id="text_31">
     <!-- pixel freq difference -->
     <g transform="translate(25.272188 298.378281)rotate(-90)scale(0.1 -0.1)">
      <use xlink:href="#DejaVuSans-112"/>
      <use x="63.476562" xlink:href="#DejaVuSans-105"/>
      <use x="91.259766" xlink:href="#DejaVuSans-120"/>
      <use x="147.314453" xlink:href="#DejaVuSans-101"/>
      <use x="208.837891" xlink:href="#DejaVuSans-108"/>
      <use x="236.621094" xlink:href="#DejaVuSans-32"/>
      <use x="268.408203" xlink:href="#DejaVuSans-102"/>
      <use x="303.613281" xlink:href="#DejaVuSans-114"/>
      <use x="342.476562" xlink:href="#DejaVuSans-101"/>
      <use x="404" xlink:href="#DejaVuSans-113"/>
      <use x="467.476562" xlink:href="#DejaVuSans-32"/>
      <use x="499.263672" xlink:href="#DejaVuSans-100"/>
      <use x="562.740234" xlink:href="#DejaVuSans-105"/>
      <use x="590.523438" xlink:href="#DejaVuSans-102"/>
      <use x="625.728516" xlink:href="#DejaVuSans-102"/>
      <use x="660.933594" xlink:href="#DejaVuSans-101"/>
      <use x="722.457031" xlink:href="#DejaVuSans-114"/>
      <use x="761.320312" xlink:href="#DejaVuSans-101"/>
      <use x="822.84375" xlink:href="#DejaVuSans-110"/>
      <use x="886.222656" xlink:href="#DejaVuSans-99"/>
      <use x="941.203125" xlink:href="#DejaVuSans-101"/>
     </g>
    </g>
   </g>
   <g id="line2d_28">
    <path clip-path="url(#pf9994e1eee)" d="M 66.98 197.876364 
L 67.558216 233.202572 
L 68.714647 279.852871 
L 69.292863 291.076144 
L 69.871078 295.120057 
L 70.449294 294.753571 
L 71.02751 293.325612 
L 71.605725 291.582583 
L 72.183941 290.223058 
L 72.762157 289.232452 
L 73.918588 287.856136 
L 75.07502 286.813998 
L 77.966098 285.7102 
L 82.013608 285.095747 
L 83.170039 284.884374 
L 85.482902 284.703101 
L 90.686843 284.744413 
L 98.203647 284.502933 
L 172.215255 284.415568 
L 192.452804 284.430621 
L 195.922098 284.41403 
L 197.656745 284.506601 
L 201.704255 284.750114 
L 205.173549 285.022374 
L 206.908196 285.380298 
L 207.486412 285.837299 
L 208.064627 286.055575 
L 209.221059 287.087874 
L 210.37749 290.057859 
L 212.112137 298.253122 
L 212.690353 298.603636 
L 213.268569 295.963367 
L 213.846784 290.226364 
L 214.425 270.831244 
L 214.425 270.831244 
" style="fill:none;stroke:#ff0000;stroke-linecap:square;stroke-width:1.5;"/>
   </g>
   <g id="patch_15">
    <path d="M 66.98 303.64 
L 66.98 192.84 
" style="fill:none;stroke:#000000;stroke-linecap:square;stroke-linejoin:miter;stroke-width:0.8;"/>
   </g>
   <g id="patch_16">
    <path d="M 214.425 303.64 
L 214.425 192.84 
" style="fill:none;stroke:#000000;stroke-linecap:square;stroke-linejoin:miter;stroke-width:0.8;"/>
   </g>
   <g id="patch_17">
    <path d="M 66.98 303.64 
L 214.425 303.64 
" style="fill:none;stroke:#000000;stroke-linecap:square;stroke-linejoin:miter;stroke-width:0.8;"/>
   </g>
   <g id="patch_18">
    <path d="M 66.98 192.84 
L 214.425 192.84 
" style="fill:none;stroke:#000000;stroke-linecap:square;stroke-linejoin:miter;stroke-width:0.8;"/>
   </g>
   <g id="text_32">
    <!-- DFD-cV/ -->
    <defs>
     <path d="M 28.609375 0 
L 0.78125 72.90625 
L 11.078125 72.90625 
L 34.1875 11.53125 
L 57.328125 72.90625 
L 67.578125 72.90625 
L 39.796875 0 
z
" id="DejaVuSans-86"/>
    </defs>
    <g transform="translate(116.422187 186.84)scale(0.12 -0.12)">
     <use xlink:href="#DejaVuSans-68"/>
     <use x="77.001953" xlink:href="#DejaVuSans-70"/>
     <use x="134.521484" xlink:href="#DejaVuSans-68"/>
     <use x="211.523438" xlink:href="#DejaVuSans-45"/>
     <use x="247.607422" xlink:href="#DejaVuSans-99"/>
     <use x="302.587891" xlink:href="#DejaVuSans-86"/>
     <use x="370.996094" xlink:href="#DejaVuSans-47"/>
    </g>
   </g>
   <g id="legend_3">
    <g id="patch_19">
     <path d="M 159.257812 215.518125 
L 207.425 215.518125 
Q 209.425 215.518125 209.425 213.518125 
L 209.425 199.84 
Q 209.425 197.84 207.425 197.84 
L 159.257812 197.84 
Q 157.257812 197.84 157.257812 199.84 
L 157.257812 213.518125 
Q 157.257812 215.518125 159.257812 215.518125 
z
" style="fill:#ffffff;opacity:0.8;stroke:#cccccc;stroke-linejoin:miter;"/>
    </g>
    <g id="line2d_29">
     <path d="M 161.257812 205.938437 
L 181.257812 205.938437 
" style="fill:none;stroke:#ff0000;stroke-linecap:square;stroke-width:1.5;"/>
    </g>
    <g id="line2d_30"/>
    <g id="text_33">
     <!-- diff -->
     <g transform="translate(189.257812 209.438437)scale(0.1 -0.1)">
      <use xlink:href="#DejaVuSans-100"/>
      <use x="63.476562" xlink:href="#DejaVuSans-105"/>
      <use x="91.259766" xlink:href="#DejaVuSans-102"/>
      <use x="126.464844" xlink:href="#DejaVuSans-102"/>
     </g>
    </g>
   </g>
  </g>
  <g id="axes_4">
   <g id="patch_20">
    <path d="M 292.97 303.64 
L 440.415 303.64 
L 440.415 192.84 
L 292.97 192.84 
z
" style="fill:#ffffff;"/>
   </g>
   <g id="matplotlib.axis_7">
    <g id="xtick_13">
     <g id="line2d_31">
      <g>
       <use style="stroke:#000000;stroke-width:0.8;" x="292.97" xlink:href="#ma54d682875" y="303.64"/>
      </g>
     </g>
     <g id="text_34">
      <!-- 0 -->
      <g transform="translate(289.78875 318.238437)scale(0.1 -0.1)">
       <use xlink:href="#DejaVuSans-48"/>
      </g>
     </g>
    </g>
    <g id="xtick_14">
     <g id="line2d_32">
      <g>
       <use style="stroke:#000000;stroke-width:0.8;" x="342.118333" xlink:href="#ma54d682875" y="303.64"/>
      </g>
     </g>
     <g id="text_35">
      <!-- 85 -->
      <g transform="translate(335.755833 318.238437)scale(0.1 -0.1)">
       <use xlink:href="#DejaVuSans-56"/>
       <use x="63.623047" xlink:href="#DejaVuSans-53"/>
      </g>
     </g>
    </g>
    <g id="xtick_15">
     <g id="line2d_33">
      <g>
       <use style="stroke:#000000;stroke-width:0.8;" x="391.266667" xlink:href="#ma54d682875" y="303.64"/>
      </g>
     </g>
     <g id="text_36">
      <!-- 170 -->
      <g transform="translate(381.722917 318.238437)scale(0.1 -0.1)">
       <use xlink:href="#DejaVuSans-49"/>
       <use x="63.623047" xlink:href="#DejaVuSans-55"/>
       <use x="127.246094" xlink:href="#DejaVuSans-48"/>
      </g>
     </g>
    </g>
    <g id="xtick_16">
     <g id="line2d_34">
      <g>
       <use style="stroke:#000000;stroke-width:0.8;" x="440.415" xlink:href="#ma54d682875" y="303.64"/>
      </g>
     </g>
     <g id="text_37">
      <!-- 255 -->
      <g transform="translate(430.87125 318.238437)scale(0.1 -0.1)">
       <use xlink:href="#DejaVuSans-50"/>
       <use x="63.623047" xlink:href="#DejaVuSans-53"/>
       <use x="127.246094" xlink:href="#DejaVuSans-53"/>
      </g>
     </g>
    </g>
    <g id="text_38">
     <!-- gray value -->
     <g transform="translate(340.1925 331.916562)scale(0.1 -0.1)">
      <use xlink:href="#DejaVuSans-103"/>
      <use x="63.476562" xlink:href="#DejaVuSans-114"/>
      <use x="104.589844" xlink:href="#DejaVuSans-97"/>
      <use x="165.869141" xlink:href="#DejaVuSans-121"/>
      <use x="225.048828" xlink:href="#DejaVuSans-32"/>
      <use x="256.835938" xlink:href="#DejaVuSans-118"/>
      <use x="316.015625" xlink:href="#DejaVuSans-97"/>
      <use x="377.294922" xlink:href="#DejaVuSans-108"/>
      <use x="405.078125" xlink:href="#DejaVuSans-117"/>
      <use x="468.457031" xlink:href="#DejaVuSans-101"/>
     </g>
    </g>
   </g>
   <g id="matplotlib.axis_8">
    <g id="ytick_10">
     <g id="line2d_35">
      <g>
       <use style="stroke:#000000;stroke-width:0.8;" x="292.97" xlink:href="#mac990e3785" y="281.507574"/>
      </g>
     </g>
     <g id="text_39">
      <!-- 0.00 -->
      <g transform="translate(263.704375 285.306793)scale(0.1 -0.1)">
       <use xlink:href="#DejaVuSans-48"/>
       <use x="63.623047" xlink:href="#DejaVuSans-46"/>
       <use x="95.410156" xlink:href="#DejaVuSans-48"/>
       <use x="159.033203" xlink:href="#DejaVuSans-48"/>
      </g>
     </g>
    </g>
    <g id="ytick_11">
     <g id="line2d_36">
      <g>
       <use style="stroke:#000000;stroke-width:0.8;" x="292.97" xlink:href="#mac990e3785" y="245.050395"/>
      </g>
     </g>
     <g id="text_40">
      <!-- 0.02 -->
      <g transform="translate(263.704375 248.849614)scale(0.1 -0.1)">
       <use xlink:href="#DejaVuSans-48"/>
       <use x="63.623047" xlink:href="#DejaVuSans-46"/>
       <use x="95.410156" xlink:href="#DejaVuSans-48"/>
       <use x="159.033203" xlink:href="#DejaVuSans-50"/>
      </g>
     </g>
    </g>
    <g id="ytick_12">
     <g id="line2d_37">
      <g>
       <use style="stroke:#000000;stroke-width:0.8;" x="292.97" xlink:href="#mac990e3785" y="208.593215"/>
      </g>
     </g>
     <g id="text_41">
      <!-- 0.04 -->
      <g transform="translate(263.704375 212.392434)scale(0.1 -0.1)">
       <use xlink:href="#DejaVuSans-48"/>
       <use x="63.623047" xlink:href="#DejaVuSans-46"/>
       <use x="95.410156" xlink:href="#DejaVuSans-48"/>
       <use x="159.033203" xlink:href="#DejaVuSans-52"/>
      </g>
     </g>
    </g>
    <g id="text_42">
     <!-- pixel freq difference -->
     <g transform="translate(257.624688 298.378281)rotate(-90)scale(0.1 -0.1)">
      <use xlink:href="#DejaVuSans-112"/>
      <use x="63.476562" xlink:href="#DejaVuSans-105"/>
      <use x="91.259766" xlink:href="#DejaVuSans-120"/>
      <use x="147.314453" xlink:href="#DejaVuSans-101"/>
      <use x="208.837891" xlink:href="#DejaVuSans-108"/>
      <use x="236.621094" xlink:href="#DejaVuSans-32"/>
      <use x="268.408203" xlink:href="#DejaVuSans-102"/>
      <use x="303.613281" xlink:href="#DejaVuSans-114"/>
      <use x="342.476562" xlink:href="#DejaVuSans-101"/>
      <use x="404" xlink:href="#DejaVuSans-113"/>
      <use x="467.476562" xlink:href="#DejaVuSans-32"/>
      <use x="499.263672" xlink:href="#DejaVuSans-100"/>
      <use x="562.740234" xlink:href="#DejaVuSans-105"/>
      <use x="590.523438" xlink:href="#DejaVuSans-102"/>
      <use x="625.728516" xlink:href="#DejaVuSans-102"/>
      <use x="660.933594" xlink:href="#DejaVuSans-101"/>
      <use x="722.457031" xlink:href="#DejaVuSans-114"/>
      <use x="761.320312" xlink:href="#DejaVuSans-101"/>
      <use x="822.84375" xlink:href="#DejaVuSans-110"/>
      <use x="886.222656" xlink:href="#DejaVuSans-99"/>
      <use x="941.203125" xlink:href="#DejaVuSans-101"/>
     </g>
    </g>
   </g>
   <g id="line2d_38">
    <path clip-path="url(#pe8f2076b32)" d="M 292.97 197.876364 
L 293.548216 294.008448 
L 294.126431 292.411954 
L 295.282863 286.502528 
L 295.861078 284.345845 
L 296.439294 283.146107 
L 297.01751 282.467825 
L 297.595725 282.098766 
L 298.752157 281.763908 
L 300.486804 281.59889 
L 305.690745 281.519223 
L 339.227255 281.507592 
L 433.476412 281.600497 
L 435.211059 281.758399 
L 436.36749 282.087832 
L 436.945706 282.424747 
L 437.523922 283.033258 
L 438.102137 283.987414 
L 439.836784 288.069609 
L 440.415 298.603636 
L 440.415 298.603636 
" style="fill:none;stroke:#ff0000;stroke-linecap:square;stroke-width:1.5;"/>
   </g>
   <g id="patch_21">
    <path d="M 292.97 303.64 
L 292.97 192.84 
" style="fill:none;stroke:#000000;stroke-linecap:square;stroke-linejoin:miter;stroke-width:0.8;"/>
   </g>
   <g id="patch_22">
    <path d="M 440.415 303.64 
L 440.415 192.84 
" style="fill:none;stroke:#000000;stroke-linecap:square;stroke-linejoin:miter;stroke-width:0.8;"/>
   </g>
   <g id="patch_23">
    <path d="M 292.97 303.64 
L 440.415 303.64 
" style="fill:none;stroke:#000000;stroke-linecap:square;stroke-linejoin:miter;stroke-width:0.8;"/>
   </g>
   <g id="patch_24">
    <path d="M 292.97 192.84 
L 440.415 192.84 
" style="fill:none;stroke:#000000;stroke-linecap:square;stroke-linejoin:miter;stroke-width:0.8;"/>
   </g>
   <g id="text_43">
    <!-- DFD-cD/ -->
    <g transform="translate(341.896563 186.84)scale(0.12 -0.12)">
     <use xlink:href="#DejaVuSans-68"/>
     <use x="77.001953" xlink:href="#DejaVuSans-70"/>
     <use x="134.521484" xlink:href="#DejaVuSans-68"/>
     <use x="211.523438" xlink:href="#DejaVuSans-45"/>
     <use x="247.607422" xlink:href="#DejaVuSans-99"/>
     <use x="302.587891" xlink:href="#DejaVuSans-68"/>
     <use x="379.589844" xlink:href="#DejaVuSans-47"/>
    </g>
   </g>
   <g id="legend_4">
    <g id="patch_25">
     <path d="M 385.247813 215.518125 
L 433.415 215.518125 
Q 435.415 215.518125 435.415 213.518125 
L 435.415 199.84 
Q 435.415 197.84 433.415 197.84 
L 385.247813 197.84 
Q 383.247813 197.84 383.247813 199.84 
L 383.247813 213.518125 
Q 383.247813 215.518125 385.247813 215.518125 
z
" style="fill:#ffffff;opacity:0.8;stroke:#cccccc;stroke-linejoin:miter;"/>
    </g>
    <g id="line2d_39">
     <path d="M 387.247813 205.938437 
L 407.247813 205.938437 
" style="fill:none;stroke:#ff0000;stroke-linecap:square;stroke-width:1.5;"/>
    </g>
    <g id="line2d_40"/>
    <g id="text_44">
     <!-- diff -->
     <g transform="translate(415.247813 209.438437)scale(0.1 -0.1)">
      <use xlink:href="#DejaVuSans-100"/>
      <use x="63.476562" xlink:href="#DejaVuSans-105"/>
      <use x="91.259766" xlink:href="#DejaVuSans-102"/>
      <use x="126.464844" xlink:href="#DejaVuSans-102"/>
     </g>
    </g>
   </g>
  </g>
 </g>
 <defs>
  <clipPath id="peea7c17a90">
   <rect height="110.8" width="147.445" x="66.98" y="25.44"/>
  </clipPath>
  <clipPath id="p7859e13248">
   <rect height="110.8" width="147.445" x="292.97" y="25.44"/>
  </clipPath>
  <clipPath id="pf9994e1eee">
   <rect height="110.8" width="147.445" x="66.98" y="192.84"/>
  </clipPath>
  <clipPath id="pe8f2076b32">
   <rect height="110.8" width="147.445" x="292.97" y="192.84"/>
  </clipPath>
 </defs>
</svg>
