<?xml version="1.0" encoding="utf-8" standalone="no"?>
<!DOCTYPE svg PUBLIC "-//W3C//DTD SVG 1.1//EN"
  "http://www.w3.org/Graphics/SVG/1.1/DTD/svg11.dtd">
<!-- Created with matplotlib (https://matplotlib.org/) -->
<svg height="345.6pt" version="1.1" viewBox="0 0 460.8 345.6" width="460.8pt" xmlns="http://www.w3.org/2000/svg" xmlns:xlink="http://www.w3.org/1999/xlink">
 <defs>
  <style type="text/css">
*{stroke-linecap:butt;stroke-linejoin:round;}
  </style>
 </defs>
 <g id="figure_1">
  <g id="patch_1">
   <path d="M 0 345.6 
L 460.8 345.6 
L 460.8 0 
L 0 0 
z
" style="fill:#ffffff;"/>
  </g>
  <g id="axes_1">
   <g id="patch_2">
    <path d="M 66.98 136.24 
L 225 136.24 
L 225 25.44 
L 66.98 25.44 
z
" style="fill:#ffffff;"/>
   </g>
   <g id="matplotlib.axis_1">
    <g id="xtick_1">
     <g id="line2d_1">
      <defs>
       <path d="M 0 0 
L 0 3.5 
" id="m33a4bd6ede" style="stroke:#000000;stroke-width:0.8;"/>
      </defs>
      <g>
       <use style="stroke:#000000;stroke-width:0.8;" x="66.98" xlink:href="#m33a4bd6ede" y="136.24"/>
      </g>
     </g>
     <g id="text_1">
      <!-- 0 -->
      <defs>
       <path d="M 31.78125 66.40625 
Q 24.171875 66.40625 20.328125 58.90625 
Q 16.5 51.421875 16.5 36.375 
Q 16.5 21.390625 20.328125 13.890625 
Q 24.171875 6.390625 31.78125 6.390625 
Q 39.453125 6.390625 43.28125 13.890625 
Q 47.125 21.390625 47.125 36.375 
Q 47.125 51.421875 43.28125 58.90625 
Q 39.453125 66.40625 31.78125 66.40625 
z
M 31.78125 74.21875 
Q 44.046875 74.21875 50.515625 64.515625 
Q 56.984375 54.828125 56.984375 36.375 
Q 56.984375 17.96875 50.515625 8.265625 
Q 44.046875 -1.421875 31.78125 -1.421875 
Q 19.53125 -1.421875 13.0625 8.265625 
Q 6.59375 17.96875 6.59375 36.375 
Q 6.59375 54.828125 13.0625 64.515625 
Q 19.53125 74.21875 31.78125 74.21875 
z
" id="DejaVuSans-48"/>
      </defs>
      <g transform="translate(63.79875 150.838437)scale(0.1 -0.1)">
       <use xlink:href="#DejaVuSans-48"/>
      </g>
     </g>
    </g>
    <g id="xtick_2">
     <g id="line2d_2">
      <g>
       <use style="stroke:#000000;stroke-width:0.8;" x="119.653333" xlink:href="#m33a4bd6ede" y="136.24"/>
      </g>
     </g>
     <g id="text_2">
      <!-- 85 -->
      <defs>
       <path d="M 31.78125 34.625 
Q 24.75 34.625 20.71875 30.859375 
Q 16.703125 27.09375 16.703125 20.515625 
Q 16.703125 13.921875 20.71875 10.15625 
Q 24.75 6.390625 31.78125 6.390625 
Q 38.8125 6.390625 42.859375 10.171875 
Q 46.921875 13.96875 46.921875 20.515625 
Q 46.921875 27.09375 42.890625 30.859375 
Q 38.875 34.625 31.78125 34.625 
z
M 21.921875 38.8125 
Q 15.578125 40.375 12.03125 44.71875 
Q 8.5 49.078125 8.5 55.328125 
Q 8.5 64.0625 14.71875 69.140625 
Q 20.953125 74.21875 31.78125 74.21875 
Q 42.671875 74.21875 48.875 69.140625 
Q 55.078125 64.0625 55.078125 55.328125 
Q 55.078125 49.078125 51.53125 44.71875 
Q 48 40.375 41.703125 38.8125 
Q 48.828125 37.15625 52.796875 32.3125 
Q 56.78125 27.484375 56.78125 20.515625 
Q 56.78125 9.90625 50.3125 4.234375 
Q 43.84375 -1.421875 31.78125 -1.421875 
Q 19.734375 -1.421875 13.25 4.234375 
Q 6.78125 9.90625 6.78125 20.515625 
Q 6.78125 27.484375 10.78125 32.3125 
Q 14.796875 37.15625 21.921875 38.8125 
z
M 18.3125 54.390625 
Q 18.3125 48.734375 21.84375 45.5625 
Q 25.390625 42.390625 31.78125 42.390625 
Q 38.140625 42.390625 41.71875 45.5625 
Q 45.3125 48.734375 45.3125 54.390625 
Q 45.3125 60.0625 41.71875 63.234375 
Q 38.140625 66.40625 31.78125 66.40625 
Q 25.390625 66.40625 21.84375 63.234375 
Q 18.3125 60.0625 18.3125 54.390625 
z
" id="DejaVuSans-56"/>
       <path d="M 10.796875 72.90625 
L 49.515625 72.90625 
L 49.515625 64.59375 
L 19.828125 64.59375 
L 19.828125 46.734375 
Q 21.96875 47.46875 24.109375 47.828125 
Q 26.265625 48.1875 28.421875 48.1875 
Q 40.625 48.1875 47.75 41.5 
Q 54.890625 34.8125 54.890625 23.390625 
Q 54.890625 11.625 47.5625 5.09375 
Q 40.234375 -1.421875 26.90625 -1.421875 
Q 22.3125 -1.421875 17.546875 -0.640625 
Q 12.796875 0.140625 7.71875 1.703125 
L 7.71875 11.625 
Q 12.109375 9.234375 16.796875 8.0625 
Q 21.484375 6.890625 26.703125 6.890625 
Q 35.15625 6.890625 40.078125 11.328125 
Q 45.015625 15.765625 45.015625 23.390625 
Q 45.015625 31 40.078125 35.4375 
Q 35.15625 39.890625 26.703125 39.890625 
Q 22.75 39.890625 18.8125 39.015625 
Q 14.890625 38.140625 10.796875 36.28125 
z
" id="DejaVuSans-53"/>
      </defs>
      <g transform="translate(113.290833 150.838437)scale(0.1 -0.1)">
       <use xlink:href="#DejaVuSans-56"/>
       <use x="63.623047" xlink:href="#DejaVuSans-53"/>
      </g>
     </g>
    </g>
    <g id="xtick_3">
     <g id="line2d_3">
      <g>
       <use style="stroke:#000000;stroke-width:0.8;" x="172.326667" xlink:href="#m33a4bd6ede" y="136.24"/>
      </g>
     </g>
     <g id="text_3">
      <!-- 170 -->
      <defs>
       <path d="M 12.40625 8.296875 
L 28.515625 8.296875 
L 28.515625 63.921875 
L 10.984375 60.40625 
L 10.984375 69.390625 
L 28.421875 72.90625 
L 38.28125 72.90625 
L 38.28125 8.296875 
L 54.390625 8.296875 
L 54.390625 0 
L 12.40625 0 
z
" id="DejaVuSans-49"/>
       <path d="M 8.203125 72.90625 
L 55.078125 72.90625 
L 55.078125 68.703125 
L 28.609375 0 
L 18.3125 0 
L 43.21875 64.59375 
L 8.203125 64.59375 
z
" id="DejaVuSans-55"/>
      </defs>
      <g transform="translate(162.782917 150.838437)scale(0.1 -0.1)">
       <use xlink:href="#DejaVuSans-49"/>
       <use x="63.623047" xlink:href="#DejaVuSans-55"/>
       <use x="127.246094" xlink:href="#DejaVuSans-48"/>
      </g>
     </g>
    </g>
    <g id="xtick_4">
     <g id="line2d_4">
      <g>
       <use style="stroke:#000000;stroke-width:0.8;" x="225" xlink:href="#m33a4bd6ede" y="136.24"/>
      </g>
     </g>
     <g id="text_4">
      <!-- 255 -->
      <defs>
       <path d="M 19.1875 8.296875 
L 53.609375 8.296875 
L 53.609375 0 
L 7.328125 0 
L 7.328125 8.296875 
Q 12.9375 14.109375 22.625 23.890625 
Q 32.328125 33.6875 34.8125 36.53125 
Q 39.546875 41.84375 41.421875 45.53125 
Q 43.3125 49.21875 43.3125 52.78125 
Q 43.3125 58.59375 39.234375 62.25 
Q 35.15625 65.921875 28.609375 65.921875 
Q 23.96875 65.921875 18.8125 64.3125 
Q 13.671875 62.703125 7.8125 59.421875 
L 7.8125 69.390625 
Q 13.765625 71.78125 18.9375 73 
Q 24.125 74.21875 28.421875 74.21875 
Q 39.75 74.21875 46.484375 68.546875 
Q 53.21875 62.890625 53.21875 53.421875 
Q 53.21875 48.921875 51.53125 44.890625 
Q 49.859375 40.875 45.40625 35.40625 
Q 44.1875 33.984375 37.640625 27.21875 
Q 31.109375 20.453125 19.1875 8.296875 
z
" id="DejaVuSans-50"/>
      </defs>
      <g transform="translate(215.45625 150.838437)scale(0.1 -0.1)">
       <use xlink:href="#DejaVuSans-50"/>
       <use x="63.623047" xlink:href="#DejaVuSans-53"/>
       <use x="127.246094" xlink:href="#DejaVuSans-53"/>
      </g>
     </g>
    </g>
    <g id="text_5">
     <!-- gray value -->
     <defs>
      <path d="M 45.40625 27.984375 
Q 45.40625 37.75 41.375 43.109375 
Q 37.359375 48.484375 30.078125 48.484375 
Q 22.859375 48.484375 18.828125 43.109375 
Q 14.796875 37.75 14.796875 27.984375 
Q 14.796875 18.265625 18.828125 12.890625 
Q 22.859375 7.515625 30.078125 7.515625 
Q 37.359375 7.515625 41.375 12.890625 
Q 45.40625 18.265625 45.40625 27.984375 
z
M 54.390625 6.78125 
Q 54.390625 -7.171875 48.1875 -13.984375 
Q 42 -20.796875 29.203125 -20.796875 
Q 24.46875 -20.796875 20.265625 -20.09375 
Q 16.0625 -19.390625 12.109375 -17.921875 
L 12.109375 -9.1875 
Q 16.0625 -11.328125 19.921875 -12.34375 
Q 23.78125 -13.375 27.78125 -13.375 
Q 36.625 -13.375 41.015625 -8.765625 
Q 45.40625 -4.15625 45.40625 5.171875 
L 45.40625 9.625 
Q 42.625 4.78125 38.28125 2.390625 
Q 33.9375 0 27.875 0 
Q 17.828125 0 11.671875 7.65625 
Q 5.515625 15.328125 5.515625 27.984375 
Q 5.515625 40.671875 11.671875 48.328125 
Q 17.828125 56 27.875 56 
Q 33.9375 56 38.28125 53.609375 
Q 42.625 51.21875 45.40625 46.390625 
L 45.40625 54.6875 
L 54.390625 54.6875 
z
" id="DejaVuSans-103"/>
      <path d="M 41.109375 46.296875 
Q 39.59375 47.171875 37.8125 47.578125 
Q 36.03125 48 33.890625 48 
Q 26.265625 48 22.1875 43.046875 
Q 18.109375 38.09375 18.109375 28.8125 
L 18.109375 0 
L 9.078125 0 
L 9.078125 54.6875 
L 18.109375 54.6875 
L 18.109375 46.1875 
Q 20.953125 51.171875 25.484375 53.578125 
Q 30.03125 56 36.53125 56 
Q 37.453125 56 38.578125 55.875 
Q 39.703125 55.765625 41.0625 55.515625 
z
" id="DejaVuSans-114"/>
      <path d="M 34.28125 27.484375 
Q 23.390625 27.484375 19.1875 25 
Q 14.984375 22.515625 14.984375 16.5 
Q 14.984375 11.71875 18.140625 8.90625 
Q 21.296875 6.109375 26.703125 6.109375 
Q 34.1875 6.109375 38.703125 11.40625 
Q 43.21875 16.703125 43.21875 25.484375 
L 43.21875 27.484375 
z
M 52.203125 31.203125 
L 52.203125 0 
L 43.21875 0 
L 43.21875 8.296875 
Q 40.140625 3.328125 35.546875 0.953125 
Q 30.953125 -1.421875 24.3125 -1.421875 
Q 15.921875 -1.421875 10.953125 3.296875 
Q 6 8.015625 6 15.921875 
Q 6 25.140625 12.171875 29.828125 
Q 18.359375 34.515625 30.609375 34.515625 
L 43.21875 34.515625 
L 43.21875 35.40625 
Q 43.21875 41.609375 39.140625 45 
Q 35.0625 48.390625 27.6875 48.390625 
Q 23 48.390625 18.546875 47.265625 
Q 14.109375 46.140625 10.015625 43.890625 
L 10.015625 52.203125 
Q 14.9375 54.109375 19.578125 55.046875 
Q 24.21875 56 28.609375 56 
Q 40.484375 56 46.34375 49.84375 
Q 52.203125 43.703125 52.203125 31.203125 
z
" id="DejaVuSans-97"/>
      <path d="M 32.171875 -5.078125 
Q 28.375 -14.84375 24.75 -17.8125 
Q 21.140625 -20.796875 15.09375 -20.796875 
L 7.90625 -20.796875 
L 7.90625 -13.28125 
L 13.1875 -13.28125 
Q 16.890625 -13.28125 18.9375 -11.515625 
Q 21 -9.765625 23.484375 -3.21875 
L 25.09375 0.875 
L 2.984375 54.6875 
L 12.5 54.6875 
L 29.59375 11.921875 
L 46.6875 54.6875 
L 56.203125 54.6875 
z
" id="DejaVuSans-121"/>
      <path id="DejaVuSans-32"/>
      <path d="M 2.984375 54.6875 
L 12.5 54.6875 
L 29.59375 8.796875 
L 46.6875 54.6875 
L 56.203125 54.6875 
L 35.6875 0 
L 23.484375 0 
z
" id="DejaVuSans-118"/>
      <path d="M 9.421875 75.984375 
L 18.40625 75.984375 
L 18.40625 0 
L 9.421875 0 
z
" id="DejaVuSans-108"/>
      <path d="M 8.5 21.578125 
L 8.5 54.6875 
L 17.484375 54.6875 
L 17.484375 21.921875 
Q 17.484375 14.15625 20.5 10.265625 
Q 23.53125 6.390625 29.59375 6.390625 
Q 36.859375 6.390625 41.078125 11.03125 
Q 45.3125 15.671875 45.3125 23.6875 
L 45.3125 54.6875 
L 54.296875 54.6875 
L 54.296875 0 
L 45.3125 0 
L 45.3125 8.40625 
Q 42.046875 3.421875 37.71875 1 
Q 33.40625 -1.421875 27.6875 -1.421875 
Q 18.265625 -1.421875 13.375 4.4375 
Q 8.5 10.296875 8.5 21.578125 
z
M 31.109375 56 
z
" id="DejaVuSans-117"/>
      <path d="M 56.203125 29.59375 
L 56.203125 25.203125 
L 14.890625 25.203125 
Q 15.484375 15.921875 20.484375 11.0625 
Q 25.484375 6.203125 34.421875 6.203125 
Q 39.59375 6.203125 44.453125 7.46875 
Q 49.3125 8.734375 54.109375 11.28125 
L 54.109375 2.78125 
Q 49.265625 0.734375 44.1875 -0.34375 
Q 39.109375 -1.421875 33.890625 -1.421875 
Q 20.796875 -1.421875 13.15625 6.1875 
Q 5.515625 13.8125 5.515625 26.8125 
Q 5.515625 40.234375 12.765625 48.109375 
Q 20.015625 56 32.328125 56 
Q 43.359375 56 49.78125 48.890625 
Q 56.203125 41.796875 56.203125 29.59375 
z
M 47.21875 32.234375 
Q 47.125 39.59375 43.09375 43.984375 
Q 39.0625 48.390625 32.421875 48.390625 
Q 24.90625 48.390625 20.390625 44.140625 
Q 15.875 39.890625 15.1875 32.171875 
z
" id="DejaVuSans-101"/>
     </defs>
     <g transform="translate(119.49 164.516562)scale(0.1 -0.1)">
      <use xlink:href="#DejaVuSans-103"/>
      <use x="63.476562" xlink:href="#DejaVuSans-114"/>
      <use x="104.589844" xlink:href="#DejaVuSans-97"/>
      <use x="165.869141" xlink:href="#DejaVuSans-121"/>
      <use x="225.048828" xlink:href="#DejaVuSans-32"/>
      <use x="256.835938" xlink:href="#DejaVuSans-118"/>
      <use x="316.015625" xlink:href="#DejaVuSans-97"/>
      <use x="377.294922" xlink:href="#DejaVuSans-108"/>
      <use x="405.078125" xlink:href="#DejaVuSans-117"/>
      <use x="468.457031" xlink:href="#DejaVuSans-101"/>
     </g>
    </g>
   </g>
   <g id="matplotlib.axis_2">
    <g id="ytick_1">
     <g id="line2d_5">
      <defs>
       <path d="M 0 0 
L -3.5 0 
" id="m2cb9247394" style="stroke:#000000;stroke-width:0.8;"/>
      </defs>
      <g>
       <use style="stroke:#000000;stroke-width:0.8;" x="66.98" xlink:href="#m2cb9247394" y="128.960375"/>
      </g>
     </g>
     <g id="text_6">
      <!-- 0.0025 -->
      <defs>
       <path d="M 10.6875 12.40625 
L 21 12.40625 
L 21 0 
L 10.6875 0 
z
" id="DejaVuSans-46"/>
      </defs>
      <g transform="translate(24.989375 132.759594)scale(0.1 -0.1)">
       <use xlink:href="#DejaVuSans-48"/>
       <use x="63.623047" xlink:href="#DejaVuSans-46"/>
       <use x="95.410156" xlink:href="#DejaVuSans-48"/>
       <use x="159.033203" xlink:href="#DejaVuSans-48"/>
       <use x="222.65625" xlink:href="#DejaVuSans-50"/>
       <use x="286.279297" xlink:href="#DejaVuSans-53"/>
      </g>
     </g>
    </g>
    <g id="ytick_2">
     <g id="line2d_6">
      <g>
       <use style="stroke:#000000;stroke-width:0.8;" x="66.98" xlink:href="#m2cb9247394" y="102.143519"/>
      </g>
     </g>
     <g id="text_7">
      <!-- 0.0050 -->
      <g transform="translate(24.989375 105.942738)scale(0.1 -0.1)">
       <use xlink:href="#DejaVuSans-48"/>
       <use x="63.623047" xlink:href="#DejaVuSans-46"/>
       <use x="95.410156" xlink:href="#DejaVuSans-48"/>
       <use x="159.033203" xlink:href="#DejaVuSans-48"/>
       <use x="222.65625" xlink:href="#DejaVuSans-53"/>
       <use x="286.279297" xlink:href="#DejaVuSans-48"/>
      </g>
     </g>
    </g>
    <g id="ytick_3">
     <g id="line2d_7">
      <g>
       <use style="stroke:#000000;stroke-width:0.8;" x="66.98" xlink:href="#m2cb9247394" y="75.326663"/>
      </g>
     </g>
     <g id="text_8">
      <!-- 0.0075 -->
      <g transform="translate(24.989375 79.125882)scale(0.1 -0.1)">
       <use xlink:href="#DejaVuSans-48"/>
       <use x="63.623047" xlink:href="#DejaVuSans-46"/>
       <use x="95.410156" xlink:href="#DejaVuSans-48"/>
       <use x="159.033203" xlink:href="#DejaVuSans-48"/>
       <use x="222.65625" xlink:href="#DejaVuSans-55"/>
       <use x="286.279297" xlink:href="#DejaVuSans-53"/>
      </g>
     </g>
    </g>
    <g id="ytick_4">
     <g id="line2d_8">
      <g>
       <use style="stroke:#000000;stroke-width:0.8;" x="66.98" xlink:href="#m2cb9247394" y="48.509807"/>
      </g>
     </g>
     <g id="text_9">
      <!-- 0.0100 -->
      <g transform="translate(24.989375 52.309026)scale(0.1 -0.1)">
       <use xlink:href="#DejaVuSans-48"/>
       <use x="63.623047" xlink:href="#DejaVuSans-46"/>
       <use x="95.410156" xlink:href="#DejaVuSans-48"/>
       <use x="159.033203" xlink:href="#DejaVuSans-49"/>
       <use x="222.65625" xlink:href="#DejaVuSans-48"/>
       <use x="286.279297" xlink:href="#DejaVuSans-48"/>
      </g>
     </g>
    </g>
    <g id="text_10">
     <!-- pixel freq -->
     <defs>
      <path d="M 18.109375 8.203125 
L 18.109375 -20.796875 
L 9.078125 -20.796875 
L 9.078125 54.6875 
L 18.109375 54.6875 
L 18.109375 46.390625 
Q 20.953125 51.265625 25.265625 53.625 
Q 29.59375 56 35.59375 56 
Q 45.5625 56 51.78125 48.09375 
Q 58.015625 40.1875 58.015625 27.296875 
Q 58.015625 14.40625 51.78125 6.484375 
Q 45.5625 -1.421875 35.59375 -1.421875 
Q 29.59375 -1.421875 25.265625 0.953125 
Q 20.953125 3.328125 18.109375 8.203125 
z
M 48.6875 27.296875 
Q 48.6875 37.203125 44.609375 42.84375 
Q 40.53125 48.484375 33.40625 48.484375 
Q 26.265625 48.484375 22.1875 42.84375 
Q 18.109375 37.203125 18.109375 27.296875 
Q 18.109375 17.390625 22.1875 11.75 
Q 26.265625 6.109375 33.40625 6.109375 
Q 40.53125 6.109375 44.609375 11.75 
Q 48.6875 17.390625 48.6875 27.296875 
z
" id="DejaVuSans-112"/>
      <path d="M 9.421875 54.6875 
L 18.40625 54.6875 
L 18.40625 0 
L 9.421875 0 
z
M 9.421875 75.984375 
L 18.40625 75.984375 
L 18.40625 64.59375 
L 9.421875 64.59375 
z
" id="DejaVuSans-105"/>
      <path d="M 54.890625 54.6875 
L 35.109375 28.078125 
L 55.90625 0 
L 45.3125 0 
L 29.390625 21.484375 
L 13.484375 0 
L 2.875 0 
L 24.125 28.609375 
L 4.6875 54.6875 
L 15.28125 54.6875 
L 29.78125 35.203125 
L 44.28125 54.6875 
z
" id="DejaVuSans-120"/>
      <path d="M 37.109375 75.984375 
L 37.109375 68.5 
L 28.515625 68.5 
Q 23.6875 68.5 21.796875 66.546875 
Q 19.921875 64.59375 19.921875 59.515625 
L 19.921875 54.6875 
L 34.71875 54.6875 
L 34.71875 47.703125 
L 19.921875 47.703125 
L 19.921875 0 
L 10.890625 0 
L 10.890625 47.703125 
L 2.296875 47.703125 
L 2.296875 54.6875 
L 10.890625 54.6875 
L 10.890625 58.5 
Q 10.890625 67.625 15.140625 71.796875 
Q 19.390625 75.984375 28.609375 75.984375 
z
" id="DejaVuSans-102"/>
      <path d="M 14.796875 27.296875 
Q 14.796875 17.390625 18.875 11.75 
Q 22.953125 6.109375 30.078125 6.109375 
Q 37.203125 6.109375 41.296875 11.75 
Q 45.40625 17.390625 45.40625 27.296875 
Q 45.40625 37.203125 41.296875 42.84375 
Q 37.203125 48.484375 30.078125 48.484375 
Q 22.953125 48.484375 18.875 42.84375 
Q 14.796875 37.203125 14.796875 27.296875 
z
M 45.40625 8.203125 
Q 42.578125 3.328125 38.25 0.953125 
Q 33.9375 -1.421875 27.875 -1.421875 
Q 17.96875 -1.421875 11.734375 6.484375 
Q 5.515625 14.40625 5.515625 27.296875 
Q 5.515625 40.1875 11.734375 48.09375 
Q 17.96875 56 27.875 56 
Q 33.9375 56 38.25 53.625 
Q 42.578125 51.265625 45.40625 46.390625 
L 45.40625 54.6875 
L 54.390625 54.6875 
L 54.390625 -20.796875 
L 45.40625 -20.796875 
z
" id="DejaVuSans-113"/>
     </defs>
     <g transform="translate(18.909688 104.215)rotate(-90)scale(0.1 -0.1)">
      <use xlink:href="#DejaVuSans-112"/>
      <use x="63.476562" xlink:href="#DejaVuSans-105"/>
      <use x="91.259766" xlink:href="#DejaVuSans-120"/>
      <use x="147.314453" xlink:href="#DejaVuSans-101"/>
      <use x="208.837891" xlink:href="#DejaVuSans-108"/>
      <use x="236.621094" xlink:href="#DejaVuSans-32"/>
      <use x="268.408203" xlink:href="#DejaVuSans-102"/>
      <use x="303.613281" xlink:href="#DejaVuSans-114"/>
      <use x="342.476562" xlink:href="#DejaVuSans-101"/>
      <use x="404" xlink:href="#DejaVuSans-113"/>
     </g>
    </g>
   </g>
   <g id="line2d_9">
    <path clip-path="url(#p4a019bae05)" d="M 66.98 34.825568 
L 67.599686 104.658051 
L 68.219373 100.459012 
L 68.839059 104.496939 
L 70.078431 110.490283 
L 71.317804 114.679918 
L 72.557176 116.871779 
L 73.796549 116.835083 
L 74.416235 116.11093 
L 75.035922 115.115866 
L 76.275294 111.704354 
L 76.89498 109.638218 
L 77.514667 108.881621 
L 78.134353 107.61121 
L 78.754039 108.250913 
L 79.373725 108.193693 
L 79.993412 109.775166 
L 80.613098 110.707961 
L 81.232784 112.125501 
L 81.852471 112.732638 
L 82.472157 113.080088 
L 83.091843 112.547629 
L 83.711529 111.710527 
L 85.570588 108.003184 
L 86.809961 106.644091 
L 88.049333 107.114526 
L 90.528078 110.836302 
L 91.147765 111.029775 
L 91.767451 110.470699 
L 92.387137 109.422585 
L 93.62651 106.412942 
L 94.246196 104.862379 
L 95.485569 103.283135 
L 96.105255 103.319482 
L 96.724941 103.077089 
L 97.344627 104.052672 
L 97.964314 104.472142 
L 98.584 106.142399 
L 99.823373 108.563794 
L 100.443059 108.030006 
L 101.062745 106.365432 
L 101.682431 104.356966 
L 102.302118 103.403933 
L 102.921804 102.149323 
L 103.54149 102.081166 
L 104.161176 101.48329 
L 104.780863 101.91936 
L 105.400549 101.548605 
L 106.020235 103.198235 
L 106.639922 104.462513 
L 107.259608 106.659894 
L 107.879294 107.991716 
L 108.49898 108.491977 
L 109.118667 107.618999 
L 109.738353 106.216852 
L 110.358039 104.538848 
L 110.977725 104.401041 
L 111.597412 104.475311 
L 112.217098 105.377748 
L 112.836784 105.765082 
L 114.076157 108.125393 
L 114.695843 109.786471 
L 115.935216 112.234952 
L 116.554902 112.713626 
L 117.174588 112.617605 
L 117.794275 111.824865 
L 118.413961 110.770373 
L 119.033647 109.370169 
L 120.27302 108.195758 
L 120.892706 108.844681 
L 121.512392 108.989152 
L 122.132078 110.092482 
L 122.751765 110.869624 
L 124.610824 114.118185 
L 125.850196 116.32965 
L 126.469882 116.766599 
L 127.089569 116.549106 
L 127.709255 115.881334 
L 128.328941 115.017494 
L 128.948627 113.66991 
L 129.568314 112.688563 
L 130.188 111.315527 
L 130.807686 111.474513 
L 131.427373 111.511801 
L 132.047059 113.204627 
L 132.666745 114.484912 
L 133.286431 116.454741 
L 133.906118 117.726399 
L 134.525804 118.65578 
L 135.14549 119.08075 
L 135.765176 118.843366 
L 136.384863 118.191499 
L 137.004549 117.7329 
L 137.624235 116.846245 
L 138.863608 115.691153 
L 140.10298 115.375042 
L 140.722667 115.57379 
L 141.342353 115.654499 
L 143.201412 117.919627 
L 143.821098 118.305816 
L 144.440784 118.218974 
L 145.060471 117.457328 
L 145.680157 116.905039 
L 146.299843 115.873321 
L 146.919529 115.531064 
L 147.539216 114.923497 
L 148.158902 115.200111 
L 148.778588 115.182469 
L 149.398275 116.033226 
L 150.017961 116.358025 
L 150.637647 117.467693 
L 151.257333 118.003811 
L 151.87702 118.908395 
L 152.496706 119.297712 
L 153.116392 118.983196 
L 153.736078 117.868744 
L 154.355765 117.174622 
L 154.975451 115.536358 
L 155.595137 115.318558 
L 156.214824 114.421477 
L 156.83451 114.595284 
L 157.454196 113.856943 
L 158.073882 114.724811 
L 158.693569 114.298288 
L 159.313255 115.897525 
L 159.932941 116.268689 
L 160.552627 117.82794 
L 161.172314 118.573375 
L 161.792 118.428965 
L 162.411686 116.139836 
L 163.031373 115.864898 
L 163.651059 112.32576 
L 164.270745 113.56238 
L 164.890431 111.212208 
L 165.510118 113.223577 
L 166.129804 113.095032 
L 166.74949 114.185217 
L 167.369176 114.091036 
L 167.988863 114.917916 
L 168.608549 113.96615 
L 169.228235 115.643091 
L 169.847922 115.348119 
L 170.467608 117.101068 
L 171.087294 114.996744 
L 171.70698 113.388144 
L 172.326667 111.41531 
L 172.946353 113.523517 
L 173.566039 112.219395 
L 174.185725 113.889264 
L 174.805412 112.379791 
L 175.425098 113.896173 
L 176.044784 112.752693 
L 176.664471 114.811203 
L 177.284157 115.267655 
L 177.903843 116.636336 
L 178.523529 117.394384 
L 179.143216 118.7868 
L 179.762902 117.253164 
L 180.382588 117.307297 
L 181.002275 114.204352 
L 181.621961 115.468263 
L 182.241647 112.050515 
L 182.861333 114.193129 
L 183.48102 111.927224 
L 184.100706 116.185711 
L 184.720392 115.481939 
L 185.340078 118.141597 
L 185.959765 118.394723 
L 186.579451 119.547178 
L 187.199137 119.574163 
L 187.818824 121.169148 
L 188.43851 121.170293 
L 189.058196 120.956214 
L 189.677882 119.859752 
L 190.297569 119.331933 
L 190.917255 118.025604 
L 191.536941 117.671183 
L 192.156627 116.677979 
L 192.776314 117.054642 
L 193.396 116.883595 
L 194.015686 117.639782 
L 194.635373 118.093045 
L 195.255059 119.246482 
L 196.494431 120.863382 
L 197.114118 121.062109 
L 197.733804 120.762414 
L 198.35349 119.832951 
L 198.973176 119.232376 
L 199.592863 118.127001 
L 200.212549 118.073992 
L 200.832235 117.733146 
L 201.451922 118.208528 
L 202.071608 118.507016 
L 203.31098 119.634776 
L 203.930667 120.915716 
L 204.550353 121.841295 
L 205.170039 122.475744 
L 205.789725 122.620419 
L 206.409412 122.467138 
L 207.648784 121.389422 
L 208.268471 120.527421 
L 209.507843 119.579642 
L 210.747216 119.520009 
L 211.986588 120.753746 
L 212.606275 121.753144 
L 213.845647 123.123604 
L 214.465333 123.113035 
L 215.08502 122.702641 
L 215.704706 121.506663 
L 216.324392 119.061983 
L 216.944078 110.596137 
L 217.563765 117.341539 
L 218.183451 119.09181 
L 218.803137 120.029572 
L 219.422824 120.420934 
L 220.662196 122.230182 
L 221.901569 124.348796 
L 223.140941 126.222011 
L 223.760627 127.856328 
L 224.380314 131.059567 
L 225 111.894597 
L 225 111.894597 
" style="fill:none;stroke:#0000ff;stroke-linecap:square;stroke-width:1.5;"/>
   </g>
   <g id="line2d_10">
    <path clip-path="url(#p4a019bae05)" d="M 66.98 30.476364 
L 67.599686 102.351449 
L 68.219373 99.897647 
L 69.458745 108.063304 
L 70.078431 110.972645 
L 71.317804 114.668958 
L 71.93749 116.010737 
L 72.557176 116.987562 
L 73.176863 117.2066 
L 73.796549 117.103582 
L 74.416235 116.157428 
L 75.035922 114.899612 
L 76.89498 109.318796 
L 77.514667 108.162246 
L 78.134353 107.416136 
L 78.754039 107.558914 
L 79.373725 108.001411 
L 81.232784 111.348177 
L 81.852471 111.97364 
L 82.472157 111.918983 
L 83.091843 111.514656 
L 83.711529 110.645067 
L 84.950902 108.418068 
L 85.570588 107.411469 
L 86.190275 106.779055 
L 86.809961 106.377683 
L 87.429647 106.439372 
L 88.049333 106.804387 
L 90.528078 110.312659 
L 91.147765 110.222602 
L 91.767451 109.430129 
L 92.387137 108.133388 
L 93.62651 104.926242 
L 94.246196 103.533576 
L 95.485569 102.37568 
L 96.724941 103.202186 
L 97.964314 106.210511 
L 98.584 108.09214 
L 99.203686 109.402067 
L 99.823373 110.009943 
L 100.443059 109.44578 
L 101.062745 108.3736 
L 101.682431 106.852625 
L 102.302118 105.674818 
L 102.921804 104.119809 
L 103.54149 103.572297 
L 104.161176 102.77589 
L 104.780863 103.059429 
L 105.400549 102.660033 
L 106.020235 104.546065 
L 106.639922 106.03321 
L 107.259608 108.109769 
L 107.879294 109.350385 
L 108.49898 109.578613 
L 109.118667 108.679475 
L 109.738353 107.397346 
L 110.358039 105.785886 
L 111.597412 106.022124 
L 112.217098 106.748629 
L 112.836784 107.11342 
L 114.076157 108.626549 
L 115.315529 111.308131 
L 115.935216 112.394088 
L 116.554902 112.956396 
L 117.174588 112.829799 
L 117.794275 111.985318 
L 119.033647 109.462125 
L 119.653333 108.870368 
L 120.27302 108.743466 
L 121.512392 109.178505 
L 122.751765 110.348669 
L 123.991137 112.237533 
L 125.23051 114.702115 
L 125.850196 115.673764 
L 126.469882 116.115365 
L 127.089569 115.908942 
L 127.709255 115.155129 
L 128.328941 113.984801 
L 128.948627 112.430363 
L 129.568314 111.354046 
L 130.188 109.964273 
L 130.807686 110.09358 
L 131.427373 110.345327 
L 132.047059 111.523806 
L 132.666745 112.202542 
L 133.906118 115.896246 
L 134.525804 117.27426 
L 135.14549 117.793893 
L 135.765176 117.602103 
L 137.004549 116.199328 
L 137.624235 115.268683 
L 138.863608 113.85311 
L 139.483294 113.799002 
L 140.10298 113.344909 
L 141.342353 113.941169 
L 143.201412 116.534039 
L 143.821098 116.883301 
L 144.440784 116.708691 
L 145.680157 115.161834 
L 146.299843 114.207793 
L 147.539216 113.573178 
L 148.158902 114.003713 
L 148.778588 114.253157 
L 149.398275 115.057206 
L 150.017961 115.638345 
L 150.637647 116.838263 
L 151.87702 118.689344 
L 152.496706 119.16292 
L 153.116392 118.896113 
L 153.736078 117.647121 
L 154.355765 116.741237 
L 154.975451 114.957632 
L 155.595137 114.741488 
L 156.214824 113.66727 
L 156.83451 113.793418 
L 157.454196 113.153913 
L 158.073882 113.733748 
L 158.693569 113.023057 
L 159.313255 114.525935 
L 159.932941 114.638796 
L 160.552627 116.64368 
L 161.172314 117.535197 
L 161.792 117.344548 
L 162.411686 114.99833 
L 163.031373 113.79352 
L 163.651059 109.769528 
L 164.270745 110.571783 
L 164.890431 107.285565 
L 165.510118 110.413741 
L 166.129804 110.080273 
L 166.74949 111.871173 
L 167.369176 112.007511 
L 167.988863 114.024439 
L 168.608549 114.435104 
L 169.228235 117.21679 
L 170.467608 119.097502 
L 171.087294 117.468862 
L 171.70698 116.54806 
L 172.326667 114.369462 
L 172.946353 114.613017 
L 173.566039 112.704018 
L 174.185725 113.90092 
L 174.805412 112.719363 
L 175.425098 114.267504 
L 176.044784 113.787753 
L 176.664471 115.663982 
L 177.284157 116.194947 
L 177.903843 117.401855 
L 178.523529 118.11332 
L 179.143216 119.923723 
L 179.762902 118.762974 
L 180.382588 118.641126 
L 181.002275 116.263014 
L 181.621961 117.329712 
L 182.241647 115.416067 
L 182.861333 117.06533 
L 183.48102 116.565913 
L 184.100706 118.613328 
L 184.720392 119.23867 
L 185.340078 120.10777 
L 185.959765 120.446272 
L 186.579451 121.568483 
L 187.199137 122.160403 
L 187.818824 123.234356 
L 188.43851 123.356653 
L 189.058196 122.941137 
L 189.677882 121.595506 
L 190.297569 121.150543 
L 190.917255 119.63456 
L 191.536941 119.529606 
L 192.156627 118.499856 
L 192.776314 119.099316 
L 193.396 118.791159 
L 194.015686 119.666209 
L 194.635373 119.940027 
L 195.255059 121.179889 
L 195.874745 121.889479 
L 196.494431 122.912117 
L 197.114118 122.981835 
L 197.733804 122.594219 
L 199.592863 119.446275 
L 200.212549 119.217557 
L 200.832235 118.735523 
L 201.451922 119.182382 
L 202.071608 119.345438 
L 202.691294 119.687323 
L 203.31098 120.206426 
L 204.550353 122.349523 
L 205.170039 122.972909 
L 205.789725 122.91552 
L 206.409412 122.584763 
L 207.029098 121.747088 
L 207.648784 121.097577 
L 208.268471 120.142924 
L 208.888157 119.565596 
L 209.507843 118.829167 
L 210.127529 118.947754 
L 210.747216 118.738825 
L 211.986588 120.19964 
L 212.606275 121.834557 
L 213.225961 122.852242 
L 213.845647 123.353861 
L 215.08502 122.308907 
L 216.324392 118.423576 
L 216.944078 101.76228 
L 217.563765 116.505325 
L 218.183451 119.192083 
L 218.803137 120.27861 
L 219.422824 120.626466 
L 220.662196 122.200509 
L 221.901569 124.417115 
L 223.140941 126.277183 
L 223.760627 127.913118 
L 224.380314 131.203636 
L 225 112.024874 
L 225 112.024874 
" style="fill:none;stroke:#008000;stroke-linecap:square;stroke-width:1.5;"/>
   </g>
   <g id="patch_3">
    <path d="M 66.98 136.24 
L 66.98 25.44 
" style="fill:none;stroke:#000000;stroke-linecap:square;stroke-linejoin:miter;stroke-width:0.8;"/>
   </g>
   <g id="patch_4">
    <path d="M 225 136.24 
L 225 25.44 
" style="fill:none;stroke:#000000;stroke-linecap:square;stroke-linejoin:miter;stroke-width:0.8;"/>
   </g>
   <g id="patch_5">
    <path d="M 66.98 136.24 
L 225 136.24 
" style="fill:none;stroke:#000000;stroke-linecap:square;stroke-linejoin:miter;stroke-width:0.8;"/>
   </g>
   <g id="patch_6">
    <path d="M 66.98 25.44 
L 225 25.44 
" style="fill:none;stroke:#000000;stroke-linecap:square;stroke-linejoin:miter;stroke-width:0.8;"/>
   </g>
   <g id="text_11">
    <!-- DFD-cA/ -->
    <defs>
     <path d="M 19.671875 64.796875 
L 19.671875 8.109375 
L 31.59375 8.109375 
Q 46.6875 8.109375 53.6875 14.9375 
Q 60.6875 21.78125 60.6875 36.53125 
Q 60.6875 51.171875 53.6875 57.984375 
Q 46.6875 64.796875 31.59375 64.796875 
z
M 9.8125 72.90625 
L 30.078125 72.90625 
Q 51.265625 72.90625 61.171875 64.09375 
Q 71.09375 55.28125 71.09375 36.53125 
Q 71.09375 17.671875 61.125 8.828125 
Q 51.171875 0 30.078125 0 
L 9.8125 0 
z
" id="DejaVuSans-68"/>
     <path d="M 9.8125 72.90625 
L 51.703125 72.90625 
L 51.703125 64.59375 
L 19.671875 64.59375 
L 19.671875 43.109375 
L 48.578125 43.109375 
L 48.578125 34.8125 
L 19.671875 34.8125 
L 19.671875 0 
L 9.8125 0 
z
" id="DejaVuSans-70"/>
     <path d="M 4.890625 31.390625 
L 31.203125 31.390625 
L 31.203125 23.390625 
L 4.890625 23.390625 
z
" id="DejaVuSans-45"/>
     <path d="M 48.78125 52.59375 
L 48.78125 44.1875 
Q 44.96875 46.296875 41.140625 47.34375 
Q 37.3125 48.390625 33.40625 48.390625 
Q 24.65625 48.390625 19.8125 42.84375 
Q 14.984375 37.3125 14.984375 27.296875 
Q 14.984375 17.28125 19.8125 11.734375 
Q 24.65625 6.203125 33.40625 6.203125 
Q 37.3125 6.203125 41.140625 7.25 
Q 44.96875 8.296875 48.78125 10.40625 
L 48.78125 2.09375 
Q 45.015625 0.34375 40.984375 -0.53125 
Q 36.96875 -1.421875 32.421875 -1.421875 
Q 20.0625 -1.421875 12.78125 6.34375 
Q 5.515625 14.109375 5.515625 27.296875 
Q 5.515625 40.671875 12.859375 48.328125 
Q 20.21875 56 33.015625 56 
Q 37.15625 56 41.109375 55.140625 
Q 45.0625 54.296875 48.78125 52.59375 
z
" id="DejaVuSans-99"/>
     <path d="M 34.1875 63.1875 
L 20.796875 26.90625 
L 47.609375 26.90625 
z
M 28.609375 72.90625 
L 39.796875 72.90625 
L 67.578125 0 
L 57.328125 0 
L 50.6875 18.703125 
L 17.828125 18.703125 
L 11.1875 0 
L 0.78125 0 
z
" id="DejaVuSans-65"/>
     <path d="M 25.390625 72.90625 
L 33.6875 72.90625 
L 8.296875 -9.28125 
L 0 -9.28125 
z
" id="DejaVuSans-47"/>
    </defs>
    <g transform="translate(121.709688 19.44)scale(0.12 -0.12)">
     <use xlink:href="#DejaVuSans-68"/>
     <use x="77.001953" xlink:href="#DejaVuSans-70"/>
     <use x="134.521484" xlink:href="#DejaVuSans-68"/>
     <use x="211.523438" xlink:href="#DejaVuSans-45"/>
     <use x="247.607422" xlink:href="#DejaVuSans-99"/>
     <use x="302.587891" xlink:href="#DejaVuSans-65"/>
     <use x="370.996094" xlink:href="#DejaVuSans-47"/>
    </g>
   </g>
   <g id="legend_1">
    <g id="patch_7">
     <path d="M 164.770312 62.79625 
L 218 62.79625 
Q 220 62.79625 220 60.79625 
L 220 32.44 
Q 220 30.44 218 30.44 
L 164.770312 30.44 
Q 162.770312 30.44 162.770312 32.44 
L 162.770312 60.79625 
Q 162.770312 62.79625 164.770312 62.79625 
z
" style="fill:#ffffff;opacity:0.8;stroke:#cccccc;stroke-linejoin:miter;"/>
    </g>
    <g id="line2d_11">
     <path d="M 166.770312 38.538437 
L 186.770312 38.538437 
" style="fill:none;stroke:#0000ff;stroke-linecap:square;stroke-width:1.5;"/>
    </g>
    <g id="line2d_12"/>
    <g id="text_12">
     <!-- real -->
     <g transform="translate(194.770312 42.038437)scale(0.1 -0.1)">
      <use xlink:href="#DejaVuSans-114"/>
      <use x="38.863281" xlink:href="#DejaVuSans-101"/>
      <use x="100.386719" xlink:href="#DejaVuSans-97"/>
      <use x="161.666016" xlink:href="#DejaVuSans-108"/>
     </g>
    </g>
    <g id="line2d_13">
     <path d="M 166.770312 53.216563 
L 186.770312 53.216563 
" style="fill:none;stroke:#008000;stroke-linecap:square;stroke-width:1.5;"/>
    </g>
    <g id="line2d_14"/>
    <g id="text_13">
     <!-- fake -->
     <defs>
      <path d="M 9.078125 75.984375 
L 18.109375 75.984375 
L 18.109375 31.109375 
L 44.921875 54.6875 
L 56.390625 54.6875 
L 27.390625 29.109375 
L 57.625 0 
L 45.90625 0 
L 18.109375 26.703125 
L 18.109375 0 
L 9.078125 0 
z
" id="DejaVuSans-107"/>
     </defs>
     <g transform="translate(194.770312 56.716563)scale(0.1 -0.1)">
      <use xlink:href="#DejaVuSans-102"/>
      <use x="35.205078" xlink:href="#DejaVuSans-97"/>
      <use x="96.484375" xlink:href="#DejaVuSans-107"/>
      <use x="150.769531" xlink:href="#DejaVuSans-101"/>
     </g>
    </g>
   </g>
  </g>
  <g id="axes_2">
   <g id="patch_8">
    <path d="M 282.395 136.24 
L 440.415 136.24 
L 440.415 25.44 
L 282.395 25.44 
z
" style="fill:#ffffff;"/>
   </g>
   <g id="matplotlib.axis_3">
    <g id="xtick_5">
     <g id="line2d_15">
      <g>
       <use style="stroke:#000000;stroke-width:0.8;" x="282.395" xlink:href="#m33a4bd6ede" y="136.24"/>
      </g>
     </g>
     <g id="text_14">
      <!-- 0 -->
      <g transform="translate(279.21375 150.838437)scale(0.1 -0.1)">
       <use xlink:href="#DejaVuSans-48"/>
      </g>
     </g>
    </g>
    <g id="xtick_6">
     <g id="line2d_16">
      <g>
       <use style="stroke:#000000;stroke-width:0.8;" x="335.068333" xlink:href="#m33a4bd6ede" y="136.24"/>
      </g>
     </g>
     <g id="text_15">
      <!-- 85 -->
      <g transform="translate(328.705833 150.838437)scale(0.1 -0.1)">
       <use xlink:href="#DejaVuSans-56"/>
       <use x="63.623047" xlink:href="#DejaVuSans-53"/>
      </g>
     </g>
    </g>
    <g id="xtick_7">
     <g id="line2d_17">
      <g>
       <use style="stroke:#000000;stroke-width:0.8;" x="387.741667" xlink:href="#m33a4bd6ede" y="136.24"/>
      </g>
     </g>
     <g id="text_16">
      <!-- 170 -->
      <g transform="translate(378.197917 150.838437)scale(0.1 -0.1)">
       <use xlink:href="#DejaVuSans-49"/>
       <use x="63.623047" xlink:href="#DejaVuSans-55"/>
       <use x="127.246094" xlink:href="#DejaVuSans-48"/>
      </g>
     </g>
    </g>
    <g id="xtick_8">
     <g id="line2d_18">
      <g>
       <use style="stroke:#000000;stroke-width:0.8;" x="440.415" xlink:href="#m33a4bd6ede" y="136.24"/>
      </g>
     </g>
     <g id="text_17">
      <!-- 255 -->
      <g transform="translate(430.87125 150.838437)scale(0.1 -0.1)">
       <use xlink:href="#DejaVuSans-50"/>
       <use x="63.623047" xlink:href="#DejaVuSans-53"/>
       <use x="127.246094" xlink:href="#DejaVuSans-53"/>
      </g>
     </g>
    </g>
    <g id="text_18">
     <!-- gray value -->
     <g transform="translate(334.905 164.516562)scale(0.1 -0.1)">
      <use xlink:href="#DejaVuSans-103"/>
      <use x="63.476562" xlink:href="#DejaVuSans-114"/>
      <use x="104.589844" xlink:href="#DejaVuSans-97"/>
      <use x="165.869141" xlink:href="#DejaVuSans-121"/>
      <use x="225.048828" xlink:href="#DejaVuSans-32"/>
      <use x="256.835938" xlink:href="#DejaVuSans-118"/>
      <use x="316.015625" xlink:href="#DejaVuSans-97"/>
      <use x="377.294922" xlink:href="#DejaVuSans-108"/>
      <use x="405.078125" xlink:href="#DejaVuSans-117"/>
      <use x="468.457031" xlink:href="#DejaVuSans-101"/>
     </g>
    </g>
   </g>
   <g id="matplotlib.axis_4">
    <g id="ytick_5">
     <g id="line2d_19">
      <g>
       <use style="stroke:#000000;stroke-width:0.8;" x="282.395" xlink:href="#m2cb9247394" y="131.203639"/>
      </g>
     </g>
     <g id="text_19">
      <!-- 0.0 -->
      <g transform="translate(259.491875 135.002858)scale(0.1 -0.1)">
       <use xlink:href="#DejaVuSans-48"/>
       <use x="63.623047" xlink:href="#DejaVuSans-46"/>
       <use x="95.410156" xlink:href="#DejaVuSans-48"/>
      </g>
     </g>
    </g>
    <g id="ytick_6">
     <g id="line2d_20">
      <g>
       <use style="stroke:#000000;stroke-width:0.8;" x="282.395" xlink:href="#m2cb9247394" y="99.219372"/>
      </g>
     </g>
     <g id="text_20">
      <!-- 0.1 -->
      <g transform="translate(259.491875 103.018591)scale(0.1 -0.1)">
       <use xlink:href="#DejaVuSans-48"/>
       <use x="63.623047" xlink:href="#DejaVuSans-46"/>
       <use x="95.410156" xlink:href="#DejaVuSans-49"/>
      </g>
     </g>
    </g>
    <g id="ytick_7">
     <g id="line2d_21">
      <g>
       <use style="stroke:#000000;stroke-width:0.8;" x="282.395" xlink:href="#m2cb9247394" y="67.235105"/>
      </g>
     </g>
     <g id="text_21">
      <!-- 0.2 -->
      <g transform="translate(259.491875 71.034323)scale(0.1 -0.1)">
       <use xlink:href="#DejaVuSans-48"/>
       <use x="63.623047" xlink:href="#DejaVuSans-46"/>
       <use x="95.410156" xlink:href="#DejaVuSans-50"/>
      </g>
     </g>
    </g>
    <g id="ytick_8">
     <g id="line2d_22">
      <g>
       <use style="stroke:#000000;stroke-width:0.8;" x="282.395" xlink:href="#m2cb9247394" y="35.250837"/>
      </g>
     </g>
     <g id="text_22">
      <!-- 0.3 -->
      <defs>
       <path d="M 40.578125 39.3125 
Q 47.65625 37.796875 51.625 33 
Q 55.609375 28.21875 55.609375 21.1875 
Q 55.609375 10.40625 48.1875 4.484375 
Q 40.765625 -1.421875 27.09375 -1.421875 
Q 22.515625 -1.421875 17.65625 -0.515625 
Q 12.796875 0.390625 7.625 2.203125 
L 7.625 11.71875 
Q 11.71875 9.328125 16.59375 8.109375 
Q 21.484375 6.890625 26.8125 6.890625 
Q 36.078125 6.890625 40.9375 10.546875 
Q 45.796875 14.203125 45.796875 21.1875 
Q 45.796875 27.640625 41.28125 31.265625 
Q 36.765625 34.90625 28.71875 34.90625 
L 20.21875 34.90625 
L 20.21875 43.015625 
L 29.109375 43.015625 
Q 36.375 43.015625 40.234375 45.921875 
Q 44.09375 48.828125 44.09375 54.296875 
Q 44.09375 59.90625 40.109375 62.90625 
Q 36.140625 65.921875 28.71875 65.921875 
Q 24.65625 65.921875 20.015625 65.03125 
Q 15.375 64.15625 9.8125 62.3125 
L 9.8125 71.09375 
Q 15.4375 72.65625 20.34375 73.4375 
Q 25.25 74.21875 29.59375 74.21875 
Q 40.828125 74.21875 47.359375 69.109375 
Q 53.90625 64.015625 53.90625 55.328125 
Q 53.90625 49.265625 50.4375 45.09375 
Q 46.96875 40.921875 40.578125 39.3125 
z
" id="DejaVuSans-51"/>
      </defs>
      <g transform="translate(259.491875 39.050056)scale(0.1 -0.1)">
       <use xlink:href="#DejaVuSans-48"/>
       <use x="63.623047" xlink:href="#DejaVuSans-46"/>
       <use x="95.410156" xlink:href="#DejaVuSans-51"/>
      </g>
     </g>
    </g>
    <g id="text_23">
     <!-- pixel freq -->
     <g transform="translate(253.412188 104.215)rotate(-90)scale(0.1 -0.1)">
      <use xlink:href="#DejaVuSans-112"/>
      <use x="63.476562" xlink:href="#DejaVuSans-105"/>
      <use x="91.259766" xlink:href="#DejaVuSans-120"/>
      <use x="147.314453" xlink:href="#DejaVuSans-101"/>
      <use x="208.837891" xlink:href="#DejaVuSans-108"/>
      <use x="236.621094" xlink:href="#DejaVuSans-32"/>
      <use x="268.408203" xlink:href="#DejaVuSans-102"/>
      <use x="303.613281" xlink:href="#DejaVuSans-114"/>
      <use x="342.476562" xlink:href="#DejaVuSans-101"/>
      <use x="404" xlink:href="#DejaVuSans-113"/>
     </g>
    </g>
   </g>
   <g id="line2d_23">
    <path clip-path="url(#p735224e756)" d="M 282.395 31.971806 
L 283.014686 95.75126 
L 284.873745 118.311845 
L 285.493431 122.803851 
L 286.113118 125.609594 
L 286.732804 127.320902 
L 287.35249 128.378629 
L 287.972176 129.062885 
L 289.211549 129.85467 
L 290.450922 130.310744 
L 292.30998 130.687258 
L 294.788725 130.934152 
L 299.126529 131.103335 
L 309.04151 131.184106 
L 362.954216 131.203621 
L 423.683471 131.10279 
L 429.260647 130.899907 
L 431.739392 130.640957 
L 433.598451 130.227097 
L 434.837824 129.715099 
L 435.45751 129.312555 
L 436.077196 128.719601 
L 436.696882 127.82446 
L 437.316569 126.494418 
L 437.936255 124.639004 
L 439.175627 120.015833 
L 439.795314 118.691588 
L 440.415 101.184143 
L 440.415 101.184143 
" style="fill:none;stroke:#0000ff;stroke-linecap:square;stroke-width:1.5;"/>
   </g>
   <g id="line2d_24">
    <path clip-path="url(#p735224e756)" d="M 282.395 30.476364 
L 283.014686 94.732261 
L 284.873745 118.322749 
L 285.493431 122.848679 
L 286.113118 125.655214 
L 286.732804 127.355741 
L 287.35249 128.402654 
L 287.972176 129.081859 
L 289.211549 129.877549 
L 290.450922 130.343479 
L 292.30998 130.720494 
L 294.788725 130.958308 
L 299.126529 131.115099 
L 309.04151 131.187516 
L 353.039235 131.203608 
L 424.303157 131.097864 
L 429.260647 130.915197 
L 431.739392 130.659388 
L 433.598451 130.248476 
L 434.837824 129.735771 
L 435.45751 129.337614 
L 436.077196 128.752598 
L 436.696882 127.877031 
L 437.316569 126.579682 
L 437.936255 124.783737 
L 439.175627 120.305068 
L 439.795314 118.997476 
L 440.415 101.821152 
L 440.415 101.821152 
" style="fill:none;stroke:#008000;stroke-linecap:square;stroke-width:1.5;"/>
   </g>
   <g id="patch_9">
    <path d="M 282.395 136.24 
L 282.395 25.44 
" style="fill:none;stroke:#000000;stroke-linecap:square;stroke-linejoin:miter;stroke-width:0.8;"/>
   </g>
   <g id="patch_10">
    <path d="M 440.415 136.24 
L 440.415 25.44 
" style="fill:none;stroke:#000000;stroke-linecap:square;stroke-linejoin:miter;stroke-width:0.8;"/>
   </g>
   <g id="patch_11">
    <path d="M 282.395 136.24 
L 440.415 136.24 
" style="fill:none;stroke:#000000;stroke-linecap:square;stroke-linejoin:miter;stroke-width:0.8;"/>
   </g>
   <g id="patch_12">
    <path d="M 282.395 25.44 
L 440.415 25.44 
" style="fill:none;stroke:#000000;stroke-linecap:square;stroke-linejoin:miter;stroke-width:0.8;"/>
   </g>
   <g id="text_24">
    <!-- DFD-cH/ -->
    <defs>
     <path d="M 9.8125 72.90625 
L 19.671875 72.90625 
L 19.671875 43.015625 
L 55.515625 43.015625 
L 55.515625 72.90625 
L 65.375 72.90625 
L 65.375 0 
L 55.515625 0 
L 55.515625 34.71875 
L 19.671875 34.71875 
L 19.671875 0 
L 9.8125 0 
z
" id="DejaVuSans-72"/>
    </defs>
    <g transform="translate(336.716875 19.44)scale(0.12 -0.12)">
     <use xlink:href="#DejaVuSans-68"/>
     <use x="77.001953" xlink:href="#DejaVuSans-70"/>
     <use x="134.521484" xlink:href="#DejaVuSans-68"/>
     <use x="211.523438" xlink:href="#DejaVuSans-45"/>
     <use x="247.607422" xlink:href="#DejaVuSans-99"/>
     <use x="302.587891" xlink:href="#DejaVuSans-72"/>
     <use x="377.783203" xlink:href="#DejaVuSans-47"/>
    </g>
   </g>
   <g id="legend_2">
    <g id="patch_13">
     <path d="M 380.185312 62.79625 
L 433.415 62.79625 
Q 435.415 62.79625 435.415 60.79625 
L 435.415 32.44 
Q 435.415 30.44 433.415 30.44 
L 380.185312 30.44 
Q 378.185312 30.44 378.185312 32.44 
L 378.185312 60.79625 
Q 378.185312 62.79625 380.185312 62.79625 
z
" style="fill:#ffffff;opacity:0.8;stroke:#cccccc;stroke-linejoin:miter;"/>
    </g>
    <g id="line2d_25">
     <path d="M 382.185312 38.538437 
L 402.185312 38.538437 
" style="fill:none;stroke:#0000ff;stroke-linecap:square;stroke-width:1.5;"/>
    </g>
    <g id="line2d_26"/>
    <g id="text_25">
     <!-- real -->
     <g transform="translate(410.185312 42.038437)scale(0.1 -0.1)">
      <use xlink:href="#DejaVuSans-114"/>
      <use x="38.863281" xlink:href="#DejaVuSans-101"/>
      <use x="100.386719" xlink:href="#DejaVuSans-97"/>
      <use x="161.666016" xlink:href="#DejaVuSans-108"/>
     </g>
    </g>
    <g id="line2d_27">
     <path d="M 382.185312 53.216563 
L 402.185312 53.216563 
" style="fill:none;stroke:#008000;stroke-linecap:square;stroke-width:1.5;"/>
    </g>
    <g id="line2d_28"/>
    <g id="text_26">
     <!-- fake -->
     <g transform="translate(410.185312 56.716563)scale(0.1 -0.1)">
      <use xlink:href="#DejaVuSans-102"/>
      <use x="35.205078" xlink:href="#DejaVuSans-97"/>
      <use x="96.484375" xlink:href="#DejaVuSans-107"/>
      <use x="150.769531" xlink:href="#DejaVuSans-101"/>
     </g>
    </g>
   </g>
  </g>
  <g id="axes_3">
   <g id="patch_14">
    <path d="M 66.98 303.64 
L 225 303.64 
L 225 192.84 
L 66.98 192.84 
z
" style="fill:#ffffff;"/>
   </g>
   <g id="matplotlib.axis_5">
    <g id="xtick_9">
     <g id="line2d_29">
      <g>
       <use style="stroke:#000000;stroke-width:0.8;" x="66.98" xlink:href="#m33a4bd6ede" y="303.64"/>
      </g>
     </g>
     <g id="text_27">
      <!-- 0 -->
      <g transform="translate(63.79875 318.238437)scale(0.1 -0.1)">
       <use xlink:href="#DejaVuSans-48"/>
      </g>
     </g>
    </g>
    <g id="xtick_10">
     <g id="line2d_30">
      <g>
       <use style="stroke:#000000;stroke-width:0.8;" x="119.653333" xlink:href="#m33a4bd6ede" y="303.64"/>
      </g>
     </g>
     <g id="text_28">
      <!-- 85 -->
      <g transform="translate(113.290833 318.238437)scale(0.1 -0.1)">
       <use xlink:href="#DejaVuSans-56"/>
       <use x="63.623047" xlink:href="#DejaVuSans-53"/>
      </g>
     </g>
    </g>
    <g id="xtick_11">
     <g id="line2d_31">
      <g>
       <use style="stroke:#000000;stroke-width:0.8;" x="172.326667" xlink:href="#m33a4bd6ede" y="303.64"/>
      </g>
     </g>
     <g id="text_29">
      <!-- 170 -->
      <g transform="translate(162.782917 318.238437)scale(0.1 -0.1)">
       <use xlink:href="#DejaVuSans-49"/>
       <use x="63.623047" xlink:href="#DejaVuSans-55"/>
       <use x="127.246094" xlink:href="#DejaVuSans-48"/>
      </g>
     </g>
    </g>
    <g id="xtick_12">
     <g id="line2d_32">
      <g>
       <use style="stroke:#000000;stroke-width:0.8;" x="225" xlink:href="#m33a4bd6ede" y="303.64"/>
      </g>
     </g>
     <g id="text_30">
      <!-- 255 -->
      <g transform="translate(215.45625 318.238437)scale(0.1 -0.1)">
       <use xlink:href="#DejaVuSans-50"/>
       <use x="63.623047" xlink:href="#DejaVuSans-53"/>
       <use x="127.246094" xlink:href="#DejaVuSans-53"/>
      </g>
     </g>
    </g>
    <g id="text_31">
     <!-- gray value -->
     <g transform="translate(119.49 331.916562)scale(0.1 -0.1)">
      <use xlink:href="#DejaVuSans-103"/>
      <use x="63.476562" xlink:href="#DejaVuSans-114"/>
      <use x="104.589844" xlink:href="#DejaVuSans-97"/>
      <use x="165.869141" xlink:href="#DejaVuSans-121"/>
      <use x="225.048828" xlink:href="#DejaVuSans-32"/>
      <use x="256.835938" xlink:href="#DejaVuSans-118"/>
      <use x="316.015625" xlink:href="#DejaVuSans-97"/>
      <use x="377.294922" xlink:href="#DejaVuSans-108"/>
      <use x="405.078125" xlink:href="#DejaVuSans-117"/>
      <use x="468.457031" xlink:href="#DejaVuSans-101"/>
     </g>
    </g>
   </g>
   <g id="matplotlib.axis_6">
    <g id="ytick_9">
     <g id="line2d_33">
      <g>
       <use style="stroke:#000000;stroke-width:0.8;" x="66.98" xlink:href="#m2cb9247394" y="298.603693"/>
      </g>
     </g>
     <g id="text_32">
      <!-- 0.0 -->
      <g transform="translate(44.076875 302.402912)scale(0.1 -0.1)">
       <use xlink:href="#DejaVuSans-48"/>
       <use x="63.623047" xlink:href="#DejaVuSans-46"/>
       <use x="95.410156" xlink:href="#DejaVuSans-48"/>
      </g>
     </g>
    </g>
    <g id="ytick_10">
     <g id="line2d_34">
      <g>
       <use style="stroke:#000000;stroke-width:0.8;" x="66.98" xlink:href="#m2cb9247394" y="263.108048"/>
      </g>
     </g>
     <g id="text_33">
      <!-- 0.1 -->
      <g transform="translate(44.076875 266.907267)scale(0.1 -0.1)">
       <use xlink:href="#DejaVuSans-48"/>
       <use x="63.623047" xlink:href="#DejaVuSans-46"/>
       <use x="95.410156" xlink:href="#DejaVuSans-49"/>
      </g>
     </g>
    </g>
    <g id="ytick_11">
     <g id="line2d_35">
      <g>
       <use style="stroke:#000000;stroke-width:0.8;" x="66.98" xlink:href="#m2cb9247394" y="227.612403"/>
      </g>
     </g>
     <g id="text_34">
      <!-- 0.2 -->
      <g transform="translate(44.076875 231.411622)scale(0.1 -0.1)">
       <use xlink:href="#DejaVuSans-48"/>
       <use x="63.623047" xlink:href="#DejaVuSans-46"/>
       <use x="95.410156" xlink:href="#DejaVuSans-50"/>
      </g>
     </g>
    </g>
    <g id="text_35">
     <!-- pixel freq -->
     <g transform="translate(37.997187 271.615)rotate(-90)scale(0.1 -0.1)">
      <use xlink:href="#DejaVuSans-112"/>
      <use x="63.476562" xlink:href="#DejaVuSans-105"/>
      <use x="91.259766" xlink:href="#DejaVuSans-120"/>
      <use x="147.314453" xlink:href="#DejaVuSans-101"/>
      <use x="208.837891" xlink:href="#DejaVuSans-108"/>
      <use x="236.621094" xlink:href="#DejaVuSans-32"/>
      <use x="268.408203" xlink:href="#DejaVuSans-102"/>
      <use x="303.613281" xlink:href="#DejaVuSans-114"/>
      <use x="342.476562" xlink:href="#DejaVuSans-101"/>
      <use x="404" xlink:href="#DejaVuSans-113"/>
     </g>
    </g>
   </g>
   <g id="line2d_36">
    <path clip-path="url(#p01ca31ab46)" d="M 66.98 199.673253 
L 67.599686 261.685106 
L 68.219373 268.763697 
L 69.458745 284.454953 
L 70.078431 289.368948 
L 70.698118 292.443782 
L 71.317804 294.325444 
L 71.93749 295.505717 
L 72.557176 296.27788 
L 73.176863 296.79772 
L 74.416235 297.447266 
L 75.655608 297.819299 
L 77.514667 298.121735 
L 80.613098 298.353939 
L 86.809961 298.514565 
L 102.921804 298.592157 
L 184.720392 298.599266 
L 208.268471 298.475676 
L 213.845647 298.252448 
L 216.324392 297.962133 
L 217.563765 297.684818 
L 218.803137 297.217419 
L 219.422824 296.865589 
L 220.04251 296.365134 
L 220.662196 295.629186 
L 221.281882 294.516076 
L 221.901569 292.847297 
L 222.521255 290.442121 
L 223.760627 284.117407 
L 224.380314 282.196223 
L 225 258.814962 
L 225 258.814962 
" style="fill:none;stroke:#0000ff;stroke-linecap:square;stroke-width:1.5;"/>
   </g>
   <g id="line2d_37">
    <path clip-path="url(#p01ca31ab46)" d="M 66.98 197.876364 
L 67.599686 260.621767 
L 68.219373 268.217512 
L 69.458745 284.59336 
L 70.078431 289.591328 
L 70.698118 292.658552 
L 71.317804 294.510562 
L 71.93749 295.65464 
L 72.557176 296.398573 
L 73.176863 296.897843 
L 74.416235 297.51881 
L 75.655608 297.869203 
L 77.514667 298.157234 
L 80.613098 298.374021 
L 86.190275 298.512592 
L 100.443059 298.590252 
L 190.917255 298.593586 
L 209.507843 298.45283 
L 214.465333 298.21268 
L 216.944078 297.863072 
L 218.183451 297.517465 
L 219.422824 296.921179 
L 220.04251 296.450055 
L 220.662196 295.746448 
L 221.281882 294.688832 
L 221.901569 293.07611 
L 222.521255 290.729558 
L 223.760627 284.357298 
L 224.380314 282.316984 
L 225 258.532983 
L 225 258.532983 
" style="fill:none;stroke:#008000;stroke-linecap:square;stroke-width:1.5;"/>
   </g>
   <g id="patch_15">
    <path d="M 66.98 303.64 
L 66.98 192.84 
" style="fill:none;stroke:#000000;stroke-linecap:square;stroke-linejoin:miter;stroke-width:0.8;"/>
   </g>
   <g id="patch_16">
    <path d="M 225 303.64 
L 225 192.84 
" style="fill:none;stroke:#000000;stroke-linecap:square;stroke-linejoin:miter;stroke-width:0.8;"/>
   </g>
   <g id="patch_17">
    <path d="M 66.98 303.64 
L 225 303.64 
" style="fill:none;stroke:#000000;stroke-linecap:square;stroke-linejoin:miter;stroke-width:0.8;"/>
   </g>
   <g id="patch_18">
    <path d="M 66.98 192.84 
L 225 192.84 
" style="fill:none;stroke:#000000;stroke-linecap:square;stroke-linejoin:miter;stroke-width:0.8;"/>
   </g>
   <g id="text_36">
    <!-- DFD-cV/ -->
    <defs>
     <path d="M 28.609375 0 
L 0.78125 72.90625 
L 11.078125 72.90625 
L 34.1875 11.53125 
L 57.328125 72.90625 
L 67.578125 72.90625 
L 39.796875 0 
z
" id="DejaVuSans-86"/>
    </defs>
    <g transform="translate(121.709688 186.84)scale(0.12 -0.12)">
     <use xlink:href="#DejaVuSans-68"/>
     <use x="77.001953" xlink:href="#DejaVuSans-70"/>
     <use x="134.521484" xlink:href="#DejaVuSans-68"/>
     <use x="211.523438" xlink:href="#DejaVuSans-45"/>
     <use x="247.607422" xlink:href="#DejaVuSans-99"/>
     <use x="302.587891" xlink:href="#DejaVuSans-86"/>
     <use x="370.996094" xlink:href="#DejaVuSans-47"/>
    </g>
   </g>
   <g id="legend_3">
    <g id="patch_19">
     <path d="M 164.770312 230.19625 
L 218 230.19625 
Q 220 230.19625 220 228.19625 
L 220 199.84 
Q 220 197.84 218 197.84 
L 164.770312 197.84 
Q 162.770312 197.84 162.770312 199.84 
L 162.770312 228.19625 
Q 162.770312 230.19625 164.770312 230.19625 
z
" style="fill:#ffffff;opacity:0.8;stroke:#cccccc;stroke-linejoin:miter;"/>
    </g>
    <g id="line2d_38">
     <path d="M 166.770312 205.938437 
L 186.770312 205.938437 
" style="fill:none;stroke:#0000ff;stroke-linecap:square;stroke-width:1.5;"/>
    </g>
    <g id="line2d_39"/>
    <g id="text_37">
     <!-- real -->
     <g transform="translate(194.770312 209.438437)scale(0.1 -0.1)">
      <use xlink:href="#DejaVuSans-114"/>
      <use x="38.863281" xlink:href="#DejaVuSans-101"/>
      <use x="100.386719" xlink:href="#DejaVuSans-97"/>
      <use x="161.666016" xlink:href="#DejaVuSans-108"/>
     </g>
    </g>
    <g id="line2d_40">
     <path d="M 166.770312 220.616562 
L 186.770312 220.616562 
" style="fill:none;stroke:#008000;stroke-linecap:square;stroke-width:1.5;"/>
    </g>
    <g id="line2d_41"/>
    <g id="text_38">
     <!-- fake -->
     <g transform="translate(194.770312 224.116562)scale(0.1 -0.1)">
      <use xlink:href="#DejaVuSans-102"/>
      <use x="35.205078" xlink:href="#DejaVuSans-97"/>
      <use x="96.484375" xlink:href="#DejaVuSans-107"/>
      <use x="150.769531" xlink:href="#DejaVuSans-101"/>
     </g>
    </g>
   </g>
  </g>
  <g id="axes_4">
   <g id="patch_20">
    <path d="M 282.395 303.64 
L 440.415 303.64 
L 440.415 192.84 
L 282.395 192.84 
z
" style="fill:#ffffff;"/>
   </g>
   <g id="matplotlib.axis_7">
    <g id="xtick_13">
     <g id="line2d_42">
      <g>
       <use style="stroke:#000000;stroke-width:0.8;" x="282.395" xlink:href="#m33a4bd6ede" y="303.64"/>
      </g>
     </g>
     <g id="text_39">
      <!-- 0 -->
      <g transform="translate(279.21375 318.238437)scale(0.1 -0.1)">
       <use xlink:href="#DejaVuSans-48"/>
      </g>
     </g>
    </g>
    <g id="xtick_14">
     <g id="line2d_43">
      <g>
       <use style="stroke:#000000;stroke-width:0.8;" x="335.068333" xlink:href="#m33a4bd6ede" y="303.64"/>
      </g>
     </g>
     <g id="text_40">
      <!-- 85 -->
      <g transform="translate(328.705833 318.238437)scale(0.1 -0.1)">
       <use xlink:href="#DejaVuSans-56"/>
       <use x="63.623047" xlink:href="#DejaVuSans-53"/>
      </g>
     </g>
    </g>
    <g id="xtick_15">
     <g id="line2d_44">
      <g>
       <use style="stroke:#000000;stroke-width:0.8;" x="387.741667" xlink:href="#m33a4bd6ede" y="303.64"/>
      </g>
     </g>
     <g id="text_41">
      <!-- 170 -->
      <g transform="translate(378.197917 318.238437)scale(0.1 -0.1)">
       <use xlink:href="#DejaVuSans-49"/>
       <use x="63.623047" xlink:href="#DejaVuSans-55"/>
       <use x="127.246094" xlink:href="#DejaVuSans-48"/>
      </g>
     </g>
    </g>
    <g id="xtick_16">
     <g id="line2d_45">
      <g>
       <use style="stroke:#000000;stroke-width:0.8;" x="440.415" xlink:href="#m33a4bd6ede" y="303.64"/>
      </g>
     </g>
     <g id="text_42">
      <!-- 255 -->
      <g transform="translate(430.87125 318.238437)scale(0.1 -0.1)">
       <use xlink:href="#DejaVuSans-50"/>
       <use x="63.623047" xlink:href="#DejaVuSans-53"/>
       <use x="127.246094" xlink:href="#DejaVuSans-53"/>
      </g>
     </g>
    </g>
    <g id="text_43">
     <!-- gray value -->
     <g transform="translate(334.905 331.916562)scale(0.1 -0.1)">
      <use xlink:href="#DejaVuSans-103"/>
      <use x="63.476562" xlink:href="#DejaVuSans-114"/>
      <use x="104.589844" xlink:href="#DejaVuSans-97"/>
      <use x="165.869141" xlink:href="#DejaVuSans-121"/>
      <use x="225.048828" xlink:href="#DejaVuSans-32"/>
      <use x="256.835938" xlink:href="#DejaVuSans-118"/>
      <use x="316.015625" xlink:href="#DejaVuSans-97"/>
      <use x="377.294922" xlink:href="#DejaVuSans-108"/>
      <use x="405.078125" xlink:href="#DejaVuSans-117"/>
      <use x="468.457031" xlink:href="#DejaVuSans-101"/>
     </g>
    </g>
   </g>
   <g id="matplotlib.axis_8">
    <g id="ytick_12">
     <g id="line2d_46">
      <g>
       <use style="stroke:#000000;stroke-width:0.8;" x="282.395" xlink:href="#m2cb9247394" y="298.603636"/>
      </g>
     </g>
     <g id="text_44">
      <!-- 0.0 -->
      <g transform="translate(259.491875 302.402855)scale(0.1 -0.1)">
       <use xlink:href="#DejaVuSans-48"/>
       <use x="63.623047" xlink:href="#DejaVuSans-46"/>
       <use x="95.410156" xlink:href="#DejaVuSans-48"/>
      </g>
     </g>
    </g>
    <g id="ytick_13">
     <g id="line2d_47">
      <g>
       <use style="stroke:#000000;stroke-width:0.8;" x="282.395" xlink:href="#m2cb9247394" y="267.651875"/>
      </g>
     </g>
     <g id="text_45">
      <!-- 0.2 -->
      <g transform="translate(259.491875 271.451094)scale(0.1 -0.1)">
       <use xlink:href="#DejaVuSans-48"/>
       <use x="63.623047" xlink:href="#DejaVuSans-46"/>
       <use x="95.410156" xlink:href="#DejaVuSans-50"/>
      </g>
     </g>
    </g>
    <g id="ytick_14">
     <g id="line2d_48">
      <g>
       <use style="stroke:#000000;stroke-width:0.8;" x="282.395" xlink:href="#m2cb9247394" y="236.700114"/>
      </g>
     </g>
     <g id="text_46">
      <!-- 0.4 -->
      <defs>
       <path d="M 37.796875 64.3125 
L 12.890625 25.390625 
L 37.796875 25.390625 
z
M 35.203125 72.90625 
L 47.609375 72.90625 
L 47.609375 25.390625 
L 58.015625 25.390625 
L 58.015625 17.1875 
L 47.609375 17.1875 
L 47.609375 0 
L 37.796875 0 
L 37.796875 17.1875 
L 4.890625 17.1875 
L 4.890625 26.703125 
z
" id="DejaVuSans-52"/>
      </defs>
      <g transform="translate(259.491875 240.499333)scale(0.1 -0.1)">
       <use xlink:href="#DejaVuSans-48"/>
       <use x="63.623047" xlink:href="#DejaVuSans-46"/>
       <use x="95.410156" xlink:href="#DejaVuSans-52"/>
      </g>
     </g>
    </g>
    <g id="ytick_15">
     <g id="line2d_49">
      <g>
       <use style="stroke:#000000;stroke-width:0.8;" x="282.395" xlink:href="#m2cb9247394" y="205.748353"/>
      </g>
     </g>
     <g id="text_47">
      <!-- 0.6 -->
      <defs>
       <path d="M 33.015625 40.375 
Q 26.375 40.375 22.484375 35.828125 
Q 18.609375 31.296875 18.609375 23.390625 
Q 18.609375 15.53125 22.484375 10.953125 
Q 26.375 6.390625 33.015625 6.390625 
Q 39.65625 6.390625 43.53125 10.953125 
Q 47.40625 15.53125 47.40625 23.390625 
Q 47.40625 31.296875 43.53125 35.828125 
Q 39.65625 40.375 33.015625 40.375 
z
M 52.59375 71.296875 
L 52.59375 62.3125 
Q 48.875 64.0625 45.09375 64.984375 
Q 41.3125 65.921875 37.59375 65.921875 
Q 27.828125 65.921875 22.671875 59.328125 
Q 17.53125 52.734375 16.796875 39.40625 
Q 19.671875 43.65625 24.015625 45.921875 
Q 28.375 48.1875 33.59375 48.1875 
Q 44.578125 48.1875 50.953125 41.515625 
Q 57.328125 34.859375 57.328125 23.390625 
Q 57.328125 12.15625 50.6875 5.359375 
Q 44.046875 -1.421875 33.015625 -1.421875 
Q 20.359375 -1.421875 13.671875 8.265625 
Q 6.984375 17.96875 6.984375 36.375 
Q 6.984375 53.65625 15.1875 63.9375 
Q 23.390625 74.21875 37.203125 74.21875 
Q 40.921875 74.21875 44.703125 73.484375 
Q 48.484375 72.75 52.59375 71.296875 
z
" id="DejaVuSans-54"/>
      </defs>
      <g transform="translate(259.491875 209.547572)scale(0.1 -0.1)">
       <use xlink:href="#DejaVuSans-48"/>
       <use x="63.623047" xlink:href="#DejaVuSans-46"/>
       <use x="95.410156" xlink:href="#DejaVuSans-54"/>
      </g>
     </g>
    </g>
    <g id="text_48">
     <!-- pixel freq -->
     <g transform="translate(253.412188 271.615)rotate(-90)scale(0.1 -0.1)">
      <use xlink:href="#DejaVuSans-112"/>
      <use x="63.476562" xlink:href="#DejaVuSans-105"/>
      <use x="91.259766" xlink:href="#DejaVuSans-120"/>
      <use x="147.314453" xlink:href="#DejaVuSans-101"/>
      <use x="208.837891" xlink:href="#DejaVuSans-108"/>
      <use x="236.621094" xlink:href="#DejaVuSans-32"/>
      <use x="268.408203" xlink:href="#DejaVuSans-102"/>
      <use x="303.613281" xlink:href="#DejaVuSans-114"/>
      <use x="342.476562" xlink:href="#DejaVuSans-101"/>
      <use x="404" xlink:href="#DejaVuSans-113"/>
     </g>
    </g>
   </g>
   <g id="line2d_50">
    <path clip-path="url(#p4a73fb5404)" d="M 282.395 204.976565 
L 283.014686 280.475665 
L 284.254059 291.414403 
L 284.873745 295.072734 
L 285.493431 297.010928 
L 286.113118 297.910026 
L 286.732804 298.279607 
L 287.972176 298.497142 
L 291.070608 298.585388 
L 307.802137 298.603583 
L 435.45751 298.499962 
L 436.696882 298.323812 
L 437.316569 298.112209 
L 437.936255 297.731103 
L 438.555941 297.156359 
L 439.795314 295.796914 
L 440.415 290.696868 
L 440.415 290.696868 
" style="fill:none;stroke:#0000ff;stroke-linecap:square;stroke-width:1.5;"/>
   </g>
   <g id="line2d_51">
    <path clip-path="url(#p4a73fb5404)" d="M 282.395 197.876364 
L 283.014686 281.536976 
L 284.254059 292.092613 
L 284.873745 295.496801 
L 285.493431 297.251894 
L 286.113118 298.049135 
L 286.732804 298.361131 
L 287.972176 298.528895 
L 291.690294 298.594423 
L 323.294294 298.603634 
L 435.45751 298.531606 
L 436.696882 298.401679 
L 437.316569 298.241738 
L 437.936255 297.941638 
L 438.555941 297.486736 
L 439.795314 296.354024 
L 440.415 292.148306 
L 440.415 292.148306 
" style="fill:none;stroke:#008000;stroke-linecap:square;stroke-width:1.5;"/>
   </g>
   <g id="patch_21">
    <path d="M 282.395 303.64 
L 282.395 192.84 
" style="fill:none;stroke:#000000;stroke-linecap:square;stroke-linejoin:miter;stroke-width:0.8;"/>
   </g>
   <g id="patch_22">
    <path d="M 440.415 303.64 
L 440.415 192.84 
" style="fill:none;stroke:#000000;stroke-linecap:square;stroke-linejoin:miter;stroke-width:0.8;"/>
   </g>
   <g id="patch_23">
    <path d="M 282.395 303.64 
L 440.415 303.64 
" style="fill:none;stroke:#000000;stroke-linecap:square;stroke-linejoin:miter;stroke-width:0.8;"/>
   </g>
   <g id="patch_24">
    <path d="M 282.395 192.84 
L 440.415 192.84 
" style="fill:none;stroke:#000000;stroke-linecap:square;stroke-linejoin:miter;stroke-width:0.8;"/>
   </g>
   <g id="text_49">
    <!-- DFD-cD/ -->
    <g transform="translate(336.609062 186.84)scale(0.12 -0.12)">
     <use xlink:href="#DejaVuSans-68"/>
     <use x="77.001953" xlink:href="#DejaVuSans-70"/>
     <use x="134.521484" xlink:href="#DejaVuSans-68"/>
     <use x="211.523438" xlink:href="#DejaVuSans-45"/>
     <use x="247.607422" xlink:href="#DejaVuSans-99"/>
     <use x="302.587891" xlink:href="#DejaVuSans-68"/>
     <use x="379.589844" xlink:href="#DejaVuSans-47"/>
    </g>
   </g>
   <g id="legend_4">
    <g id="patch_25">
     <path d="M 380.185312 230.19625 
L 433.415 230.19625 
Q 435.415 230.19625 435.415 228.19625 
L 435.415 199.84 
Q 435.415 197.84 433.415 197.84 
L 380.185312 197.84 
Q 378.185312 197.84 378.185312 199.84 
L 378.185312 228.19625 
Q 378.185312 230.19625 380.185312 230.19625 
z
" style="fill:#ffffff;opacity:0.8;stroke:#cccccc;stroke-linejoin:miter;"/>
    </g>
    <g id="line2d_52">
     <path d="M 382.185312 205.938437 
L 402.185312 205.938437 
" style="fill:none;stroke:#0000ff;stroke-linecap:square;stroke-width:1.5;"/>
    </g>
    <g id="line2d_53"/>
    <g id="text_50">
     <!-- real -->
     <g transform="translate(410.185312 209.438437)scale(0.1 -0.1)">
      <use xlink:href="#DejaVuSans-114"/>
      <use x="38.863281" xlink:href="#DejaVuSans-101"/>
      <use x="100.386719" xlink:href="#DejaVuSans-97"/>
      <use x="161.666016" xlink:href="#DejaVuSans-108"/>
     </g>
    </g>
    <g id="line2d_54">
     <path d="M 382.185312 220.616562 
L 402.185312 220.616562 
" style="fill:none;stroke:#008000;stroke-linecap:square;stroke-width:1.5;"/>
    </g>
    <g id="line2d_55"/>
    <g id="text_51">
     <!-- fake -->
     <g transform="translate(410.185312 224.116562)scale(0.1 -0.1)">
      <use xlink:href="#DejaVuSans-102"/>
      <use x="35.205078" xlink:href="#DejaVuSans-97"/>
      <use x="96.484375" xlink:href="#DejaVuSans-107"/>
      <use x="150.769531" xlink:href="#DejaVuSans-101"/>
     </g>
    </g>
   </g>
  </g>
 </g>
 <defs>
  <clipPath id="p4a019bae05">
   <rect height="110.8" width="158.02" x="66.98" y="25.44"/>
  </clipPath>
  <clipPath id="p735224e756">
   <rect height="110.8" width="158.02" x="282.395" y="25.44"/>
  </clipPath>
  <clipPath id="p01ca31ab46">
   <rect height="110.8" width="158.02" x="66.98" y="192.84"/>
  </clipPath>
  <clipPath id="p4a73fb5404">
   <rect height="110.8" width="158.02" x="282.395" y="192.84"/>
  </clipPath>
 </defs>
</svg>
