<?xml version="1.0" encoding="utf-8" standalone="no"?>
<!DOCTYPE svg PUBLIC "-//W3C//DTD SVG 1.1//EN"
  "http://www.w3.org/Graphics/SVG/1.1/DTD/svg11.dtd">
<!-- Created with matplotlib (https://matplotlib.org/) -->
<svg height="345.6pt" version="1.1" viewBox="0 0 460.8 345.6" width="460.8pt" xmlns="http://www.w3.org/2000/svg" xmlns:xlink="http://www.w3.org/1999/xlink">
 <defs>
  <style type="text/css">
*{stroke-linecap:butt;stroke-linejoin:round;}
  </style>
 </defs>
 <g id="figure_1">
  <g id="patch_1">
   <path d="M 0 345.6 
L 460.8 345.6 
L 460.8 0 
L 0 0 
z
" style="fill:#ffffff;"/>
  </g>
  <g id="axes_1">
   <g id="patch_2">
    <path d="M 60.59 136.24 
L 221.805 136.24 
L 221.805 25.44 
L 60.59 25.44 
z
" style="fill:#ffffff;"/>
   </g>
   <g id="matplotlib.axis_1">
    <g id="xtick_1">
     <g id="line2d_1">
      <defs>
       <path d="M 0 0 
L 0 3.5 
" id="mb241a20860" style="stroke:#000000;stroke-width:0.8;"/>
      </defs>
      <g>
       <use style="stroke:#000000;stroke-width:0.8;" x="60.59" xlink:href="#mb241a20860" y="136.24"/>
      </g>
     </g>
     <g id="text_1">
      <!-- 0 -->
      <defs>
       <path d="M 31.78125 66.40625 
Q 24.171875 66.40625 20.328125 58.90625 
Q 16.5 51.421875 16.5 36.375 
Q 16.5 21.390625 20.328125 13.890625 
Q 24.171875 6.390625 31.78125 6.390625 
Q 39.453125 6.390625 43.28125 13.890625 
Q 47.125 21.390625 47.125 36.375 
Q 47.125 51.421875 43.28125 58.90625 
Q 39.453125 66.40625 31.78125 66.40625 
z
M 31.78125 74.21875 
Q 44.046875 74.21875 50.515625 64.515625 
Q 56.984375 54.828125 56.984375 36.375 
Q 56.984375 17.96875 50.515625 8.265625 
Q 44.046875 -1.421875 31.78125 -1.421875 
Q 19.53125 -1.421875 13.0625 8.265625 
Q 6.59375 17.96875 6.59375 36.375 
Q 6.59375 54.828125 13.0625 64.515625 
Q 19.53125 74.21875 31.78125 74.21875 
z
" id="DejaVuSans-48"/>
      </defs>
      <g transform="translate(57.40875 150.838437)scale(0.1 -0.1)">
       <use xlink:href="#DejaVuSans-48"/>
      </g>
     </g>
    </g>
    <g id="xtick_2">
     <g id="line2d_2">
      <g>
       <use style="stroke:#000000;stroke-width:0.8;" x="114.328333" xlink:href="#mb241a20860" y="136.24"/>
      </g>
     </g>
     <g id="text_2">
      <!-- 85 -->
      <defs>
       <path d="M 31.78125 34.625 
Q 24.75 34.625 20.71875 30.859375 
Q 16.703125 27.09375 16.703125 20.515625 
Q 16.703125 13.921875 20.71875 10.15625 
Q 24.75 6.390625 31.78125 6.390625 
Q 38.8125 6.390625 42.859375 10.171875 
Q 46.921875 13.96875 46.921875 20.515625 
Q 46.921875 27.09375 42.890625 30.859375 
Q 38.875 34.625 31.78125 34.625 
z
M 21.921875 38.8125 
Q 15.578125 40.375 12.03125 44.71875 
Q 8.5 49.078125 8.5 55.328125 
Q 8.5 64.0625 14.71875 69.140625 
Q 20.953125 74.21875 31.78125 74.21875 
Q 42.671875 74.21875 48.875 69.140625 
Q 55.078125 64.0625 55.078125 55.328125 
Q 55.078125 49.078125 51.53125 44.71875 
Q 48 40.375 41.703125 38.8125 
Q 48.828125 37.15625 52.796875 32.3125 
Q 56.78125 27.484375 56.78125 20.515625 
Q 56.78125 9.90625 50.3125 4.234375 
Q 43.84375 -1.421875 31.78125 -1.421875 
Q 19.734375 -1.421875 13.25 4.234375 
Q 6.78125 9.90625 6.78125 20.515625 
Q 6.78125 27.484375 10.78125 32.3125 
Q 14.796875 37.15625 21.921875 38.8125 
z
M 18.3125 54.390625 
Q 18.3125 48.734375 21.84375 45.5625 
Q 25.390625 42.390625 31.78125 42.390625 
Q 38.140625 42.390625 41.71875 45.5625 
Q 45.3125 48.734375 45.3125 54.390625 
Q 45.3125 60.0625 41.71875 63.234375 
Q 38.140625 66.40625 31.78125 66.40625 
Q 25.390625 66.40625 21.84375 63.234375 
Q 18.3125 60.0625 18.3125 54.390625 
z
" id="DejaVuSans-56"/>
       <path d="M 10.796875 72.90625 
L 49.515625 72.90625 
L 49.515625 64.59375 
L 19.828125 64.59375 
L 19.828125 46.734375 
Q 21.96875 47.46875 24.109375 47.828125 
Q 26.265625 48.1875 28.421875 48.1875 
Q 40.625 48.1875 47.75 41.5 
Q 54.890625 34.8125 54.890625 23.390625 
Q 54.890625 11.625 47.5625 5.09375 
Q 40.234375 -1.421875 26.90625 -1.421875 
Q 22.3125 -1.421875 17.546875 -0.640625 
Q 12.796875 0.140625 7.71875 1.703125 
L 7.71875 11.625 
Q 12.109375 9.234375 16.796875 8.0625 
Q 21.484375 6.890625 26.703125 6.890625 
Q 35.15625 6.890625 40.078125 11.328125 
Q 45.015625 15.765625 45.015625 23.390625 
Q 45.015625 31 40.078125 35.4375 
Q 35.15625 39.890625 26.703125 39.890625 
Q 22.75 39.890625 18.8125 39.015625 
Q 14.890625 38.140625 10.796875 36.28125 
z
" id="DejaVuSans-53"/>
      </defs>
      <g transform="translate(107.965833 150.838437)scale(0.1 -0.1)">
       <use xlink:href="#DejaVuSans-56"/>
       <use x="63.623047" xlink:href="#DejaVuSans-53"/>
      </g>
     </g>
    </g>
    <g id="xtick_3">
     <g id="line2d_3">
      <g>
       <use style="stroke:#000000;stroke-width:0.8;" x="168.066667" xlink:href="#mb241a20860" y="136.24"/>
      </g>
     </g>
     <g id="text_3">
      <!-- 170 -->
      <defs>
       <path d="M 12.40625 8.296875 
L 28.515625 8.296875 
L 28.515625 63.921875 
L 10.984375 60.40625 
L 10.984375 69.390625 
L 28.421875 72.90625 
L 38.28125 72.90625 
L 38.28125 8.296875 
L 54.390625 8.296875 
L 54.390625 0 
L 12.40625 0 
z
" id="DejaVuSans-49"/>
       <path d="M 8.203125 72.90625 
L 55.078125 72.90625 
L 55.078125 68.703125 
L 28.609375 0 
L 18.3125 0 
L 43.21875 64.59375 
L 8.203125 64.59375 
z
" id="DejaVuSans-55"/>
      </defs>
      <g transform="translate(158.522917 150.838437)scale(0.1 -0.1)">
       <use xlink:href="#DejaVuSans-49"/>
       <use x="63.623047" xlink:href="#DejaVuSans-55"/>
       <use x="127.246094" xlink:href="#DejaVuSans-48"/>
      </g>
     </g>
    </g>
    <g id="xtick_4">
     <g id="line2d_4">
      <g>
       <use style="stroke:#000000;stroke-width:0.8;" x="221.805" xlink:href="#mb241a20860" y="136.24"/>
      </g>
     </g>
     <g id="text_4">
      <!-- 255 -->
      <defs>
       <path d="M 19.1875 8.296875 
L 53.609375 8.296875 
L 53.609375 0 
L 7.328125 0 
L 7.328125 8.296875 
Q 12.9375 14.109375 22.625 23.890625 
Q 32.328125 33.6875 34.8125 36.53125 
Q 39.546875 41.84375 41.421875 45.53125 
Q 43.3125 49.21875 43.3125 52.78125 
Q 43.3125 58.59375 39.234375 62.25 
Q 35.15625 65.921875 28.609375 65.921875 
Q 23.96875 65.921875 18.8125 64.3125 
Q 13.671875 62.703125 7.8125 59.421875 
L 7.8125 69.390625 
Q 13.765625 71.78125 18.9375 73 
Q 24.125 74.21875 28.421875 74.21875 
Q 39.75 74.21875 46.484375 68.546875 
Q 53.21875 62.890625 53.21875 53.421875 
Q 53.21875 48.921875 51.53125 44.890625 
Q 49.859375 40.875 45.40625 35.40625 
Q 44.1875 33.984375 37.640625 27.21875 
Q 31.109375 20.453125 19.1875 8.296875 
z
" id="DejaVuSans-50"/>
      </defs>
      <g transform="translate(212.26125 150.838437)scale(0.1 -0.1)">
       <use xlink:href="#DejaVuSans-50"/>
       <use x="63.623047" xlink:href="#DejaVuSans-53"/>
       <use x="127.246094" xlink:href="#DejaVuSans-53"/>
      </g>
     </g>
    </g>
    <g id="text_5">
     <!-- gray value -->
     <defs>
      <path d="M 45.40625 27.984375 
Q 45.40625 37.75 41.375 43.109375 
Q 37.359375 48.484375 30.078125 48.484375 
Q 22.859375 48.484375 18.828125 43.109375 
Q 14.796875 37.75 14.796875 27.984375 
Q 14.796875 18.265625 18.828125 12.890625 
Q 22.859375 7.515625 30.078125 7.515625 
Q 37.359375 7.515625 41.375 12.890625 
Q 45.40625 18.265625 45.40625 27.984375 
z
M 54.390625 6.78125 
Q 54.390625 -7.171875 48.1875 -13.984375 
Q 42 -20.796875 29.203125 -20.796875 
Q 24.46875 -20.796875 20.265625 -20.09375 
Q 16.0625 -19.390625 12.109375 -17.921875 
L 12.109375 -9.1875 
Q 16.0625 -11.328125 19.921875 -12.34375 
Q 23.78125 -13.375 27.78125 -13.375 
Q 36.625 -13.375 41.015625 -8.765625 
Q 45.40625 -4.15625 45.40625 5.171875 
L 45.40625 9.625 
Q 42.625 4.78125 38.28125 2.390625 
Q 33.9375 0 27.875 0 
Q 17.828125 0 11.671875 7.65625 
Q 5.515625 15.328125 5.515625 27.984375 
Q 5.515625 40.671875 11.671875 48.328125 
Q 17.828125 56 27.875 56 
Q 33.9375 56 38.28125 53.609375 
Q 42.625 51.21875 45.40625 46.390625 
L 45.40625 54.6875 
L 54.390625 54.6875 
z
" id="DejaVuSans-103"/>
      <path d="M 41.109375 46.296875 
Q 39.59375 47.171875 37.8125 47.578125 
Q 36.03125 48 33.890625 48 
Q 26.265625 48 22.1875 43.046875 
Q 18.109375 38.09375 18.109375 28.8125 
L 18.109375 0 
L 9.078125 0 
L 9.078125 54.6875 
L 18.109375 54.6875 
L 18.109375 46.1875 
Q 20.953125 51.171875 25.484375 53.578125 
Q 30.03125 56 36.53125 56 
Q 37.453125 56 38.578125 55.875 
Q 39.703125 55.765625 41.0625 55.515625 
z
" id="DejaVuSans-114"/>
      <path d="M 34.28125 27.484375 
Q 23.390625 27.484375 19.1875 25 
Q 14.984375 22.515625 14.984375 16.5 
Q 14.984375 11.71875 18.140625 8.90625 
Q 21.296875 6.109375 26.703125 6.109375 
Q 34.1875 6.109375 38.703125 11.40625 
Q 43.21875 16.703125 43.21875 25.484375 
L 43.21875 27.484375 
z
M 52.203125 31.203125 
L 52.203125 0 
L 43.21875 0 
L 43.21875 8.296875 
Q 40.140625 3.328125 35.546875 0.953125 
Q 30.953125 -1.421875 24.3125 -1.421875 
Q 15.921875 -1.421875 10.953125 3.296875 
Q 6 8.015625 6 15.921875 
Q 6 25.140625 12.171875 29.828125 
Q 18.359375 34.515625 30.609375 34.515625 
L 43.21875 34.515625 
L 43.21875 35.40625 
Q 43.21875 41.609375 39.140625 45 
Q 35.0625 48.390625 27.6875 48.390625 
Q 23 48.390625 18.546875 47.265625 
Q 14.109375 46.140625 10.015625 43.890625 
L 10.015625 52.203125 
Q 14.9375 54.109375 19.578125 55.046875 
Q 24.21875 56 28.609375 56 
Q 40.484375 56 46.34375 49.84375 
Q 52.203125 43.703125 52.203125 31.203125 
z
" id="DejaVuSans-97"/>
      <path d="M 32.171875 -5.078125 
Q 28.375 -14.84375 24.75 -17.8125 
Q 21.140625 -20.796875 15.09375 -20.796875 
L 7.90625 -20.796875 
L 7.90625 -13.28125 
L 13.1875 -13.28125 
Q 16.890625 -13.28125 18.9375 -11.515625 
Q 21 -9.765625 23.484375 -3.21875 
L 25.09375 0.875 
L 2.984375 54.6875 
L 12.5 54.6875 
L 29.59375 11.921875 
L 46.6875 54.6875 
L 56.203125 54.6875 
z
" id="DejaVuSans-121"/>
      <path id="DejaVuSans-32"/>
      <path d="M 2.984375 54.6875 
L 12.5 54.6875 
L 29.59375 8.796875 
L 46.6875 54.6875 
L 56.203125 54.6875 
L 35.6875 0 
L 23.484375 0 
z
" id="DejaVuSans-118"/>
      <path d="M 9.421875 75.984375 
L 18.40625 75.984375 
L 18.40625 0 
L 9.421875 0 
z
" id="DejaVuSans-108"/>
      <path d="M 8.5 21.578125 
L 8.5 54.6875 
L 17.484375 54.6875 
L 17.484375 21.921875 
Q 17.484375 14.15625 20.5 10.265625 
Q 23.53125 6.390625 29.59375 6.390625 
Q 36.859375 6.390625 41.078125 11.03125 
Q 45.3125 15.671875 45.3125 23.6875 
L 45.3125 54.6875 
L 54.296875 54.6875 
L 54.296875 0 
L 45.3125 0 
L 45.3125 8.40625 
Q 42.046875 3.421875 37.71875 1 
Q 33.40625 -1.421875 27.6875 -1.421875 
Q 18.265625 -1.421875 13.375 4.4375 
Q 8.5 10.296875 8.5 21.578125 
z
M 31.109375 56 
z
" id="DejaVuSans-117"/>
      <path d="M 56.203125 29.59375 
L 56.203125 25.203125 
L 14.890625 25.203125 
Q 15.484375 15.921875 20.484375 11.0625 
Q 25.484375 6.203125 34.421875 6.203125 
Q 39.59375 6.203125 44.453125 7.46875 
Q 49.3125 8.734375 54.109375 11.28125 
L 54.109375 2.78125 
Q 49.265625 0.734375 44.1875 -0.34375 
Q 39.109375 -1.421875 33.890625 -1.421875 
Q 20.796875 -1.421875 13.15625 6.1875 
Q 5.515625 13.8125 5.515625 26.8125 
Q 5.515625 40.234375 12.765625 48.109375 
Q 20.015625 56 32.328125 56 
Q 43.359375 56 49.78125 48.890625 
Q 56.203125 41.796875 56.203125 29.59375 
z
M 47.21875 32.234375 
Q 47.125 39.59375 43.09375 43.984375 
Q 39.0625 48.390625 32.421875 48.390625 
Q 24.90625 48.390625 20.390625 44.140625 
Q 15.875 39.890625 15.1875 32.171875 
z
" id="DejaVuSans-101"/>
     </defs>
     <g transform="translate(114.6975 164.516562)scale(0.1 -0.1)">
      <use xlink:href="#DejaVuSans-103"/>
      <use x="63.476562" xlink:href="#DejaVuSans-114"/>
      <use x="104.589844" xlink:href="#DejaVuSans-97"/>
      <use x="165.869141" xlink:href="#DejaVuSans-121"/>
      <use x="225.048828" xlink:href="#DejaVuSans-32"/>
      <use x="256.835938" xlink:href="#DejaVuSans-118"/>
      <use x="316.015625" xlink:href="#DejaVuSans-97"/>
      <use x="377.294922" xlink:href="#DejaVuSans-108"/>
      <use x="405.078125" xlink:href="#DejaVuSans-117"/>
      <use x="468.457031" xlink:href="#DejaVuSans-101"/>
     </g>
    </g>
   </g>
   <g id="matplotlib.axis_2">
    <g id="ytick_1">
     <g id="line2d_5">
      <defs>
       <path d="M 0 0 
L -3.5 0 
" id="ma93b917eaf" style="stroke:#000000;stroke-width:0.8;"/>
      </defs>
      <g>
       <use style="stroke:#000000;stroke-width:0.8;" x="60.59" xlink:href="#ma93b917eaf" y="114.742984"/>
      </g>
     </g>
     <g id="text_6">
      <!-- 0.005 -->
      <defs>
       <path d="M 10.6875 12.40625 
L 21 12.40625 
L 21 0 
L 10.6875 0 
z
" id="DejaVuSans-46"/>
      </defs>
      <g transform="translate(24.961875 118.542203)scale(0.1 -0.1)">
       <use xlink:href="#DejaVuSans-48"/>
       <use x="63.623047" xlink:href="#DejaVuSans-46"/>
       <use x="95.410156" xlink:href="#DejaVuSans-48"/>
       <use x="159.033203" xlink:href="#DejaVuSans-48"/>
       <use x="222.65625" xlink:href="#DejaVuSans-53"/>
      </g>
     </g>
    </g>
    <g id="ytick_2">
     <g id="line2d_6">
      <g>
       <use style="stroke:#000000;stroke-width:0.8;" x="60.59" xlink:href="#ma93b917eaf" y="88.762921"/>
      </g>
     </g>
     <g id="text_7">
      <!-- 0.010 -->
      <g transform="translate(24.961875 92.56214)scale(0.1 -0.1)">
       <use xlink:href="#DejaVuSans-48"/>
       <use x="63.623047" xlink:href="#DejaVuSans-46"/>
       <use x="95.410156" xlink:href="#DejaVuSans-48"/>
       <use x="159.033203" xlink:href="#DejaVuSans-49"/>
       <use x="222.65625" xlink:href="#DejaVuSans-48"/>
      </g>
     </g>
    </g>
    <g id="ytick_3">
     <g id="line2d_7">
      <g>
       <use style="stroke:#000000;stroke-width:0.8;" x="60.59" xlink:href="#ma93b917eaf" y="62.782859"/>
      </g>
     </g>
     <g id="text_8">
      <!-- 0.015 -->
      <g transform="translate(24.961875 66.582077)scale(0.1 -0.1)">
       <use xlink:href="#DejaVuSans-48"/>
       <use x="63.623047" xlink:href="#DejaVuSans-46"/>
       <use x="95.410156" xlink:href="#DejaVuSans-48"/>
       <use x="159.033203" xlink:href="#DejaVuSans-49"/>
       <use x="222.65625" xlink:href="#DejaVuSans-53"/>
      </g>
     </g>
    </g>
    <g id="ytick_4">
     <g id="line2d_8">
      <g>
       <use style="stroke:#000000;stroke-width:0.8;" x="60.59" xlink:href="#ma93b917eaf" y="36.802796"/>
      </g>
     </g>
     <g id="text_9">
      <!-- 0.020 -->
      <g transform="translate(24.961875 40.602015)scale(0.1 -0.1)">
       <use xlink:href="#DejaVuSans-48"/>
       <use x="63.623047" xlink:href="#DejaVuSans-46"/>
       <use x="95.410156" xlink:href="#DejaVuSans-48"/>
       <use x="159.033203" xlink:href="#DejaVuSans-50"/>
       <use x="222.65625" xlink:href="#DejaVuSans-48"/>
      </g>
     </g>
    </g>
    <g id="text_10">
     <!-- pixel freq -->
     <defs>
      <path d="M 18.109375 8.203125 
L 18.109375 -20.796875 
L 9.078125 -20.796875 
L 9.078125 54.6875 
L 18.109375 54.6875 
L 18.109375 46.390625 
Q 20.953125 51.265625 25.265625 53.625 
Q 29.59375 56 35.59375 56 
Q 45.5625 56 51.78125 48.09375 
Q 58.015625 40.1875 58.015625 27.296875 
Q 58.015625 14.40625 51.78125 6.484375 
Q 45.5625 -1.421875 35.59375 -1.421875 
Q 29.59375 -1.421875 25.265625 0.953125 
Q 20.953125 3.328125 18.109375 8.203125 
z
M 48.6875 27.296875 
Q 48.6875 37.203125 44.609375 42.84375 
Q 40.53125 48.484375 33.40625 48.484375 
Q 26.265625 48.484375 22.1875 42.84375 
Q 18.109375 37.203125 18.109375 27.296875 
Q 18.109375 17.390625 22.1875 11.75 
Q 26.265625 6.109375 33.40625 6.109375 
Q 40.53125 6.109375 44.609375 11.75 
Q 48.6875 17.390625 48.6875 27.296875 
z
" id="DejaVuSans-112"/>
      <path d="M 9.421875 54.6875 
L 18.40625 54.6875 
L 18.40625 0 
L 9.421875 0 
z
M 9.421875 75.984375 
L 18.40625 75.984375 
L 18.40625 64.59375 
L 9.421875 64.59375 
z
" id="DejaVuSans-105"/>
      <path d="M 54.890625 54.6875 
L 35.109375 28.078125 
L 55.90625 0 
L 45.3125 0 
L 29.390625 21.484375 
L 13.484375 0 
L 2.875 0 
L 24.125 28.609375 
L 4.6875 54.6875 
L 15.28125 54.6875 
L 29.78125 35.203125 
L 44.28125 54.6875 
z
" id="DejaVuSans-120"/>
      <path d="M 37.109375 75.984375 
L 37.109375 68.5 
L 28.515625 68.5 
Q 23.6875 68.5 21.796875 66.546875 
Q 19.921875 64.59375 19.921875 59.515625 
L 19.921875 54.6875 
L 34.71875 54.6875 
L 34.71875 47.703125 
L 19.921875 47.703125 
L 19.921875 0 
L 10.890625 0 
L 10.890625 47.703125 
L 2.296875 47.703125 
L 2.296875 54.6875 
L 10.890625 54.6875 
L 10.890625 58.5 
Q 10.890625 67.625 15.140625 71.796875 
Q 19.390625 75.984375 28.609375 75.984375 
z
" id="DejaVuSans-102"/>
      <path d="M 14.796875 27.296875 
Q 14.796875 17.390625 18.875 11.75 
Q 22.953125 6.109375 30.078125 6.109375 
Q 37.203125 6.109375 41.296875 11.75 
Q 45.40625 17.390625 45.40625 27.296875 
Q 45.40625 37.203125 41.296875 42.84375 
Q 37.203125 48.484375 30.078125 48.484375 
Q 22.953125 48.484375 18.875 42.84375 
Q 14.796875 37.203125 14.796875 27.296875 
z
M 45.40625 8.203125 
Q 42.578125 3.328125 38.25 0.953125 
Q 33.9375 -1.421875 27.875 -1.421875 
Q 17.96875 -1.421875 11.734375 6.484375 
Q 5.515625 14.40625 5.515625 27.296875 
Q 5.515625 40.1875 11.734375 48.09375 
Q 17.96875 56 27.875 56 
Q 33.9375 56 38.25 53.625 
Q 42.578125 51.265625 45.40625 46.390625 
L 45.40625 54.6875 
L 54.390625 54.6875 
L 54.390625 -20.796875 
L 45.40625 -20.796875 
z
" id="DejaVuSans-113"/>
     </defs>
     <g transform="translate(18.882188 104.215)rotate(-90)scale(0.1 -0.1)">
      <use xlink:href="#DejaVuSans-112"/>
      <use x="63.476562" xlink:href="#DejaVuSans-105"/>
      <use x="91.259766" xlink:href="#DejaVuSans-120"/>
      <use x="147.314453" xlink:href="#DejaVuSans-101"/>
      <use x="208.837891" xlink:href="#DejaVuSans-108"/>
      <use x="236.621094" xlink:href="#DejaVuSans-32"/>
      <use x="268.408203" xlink:href="#DejaVuSans-102"/>
      <use x="303.613281" xlink:href="#DejaVuSans-114"/>
      <use x="342.476562" xlink:href="#DejaVuSans-101"/>
      <use x="404" xlink:href="#DejaVuSans-113"/>
     </g>
    </g>
   </g>
   <g id="line2d_9">
    <path clip-path="url(#p284c8784dc)" d="M 60.59 30.476364 
L 61.222216 121.134107 
L 61.854431 101.070486 
L 62.486647 121.382856 
L 63.118863 106.986634 
L 63.751078 121.50146 
L 64.383294 107.355338 
L 65.01551 122.041273 
L 65.647725 115.272783 
L 66.279941 122.084879 
L 66.912157 116.302517 
L 67.544373 122.230293 
L 68.176588 119.231593 
L 68.808804 122.098945 
L 69.44102 118.396724 
L 70.073235 121.297316 
L 70.705451 116.5192 
L 71.337667 120.613 
L 71.969882 115.306611 
L 72.602098 119.926364 
L 73.234314 113.329746 
L 73.866529 119.893827 
L 74.498745 114.415684 
L 75.130961 119.912592 
L 75.763176 115.897254 
L 76.395392 120.071455 
L 77.027608 117.493875 
L 77.659824 119.837212 
L 78.292039 117.020955 
L 78.924255 119.443489 
L 79.556471 116.246753 
L 80.188686 118.587154 
L 80.820902 113.873787 
L 81.453118 118.307102 
L 82.085333 113.381722 
L 82.717549 118.401951 
L 83.349765 114.601064 
L 83.98198 118.765927 
L 84.614196 115.195642 
L 85.246412 118.976531 
L 85.878627 117.418965 
L 86.510843 119.110464 
L 87.143059 117.492172 
L 87.775275 118.68394 
L 88.40749 115.996125 
L 89.039706 118.255274 
L 89.671922 115.364724 
L 90.304137 117.96512 
L 90.936353 114.112023 
L 91.568569 118.115967 
L 92.200784 114.850518 
L 92.833 118.536471 
L 93.465216 116.192986 
L 94.097431 118.926846 
L 94.729647 117.560034 
L 95.361863 119.050383 
L 95.994078 117.639201 
L 96.626294 119.012473 
L 97.25851 117.301095 
L 97.890725 118.761434 
L 98.522941 116.483815 
L 99.155157 118.652931 
L 99.787373 115.803345 
L 100.419588 118.700414 
L 101.051804 116.419154 
L 101.68402 119.166932 
L 102.316235 117.208479 
L 102.948451 119.458935 
L 103.580667 118.244614 
L 104.212882 119.670009 
L 104.845098 118.62712 
L 105.477314 119.5914 
L 106.109529 118.239211 
L 106.741745 119.362208 
L 107.373961 117.174885 
L 108.006176 119.179207 
L 108.638392 116.570911 
L 109.270608 119.254263 
L 109.902824 117.03922 
L 110.535039 119.608989 
L 111.167255 117.906861 
L 111.799471 119.982215 
L 112.431686 118.909168 
L 113.063902 120.128922 
L 113.696118 119.121182 
L 114.328333 120.157699 
L 114.960549 119.188075 
L 115.592765 119.993198 
L 116.22498 118.309129 
L 116.857196 119.780538 
L 117.489412 117.711673 
L 118.121627 119.850632 
L 118.753843 117.893206 
L 119.386059 120.212758 
L 120.018275 118.479033 
L 120.65049 120.511868 
L 121.282706 119.635711 
L 121.914922 120.729754 
L 122.547137 119.865549 
L 123.179353 120.752629 
L 123.811569 119.732527 
L 124.443784 120.671289 
L 125.076 119.173334 
L 125.708216 120.450994 
L 126.340431 118.45005 
L 126.972647 120.48958 
L 127.604863 118.699386 
L 128.237078 120.808187 
L 128.869294 119.229508 
L 129.50151 121.135311 
L 130.133725 120.093537 
L 130.765941 121.306096 
L 131.398157 120.579142 
L 132.030373 121.42937 
L 132.662588 120.544051 
L 133.294804 121.208106 
L 133.92702 119.583647 
L 134.559235 121.122508 
L 135.191451 119.11481 
L 135.823667 121.053794 
L 136.455882 118.944347 
L 137.088098 121.319692 
L 137.720314 119.731558 
L 138.352529 121.674771 
L 138.984745 120.663008 
L 139.616961 121.86664 
L 140.249176 121.061899 
L 140.881392 121.898707 
L 141.513608 120.977886 
L 142.145824 121.828114 
L 142.778039 120.516448 
L 143.410255 121.679528 
L 144.042471 119.705922 
L 144.674686 121.674683 
L 145.306902 119.540217 
L 145.939118 121.922668 
L 146.571333 120.280972 
L 147.203549 122.232173 
L 147.835765 120.992216 
L 148.46798 122.522414 
L 149.100196 121.425611 
L 149.732412 122.644395 
L 150.364627 121.629843 
L 150.996843 122.548167 
L 151.629059 121.208517 
L 152.261275 122.402224 
L 152.89349 120.394232 
L 153.525706 122.379701 
L 154.157922 120.295185 
L 154.790137 122.599115 
L 155.422353 120.995358 
L 156.054569 122.976364 
L 156.686784 121.840006 
L 157.319 123.233071 
L 157.951216 122.484534 
L 158.583431 123.338872 
L 159.215647 122.421253 
L 159.847863 123.261143 
L 160.480078 122.047968 
L 161.112294 123.165091 
L 161.74451 121.330234 
L 162.376725 123.131557 
L 163.008941 121.169491 
L 163.641157 123.369529 
L 164.273373 121.527653 
L 164.905588 123.624092 
L 165.537804 122.241393 
L 166.17002 123.841332 
L 166.802235 122.853972 
L 167.434451 123.973738 
L 168.066667 122.997125 
L 168.698882 123.898858 
L 169.331098 122.564112 
L 169.963314 123.787918 
L 170.595529 122.013376 
L 171.227745 123.753532 
L 171.859961 121.022257 
L 172.492176 123.914069 
L 173.124392 121.733647 
L 173.756608 124.198202 
L 174.388824 122.699983 
L 175.021039 124.484509 
L 175.653255 123.525926 
L 176.285471 124.62405 
L 176.917686 123.479999 
L 177.549902 124.606226 
L 178.182118 123.343424 
L 178.814333 124.487768 
L 179.446549 122.415233 
L 180.078765 124.447362 
L 180.71098 121.750738 
L 181.343196 124.510732 
L 181.975412 122.136767 
L 182.607627 124.799328 
L 183.239843 122.739155 
L 183.872059 125.052306 
L 184.504275 123.729335 
L 185.13649 125.259357 
L 185.768706 123.843094 
L 186.400922 125.246554 
L 187.033137 123.638099 
L 187.665353 125.156257 
L 188.297569 122.880547 
L 188.929784 125.069514 
L 189.562 122.399787 
L 190.194216 125.194196 
L 190.826431 122.461835 
L 191.458647 125.473044 
L 192.090863 123.517615 
L 192.723078 125.77835 
L 193.355294 124.311756 
L 193.98751 125.935451 
L 194.619725 124.491468 
L 195.251941 126.026834 
L 195.884157 124.172508 
L 196.516373 125.90685 
L 197.148588 123.461029 
L 197.780804 125.892931 
L 198.41302 122.846895 
L 199.045235 125.961968 
L 199.677451 122.789428 
L 200.309667 126.134691 
L 200.941882 122.923302 
L 201.574098 126.465015 
L 202.206314 124.583116 
L 202.838529 126.669482 
L 203.470745 124.917698 
L 204.102961 126.661965 
L 204.735176 124.538746 
L 205.367392 126.61965 
L 205.999608 123.803804 
L 206.631824 126.575427 
L 207.264039 123.232131 
L 207.896255 126.612984 
L 208.528471 122.883307 
L 209.160686 126.746477 
L 209.792902 122.380201 
L 210.425118 126.948066 
L 211.057333 123.883324 
L 211.689549 127.049374 
L 212.321765 124.323531 
L 212.95398 127.109513 
L 213.586196 123.93712 
L 214.218412 126.874448 
L 214.850627 122.016929 
L 215.482843 126.509943 
L 216.115059 121.882703 
L 216.747275 126.032061 
L 217.37949 120.530015 
L 218.011706 125.391351 
L 218.643922 115.545024 
L 219.276137 124.99895 
L 219.908353 97.921497 
L 220.540569 126.963394 
L 221.172784 82.719917 
L 221.805 131.203636 
L 221.805 131.203636 
" style="fill:none;stroke:#0000ff;stroke-linecap:square;stroke-width:1.5;"/>
   </g>
   <g id="line2d_10">
    <path clip-path="url(#p284c8784dc)" d="M 60.59 55.49752 
L 61.222216 120.821167 
L 61.854431 108.900277 
L 62.486647 120.189296 
L 63.118863 111.601806 
L 63.751078 119.962277 
L 64.383294 113.404655 
L 65.01551 119.313433 
L 65.647725 114.932269 
L 66.279941 118.909315 
L 66.912157 115.85353 
L 67.544373 118.565043 
L 68.176588 116.33567 
L 68.808804 118.364452 
L 69.44102 116.467958 
L 70.073235 118.314737 
L 70.705451 116.737409 
L 71.337667 118.210287 
L 71.969882 116.425027 
L 72.602098 118.078645 
L 73.234314 115.884333 
L 73.866529 118.164948 
L 74.498745 115.941918 
L 75.130961 118.23278 
L 75.763176 116.412459 
L 76.395392 118.311889 
L 77.027608 116.089887 
L 77.659824 118.365245 
L 78.292039 116.315056 
L 78.924255 118.389089 
L 79.556471 116.677065 
L 80.188686 118.44961 
L 80.820902 116.805212 
L 81.453118 118.393582 
L 82.085333 116.912952 
L 82.717549 118.367359 
L 83.349765 117.038897 
L 83.98198 118.201918 
L 84.614196 117.006038 
L 85.246412 117.982387 
L 85.878627 116.871342 
L 86.510843 117.815331 
L 87.143059 116.53397 
L 87.775275 117.582967 
L 88.40749 116.353494 
L 89.039706 117.377943 
L 89.671922 116.291065 
L 90.304137 117.332897 
L 90.936353 116.263051 
L 91.568569 117.221252 
L 92.200784 116.2691 
L 92.833 117.232998 
L 93.465216 116.302077 
L 94.097431 117.281802 
L 94.729647 116.459325 
L 95.361863 117.288468 
L 95.994078 116.524573 
L 96.626294 117.387251 
L 97.25851 116.638802 
L 97.890725 117.468298 
L 98.522941 116.819689 
L 99.155157 117.557185 
L 99.787373 116.988155 
L 100.419588 117.674233 
L 101.051804 117.108022 
L 101.68402 117.824493 
L 102.316235 117.33968 
L 102.948451 117.998949 
L 103.580667 117.56573 
L 104.212882 118.138607 
L 104.845098 117.693408 
L 105.477314 118.30581 
L 106.109529 117.855208 
L 106.741745 118.46485 
L 107.373961 118.044053 
L 108.006176 118.600251 
L 108.638392 118.181803 
L 109.270608 118.727107 
L 109.902824 118.250223 
L 110.535039 118.833143 
L 111.167255 118.444118 
L 111.799471 118.927639 
L 112.431686 118.581105 
L 113.063902 119.008539 
L 113.696118 118.620013 
L 114.328333 119.194975 
L 114.960549 118.780815 
L 115.592765 119.225574 
L 116.22498 118.895543 
L 116.857196 119.413714 
L 117.489412 119.053261 
L 118.121627 119.474763 
L 118.753843 119.109935 
L 119.386059 119.535988 
L 120.018275 119.213945 
L 120.65049 119.684369 
L 121.282706 119.401821 
L 121.914922 119.770818 
L 122.547137 119.511058 
L 123.179353 119.884284 
L 123.811569 119.577275 
L 124.443784 119.95887 
L 125.076 119.602617 
L 125.708216 120.022709 
L 126.340431 119.672916 
L 126.972647 120.038331 
L 127.604863 119.706363 
L 128.237078 120.149095 
L 128.869294 119.716846 
L 129.50151 120.152883 
L 130.133725 119.794956 
L 130.765941 120.201423 
L 131.398157 119.727124 
L 132.030373 120.262943 
L 132.662588 119.784033 
L 133.294804 120.343402 
L 133.92702 119.917378 
L 134.559235 120.503029 
L 135.191451 120.141137 
L 135.823667 120.644949 
L 136.455882 120.272985 
L 137.088098 120.714837 
L 137.720314 120.37077 
L 138.352529 120.839549 
L 138.984745 120.434814 
L 139.616961 120.960737 
L 140.249176 120.549778 
L 140.881392 121.079577 
L 141.513608 120.666943 
L 142.145824 121.216651 
L 142.778039 120.772979 
L 143.410255 121.389375 
L 144.042471 121.038114 
L 144.674686 121.581743 
L 145.306902 121.192748 
L 145.939118 121.731533 
L 146.571333 121.435037 
L 147.203549 121.881763 
L 147.835765 121.559221 
L 148.46798 122.053929 
L 149.100196 121.75802 
L 149.732412 122.181372 
L 150.364627 121.97761 
L 150.996843 122.335596 
L 151.629059 122.168158 
L 152.261275 122.481509 
L 152.89349 122.28453 
L 153.525706 122.627364 
L 154.157922 122.418375 
L 154.790137 122.780736 
L 155.422353 122.576622 
L 156.054569 122.881222 
L 156.686784 122.750931 
L 157.319 123.025638 
L 157.951216 122.869153 
L 158.583431 123.198303 
L 159.215647 123.03944 
L 159.847863 123.26129 
L 160.480078 123.110532 
L 161.112294 123.316026 
L 161.74451 123.206378 
L 162.376725 123.430314 
L 163.008941 123.302783 
L 163.641157 123.551062 
L 164.273373 123.435012 
L 164.905588 123.617426 
L 165.537804 123.520346 
L 166.17002 123.691572 
L 166.802235 123.582247 
L 167.434451 123.709749 
L 168.066667 123.597605 
L 168.698882 123.790179 
L 169.331098 123.646673 
L 169.963314 123.75914 
L 170.595529 123.555936 
L 171.227745 123.767245 
L 171.859961 123.571089 
L 172.492176 123.737763 
L 173.124392 123.509599 
L 173.756608 123.782779 
L 174.388824 123.45178 
L 175.021039 123.719322 
L 175.653255 123.426203 
L 176.285471 123.656716 
L 176.917686 123.361307 
L 177.549902 123.625355 
L 178.182118 123.321312 
L 178.814333 123.612405 
L 179.446549 123.214659 
L 180.078765 123.58953 
L 180.71098 123.175692 
L 181.343196 123.546099 
L 181.975412 123.143244 
L 182.607627 123.573526 
L 183.239843 123.136343 
L 183.872059 123.565039 
L 184.504275 123.037501 
L 185.13649 123.578283 
L 185.768706 123.048161 
L 186.400922 123.546686 
L 187.033137 122.948849 
L 187.665353 123.628174 
L 188.297569 122.986612 
L 188.929784 123.701086 
L 189.562 123.081725 
L 190.194216 123.873898 
L 190.826431 123.181947 
L 191.458647 124.074547 
L 192.090863 123.395252 
L 192.723078 124.221665 
L 193.355294 123.584802 
L 193.98751 124.387811 
L 194.619725 123.666142 
L 195.251941 124.50894 
L 195.884157 123.627205 
L 196.516373 124.595801 
L 197.148588 123.721025 
L 197.780804 124.715698 
L 198.41302 123.917798 
L 199.045235 124.877644 
L 199.677451 123.905964 
L 200.309667 124.982242 
L 200.941882 123.862681 
L 201.574098 125.066372 
L 202.206314 123.806594 
L 202.838529 125.066078 
L 203.470745 123.450399 
L 204.102961 125.128919 
L 204.735176 123.311768 
L 205.367392 125.176989 
L 205.999608 122.836059 
L 206.631824 125.189997 
L 207.264039 122.232731 
L 207.896255 125.206119 
L 208.528471 121.606116 
L 209.160686 125.234191 
L 209.792902 121.243843 
L 210.425118 125.28326 
L 211.057333 120.986843 
L 211.689549 125.35814 
L 212.321765 120.722736 
L 212.95398 125.49498 
L 213.586196 120.342315 
L 214.218412 125.664737 
L 214.850627 120.016044 
L 215.482843 125.88556 
L 216.115059 119.287944 
L 216.747275 126.16432 
L 217.37949 118.884561 
L 218.011706 126.562154 
L 218.643922 118.826037 
L 219.276137 126.904576 
L 219.908353 119.136628 
L 220.540569 127.006619 
L 221.172784 101.763641 
L 221.805 130.968454 
L 221.805 130.968454 
" style="fill:none;stroke:#008000;stroke-linecap:square;stroke-width:1.5;"/>
   </g>
   <g id="patch_3">
    <path d="M 60.59 136.24 
L 60.59 25.44 
" style="fill:none;stroke:#000000;stroke-linecap:square;stroke-linejoin:miter;stroke-width:0.8;"/>
   </g>
   <g id="patch_4">
    <path d="M 221.805 136.24 
L 221.805 25.44 
" style="fill:none;stroke:#000000;stroke-linecap:square;stroke-linejoin:miter;stroke-width:0.8;"/>
   </g>
   <g id="patch_5">
    <path d="M 60.59 136.24 
L 221.805 136.24 
" style="fill:none;stroke:#000000;stroke-linecap:square;stroke-linejoin:miter;stroke-width:0.8;"/>
   </g>
   <g id="patch_6">
    <path d="M 60.59 25.44 
L 221.805 25.44 
" style="fill:none;stroke:#000000;stroke-linecap:square;stroke-linejoin:miter;stroke-width:0.8;"/>
   </g>
   <g id="text_11">
    <!-- Progan-person-cA/ -->
    <defs>
     <path d="M 19.671875 64.796875 
L 19.671875 37.40625 
L 32.078125 37.40625 
Q 38.96875 37.40625 42.71875 40.96875 
Q 46.484375 44.53125 46.484375 51.125 
Q 46.484375 57.671875 42.71875 61.234375 
Q 38.96875 64.796875 32.078125 64.796875 
z
M 9.8125 72.90625 
L 32.078125 72.90625 
Q 44.34375 72.90625 50.609375 67.359375 
Q 56.890625 61.8125 56.890625 51.125 
Q 56.890625 40.328125 50.609375 34.8125 
Q 44.34375 29.296875 32.078125 29.296875 
L 19.671875 29.296875 
L 19.671875 0 
L 9.8125 0 
z
" id="DejaVuSans-80"/>
     <path d="M 30.609375 48.390625 
Q 23.390625 48.390625 19.1875 42.75 
Q 14.984375 37.109375 14.984375 27.296875 
Q 14.984375 17.484375 19.15625 11.84375 
Q 23.34375 6.203125 30.609375 6.203125 
Q 37.796875 6.203125 41.984375 11.859375 
Q 46.1875 17.53125 46.1875 27.296875 
Q 46.1875 37.015625 41.984375 42.703125 
Q 37.796875 48.390625 30.609375 48.390625 
z
M 30.609375 56 
Q 42.328125 56 49.015625 48.375 
Q 55.71875 40.765625 55.71875 27.296875 
Q 55.71875 13.875 49.015625 6.21875 
Q 42.328125 -1.421875 30.609375 -1.421875 
Q 18.84375 -1.421875 12.171875 6.21875 
Q 5.515625 13.875 5.515625 27.296875 
Q 5.515625 40.765625 12.171875 48.375 
Q 18.84375 56 30.609375 56 
z
" id="DejaVuSans-111"/>
     <path d="M 54.890625 33.015625 
L 54.890625 0 
L 45.90625 0 
L 45.90625 32.71875 
Q 45.90625 40.484375 42.875 44.328125 
Q 39.84375 48.1875 33.796875 48.1875 
Q 26.515625 48.1875 22.3125 43.546875 
Q 18.109375 38.921875 18.109375 30.90625 
L 18.109375 0 
L 9.078125 0 
L 9.078125 54.6875 
L 18.109375 54.6875 
L 18.109375 46.1875 
Q 21.34375 51.125 25.703125 53.5625 
Q 30.078125 56 35.796875 56 
Q 45.21875 56 50.046875 50.171875 
Q 54.890625 44.34375 54.890625 33.015625 
z
" id="DejaVuSans-110"/>
     <path d="M 4.890625 31.390625 
L 31.203125 31.390625 
L 31.203125 23.390625 
L 4.890625 23.390625 
z
" id="DejaVuSans-45"/>
     <path d="M 44.28125 53.078125 
L 44.28125 44.578125 
Q 40.484375 46.53125 36.375 47.5 
Q 32.28125 48.484375 27.875 48.484375 
Q 21.1875 48.484375 17.84375 46.4375 
Q 14.5 44.390625 14.5 40.28125 
Q 14.5 37.15625 16.890625 35.375 
Q 19.28125 33.59375 26.515625 31.984375 
L 29.59375 31.296875 
Q 39.15625 29.25 43.1875 25.515625 
Q 47.21875 21.78125 47.21875 15.09375 
Q 47.21875 7.46875 41.1875 3.015625 
Q 35.15625 -1.421875 24.609375 -1.421875 
Q 20.21875 -1.421875 15.453125 -0.5625 
Q 10.6875 0.296875 5.421875 2 
L 5.421875 11.28125 
Q 10.40625 8.6875 15.234375 7.390625 
Q 20.0625 6.109375 24.8125 6.109375 
Q 31.15625 6.109375 34.5625 8.28125 
Q 37.984375 10.453125 37.984375 14.40625 
Q 37.984375 18.0625 35.515625 20.015625 
Q 33.0625 21.96875 24.703125 23.78125 
L 21.578125 24.515625 
Q 13.234375 26.265625 9.515625 29.90625 
Q 5.8125 33.546875 5.8125 39.890625 
Q 5.8125 47.609375 11.28125 51.796875 
Q 16.75 56 26.8125 56 
Q 31.78125 56 36.171875 55.265625 
Q 40.578125 54.546875 44.28125 53.078125 
z
" id="DejaVuSans-115"/>
     <path d="M 48.78125 52.59375 
L 48.78125 44.1875 
Q 44.96875 46.296875 41.140625 47.34375 
Q 37.3125 48.390625 33.40625 48.390625 
Q 24.65625 48.390625 19.8125 42.84375 
Q 14.984375 37.3125 14.984375 27.296875 
Q 14.984375 17.28125 19.8125 11.734375 
Q 24.65625 6.203125 33.40625 6.203125 
Q 37.3125 6.203125 41.140625 7.25 
Q 44.96875 8.296875 48.78125 10.40625 
L 48.78125 2.09375 
Q 45.015625 0.34375 40.984375 -0.53125 
Q 36.96875 -1.421875 32.421875 -1.421875 
Q 20.0625 -1.421875 12.78125 6.34375 
Q 5.515625 14.109375 5.515625 27.296875 
Q 5.515625 40.671875 12.859375 48.328125 
Q 20.21875 56 33.015625 56 
Q 37.15625 56 41.109375 55.140625 
Q 45.0625 54.296875 48.78125 52.59375 
z
" id="DejaVuSans-99"/>
     <path d="M 34.1875 63.1875 
L 20.796875 26.90625 
L 47.609375 26.90625 
z
M 28.609375 72.90625 
L 39.796875 72.90625 
L 67.578125 0 
L 57.328125 0 
L 50.6875 18.703125 
L 17.828125 18.703125 
L 11.1875 0 
L 0.78125 0 
z
" id="DejaVuSans-65"/>
     <path d="M 25.390625 72.90625 
L 33.6875 72.90625 
L 8.296875 -9.28125 
L 0 -9.28125 
z
" id="DejaVuSans-47"/>
    </defs>
    <g transform="translate(86.0725 19.44)scale(0.12 -0.12)">
     <use xlink:href="#DejaVuSans-80"/>
     <use x="58.552734" xlink:href="#DejaVuSans-114"/>
     <use x="97.416016" xlink:href="#DejaVuSans-111"/>
     <use x="158.597656" xlink:href="#DejaVuSans-103"/>
     <use x="222.074219" xlink:href="#DejaVuSans-97"/>
     <use x="283.353516" xlink:href="#DejaVuSans-110"/>
     <use x="346.732422" xlink:href="#DejaVuSans-45"/>
     <use x="382.816406" xlink:href="#DejaVuSans-112"/>
     <use x="446.292969" xlink:href="#DejaVuSans-101"/>
     <use x="507.816406" xlink:href="#DejaVuSans-114"/>
     <use x="548.929688" xlink:href="#DejaVuSans-115"/>
     <use x="601.029297" xlink:href="#DejaVuSans-111"/>
     <use x="662.210938" xlink:href="#DejaVuSans-110"/>
     <use x="725.589844" xlink:href="#DejaVuSans-45"/>
     <use x="761.673828" xlink:href="#DejaVuSans-99"/>
     <use x="816.654297" xlink:href="#DejaVuSans-65"/>
     <use x="885.0625" xlink:href="#DejaVuSans-47"/>
    </g>
   </g>
   <g id="legend_1">
    <g id="patch_7">
     <path d="M 161.575312 62.79625 
L 214.805 62.79625 
Q 216.805 62.79625 216.805 60.79625 
L 216.805 32.44 
Q 216.805 30.44 214.805 30.44 
L 161.575312 30.44 
Q 159.575312 30.44 159.575312 32.44 
L 159.575312 60.79625 
Q 159.575312 62.79625 161.575312 62.79625 
z
" style="fill:#ffffff;opacity:0.8;stroke:#cccccc;stroke-linejoin:miter;"/>
    </g>
    <g id="line2d_11">
     <path d="M 163.575312 38.538437 
L 183.575312 38.538437 
" style="fill:none;stroke:#0000ff;stroke-linecap:square;stroke-width:1.5;"/>
    </g>
    <g id="line2d_12"/>
    <g id="text_12">
     <!-- real -->
     <g transform="translate(191.575312 42.038437)scale(0.1 -0.1)">
      <use xlink:href="#DejaVuSans-114"/>
      <use x="38.863281" xlink:href="#DejaVuSans-101"/>
      <use x="100.386719" xlink:href="#DejaVuSans-97"/>
      <use x="161.666016" xlink:href="#DejaVuSans-108"/>
     </g>
    </g>
    <g id="line2d_13">
     <path d="M 163.575312 53.216563 
L 183.575312 53.216563 
" style="fill:none;stroke:#008000;stroke-linecap:square;stroke-width:1.5;"/>
    </g>
    <g id="line2d_14"/>
    <g id="text_13">
     <!-- fake -->
     <defs>
      <path d="M 9.078125 75.984375 
L 18.109375 75.984375 
L 18.109375 31.109375 
L 44.921875 54.6875 
L 56.390625 54.6875 
L 27.390625 29.109375 
L 57.625 0 
L 45.90625 0 
L 18.109375 26.703125 
L 18.109375 0 
L 9.078125 0 
z
" id="DejaVuSans-107"/>
     </defs>
     <g transform="translate(191.575312 56.716563)scale(0.1 -0.1)">
      <use xlink:href="#DejaVuSans-102"/>
      <use x="35.205078" xlink:href="#DejaVuSans-97"/>
      <use x="96.484375" xlink:href="#DejaVuSans-107"/>
      <use x="150.769531" xlink:href="#DejaVuSans-101"/>
     </g>
    </g>
   </g>
  </g>
  <g id="axes_2">
   <g id="patch_8">
    <path d="M 279.2 136.24 
L 440.415 136.24 
L 440.415 25.44 
L 279.2 25.44 
z
" style="fill:#ffffff;"/>
   </g>
   <g id="matplotlib.axis_3">
    <g id="xtick_5">
     <g id="line2d_15">
      <g>
       <use style="stroke:#000000;stroke-width:0.8;" x="279.2" xlink:href="#mb241a20860" y="136.24"/>
      </g>
     </g>
     <g id="text_14">
      <!-- 0 -->
      <g transform="translate(276.01875 150.838437)scale(0.1 -0.1)">
       <use xlink:href="#DejaVuSans-48"/>
      </g>
     </g>
    </g>
    <g id="xtick_6">
     <g id="line2d_16">
      <g>
       <use style="stroke:#000000;stroke-width:0.8;" x="332.938333" xlink:href="#mb241a20860" y="136.24"/>
      </g>
     </g>
     <g id="text_15">
      <!-- 85 -->
      <g transform="translate(326.575833 150.838437)scale(0.1 -0.1)">
       <use xlink:href="#DejaVuSans-56"/>
       <use x="63.623047" xlink:href="#DejaVuSans-53"/>
      </g>
     </g>
    </g>
    <g id="xtick_7">
     <g id="line2d_17">
      <g>
       <use style="stroke:#000000;stroke-width:0.8;" x="386.676667" xlink:href="#mb241a20860" y="136.24"/>
      </g>
     </g>
     <g id="text_16">
      <!-- 170 -->
      <g transform="translate(377.132917 150.838437)scale(0.1 -0.1)">
       <use xlink:href="#DejaVuSans-49"/>
       <use x="63.623047" xlink:href="#DejaVuSans-55"/>
       <use x="127.246094" xlink:href="#DejaVuSans-48"/>
      </g>
     </g>
    </g>
    <g id="xtick_8">
     <g id="line2d_18">
      <g>
       <use style="stroke:#000000;stroke-width:0.8;" x="440.415" xlink:href="#mb241a20860" y="136.24"/>
      </g>
     </g>
     <g id="text_17">
      <!-- 255 -->
      <g transform="translate(430.87125 150.838437)scale(0.1 -0.1)">
       <use xlink:href="#DejaVuSans-50"/>
       <use x="63.623047" xlink:href="#DejaVuSans-53"/>
       <use x="127.246094" xlink:href="#DejaVuSans-53"/>
      </g>
     </g>
    </g>
    <g id="text_18">
     <!-- gray value -->
     <g transform="translate(333.3075 164.516562)scale(0.1 -0.1)">
      <use xlink:href="#DejaVuSans-103"/>
      <use x="63.476562" xlink:href="#DejaVuSans-114"/>
      <use x="104.589844" xlink:href="#DejaVuSans-97"/>
      <use x="165.869141" xlink:href="#DejaVuSans-121"/>
      <use x="225.048828" xlink:href="#DejaVuSans-32"/>
      <use x="256.835938" xlink:href="#DejaVuSans-118"/>
      <use x="316.015625" xlink:href="#DejaVuSans-97"/>
      <use x="377.294922" xlink:href="#DejaVuSans-108"/>
      <use x="405.078125" xlink:href="#DejaVuSans-117"/>
      <use x="468.457031" xlink:href="#DejaVuSans-101"/>
     </g>
    </g>
   </g>
   <g id="matplotlib.axis_4">
    <g id="ytick_5">
     <g id="line2d_19">
      <g>
       <use style="stroke:#000000;stroke-width:0.8;" x="279.2" xlink:href="#ma93b917eaf" y="131.214467"/>
      </g>
     </g>
     <g id="text_19">
      <!-- 0.0 -->
      <g transform="translate(256.296875 135.013686)scale(0.1 -0.1)">
       <use xlink:href="#DejaVuSans-48"/>
       <use x="63.623047" xlink:href="#DejaVuSans-46"/>
       <use x="95.410156" xlink:href="#DejaVuSans-48"/>
      </g>
     </g>
    </g>
    <g id="ytick_6">
     <g id="line2d_20">
      <g>
       <use style="stroke:#000000;stroke-width:0.8;" x="279.2" xlink:href="#ma93b917eaf" y="104.444877"/>
      </g>
     </g>
     <g id="text_20">
      <!-- 0.1 -->
      <g transform="translate(256.296875 108.244096)scale(0.1 -0.1)">
       <use xlink:href="#DejaVuSans-48"/>
       <use x="63.623047" xlink:href="#DejaVuSans-46"/>
       <use x="95.410156" xlink:href="#DejaVuSans-49"/>
      </g>
     </g>
    </g>
    <g id="ytick_7">
     <g id="line2d_21">
      <g>
       <use style="stroke:#000000;stroke-width:0.8;" x="279.2" xlink:href="#ma93b917eaf" y="77.675287"/>
      </g>
     </g>
     <g id="text_21">
      <!-- 0.2 -->
      <g transform="translate(256.296875 81.474505)scale(0.1 -0.1)">
       <use xlink:href="#DejaVuSans-48"/>
       <use x="63.623047" xlink:href="#DejaVuSans-46"/>
       <use x="95.410156" xlink:href="#DejaVuSans-50"/>
      </g>
     </g>
    </g>
    <g id="ytick_8">
     <g id="line2d_22">
      <g>
       <use style="stroke:#000000;stroke-width:0.8;" x="279.2" xlink:href="#ma93b917eaf" y="50.905697"/>
      </g>
     </g>
     <g id="text_22">
      <!-- 0.3 -->
      <defs>
       <path d="M 40.578125 39.3125 
Q 47.65625 37.796875 51.625 33 
Q 55.609375 28.21875 55.609375 21.1875 
Q 55.609375 10.40625 48.1875 4.484375 
Q 40.765625 -1.421875 27.09375 -1.421875 
Q 22.515625 -1.421875 17.65625 -0.515625 
Q 12.796875 0.390625 7.625 2.203125 
L 7.625 11.71875 
Q 11.71875 9.328125 16.59375 8.109375 
Q 21.484375 6.890625 26.8125 6.890625 
Q 36.078125 6.890625 40.9375 10.546875 
Q 45.796875 14.203125 45.796875 21.1875 
Q 45.796875 27.640625 41.28125 31.265625 
Q 36.765625 34.90625 28.71875 34.90625 
L 20.21875 34.90625 
L 20.21875 43.015625 
L 29.109375 43.015625 
Q 36.375 43.015625 40.234375 45.921875 
Q 44.09375 48.828125 44.09375 54.296875 
Q 44.09375 59.90625 40.109375 62.90625 
Q 36.140625 65.921875 28.71875 65.921875 
Q 24.65625 65.921875 20.015625 65.03125 
Q 15.375 64.15625 9.8125 62.3125 
L 9.8125 71.09375 
Q 15.4375 72.65625 20.34375 73.4375 
Q 25.25 74.21875 29.59375 74.21875 
Q 40.828125 74.21875 47.359375 69.109375 
Q 53.90625 64.015625 53.90625 55.328125 
Q 53.90625 49.265625 50.4375 45.09375 
Q 46.96875 40.921875 40.578125 39.3125 
z
" id="DejaVuSans-51"/>
      </defs>
      <g transform="translate(256.296875 54.704915)scale(0.1 -0.1)">
       <use xlink:href="#DejaVuSans-48"/>
       <use x="63.623047" xlink:href="#DejaVuSans-46"/>
       <use x="95.410156" xlink:href="#DejaVuSans-51"/>
      </g>
     </g>
    </g>
    <g id="text_23">
     <!-- pixel freq -->
     <g transform="translate(250.217187 104.215)rotate(-90)scale(0.1 -0.1)">
      <use xlink:href="#DejaVuSans-112"/>
      <use x="63.476562" xlink:href="#DejaVuSans-105"/>
      <use x="91.259766" xlink:href="#DejaVuSans-120"/>
      <use x="147.314453" xlink:href="#DejaVuSans-101"/>
      <use x="208.837891" xlink:href="#DejaVuSans-108"/>
      <use x="236.621094" xlink:href="#DejaVuSans-32"/>
      <use x="268.408203" xlink:href="#DejaVuSans-102"/>
      <use x="303.613281" xlink:href="#DejaVuSans-114"/>
      <use x="342.476562" xlink:href="#DejaVuSans-101"/>
      <use x="404" xlink:href="#DejaVuSans-113"/>
     </g>
    </g>
   </g>
   <g id="line2d_23">
    <path clip-path="url(#p89fc316586)" d="M 279.2 30.476364 
L 279.832216 113.637808 
L 280.464431 120.740187 
L 281.096647 123.622462 
L 281.728863 125.293952 
L 282.361078 125.222748 
L 282.993294 127.334804 
L 283.62551 128.160048 
L 284.257725 128.296138 
L 284.889941 128.94848 
L 286.154373 129.151702 
L 286.786588 129.695504 
L 287.418804 129.738352 
L 288.05102 129.997409 
L 289.947667 130.246616 
L 291.844314 130.494704 
L 295.637608 130.764368 
L 298.798686 130.893098 
L 312.707431 131.111323 
L 346.847078 131.198844 
L 411.965294 131.073971 
L 424.609608 130.780151 
L 429.667333 130.403282 
L 433.460627 129.770721 
L 434.092843 129.258946 
L 435.357275 129.074209 
L 435.98949 128.45237 
L 436.621706 128.319652 
L 437.253922 127.528933 
L 437.886137 125.538592 
L 438.518353 125.676315 
L 439.150569 124.220477 
L 439.782784 121.584813 
L 440.415 113.95694 
L 440.415 113.95694 
" style="fill:none;stroke:#0000ff;stroke-linecap:square;stroke-width:1.5;"/>
   </g>
   <g id="line2d_24">
    <path clip-path="url(#p89fc316586)" d="M 279.2 40.31414 
L 279.832216 110.575096 
L 280.464431 119.084118 
L 281.096647 123.2046 
L 281.728863 125.209651 
L 282.361078 125.297504 
L 282.993294 127.331192 
L 283.62551 128.120104 
L 284.257725 128.276097 
L 284.889941 128.933858 
L 286.154373 129.15496 
L 286.786588 129.695213 
L 287.418804 129.738596 
L 288.05102 129.989306 
L 295.005392 130.727995 
L 300.063118 130.92001 
L 307.649706 131.064794 
L 320.926235 131.156066 
L 350.640373 131.202025 
L 408.172 131.107709 
L 421.448529 130.905976 
L 428.402902 130.53207 
L 430.299549 130.29722 
L 431.56398 130.131326 
L 432.196196 130.062999 
L 432.828412 129.830876 
L 433.460627 129.785978 
L 434.092843 129.286976 
L 435.357275 129.075616 
L 435.98949 128.462278 
L 436.621706 128.315027 
L 437.253922 127.569946 
L 437.886137 125.673001 
L 438.518353 125.568086 
L 439.150569 123.662361 
L 439.782784 119.691682 
L 440.415 111.21555 
L 440.415 111.21555 
" style="fill:none;stroke:#008000;stroke-linecap:square;stroke-width:1.5;"/>
   </g>
   <g id="patch_9">
    <path d="M 279.2 136.24 
L 279.2 25.44 
" style="fill:none;stroke:#000000;stroke-linecap:square;stroke-linejoin:miter;stroke-width:0.8;"/>
   </g>
   <g id="patch_10">
    <path d="M 440.415 136.24 
L 440.415 25.44 
" style="fill:none;stroke:#000000;stroke-linecap:square;stroke-linejoin:miter;stroke-width:0.8;"/>
   </g>
   <g id="patch_11">
    <path d="M 279.2 136.24 
L 440.415 136.24 
" style="fill:none;stroke:#000000;stroke-linecap:square;stroke-linejoin:miter;stroke-width:0.8;"/>
   </g>
   <g id="patch_12">
    <path d="M 279.2 25.44 
L 440.415 25.44 
" style="fill:none;stroke:#000000;stroke-linecap:square;stroke-linejoin:miter;stroke-width:0.8;"/>
   </g>
   <g id="text_24">
    <!-- Progan-person-cH/ -->
    <defs>
     <path d="M 9.8125 72.90625 
L 19.671875 72.90625 
L 19.671875 43.015625 
L 55.515625 43.015625 
L 55.515625 72.90625 
L 65.375 72.90625 
L 65.375 0 
L 55.515625 0 
L 55.515625 34.71875 
L 19.671875 34.71875 
L 19.671875 0 
L 9.8125 0 
z
" id="DejaVuSans-72"/>
    </defs>
    <g transform="translate(304.274687 19.44)scale(0.12 -0.12)">
     <use xlink:href="#DejaVuSans-80"/>
     <use x="58.552734" xlink:href="#DejaVuSans-114"/>
     <use x="97.416016" xlink:href="#DejaVuSans-111"/>
     <use x="158.597656" xlink:href="#DejaVuSans-103"/>
     <use x="222.074219" xlink:href="#DejaVuSans-97"/>
     <use x="283.353516" xlink:href="#DejaVuSans-110"/>
     <use x="346.732422" xlink:href="#DejaVuSans-45"/>
     <use x="382.816406" xlink:href="#DejaVuSans-112"/>
     <use x="446.292969" xlink:href="#DejaVuSans-101"/>
     <use x="507.816406" xlink:href="#DejaVuSans-114"/>
     <use x="548.929688" xlink:href="#DejaVuSans-115"/>
     <use x="601.029297" xlink:href="#DejaVuSans-111"/>
     <use x="662.210938" xlink:href="#DejaVuSans-110"/>
     <use x="725.589844" xlink:href="#DejaVuSans-45"/>
     <use x="761.673828" xlink:href="#DejaVuSans-99"/>
     <use x="816.654297" xlink:href="#DejaVuSans-72"/>
     <use x="891.849609" xlink:href="#DejaVuSans-47"/>
    </g>
   </g>
   <g id="legend_2">
    <g id="patch_13">
     <path d="M 380.185312 62.79625 
L 433.415 62.79625 
Q 435.415 62.79625 435.415 60.79625 
L 435.415 32.44 
Q 435.415 30.44 433.415 30.44 
L 380.185312 30.44 
Q 378.185312 30.44 378.185312 32.44 
L 378.185312 60.79625 
Q 378.185312 62.79625 380.185312 62.79625 
z
" style="fill:#ffffff;opacity:0.8;stroke:#cccccc;stroke-linejoin:miter;"/>
    </g>
    <g id="line2d_25">
     <path d="M 382.185312 38.538437 
L 402.185312 38.538437 
" style="fill:none;stroke:#0000ff;stroke-linecap:square;stroke-width:1.5;"/>
    </g>
    <g id="line2d_26"/>
    <g id="text_25">
     <!-- real -->
     <g transform="translate(410.185312 42.038437)scale(0.1 -0.1)">
      <use xlink:href="#DejaVuSans-114"/>
      <use x="38.863281" xlink:href="#DejaVuSans-101"/>
      <use x="100.386719" xlink:href="#DejaVuSans-97"/>
      <use x="161.666016" xlink:href="#DejaVuSans-108"/>
     </g>
    </g>
    <g id="line2d_27">
     <path d="M 382.185312 53.216563 
L 402.185312 53.216563 
" style="fill:none;stroke:#008000;stroke-linecap:square;stroke-width:1.5;"/>
    </g>
    <g id="line2d_28"/>
    <g id="text_26">
     <!-- fake -->
     <g transform="translate(410.185312 56.716563)scale(0.1 -0.1)">
      <use xlink:href="#DejaVuSans-102"/>
      <use x="35.205078" xlink:href="#DejaVuSans-97"/>
      <use x="96.484375" xlink:href="#DejaVuSans-107"/>
      <use x="150.769531" xlink:href="#DejaVuSans-101"/>
     </g>
    </g>
   </g>
  </g>
  <g id="axes_3">
   <g id="patch_14">
    <path d="M 60.59 303.64 
L 221.805 303.64 
L 221.805 192.84 
L 60.59 192.84 
z
" style="fill:#ffffff;"/>
   </g>
   <g id="matplotlib.axis_5">
    <g id="xtick_9">
     <g id="line2d_29">
      <g>
       <use style="stroke:#000000;stroke-width:0.8;" x="60.59" xlink:href="#mb241a20860" y="303.64"/>
      </g>
     </g>
     <g id="text_27">
      <!-- 0 -->
      <g transform="translate(57.40875 318.238437)scale(0.1 -0.1)">
       <use xlink:href="#DejaVuSans-48"/>
      </g>
     </g>
    </g>
    <g id="xtick_10">
     <g id="line2d_30">
      <g>
       <use style="stroke:#000000;stroke-width:0.8;" x="114.328333" xlink:href="#mb241a20860" y="303.64"/>
      </g>
     </g>
     <g id="text_28">
      <!-- 85 -->
      <g transform="translate(107.965833 318.238437)scale(0.1 -0.1)">
       <use xlink:href="#DejaVuSans-56"/>
       <use x="63.623047" xlink:href="#DejaVuSans-53"/>
      </g>
     </g>
    </g>
    <g id="xtick_11">
     <g id="line2d_31">
      <g>
       <use style="stroke:#000000;stroke-width:0.8;" x="168.066667" xlink:href="#mb241a20860" y="303.64"/>
      </g>
     </g>
     <g id="text_29">
      <!-- 170 -->
      <g transform="translate(158.522917 318.238437)scale(0.1 -0.1)">
       <use xlink:href="#DejaVuSans-49"/>
       <use x="63.623047" xlink:href="#DejaVuSans-55"/>
       <use x="127.246094" xlink:href="#DejaVuSans-48"/>
      </g>
     </g>
    </g>
    <g id="xtick_12">
     <g id="line2d_32">
      <g>
       <use style="stroke:#000000;stroke-width:0.8;" x="221.805" xlink:href="#mb241a20860" y="303.64"/>
      </g>
     </g>
     <g id="text_30">
      <!-- 255 -->
      <g transform="translate(212.26125 318.238437)scale(0.1 -0.1)">
       <use xlink:href="#DejaVuSans-50"/>
       <use x="63.623047" xlink:href="#DejaVuSans-53"/>
       <use x="127.246094" xlink:href="#DejaVuSans-53"/>
      </g>
     </g>
    </g>
    <g id="text_31">
     <!-- gray value -->
     <g transform="translate(114.6975 331.916562)scale(0.1 -0.1)">
      <use xlink:href="#DejaVuSans-103"/>
      <use x="63.476562" xlink:href="#DejaVuSans-114"/>
      <use x="104.589844" xlink:href="#DejaVuSans-97"/>
      <use x="165.869141" xlink:href="#DejaVuSans-121"/>
      <use x="225.048828" xlink:href="#DejaVuSans-32"/>
      <use x="256.835938" xlink:href="#DejaVuSans-118"/>
      <use x="316.015625" xlink:href="#DejaVuSans-97"/>
      <use x="377.294922" xlink:href="#DejaVuSans-108"/>
      <use x="405.078125" xlink:href="#DejaVuSans-117"/>
      <use x="468.457031" xlink:href="#DejaVuSans-101"/>
     </g>
    </g>
   </g>
   <g id="matplotlib.axis_6">
    <g id="ytick_9">
     <g id="line2d_33">
      <g>
       <use style="stroke:#000000;stroke-width:0.8;" x="60.59" xlink:href="#ma93b917eaf" y="298.61794"/>
      </g>
     </g>
     <g id="text_32">
      <!-- 0.0 -->
      <g transform="translate(37.686875 302.417159)scale(0.1 -0.1)">
       <use xlink:href="#DejaVuSans-48"/>
       <use x="63.623047" xlink:href="#DejaVuSans-46"/>
       <use x="95.410156" xlink:href="#DejaVuSans-48"/>
      </g>
     </g>
    </g>
    <g id="ytick_10">
     <g id="line2d_34">
      <g>
       <use style="stroke:#000000;stroke-width:0.8;" x="60.59" xlink:href="#ma93b917eaf" y="269.708818"/>
      </g>
     </g>
     <g id="text_33">
      <!-- 0.1 -->
      <g transform="translate(37.686875 273.508036)scale(0.1 -0.1)">
       <use xlink:href="#DejaVuSans-48"/>
       <use x="63.623047" xlink:href="#DejaVuSans-46"/>
       <use x="95.410156" xlink:href="#DejaVuSans-49"/>
      </g>
     </g>
    </g>
    <g id="ytick_11">
     <g id="line2d_35">
      <g>
       <use style="stroke:#000000;stroke-width:0.8;" x="60.59" xlink:href="#ma93b917eaf" y="240.799695"/>
      </g>
     </g>
     <g id="text_34">
      <!-- 0.2 -->
      <g transform="translate(37.686875 244.598914)scale(0.1 -0.1)">
       <use xlink:href="#DejaVuSans-48"/>
       <use x="63.623047" xlink:href="#DejaVuSans-46"/>
       <use x="95.410156" xlink:href="#DejaVuSans-50"/>
      </g>
     </g>
    </g>
    <g id="ytick_12">
     <g id="line2d_36">
      <g>
       <use style="stroke:#000000;stroke-width:0.8;" x="60.59" xlink:href="#ma93b917eaf" y="211.890573"/>
      </g>
     </g>
     <g id="text_35">
      <!-- 0.3 -->
      <g transform="translate(37.686875 215.689792)scale(0.1 -0.1)">
       <use xlink:href="#DejaVuSans-48"/>
       <use x="63.623047" xlink:href="#DejaVuSans-46"/>
       <use x="95.410156" xlink:href="#DejaVuSans-51"/>
      </g>
     </g>
    </g>
    <g id="text_36">
     <!-- pixel freq -->
     <g transform="translate(31.607187 271.615)rotate(-90)scale(0.1 -0.1)">
      <use xlink:href="#DejaVuSans-112"/>
      <use x="63.476562" xlink:href="#DejaVuSans-105"/>
      <use x="91.259766" xlink:href="#DejaVuSans-120"/>
      <use x="147.314453" xlink:href="#DejaVuSans-101"/>
      <use x="208.837891" xlink:href="#DejaVuSans-108"/>
      <use x="236.621094" xlink:href="#DejaVuSans-32"/>
      <use x="268.408203" xlink:href="#DejaVuSans-102"/>
      <use x="303.613281" xlink:href="#DejaVuSans-114"/>
      <use x="342.476562" xlink:href="#DejaVuSans-101"/>
      <use x="404" xlink:href="#DejaVuSans-113"/>
     </g>
    </g>
   </g>
   <g id="line2d_37">
    <path clip-path="url(#p76d56fb91b)" d="M 60.59 197.876364 
L 61.222216 278.207074 
L 61.854431 287.199277 
L 62.486647 290.061083 
L 63.118863 292.125187 
L 63.751078 292.760947 
L 64.383294 294.2169 
L 65.01551 295.026537 
L 66.279941 296.140798 
L 66.912157 296.21015 
L 67.544373 296.609509 
L 69.44102 297.289377 
L 70.073235 297.319136 
L 71.337667 297.596443 
L 73.234314 297.812403 
L 75.763176 298.068669 
L 79.556471 298.234043 
L 85.246412 298.398048 
L 97.25851 298.52401 
L 124.443784 298.595453 
L 190.826431 298.483107 
L 199.677451 298.354919 
L 209.160686 297.899385 
L 213.586196 297.290158 
L 215.482843 296.612308 
L 216.115059 296.217122 
L 216.747275 296.142548 
L 218.011706 295.009142 
L 218.643922 294.178245 
L 219.276137 292.737955 
L 219.908353 292.204291 
L 220.540569 290.279406 
L 221.172784 287.52038 
L 221.805 277.727518 
L 221.805 277.727518 
" style="fill:none;stroke:#0000ff;stroke-linecap:square;stroke-width:1.5;"/>
   </g>
   <g id="line2d_38">
    <path clip-path="url(#p76d56fb91b)" d="M 60.59 207.698251 
L 61.222216 275.480697 
L 61.854431 285.408455 
L 62.486647 289.467498 
L 63.118863 292.088482 
L 63.751078 292.830324 
L 64.383294 294.199125 
L 65.01551 294.984943 
L 66.279941 296.134137 
L 66.912157 296.222956 
L 67.544373 296.620423 
L 69.44102 297.290753 
L 70.073235 297.320499 
L 71.337667 297.595918 
L 73.234314 297.811434 
L 75.763176 298.069204 
L 78.292039 298.197605 
L 83.98198 298.370035 
L 94.097431 298.505818 
L 125.708216 298.597467 
L 194.619725 298.448817 
L 204.735176 298.202452 
L 210.425118 297.812595 
L 213.586196 297.303405 
L 215.482843 296.628528 
L 216.115059 296.23004 
L 216.747275 296.143157 
L 218.011706 294.983858 
L 218.643922 294.201342 
L 219.276137 292.830205 
L 219.908353 292.085976 
L 220.540569 289.457108 
L 221.172784 285.398975 
L 221.805 275.486066 
L 221.805 275.486066 
" style="fill:none;stroke:#008000;stroke-linecap:square;stroke-width:1.5;"/>
   </g>
   <g id="patch_15">
    <path d="M 60.59 303.64 
L 60.59 192.84 
" style="fill:none;stroke:#000000;stroke-linecap:square;stroke-linejoin:miter;stroke-width:0.8;"/>
   </g>
   <g id="patch_16">
    <path d="M 221.805 303.64 
L 221.805 192.84 
" style="fill:none;stroke:#000000;stroke-linecap:square;stroke-linejoin:miter;stroke-width:0.8;"/>
   </g>
   <g id="patch_17">
    <path d="M 60.59 303.64 
L 221.805 303.64 
" style="fill:none;stroke:#000000;stroke-linecap:square;stroke-linejoin:miter;stroke-width:0.8;"/>
   </g>
   <g id="patch_18">
    <path d="M 60.59 192.84 
L 221.805 192.84 
" style="fill:none;stroke:#000000;stroke-linecap:square;stroke-linejoin:miter;stroke-width:0.8;"/>
   </g>
   <g id="text_37">
    <!-- Progan-person-cV/ -->
    <defs>
     <path d="M 28.609375 0 
L 0.78125 72.90625 
L 11.078125 72.90625 
L 34.1875 11.53125 
L 57.328125 72.90625 
L 67.578125 72.90625 
L 39.796875 0 
z
" id="DejaVuSans-86"/>
    </defs>
    <g transform="translate(86.0725 186.84)scale(0.12 -0.12)">
     <use xlink:href="#DejaVuSans-80"/>
     <use x="58.552734" xlink:href="#DejaVuSans-114"/>
     <use x="97.416016" xlink:href="#DejaVuSans-111"/>
     <use x="158.597656" xlink:href="#DejaVuSans-103"/>
     <use x="222.074219" xlink:href="#DejaVuSans-97"/>
     <use x="283.353516" xlink:href="#DejaVuSans-110"/>
     <use x="346.732422" xlink:href="#DejaVuSans-45"/>
     <use x="382.816406" xlink:href="#DejaVuSans-112"/>
     <use x="446.292969" xlink:href="#DejaVuSans-101"/>
     <use x="507.816406" xlink:href="#DejaVuSans-114"/>
     <use x="548.929688" xlink:href="#DejaVuSans-115"/>
     <use x="601.029297" xlink:href="#DejaVuSans-111"/>
     <use x="662.210938" xlink:href="#DejaVuSans-110"/>
     <use x="725.589844" xlink:href="#DejaVuSans-45"/>
     <use x="761.673828" xlink:href="#DejaVuSans-99"/>
     <use x="816.654297" xlink:href="#DejaVuSans-86"/>
     <use x="885.0625" xlink:href="#DejaVuSans-47"/>
    </g>
   </g>
   <g id="legend_3">
    <g id="patch_19">
     <path d="M 161.575312 230.19625 
L 214.805 230.19625 
Q 216.805 230.19625 216.805 228.19625 
L 216.805 199.84 
Q 216.805 197.84 214.805 197.84 
L 161.575312 197.84 
Q 159.575312 197.84 159.575312 199.84 
L 159.575312 228.19625 
Q 159.575312 230.19625 161.575312 230.19625 
z
" style="fill:#ffffff;opacity:0.8;stroke:#cccccc;stroke-linejoin:miter;"/>
    </g>
    <g id="line2d_39">
     <path d="M 163.575312 205.938437 
L 183.575312 205.938437 
" style="fill:none;stroke:#0000ff;stroke-linecap:square;stroke-width:1.5;"/>
    </g>
    <g id="line2d_40"/>
    <g id="text_38">
     <!-- real -->
     <g transform="translate(191.575312 209.438437)scale(0.1 -0.1)">
      <use xlink:href="#DejaVuSans-114"/>
      <use x="38.863281" xlink:href="#DejaVuSans-101"/>
      <use x="100.386719" xlink:href="#DejaVuSans-97"/>
      <use x="161.666016" xlink:href="#DejaVuSans-108"/>
     </g>
    </g>
    <g id="line2d_41">
     <path d="M 163.575312 220.616562 
L 183.575312 220.616562 
" style="fill:none;stroke:#008000;stroke-linecap:square;stroke-width:1.5;"/>
    </g>
    <g id="line2d_42"/>
    <g id="text_39">
     <!-- fake -->
     <g transform="translate(191.575312 224.116562)scale(0.1 -0.1)">
      <use xlink:href="#DejaVuSans-102"/>
      <use x="35.205078" xlink:href="#DejaVuSans-97"/>
      <use x="96.484375" xlink:href="#DejaVuSans-107"/>
      <use x="150.769531" xlink:href="#DejaVuSans-101"/>
     </g>
    </g>
   </g>
  </g>
  <g id="axes_4">
   <g id="patch_20">
    <path d="M 279.2 303.64 
L 440.415 303.64 
L 440.415 192.84 
L 279.2 192.84 
z
" style="fill:#ffffff;"/>
   </g>
   <g id="matplotlib.axis_7">
    <g id="xtick_13">
     <g id="line2d_43">
      <g>
       <use style="stroke:#000000;stroke-width:0.8;" x="279.2" xlink:href="#mb241a20860" y="303.64"/>
      </g>
     </g>
     <g id="text_40">
      <!-- 0 -->
      <g transform="translate(276.01875 318.238437)scale(0.1 -0.1)">
       <use xlink:href="#DejaVuSans-48"/>
      </g>
     </g>
    </g>
    <g id="xtick_14">
     <g id="line2d_44">
      <g>
       <use style="stroke:#000000;stroke-width:0.8;" x="332.938333" xlink:href="#mb241a20860" y="303.64"/>
      </g>
     </g>
     <g id="text_41">
      <!-- 85 -->
      <g transform="translate(326.575833 318.238437)scale(0.1 -0.1)">
       <use xlink:href="#DejaVuSans-56"/>
       <use x="63.623047" xlink:href="#DejaVuSans-53"/>
      </g>
     </g>
    </g>
    <g id="xtick_15">
     <g id="line2d_45">
      <g>
       <use style="stroke:#000000;stroke-width:0.8;" x="386.676667" xlink:href="#mb241a20860" y="303.64"/>
      </g>
     </g>
     <g id="text_42">
      <!-- 170 -->
      <g transform="translate(377.132917 318.238437)scale(0.1 -0.1)">
       <use xlink:href="#DejaVuSans-49"/>
       <use x="63.623047" xlink:href="#DejaVuSans-55"/>
       <use x="127.246094" xlink:href="#DejaVuSans-48"/>
      </g>
     </g>
    </g>
    <g id="xtick_16">
     <g id="line2d_46">
      <g>
       <use style="stroke:#000000;stroke-width:0.8;" x="440.415" xlink:href="#mb241a20860" y="303.64"/>
      </g>
     </g>
     <g id="text_43">
      <!-- 255 -->
      <g transform="translate(430.87125 318.238437)scale(0.1 -0.1)">
       <use xlink:href="#DejaVuSans-50"/>
       <use x="63.623047" xlink:href="#DejaVuSans-53"/>
       <use x="127.246094" xlink:href="#DejaVuSans-53"/>
      </g>
     </g>
    </g>
    <g id="text_44">
     <!-- gray value -->
     <g transform="translate(333.3075 331.916562)scale(0.1 -0.1)">
      <use xlink:href="#DejaVuSans-103"/>
      <use x="63.476562" xlink:href="#DejaVuSans-114"/>
      <use x="104.589844" xlink:href="#DejaVuSans-97"/>
      <use x="165.869141" xlink:href="#DejaVuSans-121"/>
      <use x="225.048828" xlink:href="#DejaVuSans-32"/>
      <use x="256.835938" xlink:href="#DejaVuSans-118"/>
      <use x="316.015625" xlink:href="#DejaVuSans-97"/>
      <use x="377.294922" xlink:href="#DejaVuSans-108"/>
      <use x="405.078125" xlink:href="#DejaVuSans-117"/>
      <use x="468.457031" xlink:href="#DejaVuSans-101"/>
     </g>
    </g>
   </g>
   <g id="matplotlib.axis_8">
    <g id="ytick_13">
     <g id="line2d_47">
      <g>
       <use style="stroke:#000000;stroke-width:0.8;" x="279.2" xlink:href="#ma93b917eaf" y="298.603689"/>
      </g>
     </g>
     <g id="text_45">
      <!-- 0.0 -->
      <g transform="translate(256.296875 302.402908)scale(0.1 -0.1)">
       <use xlink:href="#DejaVuSans-48"/>
       <use x="63.623047" xlink:href="#DejaVuSans-46"/>
       <use x="95.410156" xlink:href="#DejaVuSans-48"/>
      </g>
     </g>
    </g>
    <g id="ytick_14">
     <g id="line2d_48">
      <g>
       <use style="stroke:#000000;stroke-width:0.8;" x="279.2" xlink:href="#ma93b917eaf" y="262.242977"/>
      </g>
     </g>
     <g id="text_46">
      <!-- 0.2 -->
      <g transform="translate(256.296875 266.042196)scale(0.1 -0.1)">
       <use xlink:href="#DejaVuSans-48"/>
       <use x="63.623047" xlink:href="#DejaVuSans-46"/>
       <use x="95.410156" xlink:href="#DejaVuSans-50"/>
      </g>
     </g>
    </g>
    <g id="ytick_15">
     <g id="line2d_49">
      <g>
       <use style="stroke:#000000;stroke-width:0.8;" x="279.2" xlink:href="#ma93b917eaf" y="225.882266"/>
      </g>
     </g>
     <g id="text_47">
      <!-- 0.4 -->
      <defs>
       <path d="M 37.796875 64.3125 
L 12.890625 25.390625 
L 37.796875 25.390625 
z
M 35.203125 72.90625 
L 47.609375 72.90625 
L 47.609375 25.390625 
L 58.015625 25.390625 
L 58.015625 17.1875 
L 47.609375 17.1875 
L 47.609375 0 
L 37.796875 0 
L 37.796875 17.1875 
L 4.890625 17.1875 
L 4.890625 26.703125 
z
" id="DejaVuSans-52"/>
      </defs>
      <g transform="translate(256.296875 229.681484)scale(0.1 -0.1)">
       <use xlink:href="#DejaVuSans-48"/>
       <use x="63.623047" xlink:href="#DejaVuSans-46"/>
       <use x="95.410156" xlink:href="#DejaVuSans-52"/>
      </g>
     </g>
    </g>
    <g id="text_48">
     <!-- pixel freq -->
     <g transform="translate(250.217187 271.615)rotate(-90)scale(0.1 -0.1)">
      <use xlink:href="#DejaVuSans-112"/>
      <use x="63.476562" xlink:href="#DejaVuSans-105"/>
      <use x="91.259766" xlink:href="#DejaVuSans-120"/>
      <use x="147.314453" xlink:href="#DejaVuSans-101"/>
      <use x="208.837891" xlink:href="#DejaVuSans-108"/>
      <use x="236.621094" xlink:href="#DejaVuSans-32"/>
      <use x="268.408203" xlink:href="#DejaVuSans-102"/>
      <use x="303.613281" xlink:href="#DejaVuSans-114"/>
      <use x="342.476562" xlink:href="#DejaVuSans-101"/>
      <use x="404" xlink:href="#DejaVuSans-113"/>
     </g>
    </g>
   </g>
   <g id="line2d_50">
    <path clip-path="url(#p5a1ff4b577)" d="M 279.2 197.876364 
L 279.832216 287.474075 
L 280.464431 292.181206 
L 281.096647 294.369452 
L 281.728863 295.518051 
L 282.361078 295.782451 
L 282.993294 296.782733 
L 283.62551 297.185119 
L 284.257725 297.349814 
L 284.889941 297.631983 
L 286.154373 297.821869 
L 286.786588 298.013439 
L 293.740961 298.443318 
L 303.224196 298.562316 
L 331.673902 298.602652 
L 422.712961 298.514224 
L 429.667333 298.326504 
L 433.460627 298.01321 
L 434.725059 297.719242 
L 435.357275 297.63162 
L 437.253922 296.777144 
L 437.886137 295.777278 
L 438.518353 295.527626 
L 439.150569 294.384484 
L 439.782784 292.197357 
L 440.415 287.446797 
L 440.415 287.446797 
" style="fill:none;stroke:#0000ff;stroke-linecap:square;stroke-width:1.5;"/>
   </g>
   <g id="line2d_51">
    <path clip-path="url(#p5a1ff4b577)" d="M 279.2 201.823741 
L 279.832216 285.582035 
L 280.464431 291.600853 
L 281.096647 294.28059 
L 281.728863 295.541368 
L 282.361078 295.834154 
L 282.993294 296.822375 
L 283.62551 297.210975 
L 286.786588 298.028828 
L 293.740961 298.452014 
L 303.224196 298.56599 
L 336.099412 298.603109 
L 423.977392 298.49715 
L 429.667333 298.337708 
L 433.460627 298.031291 
L 434.725059 297.744648 
L 435.357275 297.655228 
L 437.253922 296.826705 
L 437.886137 295.843778 
L 438.518353 295.552876 
L 439.150569 294.299639 
L 439.782784 291.639065 
L 440.415 285.660607 
L 440.415 285.660607 
" style="fill:none;stroke:#008000;stroke-linecap:square;stroke-width:1.5;"/>
   </g>
   <g id="patch_21">
    <path d="M 279.2 303.64 
L 279.2 192.84 
" style="fill:none;stroke:#000000;stroke-linecap:square;stroke-linejoin:miter;stroke-width:0.8;"/>
   </g>
   <g id="patch_22">
    <path d="M 440.415 303.64 
L 440.415 192.84 
" style="fill:none;stroke:#000000;stroke-linecap:square;stroke-linejoin:miter;stroke-width:0.8;"/>
   </g>
   <g id="patch_23">
    <path d="M 279.2 303.64 
L 440.415 303.64 
" style="fill:none;stroke:#000000;stroke-linecap:square;stroke-linejoin:miter;stroke-width:0.8;"/>
   </g>
   <g id="patch_24">
    <path d="M 279.2 192.84 
L 440.415 192.84 
" style="fill:none;stroke:#000000;stroke-linecap:square;stroke-linejoin:miter;stroke-width:0.8;"/>
   </g>
   <g id="text_49">
    <!-- Progan-person-cD/ -->
    <defs>
     <path d="M 19.671875 64.796875 
L 19.671875 8.109375 
L 31.59375 8.109375 
Q 46.6875 8.109375 53.6875 14.9375 
Q 60.6875 21.78125 60.6875 36.53125 
Q 60.6875 51.171875 53.6875 57.984375 
Q 46.6875 64.796875 31.59375 64.796875 
z
M 9.8125 72.90625 
L 30.078125 72.90625 
Q 51.265625 72.90625 61.171875 64.09375 
Q 71.09375 55.28125 71.09375 36.53125 
Q 71.09375 17.671875 61.125 8.828125 
Q 51.171875 0 30.078125 0 
L 9.8125 0 
z
" id="DejaVuSans-68"/>
    </defs>
    <g transform="translate(304.166875 186.84)scale(0.12 -0.12)">
     <use xlink:href="#DejaVuSans-80"/>
     <use x="58.552734" xlink:href="#DejaVuSans-114"/>
     <use x="97.416016" xlink:href="#DejaVuSans-111"/>
     <use x="158.597656" xlink:href="#DejaVuSans-103"/>
     <use x="222.074219" xlink:href="#DejaVuSans-97"/>
     <use x="283.353516" xlink:href="#DejaVuSans-110"/>
     <use x="346.732422" xlink:href="#DejaVuSans-45"/>
     <use x="382.816406" xlink:href="#DejaVuSans-112"/>
     <use x="446.292969" xlink:href="#DejaVuSans-101"/>
     <use x="507.816406" xlink:href="#DejaVuSans-114"/>
     <use x="548.929688" xlink:href="#DejaVuSans-115"/>
     <use x="601.029297" xlink:href="#DejaVuSans-111"/>
     <use x="662.210938" xlink:href="#DejaVuSans-110"/>
     <use x="725.589844" xlink:href="#DejaVuSans-45"/>
     <use x="761.673828" xlink:href="#DejaVuSans-99"/>
     <use x="816.654297" xlink:href="#DejaVuSans-68"/>
     <use x="893.65625" xlink:href="#DejaVuSans-47"/>
    </g>
   </g>
   <g id="legend_4">
    <g id="patch_25">
     <path d="M 380.185312 230.19625 
L 433.415 230.19625 
Q 435.415 230.19625 435.415 228.19625 
L 435.415 199.84 
Q 435.415 197.84 433.415 197.84 
L 380.185312 197.84 
Q 378.185312 197.84 378.185312 199.84 
L 378.185312 228.19625 
Q 378.185312 230.19625 380.185312 230.19625 
z
" style="fill:#ffffff;opacity:0.8;stroke:#cccccc;stroke-linejoin:miter;"/>
    </g>
    <g id="line2d_52">
     <path d="M 382.185312 205.938437 
L 402.185312 205.938437 
" style="fill:none;stroke:#0000ff;stroke-linecap:square;stroke-width:1.5;"/>
    </g>
    <g id="line2d_53"/>
    <g id="text_50">
     <!-- real -->
     <g transform="translate(410.185312 209.438437)scale(0.1 -0.1)">
      <use xlink:href="#DejaVuSans-114"/>
      <use x="38.863281" xlink:href="#DejaVuSans-101"/>
      <use x="100.386719" xlink:href="#DejaVuSans-97"/>
      <use x="161.666016" xlink:href="#DejaVuSans-108"/>
     </g>
    </g>
    <g id="line2d_54">
     <path d="M 382.185312 220.616562 
L 402.185312 220.616562 
" style="fill:none;stroke:#008000;stroke-linecap:square;stroke-width:1.5;"/>
    </g>
    <g id="line2d_55"/>
    <g id="text_51">
     <!-- fake -->
     <g transform="translate(410.185312 224.116562)scale(0.1 -0.1)">
      <use xlink:href="#DejaVuSans-102"/>
      <use x="35.205078" xlink:href="#DejaVuSans-97"/>
      <use x="96.484375" xlink:href="#DejaVuSans-107"/>
      <use x="150.769531" xlink:href="#DejaVuSans-101"/>
     </g>
    </g>
   </g>
  </g>
 </g>
 <defs>
  <clipPath id="p284c8784dc">
   <rect height="110.8" width="161.215" x="60.59" y="25.44"/>
  </clipPath>
  <clipPath id="p89fc316586">
   <rect height="110.8" width="161.215" x="279.2" y="25.44"/>
  </clipPath>
  <clipPath id="p76d56fb91b">
   <rect height="110.8" width="161.215" x="60.59" y="192.84"/>
  </clipPath>
  <clipPath id="p5a1ff4b577">
   <rect height="110.8" width="161.215" x="279.2" y="192.84"/>
  </clipPath>
 </defs>
</svg>
