<?xml version="1.0" encoding="utf-8" standalone="no"?>
<!DOCTYPE svg PUBLIC "-//W3C//DTD SVG 1.1//EN"
  "http://www.w3.org/Graphics/SVG/1.1/DTD/svg11.dtd">
<!-- Created with matplotlib (https://matplotlib.org/) -->
<svg height="345.6pt" version="1.1" viewBox="0 0 460.8 345.6" width="460.8pt" xmlns="http://www.w3.org/2000/svg" xmlns:xlink="http://www.w3.org/1999/xlink">
 <defs>
  <style type="text/css">
*{stroke-linecap:butt;stroke-linejoin:round;}
  </style>
 </defs>
 <g id="figure_1">
  <g id="patch_1">
   <path d="M 0 345.6 
L 460.8 345.6 
L 460.8 0 
L 0 0 
z
" style="fill:#ffffff;"/>
  </g>
  <g id="axes_1">
   <g id="patch_2">
    <path d="M 68.96 136.24 
L 218.61 136.24 
L 218.61 25.44 
L 68.96 25.44 
z
" style="fill:#ffffff;"/>
   </g>
   <g id="matplotlib.axis_1">
    <g id="xtick_1">
     <g id="line2d_1">
      <defs>
       <path d="M 0 0 
L 0 3.5 
" id="md8aa7005a0" style="stroke:#000000;stroke-width:0.8;"/>
      </defs>
      <g>
       <use style="stroke:#000000;stroke-width:0.8;" x="68.96" xlink:href="#md8aa7005a0" y="136.24"/>
      </g>
     </g>
     <g id="text_1">
      <!-- 0 -->
      <defs>
       <path d="M 31.78125 66.40625 
Q 24.171875 66.40625 20.328125 58.90625 
Q 16.5 51.421875 16.5 36.375 
Q 16.5 21.390625 20.328125 13.890625 
Q 24.171875 6.390625 31.78125 6.390625 
Q 39.453125 6.390625 43.28125 13.890625 
Q 47.125 21.390625 47.125 36.375 
Q 47.125 51.421875 43.28125 58.90625 
Q 39.453125 66.40625 31.78125 66.40625 
z
M 31.78125 74.21875 
Q 44.046875 74.21875 50.515625 64.515625 
Q 56.984375 54.828125 56.984375 36.375 
Q 56.984375 17.96875 50.515625 8.265625 
Q 44.046875 -1.421875 31.78125 -1.421875 
Q 19.53125 -1.421875 13.0625 8.265625 
Q 6.59375 17.96875 6.59375 36.375 
Q 6.59375 54.828125 13.0625 64.515625 
Q 19.53125 74.21875 31.78125 74.21875 
z
" id="DejaVuSans-48"/>
      </defs>
      <g transform="translate(65.77875 150.838437)scale(0.1 -0.1)">
       <use xlink:href="#DejaVuSans-48"/>
      </g>
     </g>
    </g>
    <g id="xtick_2">
     <g id="line2d_2">
      <g>
       <use style="stroke:#000000;stroke-width:0.8;" x="118.843333" xlink:href="#md8aa7005a0" y="136.24"/>
      </g>
     </g>
     <g id="text_2">
      <!-- 85 -->
      <defs>
       <path d="M 31.78125 34.625 
Q 24.75 34.625 20.71875 30.859375 
Q 16.703125 27.09375 16.703125 20.515625 
Q 16.703125 13.921875 20.71875 10.15625 
Q 24.75 6.390625 31.78125 6.390625 
Q 38.8125 6.390625 42.859375 10.171875 
Q 46.921875 13.96875 46.921875 20.515625 
Q 46.921875 27.09375 42.890625 30.859375 
Q 38.875 34.625 31.78125 34.625 
z
M 21.921875 38.8125 
Q 15.578125 40.375 12.03125 44.71875 
Q 8.5 49.078125 8.5 55.328125 
Q 8.5 64.0625 14.71875 69.140625 
Q 20.953125 74.21875 31.78125 74.21875 
Q 42.671875 74.21875 48.875 69.140625 
Q 55.078125 64.0625 55.078125 55.328125 
Q 55.078125 49.078125 51.53125 44.71875 
Q 48 40.375 41.703125 38.8125 
Q 48.828125 37.15625 52.796875 32.3125 
Q 56.78125 27.484375 56.78125 20.515625 
Q 56.78125 9.90625 50.3125 4.234375 
Q 43.84375 -1.421875 31.78125 -1.421875 
Q 19.734375 -1.421875 13.25 4.234375 
Q 6.78125 9.90625 6.78125 20.515625 
Q 6.78125 27.484375 10.78125 32.3125 
Q 14.796875 37.15625 21.921875 38.8125 
z
M 18.3125 54.390625 
Q 18.3125 48.734375 21.84375 45.5625 
Q 25.390625 42.390625 31.78125 42.390625 
Q 38.140625 42.390625 41.71875 45.5625 
Q 45.3125 48.734375 45.3125 54.390625 
Q 45.3125 60.0625 41.71875 63.234375 
Q 38.140625 66.40625 31.78125 66.40625 
Q 25.390625 66.40625 21.84375 63.234375 
Q 18.3125 60.0625 18.3125 54.390625 
z
" id="DejaVuSans-56"/>
       <path d="M 10.796875 72.90625 
L 49.515625 72.90625 
L 49.515625 64.59375 
L 19.828125 64.59375 
L 19.828125 46.734375 
Q 21.96875 47.46875 24.109375 47.828125 
Q 26.265625 48.1875 28.421875 48.1875 
Q 40.625 48.1875 47.75 41.5 
Q 54.890625 34.8125 54.890625 23.390625 
Q 54.890625 11.625 47.5625 5.09375 
Q 40.234375 -1.421875 26.90625 -1.421875 
Q 22.3125 -1.421875 17.546875 -0.640625 
Q 12.796875 0.140625 7.71875 1.703125 
L 7.71875 11.625 
Q 12.109375 9.234375 16.796875 8.0625 
Q 21.484375 6.890625 26.703125 6.890625 
Q 35.15625 6.890625 40.078125 11.328125 
Q 45.015625 15.765625 45.015625 23.390625 
Q 45.015625 31 40.078125 35.4375 
Q 35.15625 39.890625 26.703125 39.890625 
Q 22.75 39.890625 18.8125 39.015625 
Q 14.890625 38.140625 10.796875 36.28125 
z
" id="DejaVuSans-53"/>
      </defs>
      <g transform="translate(112.480833 150.838437)scale(0.1 -0.1)">
       <use xlink:href="#DejaVuSans-56"/>
       <use x="63.623047" xlink:href="#DejaVuSans-53"/>
      </g>
     </g>
    </g>
    <g id="xtick_3">
     <g id="line2d_3">
      <g>
       <use style="stroke:#000000;stroke-width:0.8;" x="168.726667" xlink:href="#md8aa7005a0" y="136.24"/>
      </g>
     </g>
     <g id="text_3">
      <!-- 170 -->
      <defs>
       <path d="M 12.40625 8.296875 
L 28.515625 8.296875 
L 28.515625 63.921875 
L 10.984375 60.40625 
L 10.984375 69.390625 
L 28.421875 72.90625 
L 38.28125 72.90625 
L 38.28125 8.296875 
L 54.390625 8.296875 
L 54.390625 0 
L 12.40625 0 
z
" id="DejaVuSans-49"/>
       <path d="M 8.203125 72.90625 
L 55.078125 72.90625 
L 55.078125 68.703125 
L 28.609375 0 
L 18.3125 0 
L 43.21875 64.59375 
L 8.203125 64.59375 
z
" id="DejaVuSans-55"/>
      </defs>
      <g transform="translate(159.182917 150.838437)scale(0.1 -0.1)">
       <use xlink:href="#DejaVuSans-49"/>
       <use x="63.623047" xlink:href="#DejaVuSans-55"/>
       <use x="127.246094" xlink:href="#DejaVuSans-48"/>
      </g>
     </g>
    </g>
    <g id="xtick_4">
     <g id="line2d_4">
      <g>
       <use style="stroke:#000000;stroke-width:0.8;" x="218.61" xlink:href="#md8aa7005a0" y="136.24"/>
      </g>
     </g>
     <g id="text_4">
      <!-- 255 -->
      <defs>
       <path d="M 19.1875 8.296875 
L 53.609375 8.296875 
L 53.609375 0 
L 7.328125 0 
L 7.328125 8.296875 
Q 12.9375 14.109375 22.625 23.890625 
Q 32.328125 33.6875 34.8125 36.53125 
Q 39.546875 41.84375 41.421875 45.53125 
Q 43.3125 49.21875 43.3125 52.78125 
Q 43.3125 58.59375 39.234375 62.25 
Q 35.15625 65.921875 28.609375 65.921875 
Q 23.96875 65.921875 18.8125 64.3125 
Q 13.671875 62.703125 7.8125 59.421875 
L 7.8125 69.390625 
Q 13.765625 71.78125 18.9375 73 
Q 24.125 74.21875 28.421875 74.21875 
Q 39.75 74.21875 46.484375 68.546875 
Q 53.21875 62.890625 53.21875 53.421875 
Q 53.21875 48.921875 51.53125 44.890625 
Q 49.859375 40.875 45.40625 35.40625 
Q 44.1875 33.984375 37.640625 27.21875 
Q 31.109375 20.453125 19.1875 8.296875 
z
" id="DejaVuSans-50"/>
      </defs>
      <g transform="translate(209.06625 150.838437)scale(0.1 -0.1)">
       <use xlink:href="#DejaVuSans-50"/>
       <use x="63.623047" xlink:href="#DejaVuSans-53"/>
       <use x="127.246094" xlink:href="#DejaVuSans-53"/>
      </g>
     </g>
    </g>
    <g id="text_5">
     <!-- gray value -->
     <defs>
      <path d="M 45.40625 27.984375 
Q 45.40625 37.75 41.375 43.109375 
Q 37.359375 48.484375 30.078125 48.484375 
Q 22.859375 48.484375 18.828125 43.109375 
Q 14.796875 37.75 14.796875 27.984375 
Q 14.796875 18.265625 18.828125 12.890625 
Q 22.859375 7.515625 30.078125 7.515625 
Q 37.359375 7.515625 41.375 12.890625 
Q 45.40625 18.265625 45.40625 27.984375 
z
M 54.390625 6.78125 
Q 54.390625 -7.171875 48.1875 -13.984375 
Q 42 -20.796875 29.203125 -20.796875 
Q 24.46875 -20.796875 20.265625 -20.09375 
Q 16.0625 -19.390625 12.109375 -17.921875 
L 12.109375 -9.1875 
Q 16.0625 -11.328125 19.921875 -12.34375 
Q 23.78125 -13.375 27.78125 -13.375 
Q 36.625 -13.375 41.015625 -8.765625 
Q 45.40625 -4.15625 45.40625 5.171875 
L 45.40625 9.625 
Q 42.625 4.78125 38.28125 2.390625 
Q 33.9375 0 27.875 0 
Q 17.828125 0 11.671875 7.65625 
Q 5.515625 15.328125 5.515625 27.984375 
Q 5.515625 40.671875 11.671875 48.328125 
Q 17.828125 56 27.875 56 
Q 33.9375 56 38.28125 53.609375 
Q 42.625 51.21875 45.40625 46.390625 
L 45.40625 54.6875 
L 54.390625 54.6875 
z
" id="DejaVuSans-103"/>
      <path d="M 41.109375 46.296875 
Q 39.59375 47.171875 37.8125 47.578125 
Q 36.03125 48 33.890625 48 
Q 26.265625 48 22.1875 43.046875 
Q 18.109375 38.09375 18.109375 28.8125 
L 18.109375 0 
L 9.078125 0 
L 9.078125 54.6875 
L 18.109375 54.6875 
L 18.109375 46.1875 
Q 20.953125 51.171875 25.484375 53.578125 
Q 30.03125 56 36.53125 56 
Q 37.453125 56 38.578125 55.875 
Q 39.703125 55.765625 41.0625 55.515625 
z
" id="DejaVuSans-114"/>
      <path d="M 34.28125 27.484375 
Q 23.390625 27.484375 19.1875 25 
Q 14.984375 22.515625 14.984375 16.5 
Q 14.984375 11.71875 18.140625 8.90625 
Q 21.296875 6.109375 26.703125 6.109375 
Q 34.1875 6.109375 38.703125 11.40625 
Q 43.21875 16.703125 43.21875 25.484375 
L 43.21875 27.484375 
z
M 52.203125 31.203125 
L 52.203125 0 
L 43.21875 0 
L 43.21875 8.296875 
Q 40.140625 3.328125 35.546875 0.953125 
Q 30.953125 -1.421875 24.3125 -1.421875 
Q 15.921875 -1.421875 10.953125 3.296875 
Q 6 8.015625 6 15.921875 
Q 6 25.140625 12.171875 29.828125 
Q 18.359375 34.515625 30.609375 34.515625 
L 43.21875 34.515625 
L 43.21875 35.40625 
Q 43.21875 41.609375 39.140625 45 
Q 35.0625 48.390625 27.6875 48.390625 
Q 23 48.390625 18.546875 47.265625 
Q 14.109375 46.140625 10.015625 43.890625 
L 10.015625 52.203125 
Q 14.9375 54.109375 19.578125 55.046875 
Q 24.21875 56 28.609375 56 
Q 40.484375 56 46.34375 49.84375 
Q 52.203125 43.703125 52.203125 31.203125 
z
" id="DejaVuSans-97"/>
      <path d="M 32.171875 -5.078125 
Q 28.375 -14.84375 24.75 -17.8125 
Q 21.140625 -20.796875 15.09375 -20.796875 
L 7.90625 -20.796875 
L 7.90625 -13.28125 
L 13.1875 -13.28125 
Q 16.890625 -13.28125 18.9375 -11.515625 
Q 21 -9.765625 23.484375 -3.21875 
L 25.09375 0.875 
L 2.984375 54.6875 
L 12.5 54.6875 
L 29.59375 11.921875 
L 46.6875 54.6875 
L 56.203125 54.6875 
z
" id="DejaVuSans-121"/>
      <path id="DejaVuSans-32"/>
      <path d="M 2.984375 54.6875 
L 12.5 54.6875 
L 29.59375 8.796875 
L 46.6875 54.6875 
L 56.203125 54.6875 
L 35.6875 0 
L 23.484375 0 
z
" id="DejaVuSans-118"/>
      <path d="M 9.421875 75.984375 
L 18.40625 75.984375 
L 18.40625 0 
L 9.421875 0 
z
" id="DejaVuSans-108"/>
      <path d="M 8.5 21.578125 
L 8.5 54.6875 
L 17.484375 54.6875 
L 17.484375 21.921875 
Q 17.484375 14.15625 20.5 10.265625 
Q 23.53125 6.390625 29.59375 6.390625 
Q 36.859375 6.390625 41.078125 11.03125 
Q 45.3125 15.671875 45.3125 23.6875 
L 45.3125 54.6875 
L 54.296875 54.6875 
L 54.296875 0 
L 45.3125 0 
L 45.3125 8.40625 
Q 42.046875 3.421875 37.71875 1 
Q 33.40625 -1.421875 27.6875 -1.421875 
Q 18.265625 -1.421875 13.375 4.4375 
Q 8.5 10.296875 8.5 21.578125 
z
M 31.109375 56 
z
" id="DejaVuSans-117"/>
      <path d="M 56.203125 29.59375 
L 56.203125 25.203125 
L 14.890625 25.203125 
Q 15.484375 15.921875 20.484375 11.0625 
Q 25.484375 6.203125 34.421875 6.203125 
Q 39.59375 6.203125 44.453125 7.46875 
Q 49.3125 8.734375 54.109375 11.28125 
L 54.109375 2.78125 
Q 49.265625 0.734375 44.1875 -0.34375 
Q 39.109375 -1.421875 33.890625 -1.421875 
Q 20.796875 -1.421875 13.15625 6.1875 
Q 5.515625 13.8125 5.515625 26.8125 
Q 5.515625 40.234375 12.765625 48.109375 
Q 20.015625 56 32.328125 56 
Q 43.359375 56 49.78125 48.890625 
Q 56.203125 41.796875 56.203125 29.59375 
z
M 47.21875 32.234375 
Q 47.125 39.59375 43.09375 43.984375 
Q 39.0625 48.390625 32.421875 48.390625 
Q 24.90625 48.390625 20.390625 44.140625 
Q 15.875 39.890625 15.1875 32.171875 
z
" id="DejaVuSans-101"/>
     </defs>
     <g transform="translate(117.285 164.516562)scale(0.1 -0.1)">
      <use xlink:href="#DejaVuSans-103"/>
      <use x="63.476562" xlink:href="#DejaVuSans-114"/>
      <use x="104.589844" xlink:href="#DejaVuSans-97"/>
      <use x="165.869141" xlink:href="#DejaVuSans-121"/>
      <use x="225.048828" xlink:href="#DejaVuSans-32"/>
      <use x="256.835938" xlink:href="#DejaVuSans-118"/>
      <use x="316.015625" xlink:href="#DejaVuSans-97"/>
      <use x="377.294922" xlink:href="#DejaVuSans-108"/>
      <use x="405.078125" xlink:href="#DejaVuSans-117"/>
      <use x="468.457031" xlink:href="#DejaVuSans-101"/>
     </g>
    </g>
   </g>
   <g id="matplotlib.axis_2">
    <g id="ytick_1">
     <g id="line2d_5">
      <defs>
       <path d="M 0 0 
L -3.5 0 
" id="m5ee12e2085" style="stroke:#000000;stroke-width:0.8;"/>
      </defs>
      <g>
       <use style="stroke:#000000;stroke-width:0.8;" x="68.96" xlink:href="#m5ee12e2085" y="116.361608"/>
      </g>
     </g>
     <g id="text_6">
      <!-- −0.004 -->
      <defs>
       <path d="M 10.59375 35.5 
L 73.1875 35.5 
L 73.1875 27.203125 
L 10.59375 27.203125 
z
" id="DejaVuSans-8722"/>
       <path d="M 10.6875 12.40625 
L 21 12.40625 
L 21 0 
L 10.6875 0 
z
" id="DejaVuSans-46"/>
       <path d="M 37.796875 64.3125 
L 12.890625 25.390625 
L 37.796875 25.390625 
z
M 35.203125 72.90625 
L 47.609375 72.90625 
L 47.609375 25.390625 
L 58.015625 25.390625 
L 58.015625 17.1875 
L 47.609375 17.1875 
L 47.609375 0 
L 37.796875 0 
L 37.796875 17.1875 
L 4.890625 17.1875 
L 4.890625 26.703125 
z
" id="DejaVuSans-52"/>
      </defs>
      <g transform="translate(24.952187 120.160827)scale(0.1 -0.1)">
       <use xlink:href="#DejaVuSans-8722"/>
       <use x="83.789062" xlink:href="#DejaVuSans-48"/>
       <use x="147.412109" xlink:href="#DejaVuSans-46"/>
       <use x="179.199219" xlink:href="#DejaVuSans-48"/>
       <use x="242.822266" xlink:href="#DejaVuSans-48"/>
       <use x="306.445312" xlink:href="#DejaVuSans-52"/>
      </g>
     </g>
    </g>
    <g id="ytick_2">
     <g id="line2d_6">
      <g>
       <use style="stroke:#000000;stroke-width:0.8;" x="68.96" xlink:href="#m5ee12e2085" y="79.959706"/>
      </g>
     </g>
     <g id="text_7">
      <!-- −0.002 -->
      <g transform="translate(24.952187 83.758925)scale(0.1 -0.1)">
       <use xlink:href="#DejaVuSans-8722"/>
       <use x="83.789062" xlink:href="#DejaVuSans-48"/>
       <use x="147.412109" xlink:href="#DejaVuSans-46"/>
       <use x="179.199219" xlink:href="#DejaVuSans-48"/>
       <use x="242.822266" xlink:href="#DejaVuSans-48"/>
       <use x="306.445312" xlink:href="#DejaVuSans-50"/>
      </g>
     </g>
    </g>
    <g id="ytick_3">
     <g id="line2d_7">
      <g>
       <use style="stroke:#000000;stroke-width:0.8;" x="68.96" xlink:href="#m5ee12e2085" y="43.557804"/>
      </g>
     </g>
     <g id="text_8">
      <!-- 0.000 -->
      <g transform="translate(33.331875 47.357022)scale(0.1 -0.1)">
       <use xlink:href="#DejaVuSans-48"/>
       <use x="63.623047" xlink:href="#DejaVuSans-46"/>
       <use x="95.410156" xlink:href="#DejaVuSans-48"/>
       <use x="159.033203" xlink:href="#DejaVuSans-48"/>
       <use x="222.65625" xlink:href="#DejaVuSans-48"/>
      </g>
     </g>
    </g>
    <g id="text_9">
     <!-- pixel freq difference -->
     <defs>
      <path d="M 18.109375 8.203125 
L 18.109375 -20.796875 
L 9.078125 -20.796875 
L 9.078125 54.6875 
L 18.109375 54.6875 
L 18.109375 46.390625 
Q 20.953125 51.265625 25.265625 53.625 
Q 29.59375 56 35.59375 56 
Q 45.5625 56 51.78125 48.09375 
Q 58.015625 40.1875 58.015625 27.296875 
Q 58.015625 14.40625 51.78125 6.484375 
Q 45.5625 -1.421875 35.59375 -1.421875 
Q 29.59375 -1.421875 25.265625 0.953125 
Q 20.953125 3.328125 18.109375 8.203125 
z
M 48.6875 27.296875 
Q 48.6875 37.203125 44.609375 42.84375 
Q 40.53125 48.484375 33.40625 48.484375 
Q 26.265625 48.484375 22.1875 42.84375 
Q 18.109375 37.203125 18.109375 27.296875 
Q 18.109375 17.390625 22.1875 11.75 
Q 26.265625 6.109375 33.40625 6.109375 
Q 40.53125 6.109375 44.609375 11.75 
Q 48.6875 17.390625 48.6875 27.296875 
z
" id="DejaVuSans-112"/>
      <path d="M 9.421875 54.6875 
L 18.40625 54.6875 
L 18.40625 0 
L 9.421875 0 
z
M 9.421875 75.984375 
L 18.40625 75.984375 
L 18.40625 64.59375 
L 9.421875 64.59375 
z
" id="DejaVuSans-105"/>
      <path d="M 54.890625 54.6875 
L 35.109375 28.078125 
L 55.90625 0 
L 45.3125 0 
L 29.390625 21.484375 
L 13.484375 0 
L 2.875 0 
L 24.125 28.609375 
L 4.6875 54.6875 
L 15.28125 54.6875 
L 29.78125 35.203125 
L 44.28125 54.6875 
z
" id="DejaVuSans-120"/>
      <path d="M 37.109375 75.984375 
L 37.109375 68.5 
L 28.515625 68.5 
Q 23.6875 68.5 21.796875 66.546875 
Q 19.921875 64.59375 19.921875 59.515625 
L 19.921875 54.6875 
L 34.71875 54.6875 
L 34.71875 47.703125 
L 19.921875 47.703125 
L 19.921875 0 
L 10.890625 0 
L 10.890625 47.703125 
L 2.296875 47.703125 
L 2.296875 54.6875 
L 10.890625 54.6875 
L 10.890625 58.5 
Q 10.890625 67.625 15.140625 71.796875 
Q 19.390625 75.984375 28.609375 75.984375 
z
" id="DejaVuSans-102"/>
      <path d="M 14.796875 27.296875 
Q 14.796875 17.390625 18.875 11.75 
Q 22.953125 6.109375 30.078125 6.109375 
Q 37.203125 6.109375 41.296875 11.75 
Q 45.40625 17.390625 45.40625 27.296875 
Q 45.40625 37.203125 41.296875 42.84375 
Q 37.203125 48.484375 30.078125 48.484375 
Q 22.953125 48.484375 18.875 42.84375 
Q 14.796875 37.203125 14.796875 27.296875 
z
M 45.40625 8.203125 
Q 42.578125 3.328125 38.25 0.953125 
Q 33.9375 -1.421875 27.875 -1.421875 
Q 17.96875 -1.421875 11.734375 6.484375 
Q 5.515625 14.40625 5.515625 27.296875 
Q 5.515625 40.1875 11.734375 48.09375 
Q 17.96875 56 27.875 56 
Q 33.9375 56 38.25 53.625 
Q 42.578125 51.265625 45.40625 46.390625 
L 45.40625 54.6875 
L 54.390625 54.6875 
L 54.390625 -20.796875 
L 45.40625 -20.796875 
z
" id="DejaVuSans-113"/>
      <path d="M 45.40625 46.390625 
L 45.40625 75.984375 
L 54.390625 75.984375 
L 54.390625 0 
L 45.40625 0 
L 45.40625 8.203125 
Q 42.578125 3.328125 38.25 0.953125 
Q 33.9375 -1.421875 27.875 -1.421875 
Q 17.96875 -1.421875 11.734375 6.484375 
Q 5.515625 14.40625 5.515625 27.296875 
Q 5.515625 40.1875 11.734375 48.09375 
Q 17.96875 56 27.875 56 
Q 33.9375 56 38.25 53.625 
Q 42.578125 51.265625 45.40625 46.390625 
z
M 14.796875 27.296875 
Q 14.796875 17.390625 18.875 11.75 
Q 22.953125 6.109375 30.078125 6.109375 
Q 37.203125 6.109375 41.296875 11.75 
Q 45.40625 17.390625 45.40625 27.296875 
Q 45.40625 37.203125 41.296875 42.84375 
Q 37.203125 48.484375 30.078125 48.484375 
Q 22.953125 48.484375 18.875 42.84375 
Q 14.796875 37.203125 14.796875 27.296875 
z
" id="DejaVuSans-100"/>
      <path d="M 54.890625 33.015625 
L 54.890625 0 
L 45.90625 0 
L 45.90625 32.71875 
Q 45.90625 40.484375 42.875 44.328125 
Q 39.84375 48.1875 33.796875 48.1875 
Q 26.515625 48.1875 22.3125 43.546875 
Q 18.109375 38.921875 18.109375 30.90625 
L 18.109375 0 
L 9.078125 0 
L 9.078125 54.6875 
L 18.109375 54.6875 
L 18.109375 46.1875 
Q 21.34375 51.125 25.703125 53.5625 
Q 30.078125 56 35.796875 56 
Q 45.21875 56 50.046875 50.171875 
Q 54.890625 44.34375 54.890625 33.015625 
z
" id="DejaVuSans-110"/>
      <path d="M 48.78125 52.59375 
L 48.78125 44.1875 
Q 44.96875 46.296875 41.140625 47.34375 
Q 37.3125 48.390625 33.40625 48.390625 
Q 24.65625 48.390625 19.8125 42.84375 
Q 14.984375 37.3125 14.984375 27.296875 
Q 14.984375 17.28125 19.8125 11.734375 
Q 24.65625 6.203125 33.40625 6.203125 
Q 37.3125 6.203125 41.140625 7.25 
Q 44.96875 8.296875 48.78125 10.40625 
L 48.78125 2.09375 
Q 45.015625 0.34375 40.984375 -0.53125 
Q 36.96875 -1.421875 32.421875 -1.421875 
Q 20.0625 -1.421875 12.78125 6.34375 
Q 5.515625 14.109375 5.515625 27.296875 
Q 5.515625 40.671875 12.859375 48.328125 
Q 20.21875 56 33.015625 56 
Q 37.15625 56 41.109375 55.140625 
Q 45.0625 54.296875 48.78125 52.59375 
z
" id="DejaVuSans-99"/>
     </defs>
     <g transform="translate(18.8725 130.978281)rotate(-90)scale(0.1 -0.1)">
      <use xlink:href="#DejaVuSans-112"/>
      <use x="63.476562" xlink:href="#DejaVuSans-105"/>
      <use x="91.259766" xlink:href="#DejaVuSans-120"/>
      <use x="147.314453" xlink:href="#DejaVuSans-101"/>
      <use x="208.837891" xlink:href="#DejaVuSans-108"/>
      <use x="236.621094" xlink:href="#DejaVuSans-32"/>
      <use x="268.408203" xlink:href="#DejaVuSans-102"/>
      <use x="303.613281" xlink:href="#DejaVuSans-114"/>
      <use x="342.476562" xlink:href="#DejaVuSans-101"/>
      <use x="404" xlink:href="#DejaVuSans-113"/>
      <use x="467.476562" xlink:href="#DejaVuSans-32"/>
      <use x="499.263672" xlink:href="#DejaVuSans-100"/>
      <use x="562.740234" xlink:href="#DejaVuSans-105"/>
      <use x="590.523438" xlink:href="#DejaVuSans-102"/>
      <use x="625.728516" xlink:href="#DejaVuSans-102"/>
      <use x="660.933594" xlink:href="#DejaVuSans-101"/>
      <use x="722.457031" xlink:href="#DejaVuSans-114"/>
      <use x="761.320312" xlink:href="#DejaVuSans-101"/>
      <use x="822.84375" xlink:href="#DejaVuSans-110"/>
      <use x="886.222656" xlink:href="#DejaVuSans-99"/>
      <use x="941.203125" xlink:href="#DejaVuSans-101"/>
     </g>
    </g>
   </g>
   <g id="line2d_8">
    <path clip-path="url(#p029485cb44)" d="M 68.96 131.203636 
L 69.546863 42.461615 
L 70.133725 70.984536 
L 70.720588 39.376919 
L 71.307451 59.724145 
L 71.894314 38.166246 
L 72.481176 64.74777 
L 73.068039 34.002539 
L 73.654902 42.365028 
L 74.241765 32.434218 
L 74.828627 41.98506 
L 75.41549 30.71891 
L 76.002353 33.413763 
L 76.589216 30.476364 
L 77.176078 36.80159 
L 77.762941 33.11022 
L 78.349804 44.322163 
L 78.936667 35.141415 
L 79.523529 47.475467 
L 80.110392 37.085486 
L 80.697255 52.506189 
L 81.284118 37.501764 
L 81.87098 48.904 
L 82.457843 37.673645 
L 83.044706 45.362498 
L 83.631569 37.394275 
L 84.218431 38.639817 
L 84.805294 38.401694 
L 85.392157 41.08513 
L 85.97902 39.864377 
L 86.565882 45.065127 
L 87.152745 43.076003 
L 87.739608 53.826203 
L 88.326471 43.860729 
L 88.913333 55.92724 
L 89.500196 43.436633 
L 90.087059 52.097214 
L 90.673922 41.582154 
L 91.260784 49.899385 
L 91.847647 40.075447 
L 92.43451 41.63955 
L 93.021373 39.021123 
L 93.608235 40.201349 
L 94.195098 39.701239 
L 94.781961 44.809621 
L 95.368824 40.484628 
L 95.955686 46.802654 
L 96.542549 41.343208 
L 97.129412 51.092571 
L 97.716275 40.423734 
L 98.303137 48.526912 
L 98.89 38.99191 
L 99.476863 43.939932 
L 100.063725 37.795432 
L 100.650588 39.702165 
L 101.237451 37.386046 
L 101.824314 39.653409 
L 102.411176 37.864863 
L 102.998039 41.237878 
L 103.584902 39.028117 
L 104.171765 44.734327 
L 104.758627 39.719548 
L 105.34549 47.708036 
L 105.932353 39.963226 
L 106.519216 45.970818 
L 107.106078 38.855414 
L 107.692941 44.017386 
L 108.279804 38.443662 
L 108.866667 41.179762 
L 109.453529 38.193504 
L 110.040392 40.287135 
L 110.627255 39.054553 
L 111.214118 42.212691 
L 111.80098 40.414477 
L 112.387843 46.602384 
L 112.974706 41.529798 
L 113.561569 49.200548 
L 114.148431 41.711244 
L 114.735294 47.799788 
L 115.322157 40.840115 
L 115.90902 45.439747 
L 116.495882 39.863759 
L 117.082745 42.408641 
L 117.669608 39.633248 
L 118.256471 41.802276 
L 118.843333 40.185508 
L 119.430196 42.131226 
L 120.017059 40.868916 
L 120.603922 45.611936 
L 121.190784 42.272865 
L 121.777647 48.25721 
L 122.36451 42.241184 
L 122.951373 47.819846 
L 123.538235 41.187168 
L 124.125098 46.132104 
L 124.711961 40.659183 
L 125.298824 42.738516 
L 125.885686 40.198777 
L 126.472549 42.316067 
L 127.059412 40.516103 
L 127.646275 43.013978 
L 128.233137 41.062295 
L 128.82 45.061527 
L 129.406863 42.057577 
L 129.993725 47.841344 
L 130.580588 41.97714 
L 131.167451 47.08511 
L 131.754314 41.24909 
L 132.341176 45.264883 
L 132.928039 40.116489 
L 133.514902 42.511914 
L 134.101765 39.688279 
L 134.688627 40.573294 
L 135.27549 39.471962 
L 135.862353 40.895557 
L 136.449216 40.528858 
L 137.036078 44.726818 
L 137.622941 41.38785 
L 138.209804 47.152895 
L 138.796667 42.125671 
L 139.383529 48.211849 
L 139.970392 41.439074 
L 140.557255 45.79688 
L 141.144118 40.632131 
L 141.73098 42.758471 
L 142.317843 40.384544 
L 142.904706 41.763909 
L 143.491569 40.688498 
L 144.078431 42.468609 
L 144.665294 41.415931 
L 145.252157 44.456397 
L 145.83902 42.541435 
L 146.425882 48.224295 
L 147.012745 43.232249 
L 147.599608 49.346405 
L 148.186471 42.888282 
L 148.773333 47.60034 
L 149.360196 42.330364 
L 149.947059 45.543945 
L 150.533922 41.916761 
L 151.120784 44.722189 
L 151.707647 41.935893 
L 152.29451 44.775985 
L 152.881373 42.813193 
L 153.468235 46.919298 
L 154.055098 43.835528 
L 154.641961 50.179269 
L 155.228824 44.425333 
L 155.815686 50.995059 
L 156.402549 44.193998 
L 156.989412 49.096761 
L 157.576275 43.224534 
L 158.163137 46.748652 
L 158.75 42.831194 
L 159.336863 44.905076 
L 159.923725 43.065408 
L 160.510588 45.723232 
L 161.097451 43.558318 
L 161.684314 47.279826 
L 162.271176 44.086509 
L 162.858039 50.12969 
L 163.444902 44.604311 
L 164.031765 51.030443 
L 164.618627 44.19369 
L 165.20549 50.239032 
L 165.792353 43.534454 
L 166.379216 48.037808 
L 166.966078 43.033213 
L 167.552941 46.108857 
L 168.139804 42.633084 
L 168.726667 45.661206 
L 169.313529 43.177115 
L 169.900392 47.349874 
L 170.487255 43.457 
L 171.074118 48.96119 
L 171.66098 43.60584 
L 172.247843 52.486028 
L 172.834706 42.940227 
L 173.421569 49.778729 
L 174.008431 42.10263 
L 174.595294 46.191249 
L 175.182157 40.877454 
L 175.76902 43.208488 
L 176.355882 40.169359 
L 176.942745 43.14204 
L 177.529608 40.12194 
L 178.116471 43.480349 
L 178.703333 40.49152 
L 179.290196 46.358089 
L 179.877059 40.552928 
L 180.463922 48.549232 
L 181.050784 40.178822 
L 181.637647 47.083362 
L 182.22451 39.263977 
L 182.811373 44.9491 
L 183.398235 38.348104 
L 183.985098 41.1344 
L 184.571961 37.669222 
L 185.158824 40.773256 
L 185.745686 37.603391 
L 186.332549 41.143452 
L 186.919412 38.205127 
L 187.506275 43.929337 
L 188.093137 38.764382 
L 188.68 45.946543 
L 189.266863 38.932971 
L 189.853725 46.080262 
L 190.440588 38.659052 
L 191.027451 43.129182 
L 191.614314 38.104941 
L 192.201176 41.011379 
L 192.788039 38.136622 
L 193.374902 40.666795 
L 193.961765 38.24082 
L 194.548627 41.647676 
L 195.13549 38.965372 
L 195.722353 44.468534 
L 196.309216 39.434109 
L 196.896078 47.309038 
L 197.482941 39.759561 
L 198.069804 47.468884 
L 198.656667 39.520924 
L 199.243529 46.848324 
L 199.830392 38.658538 
L 200.417255 40.837749 
L 201.004118 37.941289 
L 201.59098 38.418049 
L 202.177843 38.187744 
L 202.764706 39.259863 
L 203.351569 38.50435 
L 203.938431 40.167919 
L 204.525294 38.704826 
L 205.112157 40.057035 
L 205.69902 38.629737 
L 206.285882 39.083971 
L 206.872745 38.260466 
L 207.459608 39.577292 
L 208.046471 37.726207 
L 208.633333 33.411808 
L 209.220196 37.633632 
L 209.807059 30.944689 
L 210.393922 37.902305 
L 210.980784 30.965673 
L 211.567647 39.320345 
L 212.15451 36.548964 
L 212.741373 41.370672 
L 213.328235 34.468704 
L 213.915098 44.021089 
L 214.501961 37.793992 
L 215.088824 47.658971 
L 215.675686 55.050762 
L 216.262549 50.232963 
L 216.849412 117.871627 
L 217.436275 43.709215 
L 218.023137 110.265474 
L 218.61 42.73399 
L 218.61 42.73399 
" style="fill:none;stroke:#ff0000;stroke-linecap:square;stroke-width:1.5;"/>
   </g>
   <g id="patch_3">
    <path d="M 68.96 136.24 
L 68.96 25.44 
" style="fill:none;stroke:#000000;stroke-linecap:square;stroke-linejoin:miter;stroke-width:0.8;"/>
   </g>
   <g id="patch_4">
    <path d="M 218.61 136.24 
L 218.61 25.44 
" style="fill:none;stroke:#000000;stroke-linecap:square;stroke-linejoin:miter;stroke-width:0.8;"/>
   </g>
   <g id="patch_5">
    <path d="M 68.96 136.24 
L 218.61 136.24 
" style="fill:none;stroke:#000000;stroke-linecap:square;stroke-linejoin:miter;stroke-width:0.8;"/>
   </g>
   <g id="patch_6">
    <path d="M 68.96 25.44 
L 218.61 25.44 
" style="fill:none;stroke:#000000;stroke-linecap:square;stroke-linejoin:miter;stroke-width:0.8;"/>
   </g>
   <g id="text_10">
    <!-- Progan-person-cA/ -->
    <defs>
     <path d="M 19.671875 64.796875 
L 19.671875 37.40625 
L 32.078125 37.40625 
Q 38.96875 37.40625 42.71875 40.96875 
Q 46.484375 44.53125 46.484375 51.125 
Q 46.484375 57.671875 42.71875 61.234375 
Q 38.96875 64.796875 32.078125 64.796875 
z
M 9.8125 72.90625 
L 32.078125 72.90625 
Q 44.34375 72.90625 50.609375 67.359375 
Q 56.890625 61.8125 56.890625 51.125 
Q 56.890625 40.328125 50.609375 34.8125 
Q 44.34375 29.296875 32.078125 29.296875 
L 19.671875 29.296875 
L 19.671875 0 
L 9.8125 0 
z
" id="DejaVuSans-80"/>
     <path d="M 30.609375 48.390625 
Q 23.390625 48.390625 19.1875 42.75 
Q 14.984375 37.109375 14.984375 27.296875 
Q 14.984375 17.484375 19.15625 11.84375 
Q 23.34375 6.203125 30.609375 6.203125 
Q 37.796875 6.203125 41.984375 11.859375 
Q 46.1875 17.53125 46.1875 27.296875 
Q 46.1875 37.015625 41.984375 42.703125 
Q 37.796875 48.390625 30.609375 48.390625 
z
M 30.609375 56 
Q 42.328125 56 49.015625 48.375 
Q 55.71875 40.765625 55.71875 27.296875 
Q 55.71875 13.875 49.015625 6.21875 
Q 42.328125 -1.421875 30.609375 -1.421875 
Q 18.84375 -1.421875 12.171875 6.21875 
Q 5.515625 13.875 5.515625 27.296875 
Q 5.515625 40.765625 12.171875 48.375 
Q 18.84375 56 30.609375 56 
z
" id="DejaVuSans-111"/>
     <path d="M 4.890625 31.390625 
L 31.203125 31.390625 
L 31.203125 23.390625 
L 4.890625 23.390625 
z
" id="DejaVuSans-45"/>
     <path d="M 44.28125 53.078125 
L 44.28125 44.578125 
Q 40.484375 46.53125 36.375 47.5 
Q 32.28125 48.484375 27.875 48.484375 
Q 21.1875 48.484375 17.84375 46.4375 
Q 14.5 44.390625 14.5 40.28125 
Q 14.5 37.15625 16.890625 35.375 
Q 19.28125 33.59375 26.515625 31.984375 
L 29.59375 31.296875 
Q 39.15625 29.25 43.1875 25.515625 
Q 47.21875 21.78125 47.21875 15.09375 
Q 47.21875 7.46875 41.1875 3.015625 
Q 35.15625 -1.421875 24.609375 -1.421875 
Q 20.21875 -1.421875 15.453125 -0.5625 
Q 10.6875 0.296875 5.421875 2 
L 5.421875 11.28125 
Q 10.40625 8.6875 15.234375 7.390625 
Q 20.0625 6.109375 24.8125 6.109375 
Q 31.15625 6.109375 34.5625 8.28125 
Q 37.984375 10.453125 37.984375 14.40625 
Q 37.984375 18.0625 35.515625 20.015625 
Q 33.0625 21.96875 24.703125 23.78125 
L 21.578125 24.515625 
Q 13.234375 26.265625 9.515625 29.90625 
Q 5.8125 33.546875 5.8125 39.890625 
Q 5.8125 47.609375 11.28125 51.796875 
Q 16.75 56 26.8125 56 
Q 31.78125 56 36.171875 55.265625 
Q 40.578125 54.546875 44.28125 53.078125 
z
" id="DejaVuSans-115"/>
     <path d="M 34.1875 63.1875 
L 20.796875 26.90625 
L 47.609375 26.90625 
z
M 28.609375 72.90625 
L 39.796875 72.90625 
L 67.578125 0 
L 57.328125 0 
L 50.6875 18.703125 
L 17.828125 18.703125 
L 11.1875 0 
L 0.78125 0 
z
" id="DejaVuSans-65"/>
     <path d="M 25.390625 72.90625 
L 33.6875 72.90625 
L 8.296875 -9.28125 
L 0 -9.28125 
z
" id="DejaVuSans-47"/>
    </defs>
    <g transform="translate(88.66 19.44)scale(0.12 -0.12)">
     <use xlink:href="#DejaVuSans-80"/>
     <use x="58.552734" xlink:href="#DejaVuSans-114"/>
     <use x="97.416016" xlink:href="#DejaVuSans-111"/>
     <use x="158.597656" xlink:href="#DejaVuSans-103"/>
     <use x="222.074219" xlink:href="#DejaVuSans-97"/>
     <use x="283.353516" xlink:href="#DejaVuSans-110"/>
     <use x="346.732422" xlink:href="#DejaVuSans-45"/>
     <use x="382.816406" xlink:href="#DejaVuSans-112"/>
     <use x="446.292969" xlink:href="#DejaVuSans-101"/>
     <use x="507.816406" xlink:href="#DejaVuSans-114"/>
     <use x="548.929688" xlink:href="#DejaVuSans-115"/>
     <use x="601.029297" xlink:href="#DejaVuSans-111"/>
     <use x="662.210938" xlink:href="#DejaVuSans-110"/>
     <use x="725.589844" xlink:href="#DejaVuSans-45"/>
     <use x="761.673828" xlink:href="#DejaVuSans-99"/>
     <use x="816.654297" xlink:href="#DejaVuSans-65"/>
     <use x="885.0625" xlink:href="#DejaVuSans-47"/>
    </g>
   </g>
   <g id="legend_1">
    <g id="patch_7">
     <path d="M 75.96 131.24 
L 124.127187 131.24 
Q 126.127187 131.24 126.127187 129.24 
L 126.127187 115.561875 
Q 126.127187 113.561875 124.127187 113.561875 
L 75.96 113.561875 
Q 73.96 113.561875 73.96 115.561875 
L 73.96 129.24 
Q 73.96 131.24 75.96 131.24 
z
" style="fill:#ffffff;opacity:0.8;stroke:#cccccc;stroke-linejoin:miter;"/>
    </g>
    <g id="line2d_9">
     <path d="M 77.96 121.660312 
L 97.96 121.660312 
" style="fill:none;stroke:#ff0000;stroke-linecap:square;stroke-width:1.5;"/>
    </g>
    <g id="line2d_10"/>
    <g id="text_11">
     <!-- diff -->
     <g transform="translate(105.96 125.160312)scale(0.1 -0.1)">
      <use xlink:href="#DejaVuSans-100"/>
      <use x="63.476562" xlink:href="#DejaVuSans-105"/>
      <use x="91.259766" xlink:href="#DejaVuSans-102"/>
      <use x="126.464844" xlink:href="#DejaVuSans-102"/>
     </g>
    </g>
   </g>
  </g>
  <g id="axes_2">
   <g id="patch_8">
    <path d="M 290.765 136.24 
L 440.415 136.24 
L 440.415 25.44 
L 290.765 25.44 
z
" style="fill:#ffffff;"/>
   </g>
   <g id="matplotlib.axis_3">
    <g id="xtick_5">
     <g id="line2d_11">
      <g>
       <use style="stroke:#000000;stroke-width:0.8;" x="290.765" xlink:href="#md8aa7005a0" y="136.24"/>
      </g>
     </g>
     <g id="text_12">
      <!-- 0 -->
      <g transform="translate(287.58375 150.838437)scale(0.1 -0.1)">
       <use xlink:href="#DejaVuSans-48"/>
      </g>
     </g>
    </g>
    <g id="xtick_6">
     <g id="line2d_12">
      <g>
       <use style="stroke:#000000;stroke-width:0.8;" x="340.648333" xlink:href="#md8aa7005a0" y="136.24"/>
      </g>
     </g>
     <g id="text_13">
      <!-- 85 -->
      <g transform="translate(334.285833 150.838437)scale(0.1 -0.1)">
       <use xlink:href="#DejaVuSans-56"/>
       <use x="63.623047" xlink:href="#DejaVuSans-53"/>
      </g>
     </g>
    </g>
    <g id="xtick_7">
     <g id="line2d_13">
      <g>
       <use style="stroke:#000000;stroke-width:0.8;" x="390.531667" xlink:href="#md8aa7005a0" y="136.24"/>
      </g>
     </g>
     <g id="text_14">
      <!-- 170 -->
      <g transform="translate(380.987917 150.838437)scale(0.1 -0.1)">
       <use xlink:href="#DejaVuSans-49"/>
       <use x="63.623047" xlink:href="#DejaVuSans-55"/>
       <use x="127.246094" xlink:href="#DejaVuSans-48"/>
      </g>
     </g>
    </g>
    <g id="xtick_8">
     <g id="line2d_14">
      <g>
       <use style="stroke:#000000;stroke-width:0.8;" x="440.415" xlink:href="#md8aa7005a0" y="136.24"/>
      </g>
     </g>
     <g id="text_15">
      <!-- 255 -->
      <g transform="translate(430.87125 150.838437)scale(0.1 -0.1)">
       <use xlink:href="#DejaVuSans-50"/>
       <use x="63.623047" xlink:href="#DejaVuSans-53"/>
       <use x="127.246094" xlink:href="#DejaVuSans-53"/>
      </g>
     </g>
    </g>
    <g id="text_16">
     <!-- gray value -->
     <g transform="translate(339.09 164.516562)scale(0.1 -0.1)">
      <use xlink:href="#DejaVuSans-103"/>
      <use x="63.476562" xlink:href="#DejaVuSans-114"/>
      <use x="104.589844" xlink:href="#DejaVuSans-97"/>
      <use x="165.869141" xlink:href="#DejaVuSans-121"/>
      <use x="225.048828" xlink:href="#DejaVuSans-32"/>
      <use x="256.835938" xlink:href="#DejaVuSans-118"/>
      <use x="316.015625" xlink:href="#DejaVuSans-97"/>
      <use x="377.294922" xlink:href="#DejaVuSans-108"/>
      <use x="405.078125" xlink:href="#DejaVuSans-117"/>
      <use x="468.457031" xlink:href="#DejaVuSans-101"/>
     </g>
    </g>
   </g>
   <g id="matplotlib.axis_4">
    <g id="ytick_4">
     <g id="line2d_15">
      <g>
       <use style="stroke:#000000;stroke-width:0.8;" x="290.765" xlink:href="#m5ee12e2085" y="96.193579"/>
      </g>
     </g>
     <g id="text_17">
      <!-- −0.02 -->
      <g transform="translate(253.119688 99.992798)scale(0.1 -0.1)">
       <use xlink:href="#DejaVuSans-8722"/>
       <use x="83.789062" xlink:href="#DejaVuSans-48"/>
       <use x="147.412109" xlink:href="#DejaVuSans-46"/>
       <use x="179.199219" xlink:href="#DejaVuSans-48"/>
       <use x="242.822266" xlink:href="#DejaVuSans-50"/>
      </g>
     </g>
    </g>
    <g id="ytick_5">
     <g id="line2d_16">
      <g>
       <use style="stroke:#000000;stroke-width:0.8;" x="290.765" xlink:href="#m5ee12e2085" y="54.39008"/>
      </g>
     </g>
     <g id="text_18">
      <!-- 0.00 -->
      <g transform="translate(261.499375 58.189299)scale(0.1 -0.1)">
       <use xlink:href="#DejaVuSans-48"/>
       <use x="63.623047" xlink:href="#DejaVuSans-46"/>
       <use x="95.410156" xlink:href="#DejaVuSans-48"/>
       <use x="159.033203" xlink:href="#DejaVuSans-48"/>
      </g>
     </g>
    </g>
    <g id="text_19">
     <!-- pixel freq difference -->
     <g transform="translate(247.04 130.978281)rotate(-90)scale(0.1 -0.1)">
      <use xlink:href="#DejaVuSans-112"/>
      <use x="63.476562" xlink:href="#DejaVuSans-105"/>
      <use x="91.259766" xlink:href="#DejaVuSans-120"/>
      <use x="147.314453" xlink:href="#DejaVuSans-101"/>
      <use x="208.837891" xlink:href="#DejaVuSans-108"/>
      <use x="236.621094" xlink:href="#DejaVuSans-32"/>
      <use x="268.408203" xlink:href="#DejaVuSans-102"/>
      <use x="303.613281" xlink:href="#DejaVuSans-114"/>
      <use x="342.476562" xlink:href="#DejaVuSans-101"/>
      <use x="404" xlink:href="#DejaVuSans-113"/>
      <use x="467.476562" xlink:href="#DejaVuSans-32"/>
      <use x="499.263672" xlink:href="#DejaVuSans-100"/>
      <use x="562.740234" xlink:href="#DejaVuSans-105"/>
      <use x="590.523438" xlink:href="#DejaVuSans-102"/>
      <use x="625.728516" xlink:href="#DejaVuSans-102"/>
      <use x="660.933594" xlink:href="#DejaVuSans-101"/>
      <use x="722.457031" xlink:href="#DejaVuSans-114"/>
      <use x="761.320312" xlink:href="#DejaVuSans-101"/>
      <use x="822.84375" xlink:href="#DejaVuSans-110"/>
      <use x="886.222656" xlink:href="#DejaVuSans-99"/>
      <use x="941.203125" xlink:href="#DejaVuSans-101"/>
     </g>
    </g>
   </g>
   <g id="line2d_17">
    <path clip-path="url(#p6e53869fcc)" d="M 290.765 131.203636 
L 291.351863 30.476364 
L 292.525588 51.127406 
L 293.112451 53.731856 
L 293.699314 54.973779 
L 294.286176 54.361872 
L 294.873039 54.078197 
L 296.633627 54.468113 
L 298.981078 54.326813 
L 300.154804 54.389442 
L 301.915392 54.364896 
L 303.67598 54.389147 
L 312.478922 54.414933 
L 316.000098 54.408874 
L 325.389902 54.410515 
L 338.300882 54.401444 
L 346.516961 54.401042 
L 431.025196 54.434506 
L 432.198922 54.540334 
L 432.785784 54.43655 
L 433.372647 54.560344 
L 433.95951 54.509208 
L 435.133235 54.628419 
L 435.720098 54.401066 
L 436.306961 54.46744 
L 436.893824 54.353969 
L 437.480686 54.710315 
L 438.067549 55.439555 
L 438.654412 53.545031 
L 439.241275 50.0323 
L 439.828137 39.608476 
L 440.415 32.985251 
L 440.415 32.985251 
" style="fill:none;stroke:#ff0000;stroke-linecap:square;stroke-width:1.5;"/>
   </g>
   <g id="patch_9">
    <path d="M 290.765 136.24 
L 290.765 25.44 
" style="fill:none;stroke:#000000;stroke-linecap:square;stroke-linejoin:miter;stroke-width:0.8;"/>
   </g>
   <g id="patch_10">
    <path d="M 440.415 136.24 
L 440.415 25.44 
" style="fill:none;stroke:#000000;stroke-linecap:square;stroke-linejoin:miter;stroke-width:0.8;"/>
   </g>
   <g id="patch_11">
    <path d="M 290.765 136.24 
L 440.415 136.24 
" style="fill:none;stroke:#000000;stroke-linecap:square;stroke-linejoin:miter;stroke-width:0.8;"/>
   </g>
   <g id="patch_12">
    <path d="M 290.765 25.44 
L 440.415 25.44 
" style="fill:none;stroke:#000000;stroke-linecap:square;stroke-linejoin:miter;stroke-width:0.8;"/>
   </g>
   <g id="text_20">
    <!-- Progan-person-cH/ -->
    <defs>
     <path d="M 9.8125 72.90625 
L 19.671875 72.90625 
L 19.671875 43.015625 
L 55.515625 43.015625 
L 55.515625 72.90625 
L 65.375 72.90625 
L 65.375 0 
L 55.515625 0 
L 55.515625 34.71875 
L 19.671875 34.71875 
L 19.671875 0 
L 9.8125 0 
z
" id="DejaVuSans-72"/>
    </defs>
    <g transform="translate(310.057188 19.44)scale(0.12 -0.12)">
     <use xlink:href="#DejaVuSans-80"/>
     <use x="58.552734" xlink:href="#DejaVuSans-114"/>
     <use x="97.416016" xlink:href="#DejaVuSans-111"/>
     <use x="158.597656" xlink:href="#DejaVuSans-103"/>
     <use x="222.074219" xlink:href="#DejaVuSans-97"/>
     <use x="283.353516" xlink:href="#DejaVuSans-110"/>
     <use x="346.732422" xlink:href="#DejaVuSans-45"/>
     <use x="382.816406" xlink:href="#DejaVuSans-112"/>
     <use x="446.292969" xlink:href="#DejaVuSans-101"/>
     <use x="507.816406" xlink:href="#DejaVuSans-114"/>
     <use x="548.929688" xlink:href="#DejaVuSans-115"/>
     <use x="601.029297" xlink:href="#DejaVuSans-111"/>
     <use x="662.210938" xlink:href="#DejaVuSans-110"/>
     <use x="725.589844" xlink:href="#DejaVuSans-45"/>
     <use x="761.673828" xlink:href="#DejaVuSans-99"/>
     <use x="816.654297" xlink:href="#DejaVuSans-72"/>
     <use x="891.849609" xlink:href="#DejaVuSans-47"/>
    </g>
   </g>
   <g id="legend_2">
    <g id="patch_13">
     <path d="M 385.247812 48.118125 
L 433.415 48.118125 
Q 435.415 48.118125 435.415 46.118125 
L 435.415 32.44 
Q 435.415 30.44 433.415 30.44 
L 385.247812 30.44 
Q 383.247812 30.44 383.247812 32.44 
L 383.247812 46.118125 
Q 383.247812 48.118125 385.247812 48.118125 
z
" style="fill:#ffffff;opacity:0.8;stroke:#cccccc;stroke-linejoin:miter;"/>
    </g>
    <g id="line2d_18">
     <path d="M 387.247812 38.538438 
L 407.247812 38.538438 
" style="fill:none;stroke:#ff0000;stroke-linecap:square;stroke-width:1.5;"/>
    </g>
    <g id="line2d_19"/>
    <g id="text_21">
     <!-- diff -->
     <g transform="translate(415.247812 42.038438)scale(0.1 -0.1)">
      <use xlink:href="#DejaVuSans-100"/>
      <use x="63.476562" xlink:href="#DejaVuSans-105"/>
      <use x="91.259766" xlink:href="#DejaVuSans-102"/>
      <use x="126.464844" xlink:href="#DejaVuSans-102"/>
     </g>
    </g>
   </g>
  </g>
  <g id="axes_3">
   <g id="patch_14">
    <path d="M 68.96 303.64 
L 218.61 303.64 
L 218.61 192.84 
L 68.96 192.84 
z
" style="fill:#ffffff;"/>
   </g>
   <g id="matplotlib.axis_5">
    <g id="xtick_9">
     <g id="line2d_20">
      <g>
       <use style="stroke:#000000;stroke-width:0.8;" x="68.96" xlink:href="#md8aa7005a0" y="303.64"/>
      </g>
     </g>
     <g id="text_22">
      <!-- 0 -->
      <g transform="translate(65.77875 318.238437)scale(0.1 -0.1)">
       <use xlink:href="#DejaVuSans-48"/>
      </g>
     </g>
    </g>
    <g id="xtick_10">
     <g id="line2d_21">
      <g>
       <use style="stroke:#000000;stroke-width:0.8;" x="118.843333" xlink:href="#md8aa7005a0" y="303.64"/>
      </g>
     </g>
     <g id="text_23">
      <!-- 85 -->
      <g transform="translate(112.480833 318.238437)scale(0.1 -0.1)">
       <use xlink:href="#DejaVuSans-56"/>
       <use x="63.623047" xlink:href="#DejaVuSans-53"/>
      </g>
     </g>
    </g>
    <g id="xtick_11">
     <g id="line2d_22">
      <g>
       <use style="stroke:#000000;stroke-width:0.8;" x="168.726667" xlink:href="#md8aa7005a0" y="303.64"/>
      </g>
     </g>
     <g id="text_24">
      <!-- 170 -->
      <g transform="translate(159.182917 318.238437)scale(0.1 -0.1)">
       <use xlink:href="#DejaVuSans-49"/>
       <use x="63.623047" xlink:href="#DejaVuSans-55"/>
       <use x="127.246094" xlink:href="#DejaVuSans-48"/>
      </g>
     </g>
    </g>
    <g id="xtick_12">
     <g id="line2d_23">
      <g>
       <use style="stroke:#000000;stroke-width:0.8;" x="218.61" xlink:href="#md8aa7005a0" y="303.64"/>
      </g>
     </g>
     <g id="text_25">
      <!-- 255 -->
      <g transform="translate(209.06625 318.238437)scale(0.1 -0.1)">
       <use xlink:href="#DejaVuSans-50"/>
       <use x="63.623047" xlink:href="#DejaVuSans-53"/>
       <use x="127.246094" xlink:href="#DejaVuSans-53"/>
      </g>
     </g>
    </g>
    <g id="text_26">
     <!-- gray value -->
     <g transform="translate(117.285 331.916562)scale(0.1 -0.1)">
      <use xlink:href="#DejaVuSans-103"/>
      <use x="63.476562" xlink:href="#DejaVuSans-114"/>
      <use x="104.589844" xlink:href="#DejaVuSans-97"/>
      <use x="165.869141" xlink:href="#DejaVuSans-121"/>
      <use x="225.048828" xlink:href="#DejaVuSans-32"/>
      <use x="256.835938" xlink:href="#DejaVuSans-118"/>
      <use x="316.015625" xlink:href="#DejaVuSans-97"/>
      <use x="377.294922" xlink:href="#DejaVuSans-108"/>
      <use x="405.078125" xlink:href="#DejaVuSans-117"/>
      <use x="468.457031" xlink:href="#DejaVuSans-101"/>
     </g>
    </g>
   </g>
   <g id="matplotlib.axis_6">
    <g id="ytick_6">
     <g id="line2d_24">
      <g>
       <use style="stroke:#000000;stroke-width:0.8;" x="68.96" xlink:href="#m5ee12e2085" y="289.379189"/>
      </g>
     </g>
     <g id="text_27">
      <!-- −0.03 -->
      <defs>
       <path d="M 40.578125 39.3125 
Q 47.65625 37.796875 51.625 33 
Q 55.609375 28.21875 55.609375 21.1875 
Q 55.609375 10.40625 48.1875 4.484375 
Q 40.765625 -1.421875 27.09375 -1.421875 
Q 22.515625 -1.421875 17.65625 -0.515625 
Q 12.796875 0.390625 7.625 2.203125 
L 7.625 11.71875 
Q 11.71875 9.328125 16.59375 8.109375 
Q 21.484375 6.890625 26.8125 6.890625 
Q 36.078125 6.890625 40.9375 10.546875 
Q 45.796875 14.203125 45.796875 21.1875 
Q 45.796875 27.640625 41.28125 31.265625 
Q 36.765625 34.90625 28.71875 34.90625 
L 20.21875 34.90625 
L 20.21875 43.015625 
L 29.109375 43.015625 
Q 36.375 43.015625 40.234375 45.921875 
Q 44.09375 48.828125 44.09375 54.296875 
Q 44.09375 59.90625 40.109375 62.90625 
Q 36.140625 65.921875 28.71875 65.921875 
Q 24.65625 65.921875 20.015625 65.03125 
Q 15.375 64.15625 9.8125 62.3125 
L 9.8125 71.09375 
Q 15.4375 72.65625 20.34375 73.4375 
Q 25.25 74.21875 29.59375 74.21875 
Q 40.828125 74.21875 47.359375 69.109375 
Q 53.90625 64.015625 53.90625 55.328125 
Q 53.90625 49.265625 50.4375 45.09375 
Q 46.96875 40.921875 40.578125 39.3125 
z
" id="DejaVuSans-51"/>
      </defs>
      <g transform="translate(31.314687 293.178408)scale(0.1 -0.1)">
       <use xlink:href="#DejaVuSans-8722"/>
       <use x="83.789062" xlink:href="#DejaVuSans-48"/>
       <use x="147.412109" xlink:href="#DejaVuSans-46"/>
       <use x="179.199219" xlink:href="#DejaVuSans-48"/>
       <use x="242.822266" xlink:href="#DejaVuSans-51"/>
      </g>
     </g>
    </g>
    <g id="ytick_7">
     <g id="line2d_25">
      <g>
       <use style="stroke:#000000;stroke-width:0.8;" x="68.96" xlink:href="#m5ee12e2085" y="266.173294"/>
      </g>
     </g>
     <g id="text_28">
      <!-- −0.02 -->
      <g transform="translate(31.314687 269.972513)scale(0.1 -0.1)">
       <use xlink:href="#DejaVuSans-8722"/>
       <use x="83.789062" xlink:href="#DejaVuSans-48"/>
       <use x="147.412109" xlink:href="#DejaVuSans-46"/>
       <use x="179.199219" xlink:href="#DejaVuSans-48"/>
       <use x="242.822266" xlink:href="#DejaVuSans-50"/>
      </g>
     </g>
    </g>
    <g id="ytick_8">
     <g id="line2d_26">
      <g>
       <use style="stroke:#000000;stroke-width:0.8;" x="68.96" xlink:href="#m5ee12e2085" y="242.967398"/>
      </g>
     </g>
     <g id="text_29">
      <!-- −0.01 -->
      <g transform="translate(31.314687 246.766617)scale(0.1 -0.1)">
       <use xlink:href="#DejaVuSans-8722"/>
       <use x="83.789062" xlink:href="#DejaVuSans-48"/>
       <use x="147.412109" xlink:href="#DejaVuSans-46"/>
       <use x="179.199219" xlink:href="#DejaVuSans-48"/>
       <use x="242.822266" xlink:href="#DejaVuSans-49"/>
      </g>
     </g>
    </g>
    <g id="ytick_9">
     <g id="line2d_27">
      <g>
       <use style="stroke:#000000;stroke-width:0.8;" x="68.96" xlink:href="#m5ee12e2085" y="219.761502"/>
      </g>
     </g>
     <g id="text_30">
      <!-- 0.00 -->
      <g transform="translate(39.694375 223.560721)scale(0.1 -0.1)">
       <use xlink:href="#DejaVuSans-48"/>
       <use x="63.623047" xlink:href="#DejaVuSans-46"/>
       <use x="95.410156" xlink:href="#DejaVuSans-48"/>
       <use x="159.033203" xlink:href="#DejaVuSans-48"/>
      </g>
     </g>
    </g>
    <g id="ytick_10">
     <g id="line2d_28">
      <g>
       <use style="stroke:#000000;stroke-width:0.8;" x="68.96" xlink:href="#m5ee12e2085" y="196.555607"/>
      </g>
     </g>
     <g id="text_31">
      <!-- 0.01 -->
      <g transform="translate(39.694375 200.354825)scale(0.1 -0.1)">
       <use xlink:href="#DejaVuSans-48"/>
       <use x="63.623047" xlink:href="#DejaVuSans-46"/>
       <use x="95.410156" xlink:href="#DejaVuSans-48"/>
       <use x="159.033203" xlink:href="#DejaVuSans-49"/>
      </g>
     </g>
    </g>
    <g id="text_32">
     <!-- pixel freq difference -->
     <g transform="translate(25.235 298.378281)rotate(-90)scale(0.1 -0.1)">
      <use xlink:href="#DejaVuSans-112"/>
      <use x="63.476562" xlink:href="#DejaVuSans-105"/>
      <use x="91.259766" xlink:href="#DejaVuSans-120"/>
      <use x="147.314453" xlink:href="#DejaVuSans-101"/>
      <use x="208.837891" xlink:href="#DejaVuSans-108"/>
      <use x="236.621094" xlink:href="#DejaVuSans-32"/>
      <use x="268.408203" xlink:href="#DejaVuSans-102"/>
      <use x="303.613281" xlink:href="#DejaVuSans-114"/>
      <use x="342.476562" xlink:href="#DejaVuSans-101"/>
      <use x="404" xlink:href="#DejaVuSans-113"/>
      <use x="467.476562" xlink:href="#DejaVuSans-32"/>
      <use x="499.263672" xlink:href="#DejaVuSans-100"/>
      <use x="562.740234" xlink:href="#DejaVuSans-105"/>
      <use x="590.523438" xlink:href="#DejaVuSans-102"/>
      <use x="625.728516" xlink:href="#DejaVuSans-102"/>
      <use x="660.933594" xlink:href="#DejaVuSans-101"/>
      <use x="722.457031" xlink:href="#DejaVuSans-114"/>
      <use x="761.320312" xlink:href="#DejaVuSans-101"/>
      <use x="822.84375" xlink:href="#DejaVuSans-110"/>
      <use x="886.222656" xlink:href="#DejaVuSans-99"/>
      <use x="941.203125" xlink:href="#DejaVuSans-101"/>
     </g>
    </g>
   </g>
   <g id="line2d_29">
    <path clip-path="url(#p9d94a2dfce)" d="M 68.96 298.603636 
L 69.546863 197.876364 
L 70.133725 205.386236 
L 70.720588 214.996684 
L 71.307451 219.46687 
L 71.894314 220.3184 
L 72.481176 219.618816 
L 73.068039 219.427618 
L 74.828627 219.864294 
L 82.457843 219.758211 
L 92.43451 219.789541 
L 101.237451 219.783391 
L 147.599608 219.765817 
L 164.031765 219.773974 
L 175.182157 219.777332 
L 186.919412 219.782735 
L 203.938431 219.801567 
L 208.046471 219.852006 
L 213.915098 219.766394 
L 215.088824 219.558541 
L 215.675686 219.946903 
L 216.262549 220.502004 
L 216.849412 218.81177 
L 217.436275 213.16076 
L 218.023137 202.732591 
L 218.61 201.768944 
L 218.61 201.768944 
" style="fill:none;stroke:#ff0000;stroke-linecap:square;stroke-width:1.5;"/>
   </g>
   <g id="patch_15">
    <path d="M 68.96 303.64 
L 68.96 192.84 
" style="fill:none;stroke:#000000;stroke-linecap:square;stroke-linejoin:miter;stroke-width:0.8;"/>
   </g>
   <g id="patch_16">
    <path d="M 218.61 303.64 
L 218.61 192.84 
" style="fill:none;stroke:#000000;stroke-linecap:square;stroke-linejoin:miter;stroke-width:0.8;"/>
   </g>
   <g id="patch_17">
    <path d="M 68.96 303.64 
L 218.61 303.64 
" style="fill:none;stroke:#000000;stroke-linecap:square;stroke-linejoin:miter;stroke-width:0.8;"/>
   </g>
   <g id="patch_18">
    <path d="M 68.96 192.84 
L 218.61 192.84 
" style="fill:none;stroke:#000000;stroke-linecap:square;stroke-linejoin:miter;stroke-width:0.8;"/>
   </g>
   <g id="text_33">
    <!-- Progan-person-cV/ -->
    <defs>
     <path d="M 28.609375 0 
L 0.78125 72.90625 
L 11.078125 72.90625 
L 34.1875 11.53125 
L 57.328125 72.90625 
L 67.578125 72.90625 
L 39.796875 0 
z
" id="DejaVuSans-86"/>
    </defs>
    <g transform="translate(88.66 186.84)scale(0.12 -0.12)">
     <use xlink:href="#DejaVuSans-80"/>
     <use x="58.552734" xlink:href="#DejaVuSans-114"/>
     <use x="97.416016" xlink:href="#DejaVuSans-111"/>
     <use x="158.597656" xlink:href="#DejaVuSans-103"/>
     <use x="222.074219" xlink:href="#DejaVuSans-97"/>
     <use x="283.353516" xlink:href="#DejaVuSans-110"/>
     <use x="346.732422" xlink:href="#DejaVuSans-45"/>
     <use x="382.816406" xlink:href="#DejaVuSans-112"/>
     <use x="446.292969" xlink:href="#DejaVuSans-101"/>
     <use x="507.816406" xlink:href="#DejaVuSans-114"/>
     <use x="548.929688" xlink:href="#DejaVuSans-115"/>
     <use x="601.029297" xlink:href="#DejaVuSans-111"/>
     <use x="662.210938" xlink:href="#DejaVuSans-110"/>
     <use x="725.589844" xlink:href="#DejaVuSans-45"/>
     <use x="761.673828" xlink:href="#DejaVuSans-99"/>
     <use x="816.654297" xlink:href="#DejaVuSans-86"/>
     <use x="885.0625" xlink:href="#DejaVuSans-47"/>
    </g>
   </g>
   <g id="legend_3">
    <g id="patch_19">
     <path d="M 163.442812 215.518125 
L 211.61 215.518125 
Q 213.61 215.518125 213.61 213.518125 
L 213.61 199.84 
Q 213.61 197.84 211.61 197.84 
L 163.442812 197.84 
Q 161.442812 197.84 161.442812 199.84 
L 161.442812 213.518125 
Q 161.442812 215.518125 163.442812 215.518125 
z
" style="fill:#ffffff;opacity:0.8;stroke:#cccccc;stroke-linejoin:miter;"/>
    </g>
    <g id="line2d_30">
     <path d="M 165.442812 205.938437 
L 185.442812 205.938437 
" style="fill:none;stroke:#ff0000;stroke-linecap:square;stroke-width:1.5;"/>
    </g>
    <g id="line2d_31"/>
    <g id="text_34">
     <!-- diff -->
     <g transform="translate(193.442812 209.438437)scale(0.1 -0.1)">
      <use xlink:href="#DejaVuSans-100"/>
      <use x="63.476562" xlink:href="#DejaVuSans-105"/>
      <use x="91.259766" xlink:href="#DejaVuSans-102"/>
      <use x="126.464844" xlink:href="#DejaVuSans-102"/>
     </g>
    </g>
   </g>
  </g>
  <g id="axes_4">
   <g id="patch_20">
    <path d="M 290.765 303.64 
L 440.415 303.64 
L 440.415 192.84 
L 290.765 192.84 
z
" style="fill:#ffffff;"/>
   </g>
   <g id="matplotlib.axis_7">
    <g id="xtick_13">
     <g id="line2d_32">
      <g>
       <use style="stroke:#000000;stroke-width:0.8;" x="290.765" xlink:href="#md8aa7005a0" y="303.64"/>
      </g>
     </g>
     <g id="text_35">
      <!-- 0 -->
      <g transform="translate(287.58375 318.238437)scale(0.1 -0.1)">
       <use xlink:href="#DejaVuSans-48"/>
      </g>
     </g>
    </g>
    <g id="xtick_14">
     <g id="line2d_33">
      <g>
       <use style="stroke:#000000;stroke-width:0.8;" x="340.648333" xlink:href="#md8aa7005a0" y="303.64"/>
      </g>
     </g>
     <g id="text_36">
      <!-- 85 -->
      <g transform="translate(334.285833 318.238437)scale(0.1 -0.1)">
       <use xlink:href="#DejaVuSans-56"/>
       <use x="63.623047" xlink:href="#DejaVuSans-53"/>
      </g>
     </g>
    </g>
    <g id="xtick_15">
     <g id="line2d_34">
      <g>
       <use style="stroke:#000000;stroke-width:0.8;" x="390.531667" xlink:href="#md8aa7005a0" y="303.64"/>
      </g>
     </g>
     <g id="text_37">
      <!-- 170 -->
      <g transform="translate(380.987917 318.238437)scale(0.1 -0.1)">
       <use xlink:href="#DejaVuSans-49"/>
       <use x="63.623047" xlink:href="#DejaVuSans-55"/>
       <use x="127.246094" xlink:href="#DejaVuSans-48"/>
      </g>
     </g>
    </g>
    <g id="xtick_16">
     <g id="line2d_35">
      <g>
       <use style="stroke:#000000;stroke-width:0.8;" x="440.415" xlink:href="#md8aa7005a0" y="303.64"/>
      </g>
     </g>
     <g id="text_38">
      <!-- 255 -->
      <g transform="translate(430.87125 318.238437)scale(0.1 -0.1)">
       <use xlink:href="#DejaVuSans-50"/>
       <use x="63.623047" xlink:href="#DejaVuSans-53"/>
       <use x="127.246094" xlink:href="#DejaVuSans-53"/>
      </g>
     </g>
    </g>
    <g id="text_39">
     <!-- gray value -->
     <g transform="translate(339.09 331.916562)scale(0.1 -0.1)">
      <use xlink:href="#DejaVuSans-103"/>
      <use x="63.476562" xlink:href="#DejaVuSans-114"/>
      <use x="104.589844" xlink:href="#DejaVuSans-97"/>
      <use x="165.869141" xlink:href="#DejaVuSans-121"/>
      <use x="225.048828" xlink:href="#DejaVuSans-32"/>
      <use x="256.835938" xlink:href="#DejaVuSans-118"/>
      <use x="316.015625" xlink:href="#DejaVuSans-97"/>
      <use x="377.294922" xlink:href="#DejaVuSans-108"/>
      <use x="405.078125" xlink:href="#DejaVuSans-117"/>
      <use x="468.457031" xlink:href="#DejaVuSans-101"/>
     </g>
    </g>
   </g>
   <g id="matplotlib.axis_8">
    <g id="ytick_11">
     <g id="line2d_36">
      <g>
       <use style="stroke:#000000;stroke-width:0.8;" x="290.765" xlink:href="#m5ee12e2085" y="293.23374"/>
      </g>
     </g>
     <g id="text_40">
      <!-- −0.02 -->
      <g transform="translate(253.119688 297.032959)scale(0.1 -0.1)">
       <use xlink:href="#DejaVuSans-8722"/>
       <use x="83.789062" xlink:href="#DejaVuSans-48"/>
       <use x="147.412109" xlink:href="#DejaVuSans-46"/>
       <use x="179.199219" xlink:href="#DejaVuSans-48"/>
       <use x="242.822266" xlink:href="#DejaVuSans-50"/>
      </g>
     </g>
    </g>
    <g id="ytick_12">
     <g id="line2d_37">
      <g>
       <use style="stroke:#000000;stroke-width:0.8;" x="290.765" xlink:href="#m5ee12e2085" y="261.873464"/>
      </g>
     </g>
     <g id="text_41">
      <!-- −0.01 -->
      <g transform="translate(253.119688 265.672683)scale(0.1 -0.1)">
       <use xlink:href="#DejaVuSans-8722"/>
       <use x="83.789062" xlink:href="#DejaVuSans-48"/>
       <use x="147.412109" xlink:href="#DejaVuSans-46"/>
       <use x="179.199219" xlink:href="#DejaVuSans-48"/>
       <use x="242.822266" xlink:href="#DejaVuSans-49"/>
      </g>
     </g>
    </g>
    <g id="ytick_13">
     <g id="line2d_38">
      <g>
       <use style="stroke:#000000;stroke-width:0.8;" x="290.765" xlink:href="#m5ee12e2085" y="230.513189"/>
      </g>
     </g>
     <g id="text_42">
      <!-- 0.00 -->
      <g transform="translate(261.499375 234.312407)scale(0.1 -0.1)">
       <use xlink:href="#DejaVuSans-48"/>
       <use x="63.623047" xlink:href="#DejaVuSans-46"/>
       <use x="95.410156" xlink:href="#DejaVuSans-48"/>
       <use x="159.033203" xlink:href="#DejaVuSans-48"/>
      </g>
     </g>
    </g>
    <g id="ytick_14">
     <g id="line2d_39">
      <g>
       <use style="stroke:#000000;stroke-width:0.8;" x="290.765" xlink:href="#m5ee12e2085" y="199.152913"/>
      </g>
     </g>
     <g id="text_43">
      <!-- 0.01 -->
      <g transform="translate(261.499375 202.952132)scale(0.1 -0.1)">
       <use xlink:href="#DejaVuSans-48"/>
       <use x="63.623047" xlink:href="#DejaVuSans-46"/>
       <use x="95.410156" xlink:href="#DejaVuSans-48"/>
       <use x="159.033203" xlink:href="#DejaVuSans-49"/>
      </g>
     </g>
    </g>
    <g id="text_44">
     <!-- pixel freq difference -->
     <g transform="translate(247.04 298.378281)rotate(-90)scale(0.1 -0.1)">
      <use xlink:href="#DejaVuSans-112"/>
      <use x="63.476562" xlink:href="#DejaVuSans-105"/>
      <use x="91.259766" xlink:href="#DejaVuSans-120"/>
      <use x="147.314453" xlink:href="#DejaVuSans-101"/>
      <use x="208.837891" xlink:href="#DejaVuSans-108"/>
      <use x="236.621094" xlink:href="#DejaVuSans-32"/>
      <use x="268.408203" xlink:href="#DejaVuSans-102"/>
      <use x="303.613281" xlink:href="#DejaVuSans-114"/>
      <use x="342.476562" xlink:href="#DejaVuSans-101"/>
      <use x="404" xlink:href="#DejaVuSans-113"/>
      <use x="467.476562" xlink:href="#DejaVuSans-32"/>
      <use x="499.263672" xlink:href="#DejaVuSans-100"/>
      <use x="562.740234" xlink:href="#DejaVuSans-105"/>
      <use x="590.523438" xlink:href="#DejaVuSans-102"/>
      <use x="625.728516" xlink:href="#DejaVuSans-102"/>
      <use x="660.933594" xlink:href="#DejaVuSans-101"/>
      <use x="722.457031" xlink:href="#DejaVuSans-114"/>
      <use x="761.320312" xlink:href="#DejaVuSans-101"/>
      <use x="822.84375" xlink:href="#DejaVuSans-110"/>
      <use x="886.222656" xlink:href="#DejaVuSans-99"/>
      <use x="941.203125" xlink:href="#DejaVuSans-101"/>
     </g>
    </g>
   </g>
   <g id="line2d_40">
    <path clip-path="url(#p920ba6f080)" d="M 290.765 298.603636 
L 291.351863 197.876364 
L 291.938725 220.502376 
L 292.525588 228.980348 
L 293.112451 230.915393 
L 293.699314 231.405043 
L 294.873039 230.959204 
L 295.459902 231.03676 
L 296.046765 230.889199 
L 297.22049 230.926328 
L 297.807353 230.778643 
L 300.154804 230.760477 
L 306.023431 230.641946 
L 367.057157 230.513118 
L 424.569706 230.614209 
L 435.720098 230.920427 
L 436.306961 231.110558 
L 436.893824 231.028182 
L 438.067549 231.660271 
L 438.654412 230.948748 
L 439.241275 229.049662 
L 439.828137 220.882906 
L 440.415 199.702236 
L 440.415 199.702236 
" style="fill:none;stroke:#ff0000;stroke-linecap:square;stroke-width:1.5;"/>
   </g>
   <g id="patch_21">
    <path d="M 290.765 303.64 
L 290.765 192.84 
" style="fill:none;stroke:#000000;stroke-linecap:square;stroke-linejoin:miter;stroke-width:0.8;"/>
   </g>
   <g id="patch_22">
    <path d="M 440.415 303.64 
L 440.415 192.84 
" style="fill:none;stroke:#000000;stroke-linecap:square;stroke-linejoin:miter;stroke-width:0.8;"/>
   </g>
   <g id="patch_23">
    <path d="M 290.765 303.64 
L 440.415 303.64 
" style="fill:none;stroke:#000000;stroke-linecap:square;stroke-linejoin:miter;stroke-width:0.8;"/>
   </g>
   <g id="patch_24">
    <path d="M 290.765 192.84 
L 440.415 192.84 
" style="fill:none;stroke:#000000;stroke-linecap:square;stroke-linejoin:miter;stroke-width:0.8;"/>
   </g>
   <g id="text_45">
    <!-- Progan-person-cD/ -->
    <defs>
     <path d="M 19.671875 64.796875 
L 19.671875 8.109375 
L 31.59375 8.109375 
Q 46.6875 8.109375 53.6875 14.9375 
Q 60.6875 21.78125 60.6875 36.53125 
Q 60.6875 51.171875 53.6875 57.984375 
Q 46.6875 64.796875 31.59375 64.796875 
z
M 9.8125 72.90625 
L 30.078125 72.90625 
Q 51.265625 72.90625 61.171875 64.09375 
Q 71.09375 55.28125 71.09375 36.53125 
Q 71.09375 17.671875 61.125 8.828125 
Q 51.171875 0 30.078125 0 
L 9.8125 0 
z
" id="DejaVuSans-68"/>
    </defs>
    <g transform="translate(309.949375 186.84)scale(0.12 -0.12)">
     <use xlink:href="#DejaVuSans-80"/>
     <use x="58.552734" xlink:href="#DejaVuSans-114"/>
     <use x="97.416016" xlink:href="#DejaVuSans-111"/>
     <use x="158.597656" xlink:href="#DejaVuSans-103"/>
     <use x="222.074219" xlink:href="#DejaVuSans-97"/>
     <use x="283.353516" xlink:href="#DejaVuSans-110"/>
     <use x="346.732422" xlink:href="#DejaVuSans-45"/>
     <use x="382.816406" xlink:href="#DejaVuSans-112"/>
     <use x="446.292969" xlink:href="#DejaVuSans-101"/>
     <use x="507.816406" xlink:href="#DejaVuSans-114"/>
     <use x="548.929688" xlink:href="#DejaVuSans-115"/>
     <use x="601.029297" xlink:href="#DejaVuSans-111"/>
     <use x="662.210938" xlink:href="#DejaVuSans-110"/>
     <use x="725.589844" xlink:href="#DejaVuSans-45"/>
     <use x="761.673828" xlink:href="#DejaVuSans-99"/>
     <use x="816.654297" xlink:href="#DejaVuSans-68"/>
     <use x="893.65625" xlink:href="#DejaVuSans-47"/>
    </g>
   </g>
   <g id="legend_4">
    <g id="patch_25">
     <path d="M 385.247812 215.518125 
L 433.415 215.518125 
Q 435.415 215.518125 435.415 213.518125 
L 435.415 199.84 
Q 435.415 197.84 433.415 197.84 
L 385.247812 197.84 
Q 383.247812 197.84 383.247812 199.84 
L 383.247812 213.518125 
Q 383.247812 215.518125 385.247812 215.518125 
z
" style="fill:#ffffff;opacity:0.8;stroke:#cccccc;stroke-linejoin:miter;"/>
    </g>
    <g id="line2d_41">
     <path d="M 387.247812 205.938437 
L 407.247812 205.938437 
" style="fill:none;stroke:#ff0000;stroke-linecap:square;stroke-width:1.5;"/>
    </g>
    <g id="line2d_42"/>
    <g id="text_46">
     <!-- diff -->
     <g transform="translate(415.247812 209.438437)scale(0.1 -0.1)">
      <use xlink:href="#DejaVuSans-100"/>
      <use x="63.476562" xlink:href="#DejaVuSans-105"/>
      <use x="91.259766" xlink:href="#DejaVuSans-102"/>
      <use x="126.464844" xlink:href="#DejaVuSans-102"/>
     </g>
    </g>
   </g>
  </g>
 </g>
 <defs>
  <clipPath id="p029485cb44">
   <rect height="110.8" width="149.65" x="68.96" y="25.44"/>
  </clipPath>
  <clipPath id="p6e53869fcc">
   <rect height="110.8" width="149.65" x="290.765" y="25.44"/>
  </clipPath>
  <clipPath id="p9d94a2dfce">
   <rect height="110.8" width="149.65" x="68.96" y="192.84"/>
  </clipPath>
  <clipPath id="p920ba6f080">
   <rect height="110.8" width="149.65" x="290.765" y="192.84"/>
  </clipPath>
 </defs>
</svg>
