<?xml version="1.0" encoding="utf-8" standalone="no"?>
<!DOCTYPE svg PUBLIC "-//W3C//DTD SVG 1.1//EN"
  "http://www.w3.org/Graphics/SVG/1.1/DTD/svg11.dtd">
<!-- Created with matplotlib (https://matplotlib.org/) -->
<svg height="345.6pt" version="1.1" viewBox="0 0 460.8 345.6" width="460.8pt" xmlns="http://www.w3.org/2000/svg" xmlns:xlink="http://www.w3.org/1999/xlink">
 <defs>
  <style type="text/css">
*{stroke-linecap:butt;stroke-linejoin:round;}
  </style>
 </defs>
 <g id="figure_1">
  <g id="patch_1">
   <path d="M 0 345.6 
L 460.8 345.6 
L 460.8 0 
L 0 0 
z
" style="fill:#ffffff;"/>
  </g>
  <g id="axes_1">
   <g id="patch_2">
    <path d="M 60.59 136.24 
L 221.805 136.24 
L 221.805 25.44 
L 60.59 25.44 
z
" style="fill:#ffffff;"/>
   </g>
   <g id="matplotlib.axis_1">
    <g id="xtick_1">
     <g id="line2d_1">
      <defs>
       <path d="M 0 0 
L 0 3.5 
" id="m719863750b" style="stroke:#000000;stroke-width:0.8;"/>
      </defs>
      <g>
       <use style="stroke:#000000;stroke-width:0.8;" x="60.59" xlink:href="#m719863750b" y="136.24"/>
      </g>
     </g>
     <g id="text_1">
      <!-- 0 -->
      <defs>
       <path d="M 31.78125 66.40625 
Q 24.171875 66.40625 20.328125 58.90625 
Q 16.5 51.421875 16.5 36.375 
Q 16.5 21.390625 20.328125 13.890625 
Q 24.171875 6.390625 31.78125 6.390625 
Q 39.453125 6.390625 43.28125 13.890625 
Q 47.125 21.390625 47.125 36.375 
Q 47.125 51.421875 43.28125 58.90625 
Q 39.453125 66.40625 31.78125 66.40625 
z
M 31.78125 74.21875 
Q 44.046875 74.21875 50.515625 64.515625 
Q 56.984375 54.828125 56.984375 36.375 
Q 56.984375 17.96875 50.515625 8.265625 
Q 44.046875 -1.421875 31.78125 -1.421875 
Q 19.53125 -1.421875 13.0625 8.265625 
Q 6.59375 17.96875 6.59375 36.375 
Q 6.59375 54.828125 13.0625 64.515625 
Q 19.53125 74.21875 31.78125 74.21875 
z
" id="DejaVuSans-48"/>
      </defs>
      <g transform="translate(57.40875 150.838437)scale(0.1 -0.1)">
       <use xlink:href="#DejaVuSans-48"/>
      </g>
     </g>
    </g>
    <g id="xtick_2">
     <g id="line2d_2">
      <g>
       <use style="stroke:#000000;stroke-width:0.8;" x="114.328333" xlink:href="#m719863750b" y="136.24"/>
      </g>
     </g>
     <g id="text_2">
      <!-- 85 -->
      <defs>
       <path d="M 31.78125 34.625 
Q 24.75 34.625 20.71875 30.859375 
Q 16.703125 27.09375 16.703125 20.515625 
Q 16.703125 13.921875 20.71875 10.15625 
Q 24.75 6.390625 31.78125 6.390625 
Q 38.8125 6.390625 42.859375 10.171875 
Q 46.921875 13.96875 46.921875 20.515625 
Q 46.921875 27.09375 42.890625 30.859375 
Q 38.875 34.625 31.78125 34.625 
z
M 21.921875 38.8125 
Q 15.578125 40.375 12.03125 44.71875 
Q 8.5 49.078125 8.5 55.328125 
Q 8.5 64.0625 14.71875 69.140625 
Q 20.953125 74.21875 31.78125 74.21875 
Q 42.671875 74.21875 48.875 69.140625 
Q 55.078125 64.0625 55.078125 55.328125 
Q 55.078125 49.078125 51.53125 44.71875 
Q 48 40.375 41.703125 38.8125 
Q 48.828125 37.15625 52.796875 32.3125 
Q 56.78125 27.484375 56.78125 20.515625 
Q 56.78125 9.90625 50.3125 4.234375 
Q 43.84375 -1.421875 31.78125 -1.421875 
Q 19.734375 -1.421875 13.25 4.234375 
Q 6.78125 9.90625 6.78125 20.515625 
Q 6.78125 27.484375 10.78125 32.3125 
Q 14.796875 37.15625 21.921875 38.8125 
z
M 18.3125 54.390625 
Q 18.3125 48.734375 21.84375 45.5625 
Q 25.390625 42.390625 31.78125 42.390625 
Q 38.140625 42.390625 41.71875 45.5625 
Q 45.3125 48.734375 45.3125 54.390625 
Q 45.3125 60.0625 41.71875 63.234375 
Q 38.140625 66.40625 31.78125 66.40625 
Q 25.390625 66.40625 21.84375 63.234375 
Q 18.3125 60.0625 18.3125 54.390625 
z
" id="DejaVuSans-56"/>
       <path d="M 10.796875 72.90625 
L 49.515625 72.90625 
L 49.515625 64.59375 
L 19.828125 64.59375 
L 19.828125 46.734375 
Q 21.96875 47.46875 24.109375 47.828125 
Q 26.265625 48.1875 28.421875 48.1875 
Q 40.625 48.1875 47.75 41.5 
Q 54.890625 34.8125 54.890625 23.390625 
Q 54.890625 11.625 47.5625 5.09375 
Q 40.234375 -1.421875 26.90625 -1.421875 
Q 22.3125 -1.421875 17.546875 -0.640625 
Q 12.796875 0.140625 7.71875 1.703125 
L 7.71875 11.625 
Q 12.109375 9.234375 16.796875 8.0625 
Q 21.484375 6.890625 26.703125 6.890625 
Q 35.15625 6.890625 40.078125 11.328125 
Q 45.015625 15.765625 45.015625 23.390625 
Q 45.015625 31 40.078125 35.4375 
Q 35.15625 39.890625 26.703125 39.890625 
Q 22.75 39.890625 18.8125 39.015625 
Q 14.890625 38.140625 10.796875 36.28125 
z
" id="DejaVuSans-53"/>
      </defs>
      <g transform="translate(107.965833 150.838437)scale(0.1 -0.1)">
       <use xlink:href="#DejaVuSans-56"/>
       <use x="63.623047" xlink:href="#DejaVuSans-53"/>
      </g>
     </g>
    </g>
    <g id="xtick_3">
     <g id="line2d_3">
      <g>
       <use style="stroke:#000000;stroke-width:0.8;" x="168.066667" xlink:href="#m719863750b" y="136.24"/>
      </g>
     </g>
     <g id="text_3">
      <!-- 170 -->
      <defs>
       <path d="M 12.40625 8.296875 
L 28.515625 8.296875 
L 28.515625 63.921875 
L 10.984375 60.40625 
L 10.984375 69.390625 
L 28.421875 72.90625 
L 38.28125 72.90625 
L 38.28125 8.296875 
L 54.390625 8.296875 
L 54.390625 0 
L 12.40625 0 
z
" id="DejaVuSans-49"/>
       <path d="M 8.203125 72.90625 
L 55.078125 72.90625 
L 55.078125 68.703125 
L 28.609375 0 
L 18.3125 0 
L 43.21875 64.59375 
L 8.203125 64.59375 
z
" id="DejaVuSans-55"/>
      </defs>
      <g transform="translate(158.522917 150.838437)scale(0.1 -0.1)">
       <use xlink:href="#DejaVuSans-49"/>
       <use x="63.623047" xlink:href="#DejaVuSans-55"/>
       <use x="127.246094" xlink:href="#DejaVuSans-48"/>
      </g>
     </g>
    </g>
    <g id="xtick_4">
     <g id="line2d_4">
      <g>
       <use style="stroke:#000000;stroke-width:0.8;" x="221.805" xlink:href="#m719863750b" y="136.24"/>
      </g>
     </g>
     <g id="text_4">
      <!-- 255 -->
      <defs>
       <path d="M 19.1875 8.296875 
L 53.609375 8.296875 
L 53.609375 0 
L 7.328125 0 
L 7.328125 8.296875 
Q 12.9375 14.109375 22.625 23.890625 
Q 32.328125 33.6875 34.8125 36.53125 
Q 39.546875 41.84375 41.421875 45.53125 
Q 43.3125 49.21875 43.3125 52.78125 
Q 43.3125 58.59375 39.234375 62.25 
Q 35.15625 65.921875 28.609375 65.921875 
Q 23.96875 65.921875 18.8125 64.3125 
Q 13.671875 62.703125 7.8125 59.421875 
L 7.8125 69.390625 
Q 13.765625 71.78125 18.9375 73 
Q 24.125 74.21875 28.421875 74.21875 
Q 39.75 74.21875 46.484375 68.546875 
Q 53.21875 62.890625 53.21875 53.421875 
Q 53.21875 48.921875 51.53125 44.890625 
Q 49.859375 40.875 45.40625 35.40625 
Q 44.1875 33.984375 37.640625 27.21875 
Q 31.109375 20.453125 19.1875 8.296875 
z
" id="DejaVuSans-50"/>
      </defs>
      <g transform="translate(212.26125 150.838437)scale(0.1 -0.1)">
       <use xlink:href="#DejaVuSans-50"/>
       <use x="63.623047" xlink:href="#DejaVuSans-53"/>
       <use x="127.246094" xlink:href="#DejaVuSans-53"/>
      </g>
     </g>
    </g>
    <g id="text_5">
     <!-- gray value -->
     <defs>
      <path d="M 45.40625 27.984375 
Q 45.40625 37.75 41.375 43.109375 
Q 37.359375 48.484375 30.078125 48.484375 
Q 22.859375 48.484375 18.828125 43.109375 
Q 14.796875 37.75 14.796875 27.984375 
Q 14.796875 18.265625 18.828125 12.890625 
Q 22.859375 7.515625 30.078125 7.515625 
Q 37.359375 7.515625 41.375 12.890625 
Q 45.40625 18.265625 45.40625 27.984375 
z
M 54.390625 6.78125 
Q 54.390625 -7.171875 48.1875 -13.984375 
Q 42 -20.796875 29.203125 -20.796875 
Q 24.46875 -20.796875 20.265625 -20.09375 
Q 16.0625 -19.390625 12.109375 -17.921875 
L 12.109375 -9.1875 
Q 16.0625 -11.328125 19.921875 -12.34375 
Q 23.78125 -13.375 27.78125 -13.375 
Q 36.625 -13.375 41.015625 -8.765625 
Q 45.40625 -4.15625 45.40625 5.171875 
L 45.40625 9.625 
Q 42.625 4.78125 38.28125 2.390625 
Q 33.9375 0 27.875 0 
Q 17.828125 0 11.671875 7.65625 
Q 5.515625 15.328125 5.515625 27.984375 
Q 5.515625 40.671875 11.671875 48.328125 
Q 17.828125 56 27.875 56 
Q 33.9375 56 38.28125 53.609375 
Q 42.625 51.21875 45.40625 46.390625 
L 45.40625 54.6875 
L 54.390625 54.6875 
z
" id="DejaVuSans-103"/>
      <path d="M 41.109375 46.296875 
Q 39.59375 47.171875 37.8125 47.578125 
Q 36.03125 48 33.890625 48 
Q 26.265625 48 22.1875 43.046875 
Q 18.109375 38.09375 18.109375 28.8125 
L 18.109375 0 
L 9.078125 0 
L 9.078125 54.6875 
L 18.109375 54.6875 
L 18.109375 46.1875 
Q 20.953125 51.171875 25.484375 53.578125 
Q 30.03125 56 36.53125 56 
Q 37.453125 56 38.578125 55.875 
Q 39.703125 55.765625 41.0625 55.515625 
z
" id="DejaVuSans-114"/>
      <path d="M 34.28125 27.484375 
Q 23.390625 27.484375 19.1875 25 
Q 14.984375 22.515625 14.984375 16.5 
Q 14.984375 11.71875 18.140625 8.90625 
Q 21.296875 6.109375 26.703125 6.109375 
Q 34.1875 6.109375 38.703125 11.40625 
Q 43.21875 16.703125 43.21875 25.484375 
L 43.21875 27.484375 
z
M 52.203125 31.203125 
L 52.203125 0 
L 43.21875 0 
L 43.21875 8.296875 
Q 40.140625 3.328125 35.546875 0.953125 
Q 30.953125 -1.421875 24.3125 -1.421875 
Q 15.921875 -1.421875 10.953125 3.296875 
Q 6 8.015625 6 15.921875 
Q 6 25.140625 12.171875 29.828125 
Q 18.359375 34.515625 30.609375 34.515625 
L 43.21875 34.515625 
L 43.21875 35.40625 
Q 43.21875 41.609375 39.140625 45 
Q 35.0625 48.390625 27.6875 48.390625 
Q 23 48.390625 18.546875 47.265625 
Q 14.109375 46.140625 10.015625 43.890625 
L 10.015625 52.203125 
Q 14.9375 54.109375 19.578125 55.046875 
Q 24.21875 56 28.609375 56 
Q 40.484375 56 46.34375 49.84375 
Q 52.203125 43.703125 52.203125 31.203125 
z
" id="DejaVuSans-97"/>
      <path d="M 32.171875 -5.078125 
Q 28.375 -14.84375 24.75 -17.8125 
Q 21.140625 -20.796875 15.09375 -20.796875 
L 7.90625 -20.796875 
L 7.90625 -13.28125 
L 13.1875 -13.28125 
Q 16.890625 -13.28125 18.9375 -11.515625 
Q 21 -9.765625 23.484375 -3.21875 
L 25.09375 0.875 
L 2.984375 54.6875 
L 12.5 54.6875 
L 29.59375 11.921875 
L 46.6875 54.6875 
L 56.203125 54.6875 
z
" id="DejaVuSans-121"/>
      <path id="DejaVuSans-32"/>
      <path d="M 2.984375 54.6875 
L 12.5 54.6875 
L 29.59375 8.796875 
L 46.6875 54.6875 
L 56.203125 54.6875 
L 35.6875 0 
L 23.484375 0 
z
" id="DejaVuSans-118"/>
      <path d="M 9.421875 75.984375 
L 18.40625 75.984375 
L 18.40625 0 
L 9.421875 0 
z
" id="DejaVuSans-108"/>
      <path d="M 8.5 21.578125 
L 8.5 54.6875 
L 17.484375 54.6875 
L 17.484375 21.921875 
Q 17.484375 14.15625 20.5 10.265625 
Q 23.53125 6.390625 29.59375 6.390625 
Q 36.859375 6.390625 41.078125 11.03125 
Q 45.3125 15.671875 45.3125 23.6875 
L 45.3125 54.6875 
L 54.296875 54.6875 
L 54.296875 0 
L 45.3125 0 
L 45.3125 8.40625 
Q 42.046875 3.421875 37.71875 1 
Q 33.40625 -1.421875 27.6875 -1.421875 
Q 18.265625 -1.421875 13.375 4.4375 
Q 8.5 10.296875 8.5 21.578125 
z
M 31.109375 56 
z
" id="DejaVuSans-117"/>
      <path d="M 56.203125 29.59375 
L 56.203125 25.203125 
L 14.890625 25.203125 
Q 15.484375 15.921875 20.484375 11.0625 
Q 25.484375 6.203125 34.421875 6.203125 
Q 39.59375 6.203125 44.453125 7.46875 
Q 49.3125 8.734375 54.109375 11.28125 
L 54.109375 2.78125 
Q 49.265625 0.734375 44.1875 -0.34375 
Q 39.109375 -1.421875 33.890625 -1.421875 
Q 20.796875 -1.421875 13.15625 6.1875 
Q 5.515625 13.8125 5.515625 26.8125 
Q 5.515625 40.234375 12.765625 48.109375 
Q 20.015625 56 32.328125 56 
Q 43.359375 56 49.78125 48.890625 
Q 56.203125 41.796875 56.203125 29.59375 
z
M 47.21875 32.234375 
Q 47.125 39.59375 43.09375 43.984375 
Q 39.0625 48.390625 32.421875 48.390625 
Q 24.90625 48.390625 20.390625 44.140625 
Q 15.875 39.890625 15.1875 32.171875 
z
" id="DejaVuSans-101"/>
     </defs>
     <g transform="translate(114.6975 164.516562)scale(0.1 -0.1)">
      <use xlink:href="#DejaVuSans-103"/>
      <use x="63.476562" xlink:href="#DejaVuSans-114"/>
      <use x="104.589844" xlink:href="#DejaVuSans-97"/>
      <use x="165.869141" xlink:href="#DejaVuSans-121"/>
      <use x="225.048828" xlink:href="#DejaVuSans-32"/>
      <use x="256.835938" xlink:href="#DejaVuSans-118"/>
      <use x="316.015625" xlink:href="#DejaVuSans-97"/>
      <use x="377.294922" xlink:href="#DejaVuSans-108"/>
      <use x="405.078125" xlink:href="#DejaVuSans-117"/>
      <use x="468.457031" xlink:href="#DejaVuSans-101"/>
     </g>
    </g>
   </g>
   <g id="matplotlib.axis_2">
    <g id="ytick_1">
     <g id="line2d_5">
      <defs>
       <path d="M 0 0 
L -3.5 0 
" id="m19fccf84f1" style="stroke:#000000;stroke-width:0.8;"/>
      </defs>
      <g>
       <use style="stroke:#000000;stroke-width:0.8;" x="60.59" xlink:href="#m19fccf84f1" y="116.057784"/>
      </g>
     </g>
     <g id="text_6">
      <!-- 0.005 -->
      <defs>
       <path d="M 10.6875 12.40625 
L 21 12.40625 
L 21 0 
L 10.6875 0 
z
" id="DejaVuSans-46"/>
      </defs>
      <g transform="translate(24.961875 119.857003)scale(0.1 -0.1)">
       <use xlink:href="#DejaVuSans-48"/>
       <use x="63.623047" xlink:href="#DejaVuSans-46"/>
       <use x="95.410156" xlink:href="#DejaVuSans-48"/>
       <use x="159.033203" xlink:href="#DejaVuSans-48"/>
       <use x="222.65625" xlink:href="#DejaVuSans-53"/>
      </g>
     </g>
    </g>
    <g id="ytick_2">
     <g id="line2d_6">
      <g>
       <use style="stroke:#000000;stroke-width:0.8;" x="60.59" xlink:href="#m19fccf84f1" y="87.646775"/>
      </g>
     </g>
     <g id="text_7">
      <!-- 0.010 -->
      <g transform="translate(24.961875 91.445994)scale(0.1 -0.1)">
       <use xlink:href="#DejaVuSans-48"/>
       <use x="63.623047" xlink:href="#DejaVuSans-46"/>
       <use x="95.410156" xlink:href="#DejaVuSans-48"/>
       <use x="159.033203" xlink:href="#DejaVuSans-49"/>
       <use x="222.65625" xlink:href="#DejaVuSans-48"/>
      </g>
     </g>
    </g>
    <g id="ytick_3">
     <g id="line2d_7">
      <g>
       <use style="stroke:#000000;stroke-width:0.8;" x="60.59" xlink:href="#m19fccf84f1" y="59.235766"/>
      </g>
     </g>
     <g id="text_8">
      <!-- 0.015 -->
      <g transform="translate(24.961875 63.034985)scale(0.1 -0.1)">
       <use xlink:href="#DejaVuSans-48"/>
       <use x="63.623047" xlink:href="#DejaVuSans-46"/>
       <use x="95.410156" xlink:href="#DejaVuSans-48"/>
       <use x="159.033203" xlink:href="#DejaVuSans-49"/>
       <use x="222.65625" xlink:href="#DejaVuSans-53"/>
      </g>
     </g>
    </g>
    <g id="ytick_4">
     <g id="line2d_8">
      <g>
       <use style="stroke:#000000;stroke-width:0.8;" x="60.59" xlink:href="#m19fccf84f1" y="30.824757"/>
      </g>
     </g>
     <g id="text_9">
      <!-- 0.020 -->
      <g transform="translate(24.961875 34.623976)scale(0.1 -0.1)">
       <use xlink:href="#DejaVuSans-48"/>
       <use x="63.623047" xlink:href="#DejaVuSans-46"/>
       <use x="95.410156" xlink:href="#DejaVuSans-48"/>
       <use x="159.033203" xlink:href="#DejaVuSans-50"/>
       <use x="222.65625" xlink:href="#DejaVuSans-48"/>
      </g>
     </g>
    </g>
    <g id="text_10">
     <!-- pixel freq -->
     <defs>
      <path d="M 18.109375 8.203125 
L 18.109375 -20.796875 
L 9.078125 -20.796875 
L 9.078125 54.6875 
L 18.109375 54.6875 
L 18.109375 46.390625 
Q 20.953125 51.265625 25.265625 53.625 
Q 29.59375 56 35.59375 56 
Q 45.5625 56 51.78125 48.09375 
Q 58.015625 40.1875 58.015625 27.296875 
Q 58.015625 14.40625 51.78125 6.484375 
Q 45.5625 -1.421875 35.59375 -1.421875 
Q 29.59375 -1.421875 25.265625 0.953125 
Q 20.953125 3.328125 18.109375 8.203125 
z
M 48.6875 27.296875 
Q 48.6875 37.203125 44.609375 42.84375 
Q 40.53125 48.484375 33.40625 48.484375 
Q 26.265625 48.484375 22.1875 42.84375 
Q 18.109375 37.203125 18.109375 27.296875 
Q 18.109375 17.390625 22.1875 11.75 
Q 26.265625 6.109375 33.40625 6.109375 
Q 40.53125 6.109375 44.609375 11.75 
Q 48.6875 17.390625 48.6875 27.296875 
z
" id="DejaVuSans-112"/>
      <path d="M 9.421875 54.6875 
L 18.40625 54.6875 
L 18.40625 0 
L 9.421875 0 
z
M 9.421875 75.984375 
L 18.40625 75.984375 
L 18.40625 64.59375 
L 9.421875 64.59375 
z
" id="DejaVuSans-105"/>
      <path d="M 54.890625 54.6875 
L 35.109375 28.078125 
L 55.90625 0 
L 45.3125 0 
L 29.390625 21.484375 
L 13.484375 0 
L 2.875 0 
L 24.125 28.609375 
L 4.6875 54.6875 
L 15.28125 54.6875 
L 29.78125 35.203125 
L 44.28125 54.6875 
z
" id="DejaVuSans-120"/>
      <path d="M 37.109375 75.984375 
L 37.109375 68.5 
L 28.515625 68.5 
Q 23.6875 68.5 21.796875 66.546875 
Q 19.921875 64.59375 19.921875 59.515625 
L 19.921875 54.6875 
L 34.71875 54.6875 
L 34.71875 47.703125 
L 19.921875 47.703125 
L 19.921875 0 
L 10.890625 0 
L 10.890625 47.703125 
L 2.296875 47.703125 
L 2.296875 54.6875 
L 10.890625 54.6875 
L 10.890625 58.5 
Q 10.890625 67.625 15.140625 71.796875 
Q 19.390625 75.984375 28.609375 75.984375 
z
" id="DejaVuSans-102"/>
      <path d="M 14.796875 27.296875 
Q 14.796875 17.390625 18.875 11.75 
Q 22.953125 6.109375 30.078125 6.109375 
Q 37.203125 6.109375 41.296875 11.75 
Q 45.40625 17.390625 45.40625 27.296875 
Q 45.40625 37.203125 41.296875 42.84375 
Q 37.203125 48.484375 30.078125 48.484375 
Q 22.953125 48.484375 18.875 42.84375 
Q 14.796875 37.203125 14.796875 27.296875 
z
M 45.40625 8.203125 
Q 42.578125 3.328125 38.25 0.953125 
Q 33.9375 -1.421875 27.875 -1.421875 
Q 17.96875 -1.421875 11.734375 6.484375 
Q 5.515625 14.40625 5.515625 27.296875 
Q 5.515625 40.1875 11.734375 48.09375 
Q 17.96875 56 27.875 56 
Q 33.9375 56 38.25 53.625 
Q 42.578125 51.265625 45.40625 46.390625 
L 45.40625 54.6875 
L 54.390625 54.6875 
L 54.390625 -20.796875 
L 45.40625 -20.796875 
z
" id="DejaVuSans-113"/>
     </defs>
     <g transform="translate(18.882188 104.215)rotate(-90)scale(0.1 -0.1)">
      <use xlink:href="#DejaVuSans-112"/>
      <use x="63.476562" xlink:href="#DejaVuSans-105"/>
      <use x="91.259766" xlink:href="#DejaVuSans-120"/>
      <use x="147.314453" xlink:href="#DejaVuSans-101"/>
      <use x="208.837891" xlink:href="#DejaVuSans-108"/>
      <use x="236.621094" xlink:href="#DejaVuSans-32"/>
      <use x="268.408203" xlink:href="#DejaVuSans-102"/>
      <use x="303.613281" xlink:href="#DejaVuSans-114"/>
      <use x="342.476562" xlink:href="#DejaVuSans-101"/>
      <use x="404" xlink:href="#DejaVuSans-113"/>
     </g>
    </g>
   </g>
   <g id="line2d_9">
    <path clip-path="url(#pbd2b76a45f)" d="M 60.59 89.225802 
L 61.222216 122.141644 
L 61.854431 119.573762 
L 62.486647 120.585561 
L 63.118863 120.265991 
L 63.751078 120.818248 
L 64.383294 120.892854 
L 65.01551 121.655227 
L 65.647725 121.823869 
L 66.279941 122.66729 
L 66.912157 122.703299 
L 67.544373 122.999874 
L 68.176588 122.22409 
L 68.808804 121.842349 
L 69.44102 118.150021 
L 70.073235 116.602888 
L 70.705451 30.476364 
L 71.337667 113.503473 
L 71.969882 112.713935 
L 72.602098 117.851862 
L 73.234314 119.21095 
L 73.866529 121.027414 
L 74.498745 121.899109 
L 75.130961 123.142829 
L 76.395392 124.053279 
L 77.027608 123.66148 
L 77.659824 122.838255 
L 78.292039 116.245303 
L 78.924255 120.787097 
L 79.556471 118.713683 
L 80.188686 120.754203 
L 80.820902 120.217996 
L 81.453118 121.75853 
L 82.085333 121.705387 
L 82.717549 122.911039 
L 83.349765 123.001221 
L 83.98198 124.249482 
L 84.614196 124.140108 
L 85.246412 124.828799 
L 85.878627 123.805702 
L 86.510843 123.247478 
L 87.143059 115.01927 
L 87.775275 120.75745 
L 88.40749 116.771794 
L 89.039706 121.572834 
L 89.671922 119.425395 
L 90.304137 123.526471 
L 90.936353 119.831398 
L 91.568569 124.912592 
L 92.200784 125.205656 
L 92.833 127.130175 
L 94.097431 128.177903 
L 94.729647 127.95406 
L 95.361863 127.876339 
L 95.994078 126.963275 
L 96.626294 126.947092 
L 97.25851 125.919375 
L 97.890725 126.543017 
L 98.522941 125.440192 
L 99.155157 126.260645 
L 99.787373 123.56322 
L 100.419588 126.039679 
L 101.051804 122.903964 
L 101.68402 124.373112 
L 102.316235 110.281326 
L 102.948451 124.735054 
L 103.580667 124.743158 
L 104.212882 121.367998 
L 104.845098 73.468901 
L 105.477314 116.819604 
L 106.109529 103.957678 
L 106.741745 122.252972 
L 107.373961 122.264165 
L 108.006176 124.973338 
L 108.638392 125.349667 
L 109.270608 126.647402 
L 109.902824 126.739775 
L 110.535039 127.411491 
L 111.167255 125.1598 
L 111.799471 128.162486 
L 112.431686 128.157549 
L 113.063902 127.818629 
L 113.696118 126.255101 
L 114.328333 126.322658 
L 114.960549 124.808524 
L 115.592765 125.768685 
L 116.22498 124.154549 
L 116.857196 126.334247 
L 117.489412 125.934211 
L 118.121627 127.418777 
L 118.753843 126.821271 
L 119.386059 128.084712 
L 120.018275 125.674992 
L 120.65049 129.54103 
L 121.282706 130.013111 
L 121.914922 129.718859 
L 122.547137 128.327326 
L 123.179353 128.337701 
L 123.811569 127.282845 
L 124.443784 127.646132 
L 125.076 125.254074 
L 125.708216 127.718811 
L 126.340431 127.671159 
L 126.972647 129.536225 
L 127.604863 129.775064 
L 128.237078 130.3486 
L 128.869294 130.224785 
L 129.50151 131.061553 
L 130.133725 131.203636 
L 130.765941 130.76012 
L 131.398157 129.229935 
L 132.030373 129.029138 
L 132.662588 127.022411 
L 133.294804 127.856829 
L 133.92702 126.387311 
L 134.559235 127.494782 
L 135.191451 124.258696 
L 135.823667 127.322339 
L 136.455882 125.147999 
L 137.088098 128.417349 
L 137.720314 127.600434 
L 138.352529 129.769969 
L 138.984745 129.973723 
L 139.616961 129.494831 
L 140.249176 127.176427 
L 140.881392 127.831987 
L 141.513608 125.545659 
L 142.145824 126.620104 
L 142.778039 124.792922 
L 143.410255 126.137094 
L 144.042471 125.225483 
L 144.674686 125.826447 
L 145.306902 124.700919 
L 145.939118 126.065339 
L 146.571333 125.995512 
L 147.203549 127.412679 
L 147.835765 127.618017 
L 148.46798 127.063515 
L 149.100196 125.320839 
L 149.732412 124.800261 
L 150.364627 122.268072 
L 150.996843 123.096894 
L 151.629059 121.063608 
L 152.261275 123.019965 
L 152.89349 122.574231 
L 153.525706 123.790522 
L 154.157922 123.409546 
L 154.790137 124.415775 
L 155.422353 122.803645 
L 156.054569 126.244383 
L 156.686784 126.991787 
L 157.319 126.477546 
L 157.951216 125.202805 
L 158.583431 125.123104 
L 159.215647 124.259224 
L 159.847863 124.746934 
L 160.480078 124.746828 
L 161.112294 125.234854 
L 161.74451 125.514692 
L 162.376725 125.952401 
L 163.008941 126.078117 
L 163.641157 126.535783 
L 164.905588 127.114573 
L 165.537804 127.04126 
L 166.17002 126.622612 
L 168.066667 123.661136 
L 168.698882 123.225012 
L 169.331098 122.481356 
L 169.963314 122.661535 
L 170.595529 122.238293 
L 171.227745 122.599178 
L 171.859961 122.54432 
L 172.492176 123.040609 
L 173.124392 123.129946 
L 173.756608 123.814229 
L 174.388824 124.041795 
L 175.021039 124.64606 
L 175.653255 124.733443 
L 176.285471 124.058084 
L 176.917686 122.748786 
L 177.549902 122.10244 
L 178.182118 120.356252 
L 178.814333 120.864369 
L 179.446549 120.043811 
L 180.078765 120.511087 
L 180.71098 120.099118 
L 181.343196 120.285765 
L 181.975412 117.814058 
L 182.607627 120.453218 
L 183.239843 120.633872 
L 183.872059 121.244922 
L 184.504275 119.951834 
L 185.13649 120.239855 
L 185.768706 117.987636 
L 186.400922 118.166891 
L 187.033137 115.902897 
L 187.665353 116.751176 
L 188.297569 113.945326 
L 188.929784 116.096065 
L 189.562 111.52275 
L 190.194216 116.175238 
L 190.826431 113.445103 
L 191.458647 117.661256 
L 192.090863 116.607191 
L 192.723078 120.018335 
L 193.355294 120.549182 
L 193.98751 119.927863 
L 194.619725 117.671631 
L 195.251941 118.299655 
L 195.884157 117.383213 
L 196.516373 117.431445 
L 197.148588 116.677256 
L 197.780804 117.321543 
L 198.41302 117.162722 
L 199.045235 117.835045 
L 199.677451 118.061397 
L 200.309667 119.09883 
L 201.574098 120.428376 
L 202.206314 120.574473 
L 202.838529 120.388117 
L 203.470745 119.530387 
L 204.102961 118.932802 
L 204.735176 117.634539 
L 205.367392 117.700723 
L 205.999608 116.780691 
L 206.631824 117.52894 
L 207.264039 117.270565 
L 207.896255 118.367609 
L 208.528471 118.735569 
L 209.160686 119.849983 
L 210.425118 121.248935 
L 211.057333 121.397829 
L 211.689549 121.209124 
L 212.95398 119.94035 
L 213.586196 118.872452 
L 214.218412 118.886602 
L 214.850627 118.400371 
L 215.482843 118.942358 
L 216.115059 119.208046 
L 217.37949 120.638492 
L 219.276137 123.414351 
L 219.908353 124.261626 
L 220.540569 125.49344 
L 221.172784 127.822853 
L 221.805 115.123998 
L 221.805 115.123998 
" style="fill:none;stroke:#0000ff;stroke-linecap:square;stroke-width:1.5;"/>
   </g>
   <g id="line2d_10">
    <path clip-path="url(#pbd2b76a45f)" d="M 60.59 89.160265 
L 61.222216 122.872343 
L 61.854431 120.708832 
L 62.486647 120.91464 
L 63.118863 120.384855 
L 63.751078 120.949478 
L 64.383294 120.790267 
L 65.01551 122.302058 
L 65.647725 122.726352 
L 66.279941 124.036318 
L 66.912157 124.148528 
L 67.544373 124.389174 
L 68.808804 122.843925 
L 69.44102 119.136628 
L 70.073235 117.526931 
L 70.705451 38.176754 
L 71.337667 114.805706 
L 71.969882 114.978977 
L 72.602098 119.110052 
L 73.866529 121.834393 
L 75.130961 123.169879 
L 75.763176 117.540747 
L 76.395392 123.713534 
L 77.659824 123.299237 
L 78.292039 121.826916 
L 78.924255 122.151299 
L 79.556471 120.817818 
L 80.188686 122.261477 
L 80.820902 121.634193 
L 81.453118 122.899136 
L 82.085333 122.74629 
L 82.717549 123.734637 
L 83.349765 123.461049 
L 83.98198 124.728294 
L 84.614196 124.566671 
L 85.246412 125.392393 
L 85.878627 122.349088 
L 86.510843 123.684086 
L 87.143059 117.382944 
L 87.775275 121.549589 
L 88.40749 114.918403 
L 89.039706 122.237095 
L 89.671922 119.435275 
L 90.304137 123.66236 
L 90.936353 122.811931 
L 91.568569 126.19861 
L 92.833 128.035489 
L 93.465216 128.170265 
L 94.097431 128.724783 
L 94.729647 128.447158 
L 95.361863 128.350607 
L 95.994078 127.3294 
L 96.626294 127.127845 
L 97.25851 125.874606 
L 97.890725 126.335905 
L 98.522941 124.672812 
L 99.155157 126.170246 
L 99.787373 123.860229 
L 100.419588 126.313501 
L 101.051804 123.417813 
L 101.68402 125.249192 
L 102.316235 115.18045 
L 102.948451 125.773531 
L 103.580667 125.720163 
L 104.212882 122.549612 
L 104.845098 77.812629 
L 105.477314 117.886125 
L 106.109529 104.389797 
L 106.741745 123.254023 
L 107.373961 123.319961 
L 108.006176 125.860601 
L 108.638392 122.807109 
L 109.270608 127.118987 
L 109.902824 127.019537 
L 110.535039 128.141441 
L 111.167255 127.329698 
L 111.799471 129.354532 
L 112.431686 129.670435 
L 113.063902 129.10248 
L 113.696118 126.105933 
L 114.328333 127.404928 
L 114.960549 125.251685 
L 115.592765 126.898063 
L 116.22498 125.086893 
L 116.857196 127.262377 
L 117.489412 123.933862 
L 118.121627 128.304851 
L 118.753843 128.710777 
L 119.386059 129.41879 
L 120.018275 128.634707 
L 120.65049 130.679994 
L 121.282706 131.060617 
L 121.914922 130.684654 
L 122.547137 126.81373 
L 123.179353 128.874757 
L 123.811569 126.821451 
L 124.443784 129.012133 
L 125.076 128.563296 
L 125.708216 129.724914 
L 126.340431 129.105054 
L 126.972647 130.012238 
L 127.604863 129.594148 
L 128.237078 130.251448 
L 128.869294 129.661089 
L 129.50151 130.954341 
L 130.133725 130.929309 
L 130.765941 130.553941 
L 131.398157 128.757509 
L 132.030373 128.700645 
L 132.662588 125.895168 
L 133.294804 127.492946 
L 133.92702 124.130025 
L 134.559235 127.403736 
L 135.191451 125.28292 
L 135.823667 128.227237 
L 136.455882 128.013681 
L 137.088098 128.96188 
L 137.720314 128.694685 
L 138.352529 129.786573 
L 138.984745 129.922513 
L 139.616961 129.358297 
L 140.249176 126.989792 
L 140.881392 127.512397 
L 141.513608 125.072562 
L 142.145824 126.234397 
L 142.778039 123.729463 
L 143.410255 125.699547 
L 144.042471 124.866483 
L 144.674686 125.647072 
L 145.306902 125.098921 
L 145.939118 125.990229 
L 146.571333 125.831072 
L 147.203549 127.175498 
L 147.835765 127.41972 
L 148.46798 126.803246 
L 149.100196 125.019681 
L 149.732412 124.320987 
L 150.364627 121.152956 
L 150.996843 122.225338 
L 151.629059 120.041699 
L 152.261275 122.263156 
L 152.89349 121.887626 
L 153.525706 123.19334 
L 154.157922 123.056966 
L 154.790137 123.956564 
L 155.422353 121.955217 
L 156.054569 125.696675 
L 156.686784 126.431427 
L 157.319 125.806636 
L 157.951216 124.467845 
L 158.583431 124.313266 
L 159.215647 123.281709 
L 159.847863 123.840616 
L 160.480078 123.869711 
L 161.112294 124.117861 
L 161.74451 124.030467 
L 162.376725 124.608933 
L 163.008941 124.843998 
L 163.641157 125.237598 
L 164.273373 125.450774 
L 164.905588 125.960673 
L 165.537804 125.928815 
L 166.17002 125.521047 
L 167.434451 123.741871 
L 168.066667 122.36564 
L 168.698882 122.168718 
L 169.331098 121.158076 
L 169.963314 121.480671 
L 170.595529 121.017801 
L 171.227745 121.648904 
L 171.859961 121.520223 
L 172.492176 122.056157 
L 173.124392 122.095059 
L 173.756608 122.72329 
L 174.388824 122.748024 
L 175.021039 123.783157 
L 175.653255 123.80491 
L 176.285471 123.070321 
L 176.917686 121.00775 
L 177.549902 120.9543 
L 178.182118 119.353976 
L 178.814333 118.961542 
L 179.446549 115.541053 
L 180.078765 117.825497 
L 180.71098 116.955725 
L 181.343196 117.909369 
L 181.975412 116.707792 
L 182.607627 118.573875 
L 183.239843 118.502491 
L 183.872059 119.819068 
L 184.504275 119.251547 
L 185.13649 119.178565 
L 185.768706 115.350254 
L 186.400922 116.360246 
L 187.033137 108.880581 
L 187.665353 114.599085 
L 188.297569 110.798164 
L 188.929784 114.864059 
L 189.562 112.42016 
L 190.194216 116.284609 
L 190.826431 116.589325 
L 191.458647 117.92175 
L 192.090863 117.830129 
L 192.723078 119.681204 
L 193.355294 119.988628 
L 193.98751 119.853961 
L 194.619725 118.593516 
L 195.251941 118.189594 
L 195.884157 116.977885 
L 196.516373 116.973388 
L 197.148588 116.218752 
L 197.780804 116.802772 
L 198.41302 116.82821 
L 199.045235 117.453136 
L 199.677451 117.889593 
L 200.309667 118.705373 
L 200.941882 119.270429 
L 201.574098 120.093929 
L 202.206314 120.340725 
L 202.838529 119.839115 
L 203.470745 118.216658 
L 204.102961 117.940225 
L 204.735176 116.101802 
L 205.367392 116.786815 
L 205.999608 116.214716 
L 206.631824 116.954587 
L 207.264039 117.120328 
L 207.896255 117.912457 
L 208.528471 118.517906 
L 210.425118 121.080759 
L 211.057333 121.305232 
L 211.689549 121.044295 
L 212.321765 119.795743 
L 212.95398 119.567315 
L 213.586196 118.860412 
L 214.850627 118.460148 
L 216.115059 119.56829 
L 220.540569 126.266879 
L 221.172784 128.397826 
L 221.805 116.139566 
L 221.805 116.139566 
" style="fill:none;stroke:#008000;stroke-linecap:square;stroke-width:1.5;"/>
   </g>
   <g id="patch_3">
    <path d="M 60.59 136.24 
L 60.59 25.44 
" style="fill:none;stroke:#000000;stroke-linecap:square;stroke-linejoin:miter;stroke-width:0.8;"/>
   </g>
   <g id="patch_4">
    <path d="M 221.805 136.24 
L 221.805 25.44 
" style="fill:none;stroke:#000000;stroke-linecap:square;stroke-linejoin:miter;stroke-width:0.8;"/>
   </g>
   <g id="patch_5">
    <path d="M 60.59 136.24 
L 221.805 136.24 
" style="fill:none;stroke:#000000;stroke-linecap:square;stroke-linejoin:miter;stroke-width:0.8;"/>
   </g>
   <g id="patch_6">
    <path d="M 60.59 25.44 
L 221.805 25.44 
" style="fill:none;stroke:#000000;stroke-linecap:square;stroke-linejoin:miter;stroke-width:0.8;"/>
   </g>
   <g id="text_11">
    <!-- UADFV-cA/ -->
    <defs>
     <path d="M 8.6875 72.90625 
L 18.609375 72.90625 
L 18.609375 28.609375 
Q 18.609375 16.890625 22.84375 11.734375 
Q 27.09375 6.59375 36.625 6.59375 
Q 46.09375 6.59375 50.34375 11.734375 
Q 54.59375 16.890625 54.59375 28.609375 
L 54.59375 72.90625 
L 64.5 72.90625 
L 64.5 27.390625 
Q 64.5 13.140625 57.4375 5.859375 
Q 50.390625 -1.421875 36.625 -1.421875 
Q 22.796875 -1.421875 15.734375 5.859375 
Q 8.6875 13.140625 8.6875 27.390625 
z
" id="DejaVuSans-85"/>
     <path d="M 34.1875 63.1875 
L 20.796875 26.90625 
L 47.609375 26.90625 
z
M 28.609375 72.90625 
L 39.796875 72.90625 
L 67.578125 0 
L 57.328125 0 
L 50.6875 18.703125 
L 17.828125 18.703125 
L 11.1875 0 
L 0.78125 0 
z
" id="DejaVuSans-65"/>
     <path d="M 19.671875 64.796875 
L 19.671875 8.109375 
L 31.59375 8.109375 
Q 46.6875 8.109375 53.6875 14.9375 
Q 60.6875 21.78125 60.6875 36.53125 
Q 60.6875 51.171875 53.6875 57.984375 
Q 46.6875 64.796875 31.59375 64.796875 
z
M 9.8125 72.90625 
L 30.078125 72.90625 
Q 51.265625 72.90625 61.171875 64.09375 
Q 71.09375 55.28125 71.09375 36.53125 
Q 71.09375 17.671875 61.125 8.828125 
Q 51.171875 0 30.078125 0 
L 9.8125 0 
z
" id="DejaVuSans-68"/>
     <path d="M 9.8125 72.90625 
L 51.703125 72.90625 
L 51.703125 64.59375 
L 19.671875 64.59375 
L 19.671875 43.109375 
L 48.578125 43.109375 
L 48.578125 34.8125 
L 19.671875 34.8125 
L 19.671875 0 
L 9.8125 0 
z
" id="DejaVuSans-70"/>
     <path d="M 28.609375 0 
L 0.78125 72.90625 
L 11.078125 72.90625 
L 34.1875 11.53125 
L 57.328125 72.90625 
L 67.578125 72.90625 
L 39.796875 0 
z
" id="DejaVuSans-86"/>
     <path d="M 4.890625 31.390625 
L 31.203125 31.390625 
L 31.203125 23.390625 
L 4.890625 23.390625 
z
" id="DejaVuSans-45"/>
     <path d="M 48.78125 52.59375 
L 48.78125 44.1875 
Q 44.96875 46.296875 41.140625 47.34375 
Q 37.3125 48.390625 33.40625 48.390625 
Q 24.65625 48.390625 19.8125 42.84375 
Q 14.984375 37.3125 14.984375 27.296875 
Q 14.984375 17.28125 19.8125 11.734375 
Q 24.65625 6.203125 33.40625 6.203125 
Q 37.3125 6.203125 41.140625 7.25 
Q 44.96875 8.296875 48.78125 10.40625 
L 48.78125 2.09375 
Q 45.015625 0.34375 40.984375 -0.53125 
Q 36.96875 -1.421875 32.421875 -1.421875 
Q 20.0625 -1.421875 12.78125 6.34375 
Q 5.515625 14.109375 5.515625 27.296875 
Q 5.515625 40.671875 12.859375 48.328125 
Q 20.21875 56 33.015625 56 
Q 37.15625 56 41.109375 55.140625 
Q 45.0625 54.296875 48.78125 52.59375 
z
" id="DejaVuSans-99"/>
     <path d="M 25.390625 72.90625 
L 33.6875 72.90625 
L 8.296875 -9.28125 
L 0 -9.28125 
z
" id="DejaVuSans-47"/>
    </defs>
    <g transform="translate(109.289687 19.44)scale(0.12 -0.12)">
     <use xlink:href="#DejaVuSans-85"/>
     <use x="73.193359" xlink:href="#DejaVuSans-65"/>
     <use x="141.601562" xlink:href="#DejaVuSans-68"/>
     <use x="218.603516" xlink:href="#DejaVuSans-70"/>
     <use x="276.123047" xlink:href="#DejaVuSans-86"/>
     <use x="338.65625" xlink:href="#DejaVuSans-45"/>
     <use x="374.740234" xlink:href="#DejaVuSans-99"/>
     <use x="429.720703" xlink:href="#DejaVuSans-65"/>
     <use x="498.128906" xlink:href="#DejaVuSans-47"/>
    </g>
   </g>
   <g id="legend_1">
    <g id="patch_7">
     <path d="M 161.575312 62.79625 
L 214.805 62.79625 
Q 216.805 62.79625 216.805 60.79625 
L 216.805 32.44 
Q 216.805 30.44 214.805 30.44 
L 161.575312 30.44 
Q 159.575312 30.44 159.575312 32.44 
L 159.575312 60.79625 
Q 159.575312 62.79625 161.575312 62.79625 
z
" style="fill:#ffffff;opacity:0.8;stroke:#cccccc;stroke-linejoin:miter;"/>
    </g>
    <g id="line2d_11">
     <path d="M 163.575312 38.538437 
L 183.575312 38.538437 
" style="fill:none;stroke:#0000ff;stroke-linecap:square;stroke-width:1.5;"/>
    </g>
    <g id="line2d_12"/>
    <g id="text_12">
     <!-- real -->
     <g transform="translate(191.575312 42.038437)scale(0.1 -0.1)">
      <use xlink:href="#DejaVuSans-114"/>
      <use x="38.863281" xlink:href="#DejaVuSans-101"/>
      <use x="100.386719" xlink:href="#DejaVuSans-97"/>
      <use x="161.666016" xlink:href="#DejaVuSans-108"/>
     </g>
    </g>
    <g id="line2d_13">
     <path d="M 163.575312 53.216563 
L 183.575312 53.216563 
" style="fill:none;stroke:#008000;stroke-linecap:square;stroke-width:1.5;"/>
    </g>
    <g id="line2d_14"/>
    <g id="text_13">
     <!-- fake -->
     <defs>
      <path d="M 9.078125 75.984375 
L 18.109375 75.984375 
L 18.109375 31.109375 
L 44.921875 54.6875 
L 56.390625 54.6875 
L 27.390625 29.109375 
L 57.625 0 
L 45.90625 0 
L 18.109375 26.703125 
L 18.109375 0 
L 9.078125 0 
z
" id="DejaVuSans-107"/>
     </defs>
     <g transform="translate(191.575312 56.716563)scale(0.1 -0.1)">
      <use xlink:href="#DejaVuSans-102"/>
      <use x="35.205078" xlink:href="#DejaVuSans-97"/>
      <use x="96.484375" xlink:href="#DejaVuSans-107"/>
      <use x="150.769531" xlink:href="#DejaVuSans-101"/>
     </g>
    </g>
   </g>
  </g>
  <g id="axes_2">
   <g id="patch_8">
    <path d="M 279.2 136.24 
L 440.415 136.24 
L 440.415 25.44 
L 279.2 25.44 
z
" style="fill:#ffffff;"/>
   </g>
   <g id="matplotlib.axis_3">
    <g id="xtick_5">
     <g id="line2d_15">
      <g>
       <use style="stroke:#000000;stroke-width:0.8;" x="279.2" xlink:href="#m719863750b" y="136.24"/>
      </g>
     </g>
     <g id="text_14">
      <!-- 0 -->
      <g transform="translate(276.01875 150.838437)scale(0.1 -0.1)">
       <use xlink:href="#DejaVuSans-48"/>
      </g>
     </g>
    </g>
    <g id="xtick_6">
     <g id="line2d_16">
      <g>
       <use style="stroke:#000000;stroke-width:0.8;" x="332.938333" xlink:href="#m719863750b" y="136.24"/>
      </g>
     </g>
     <g id="text_15">
      <!-- 85 -->
      <g transform="translate(326.575833 150.838437)scale(0.1 -0.1)">
       <use xlink:href="#DejaVuSans-56"/>
       <use x="63.623047" xlink:href="#DejaVuSans-53"/>
      </g>
     </g>
    </g>
    <g id="xtick_7">
     <g id="line2d_17">
      <g>
       <use style="stroke:#000000;stroke-width:0.8;" x="386.676667" xlink:href="#m719863750b" y="136.24"/>
      </g>
     </g>
     <g id="text_16">
      <!-- 170 -->
      <g transform="translate(377.132917 150.838437)scale(0.1 -0.1)">
       <use xlink:href="#DejaVuSans-49"/>
       <use x="63.623047" xlink:href="#DejaVuSans-55"/>
       <use x="127.246094" xlink:href="#DejaVuSans-48"/>
      </g>
     </g>
    </g>
    <g id="xtick_8">
     <g id="line2d_18">
      <g>
       <use style="stroke:#000000;stroke-width:0.8;" x="440.415" xlink:href="#m719863750b" y="136.24"/>
      </g>
     </g>
     <g id="text_17">
      <!-- 255 -->
      <g transform="translate(430.87125 150.838437)scale(0.1 -0.1)">
       <use xlink:href="#DejaVuSans-50"/>
       <use x="63.623047" xlink:href="#DejaVuSans-53"/>
       <use x="127.246094" xlink:href="#DejaVuSans-53"/>
      </g>
     </g>
    </g>
    <g id="text_18">
     <!-- gray value -->
     <g transform="translate(333.3075 164.516562)scale(0.1 -0.1)">
      <use xlink:href="#DejaVuSans-103"/>
      <use x="63.476562" xlink:href="#DejaVuSans-114"/>
      <use x="104.589844" xlink:href="#DejaVuSans-97"/>
      <use x="165.869141" xlink:href="#DejaVuSans-121"/>
      <use x="225.048828" xlink:href="#DejaVuSans-32"/>
      <use x="256.835938" xlink:href="#DejaVuSans-118"/>
      <use x="316.015625" xlink:href="#DejaVuSans-97"/>
      <use x="377.294922" xlink:href="#DejaVuSans-108"/>
      <use x="405.078125" xlink:href="#DejaVuSans-117"/>
      <use x="468.457031" xlink:href="#DejaVuSans-101"/>
     </g>
    </g>
   </g>
   <g id="matplotlib.axis_4">
    <g id="ytick_5">
     <g id="line2d_19">
      <g>
       <use style="stroke:#000000;stroke-width:0.8;" x="279.2" xlink:href="#m19fccf84f1" y="131.203651"/>
      </g>
     </g>
     <g id="text_19">
      <!-- 0.0 -->
      <g transform="translate(256.296875 135.00287)scale(0.1 -0.1)">
       <use xlink:href="#DejaVuSans-48"/>
       <use x="63.623047" xlink:href="#DejaVuSans-46"/>
       <use x="95.410156" xlink:href="#DejaVuSans-48"/>
      </g>
     </g>
    </g>
    <g id="ytick_6">
     <g id="line2d_20">
      <g>
       <use style="stroke:#000000;stroke-width:0.8;" x="279.2" xlink:href="#m19fccf84f1" y="107.330167"/>
      </g>
     </g>
     <g id="text_20">
      <!-- 0.1 -->
      <g transform="translate(256.296875 111.129386)scale(0.1 -0.1)">
       <use xlink:href="#DejaVuSans-48"/>
       <use x="63.623047" xlink:href="#DejaVuSans-46"/>
       <use x="95.410156" xlink:href="#DejaVuSans-49"/>
      </g>
     </g>
    </g>
    <g id="ytick_7">
     <g id="line2d_21">
      <g>
       <use style="stroke:#000000;stroke-width:0.8;" x="279.2" xlink:href="#m19fccf84f1" y="83.456684"/>
      </g>
     </g>
     <g id="text_21">
      <!-- 0.2 -->
      <g transform="translate(256.296875 87.255902)scale(0.1 -0.1)">
       <use xlink:href="#DejaVuSans-48"/>
       <use x="63.623047" xlink:href="#DejaVuSans-46"/>
       <use x="95.410156" xlink:href="#DejaVuSans-50"/>
      </g>
     </g>
    </g>
    <g id="ytick_8">
     <g id="line2d_22">
      <g>
       <use style="stroke:#000000;stroke-width:0.8;" x="279.2" xlink:href="#m19fccf84f1" y="59.5832"/>
      </g>
     </g>
     <g id="text_22">
      <!-- 0.3 -->
      <defs>
       <path d="M 40.578125 39.3125 
Q 47.65625 37.796875 51.625 33 
Q 55.609375 28.21875 55.609375 21.1875 
Q 55.609375 10.40625 48.1875 4.484375 
Q 40.765625 -1.421875 27.09375 -1.421875 
Q 22.515625 -1.421875 17.65625 -0.515625 
Q 12.796875 0.390625 7.625 2.203125 
L 7.625 11.71875 
Q 11.71875 9.328125 16.59375 8.109375 
Q 21.484375 6.890625 26.8125 6.890625 
Q 36.078125 6.890625 40.9375 10.546875 
Q 45.796875 14.203125 45.796875 21.1875 
Q 45.796875 27.640625 41.28125 31.265625 
Q 36.765625 34.90625 28.71875 34.90625 
L 20.21875 34.90625 
L 20.21875 43.015625 
L 29.109375 43.015625 
Q 36.375 43.015625 40.234375 45.921875 
Q 44.09375 48.828125 44.09375 54.296875 
Q 44.09375 59.90625 40.109375 62.90625 
Q 36.140625 65.921875 28.71875 65.921875 
Q 24.65625 65.921875 20.015625 65.03125 
Q 15.375 64.15625 9.8125 62.3125 
L 9.8125 71.09375 
Q 15.4375 72.65625 20.34375 73.4375 
Q 25.25 74.21875 29.59375 74.21875 
Q 40.828125 74.21875 47.359375 69.109375 
Q 53.90625 64.015625 53.90625 55.328125 
Q 53.90625 49.265625 50.4375 45.09375 
Q 46.96875 40.921875 40.578125 39.3125 
z
" id="DejaVuSans-51"/>
      </defs>
      <g transform="translate(256.296875 63.382419)scale(0.1 -0.1)">
       <use xlink:href="#DejaVuSans-48"/>
       <use x="63.623047" xlink:href="#DejaVuSans-46"/>
       <use x="95.410156" xlink:href="#DejaVuSans-51"/>
      </g>
     </g>
    </g>
    <g id="ytick_9">
     <g id="line2d_23">
      <g>
       <use style="stroke:#000000;stroke-width:0.8;" x="279.2" xlink:href="#m19fccf84f1" y="35.709716"/>
      </g>
     </g>
     <g id="text_23">
      <!-- 0.4 -->
      <defs>
       <path d="M 37.796875 64.3125 
L 12.890625 25.390625 
L 37.796875 25.390625 
z
M 35.203125 72.90625 
L 47.609375 72.90625 
L 47.609375 25.390625 
L 58.015625 25.390625 
L 58.015625 17.1875 
L 47.609375 17.1875 
L 47.609375 0 
L 37.796875 0 
L 37.796875 17.1875 
L 4.890625 17.1875 
L 4.890625 26.703125 
z
" id="DejaVuSans-52"/>
      </defs>
      <g transform="translate(256.296875 39.508935)scale(0.1 -0.1)">
       <use xlink:href="#DejaVuSans-48"/>
       <use x="63.623047" xlink:href="#DejaVuSans-46"/>
       <use x="95.410156" xlink:href="#DejaVuSans-52"/>
      </g>
     </g>
    </g>
    <g id="text_24">
     <!-- pixel freq -->
     <g transform="translate(250.217187 104.215)rotate(-90)scale(0.1 -0.1)">
      <use xlink:href="#DejaVuSans-112"/>
      <use x="63.476562" xlink:href="#DejaVuSans-105"/>
      <use x="91.259766" xlink:href="#DejaVuSans-120"/>
      <use x="147.314453" xlink:href="#DejaVuSans-101"/>
      <use x="208.837891" xlink:href="#DejaVuSans-108"/>
      <use x="236.621094" xlink:href="#DejaVuSans-32"/>
      <use x="268.408203" xlink:href="#DejaVuSans-102"/>
      <use x="303.613281" xlink:href="#DejaVuSans-114"/>
      <use x="342.476562" xlink:href="#DejaVuSans-101"/>
      <use x="404" xlink:href="#DejaVuSans-113"/>
     </g>
    </g>
   </g>
   <g id="line2d_24">
    <path clip-path="url(#p136b1e6619)" d="M 279.2 33.139183 
L 279.832216 101.273624 
L 281.096647 117.446613 
L 281.728863 122.965038 
L 282.361078 126.300798 
L 282.993294 128.194529 
L 283.62551 129.224572 
L 284.257725 129.811424 
L 285.522157 130.404455 
L 287.418804 130.798276 
L 289.947667 131.027667 
L 294.373176 131.1541 
L 307.01749 131.197973 
L 423.345176 131.158719 
L 430.299549 130.990241 
L 433.460627 130.701777 
L 435.357275 130.273136 
L 435.98949 129.993923 
L 436.621706 129.557221 
L 437.253922 128.879021 
L 437.886137 127.862855 
L 439.782784 124.005142 
L 440.415 112.881085 
L 440.415 112.881085 
" style="fill:none;stroke:#0000ff;stroke-linecap:square;stroke-width:1.5;"/>
   </g>
   <g id="line2d_25">
    <path clip-path="url(#p136b1e6619)" d="M 279.2 30.476364 
L 279.832216 100.953069 
L 281.096647 117.768801 
L 281.728863 123.325794 
L 282.361078 126.62162 
L 282.993294 128.442205 
L 283.62551 129.408344 
L 284.257725 129.956135 
L 285.522157 130.502356 
L 287.418804 130.868303 
L 289.947667 131.064192 
L 295.005392 131.169485 
L 313.339647 131.201518 
L 426.506255 131.144369 
L 432.196196 130.956397 
L 434.092843 130.731237 
L 435.357275 130.422749 
L 435.98949 130.136453 
L 436.621706 129.679268 
L 437.253922 128.95782 
L 437.886137 127.867284 
L 439.782784 123.703253 
L 440.415 112.046638 
L 440.415 112.046638 
" style="fill:none;stroke:#008000;stroke-linecap:square;stroke-width:1.5;"/>
   </g>
   <g id="patch_9">
    <path d="M 279.2 136.24 
L 279.2 25.44 
" style="fill:none;stroke:#000000;stroke-linecap:square;stroke-linejoin:miter;stroke-width:0.8;"/>
   </g>
   <g id="patch_10">
    <path d="M 440.415 136.24 
L 440.415 25.44 
" style="fill:none;stroke:#000000;stroke-linecap:square;stroke-linejoin:miter;stroke-width:0.8;"/>
   </g>
   <g id="patch_11">
    <path d="M 279.2 136.24 
L 440.415 136.24 
" style="fill:none;stroke:#000000;stroke-linecap:square;stroke-linejoin:miter;stroke-width:0.8;"/>
   </g>
   <g id="patch_12">
    <path d="M 279.2 25.44 
L 440.415 25.44 
" style="fill:none;stroke:#000000;stroke-linecap:square;stroke-linejoin:miter;stroke-width:0.8;"/>
   </g>
   <g id="text_25">
    <!-- UADFV-cH/ -->
    <defs>
     <path d="M 9.8125 72.90625 
L 19.671875 72.90625 
L 19.671875 43.015625 
L 55.515625 43.015625 
L 55.515625 72.90625 
L 65.375 72.90625 
L 65.375 0 
L 55.515625 0 
L 55.515625 34.71875 
L 19.671875 34.71875 
L 19.671875 0 
L 9.8125 0 
z
" id="DejaVuSans-72"/>
    </defs>
    <g transform="translate(327.491875 19.44)scale(0.12 -0.12)">
     <use xlink:href="#DejaVuSans-85"/>
     <use x="73.193359" xlink:href="#DejaVuSans-65"/>
     <use x="141.601562" xlink:href="#DejaVuSans-68"/>
     <use x="218.603516" xlink:href="#DejaVuSans-70"/>
     <use x="276.123047" xlink:href="#DejaVuSans-86"/>
     <use x="338.65625" xlink:href="#DejaVuSans-45"/>
     <use x="374.740234" xlink:href="#DejaVuSans-99"/>
     <use x="429.720703" xlink:href="#DejaVuSans-72"/>
     <use x="504.916016" xlink:href="#DejaVuSans-47"/>
    </g>
   </g>
   <g id="legend_2">
    <g id="patch_13">
     <path d="M 380.185312 62.79625 
L 433.415 62.79625 
Q 435.415 62.79625 435.415 60.79625 
L 435.415 32.44 
Q 435.415 30.44 433.415 30.44 
L 380.185312 30.44 
Q 378.185312 30.44 378.185312 32.44 
L 378.185312 60.79625 
Q 378.185312 62.79625 380.185312 62.79625 
z
" style="fill:#ffffff;opacity:0.8;stroke:#cccccc;stroke-linejoin:miter;"/>
    </g>
    <g id="line2d_26">
     <path d="M 382.185312 38.538437 
L 402.185312 38.538437 
" style="fill:none;stroke:#0000ff;stroke-linecap:square;stroke-width:1.5;"/>
    </g>
    <g id="line2d_27"/>
    <g id="text_26">
     <!-- real -->
     <g transform="translate(410.185312 42.038437)scale(0.1 -0.1)">
      <use xlink:href="#DejaVuSans-114"/>
      <use x="38.863281" xlink:href="#DejaVuSans-101"/>
      <use x="100.386719" xlink:href="#DejaVuSans-97"/>
      <use x="161.666016" xlink:href="#DejaVuSans-108"/>
     </g>
    </g>
    <g id="line2d_28">
     <path d="M 382.185312 53.216563 
L 402.185312 53.216563 
" style="fill:none;stroke:#008000;stroke-linecap:square;stroke-width:1.5;"/>
    </g>
    <g id="line2d_29"/>
    <g id="text_27">
     <!-- fake -->
     <g transform="translate(410.185312 56.716563)scale(0.1 -0.1)">
      <use xlink:href="#DejaVuSans-102"/>
      <use x="35.205078" xlink:href="#DejaVuSans-97"/>
      <use x="96.484375" xlink:href="#DejaVuSans-107"/>
      <use x="150.769531" xlink:href="#DejaVuSans-101"/>
     </g>
    </g>
   </g>
  </g>
  <g id="axes_3">
   <g id="patch_14">
    <path d="M 60.59 303.64 
L 221.805 303.64 
L 221.805 192.84 
L 60.59 192.84 
z
" style="fill:#ffffff;"/>
   </g>
   <g id="matplotlib.axis_5">
    <g id="xtick_9">
     <g id="line2d_30">
      <g>
       <use style="stroke:#000000;stroke-width:0.8;" x="60.59" xlink:href="#m719863750b" y="303.64"/>
      </g>
     </g>
     <g id="text_28">
      <!-- 0 -->
      <g transform="translate(57.40875 318.238437)scale(0.1 -0.1)">
       <use xlink:href="#DejaVuSans-48"/>
      </g>
     </g>
    </g>
    <g id="xtick_10">
     <g id="line2d_31">
      <g>
       <use style="stroke:#000000;stroke-width:0.8;" x="114.328333" xlink:href="#m719863750b" y="303.64"/>
      </g>
     </g>
     <g id="text_29">
      <!-- 85 -->
      <g transform="translate(107.965833 318.238437)scale(0.1 -0.1)">
       <use xlink:href="#DejaVuSans-56"/>
       <use x="63.623047" xlink:href="#DejaVuSans-53"/>
      </g>
     </g>
    </g>
    <g id="xtick_11">
     <g id="line2d_32">
      <g>
       <use style="stroke:#000000;stroke-width:0.8;" x="168.066667" xlink:href="#m719863750b" y="303.64"/>
      </g>
     </g>
     <g id="text_30">
      <!-- 170 -->
      <g transform="translate(158.522917 318.238437)scale(0.1 -0.1)">
       <use xlink:href="#DejaVuSans-49"/>
       <use x="63.623047" xlink:href="#DejaVuSans-55"/>
       <use x="127.246094" xlink:href="#DejaVuSans-48"/>
      </g>
     </g>
    </g>
    <g id="xtick_12">
     <g id="line2d_33">
      <g>
       <use style="stroke:#000000;stroke-width:0.8;" x="221.805" xlink:href="#m719863750b" y="303.64"/>
      </g>
     </g>
     <g id="text_31">
      <!-- 255 -->
      <g transform="translate(212.26125 318.238437)scale(0.1 -0.1)">
       <use xlink:href="#DejaVuSans-50"/>
       <use x="63.623047" xlink:href="#DejaVuSans-53"/>
       <use x="127.246094" xlink:href="#DejaVuSans-53"/>
      </g>
     </g>
    </g>
    <g id="text_32">
     <!-- gray value -->
     <g transform="translate(114.6975 331.916562)scale(0.1 -0.1)">
      <use xlink:href="#DejaVuSans-103"/>
      <use x="63.476562" xlink:href="#DejaVuSans-114"/>
      <use x="104.589844" xlink:href="#DejaVuSans-97"/>
      <use x="165.869141" xlink:href="#DejaVuSans-121"/>
      <use x="225.048828" xlink:href="#DejaVuSans-32"/>
      <use x="256.835938" xlink:href="#DejaVuSans-118"/>
      <use x="316.015625" xlink:href="#DejaVuSans-97"/>
      <use x="377.294922" xlink:href="#DejaVuSans-108"/>
      <use x="405.078125" xlink:href="#DejaVuSans-117"/>
      <use x="468.457031" xlink:href="#DejaVuSans-101"/>
     </g>
    </g>
   </g>
   <g id="matplotlib.axis_6">
    <g id="ytick_10">
     <g id="line2d_34">
      <g>
       <use style="stroke:#000000;stroke-width:0.8;" x="60.59" xlink:href="#m19fccf84f1" y="298.603689"/>
      </g>
     </g>
     <g id="text_33">
      <!-- 0.0 -->
      <g transform="translate(37.686875 302.402908)scale(0.1 -0.1)">
       <use xlink:href="#DejaVuSans-48"/>
       <use x="63.623047" xlink:href="#DejaVuSans-46"/>
       <use x="95.410156" xlink:href="#DejaVuSans-48"/>
      </g>
     </g>
    </g>
    <g id="ytick_11">
     <g id="line2d_35">
      <g>
       <use style="stroke:#000000;stroke-width:0.8;" x="60.59" xlink:href="#m19fccf84f1" y="271.533016"/>
      </g>
     </g>
     <g id="text_34">
      <!-- 0.1 -->
      <g transform="translate(37.686875 275.332234)scale(0.1 -0.1)">
       <use xlink:href="#DejaVuSans-48"/>
       <use x="63.623047" xlink:href="#DejaVuSans-46"/>
       <use x="95.410156" xlink:href="#DejaVuSans-49"/>
      </g>
     </g>
    </g>
    <g id="ytick_12">
     <g id="line2d_36">
      <g>
       <use style="stroke:#000000;stroke-width:0.8;" x="60.59" xlink:href="#m19fccf84f1" y="244.462342"/>
      </g>
     </g>
     <g id="text_35">
      <!-- 0.2 -->
      <g transform="translate(37.686875 248.261561)scale(0.1 -0.1)">
       <use xlink:href="#DejaVuSans-48"/>
       <use x="63.623047" xlink:href="#DejaVuSans-46"/>
       <use x="95.410156" xlink:href="#DejaVuSans-50"/>
      </g>
     </g>
    </g>
    <g id="ytick_13">
     <g id="line2d_37">
      <g>
       <use style="stroke:#000000;stroke-width:0.8;" x="60.59" xlink:href="#m19fccf84f1" y="217.391668"/>
      </g>
     </g>
     <g id="text_36">
      <!-- 0.3 -->
      <g transform="translate(37.686875 221.190887)scale(0.1 -0.1)">
       <use xlink:href="#DejaVuSans-48"/>
       <use x="63.623047" xlink:href="#DejaVuSans-46"/>
       <use x="95.410156" xlink:href="#DejaVuSans-51"/>
      </g>
     </g>
    </g>
    <g id="text_37">
     <!-- pixel freq -->
     <g transform="translate(31.607187 271.615)rotate(-90)scale(0.1 -0.1)">
      <use xlink:href="#DejaVuSans-112"/>
      <use x="63.476562" xlink:href="#DejaVuSans-105"/>
      <use x="91.259766" xlink:href="#DejaVuSans-120"/>
      <use x="147.314453" xlink:href="#DejaVuSans-101"/>
      <use x="208.837891" xlink:href="#DejaVuSans-108"/>
      <use x="236.621094" xlink:href="#DejaVuSans-32"/>
      <use x="268.408203" xlink:href="#DejaVuSans-102"/>
      <use x="303.613281" xlink:href="#DejaVuSans-114"/>
      <use x="342.476562" xlink:href="#DejaVuSans-101"/>
      <use x="404" xlink:href="#DejaVuSans-113"/>
     </g>
    </g>
   </g>
   <g id="line2d_38">
    <path clip-path="url(#pd050cb19e8)" d="M 60.59 199.805106 
L 61.222216 267.074743 
L 62.486647 283.382476 
L 63.118863 289.431993 
L 63.751078 293.211267 
L 64.383294 295.342666 
L 65.01551 296.505385 
L 65.647725 297.159393 
L 66.279941 297.552312 
L 67.544373 297.981712 
L 69.44102 298.274287 
L 72.602098 298.452998 
L 80.188686 298.569738 
L 107.373961 298.600768 
L 206.631824 298.51884 
L 212.321765 298.336699 
L 214.850627 298.066511 
L 216.115059 297.748149 
L 216.747275 297.475044 
L 217.37949 297.050411 
L 218.011706 296.377139 
L 218.643922 295.316459 
L 219.276137 293.716046 
L 221.172784 287.513506 
L 221.805 270.478109 
L 221.805 270.478109 
" style="fill:none;stroke:#0000ff;stroke-linecap:square;stroke-width:1.5;"/>
   </g>
   <g id="line2d_39">
    <path clip-path="url(#pd050cb19e8)" d="M 60.59 197.876364 
L 61.222216 266.319542 
L 62.486647 283.409744 
L 63.118863 289.614174 
L 63.751078 293.439949 
L 64.383294 295.572827 
L 65.01551 296.709743 
L 65.647725 297.334284 
L 66.279941 297.699289 
L 67.544373 298.074965 
L 69.44102 298.317251 
L 73.234314 298.48577 
L 83.349765 298.582918 
L 140.881392 298.603611 
L 208.528471 298.493213 
L 213.586196 298.277949 
L 215.482843 298.012956 
L 216.747275 297.602345 
L 217.37949 297.214095 
L 218.011706 296.57913 
L 218.643922 295.550427 
L 219.276137 293.947783 
L 221.172784 287.470277 
L 221.805 269.939154 
L 221.805 269.939154 
" style="fill:none;stroke:#008000;stroke-linecap:square;stroke-width:1.5;"/>
   </g>
   <g id="patch_15">
    <path d="M 60.59 303.64 
L 60.59 192.84 
" style="fill:none;stroke:#000000;stroke-linecap:square;stroke-linejoin:miter;stroke-width:0.8;"/>
   </g>
   <g id="patch_16">
    <path d="M 221.805 303.64 
L 221.805 192.84 
" style="fill:none;stroke:#000000;stroke-linecap:square;stroke-linejoin:miter;stroke-width:0.8;"/>
   </g>
   <g id="patch_17">
    <path d="M 60.59 303.64 
L 221.805 303.64 
" style="fill:none;stroke:#000000;stroke-linecap:square;stroke-linejoin:miter;stroke-width:0.8;"/>
   </g>
   <g id="patch_18">
    <path d="M 60.59 192.84 
L 221.805 192.84 
" style="fill:none;stroke:#000000;stroke-linecap:square;stroke-linejoin:miter;stroke-width:0.8;"/>
   </g>
   <g id="text_38">
    <!-- UADFV-cV/ -->
    <g transform="translate(109.289687 186.84)scale(0.12 -0.12)">
     <use xlink:href="#DejaVuSans-85"/>
     <use x="73.193359" xlink:href="#DejaVuSans-65"/>
     <use x="141.601562" xlink:href="#DejaVuSans-68"/>
     <use x="218.603516" xlink:href="#DejaVuSans-70"/>
     <use x="276.123047" xlink:href="#DejaVuSans-86"/>
     <use x="338.65625" xlink:href="#DejaVuSans-45"/>
     <use x="374.740234" xlink:href="#DejaVuSans-99"/>
     <use x="429.720703" xlink:href="#DejaVuSans-86"/>
     <use x="498.128906" xlink:href="#DejaVuSans-47"/>
    </g>
   </g>
   <g id="legend_3">
    <g id="patch_19">
     <path d="M 161.575312 230.19625 
L 214.805 230.19625 
Q 216.805 230.19625 216.805 228.19625 
L 216.805 199.84 
Q 216.805 197.84 214.805 197.84 
L 161.575312 197.84 
Q 159.575312 197.84 159.575312 199.84 
L 159.575312 228.19625 
Q 159.575312 230.19625 161.575312 230.19625 
z
" style="fill:#ffffff;opacity:0.8;stroke:#cccccc;stroke-linejoin:miter;"/>
    </g>
    <g id="line2d_40">
     <path d="M 163.575312 205.938437 
L 183.575312 205.938437 
" style="fill:none;stroke:#0000ff;stroke-linecap:square;stroke-width:1.5;"/>
    </g>
    <g id="line2d_41"/>
    <g id="text_39">
     <!-- real -->
     <g transform="translate(191.575312 209.438437)scale(0.1 -0.1)">
      <use xlink:href="#DejaVuSans-114"/>
      <use x="38.863281" xlink:href="#DejaVuSans-101"/>
      <use x="100.386719" xlink:href="#DejaVuSans-97"/>
      <use x="161.666016" xlink:href="#DejaVuSans-108"/>
     </g>
    </g>
    <g id="line2d_42">
     <path d="M 163.575312 220.616562 
L 183.575312 220.616562 
" style="fill:none;stroke:#008000;stroke-linecap:square;stroke-width:1.5;"/>
    </g>
    <g id="line2d_43"/>
    <g id="text_40">
     <!-- fake -->
     <g transform="translate(191.575312 224.116562)scale(0.1 -0.1)">
      <use xlink:href="#DejaVuSans-102"/>
      <use x="35.205078" xlink:href="#DejaVuSans-97"/>
      <use x="96.484375" xlink:href="#DejaVuSans-107"/>
      <use x="150.769531" xlink:href="#DejaVuSans-101"/>
     </g>
    </g>
   </g>
  </g>
  <g id="axes_4">
   <g id="patch_20">
    <path d="M 279.2 303.64 
L 440.415 303.64 
L 440.415 192.84 
L 279.2 192.84 
z
" style="fill:#ffffff;"/>
   </g>
   <g id="matplotlib.axis_7">
    <g id="xtick_13">
     <g id="line2d_44">
      <g>
       <use style="stroke:#000000;stroke-width:0.8;" x="279.2" xlink:href="#m719863750b" y="303.64"/>
      </g>
     </g>
     <g id="text_41">
      <!-- 0 -->
      <g transform="translate(276.01875 318.238437)scale(0.1 -0.1)">
       <use xlink:href="#DejaVuSans-48"/>
      </g>
     </g>
    </g>
    <g id="xtick_14">
     <g id="line2d_45">
      <g>
       <use style="stroke:#000000;stroke-width:0.8;" x="332.938333" xlink:href="#m719863750b" y="303.64"/>
      </g>
     </g>
     <g id="text_42">
      <!-- 85 -->
      <g transform="translate(326.575833 318.238437)scale(0.1 -0.1)">
       <use xlink:href="#DejaVuSans-56"/>
       <use x="63.623047" xlink:href="#DejaVuSans-53"/>
      </g>
     </g>
    </g>
    <g id="xtick_15">
     <g id="line2d_46">
      <g>
       <use style="stroke:#000000;stroke-width:0.8;" x="386.676667" xlink:href="#m719863750b" y="303.64"/>
      </g>
     </g>
     <g id="text_43">
      <!-- 170 -->
      <g transform="translate(377.132917 318.238437)scale(0.1 -0.1)">
       <use xlink:href="#DejaVuSans-49"/>
       <use x="63.623047" xlink:href="#DejaVuSans-55"/>
       <use x="127.246094" xlink:href="#DejaVuSans-48"/>
      </g>
     </g>
    </g>
    <g id="xtick_16">
     <g id="line2d_47">
      <g>
       <use style="stroke:#000000;stroke-width:0.8;" x="440.415" xlink:href="#m719863750b" y="303.64"/>
      </g>
     </g>
     <g id="text_44">
      <!-- 255 -->
      <g transform="translate(430.87125 318.238437)scale(0.1 -0.1)">
       <use xlink:href="#DejaVuSans-50"/>
       <use x="63.623047" xlink:href="#DejaVuSans-53"/>
       <use x="127.246094" xlink:href="#DejaVuSans-53"/>
      </g>
     </g>
    </g>
    <g id="text_45">
     <!-- gray value -->
     <g transform="translate(333.3075 331.916562)scale(0.1 -0.1)">
      <use xlink:href="#DejaVuSans-103"/>
      <use x="63.476562" xlink:href="#DejaVuSans-114"/>
      <use x="104.589844" xlink:href="#DejaVuSans-97"/>
      <use x="165.869141" xlink:href="#DejaVuSans-121"/>
      <use x="225.048828" xlink:href="#DejaVuSans-32"/>
      <use x="256.835938" xlink:href="#DejaVuSans-118"/>
      <use x="316.015625" xlink:href="#DejaVuSans-97"/>
      <use x="377.294922" xlink:href="#DejaVuSans-108"/>
      <use x="405.078125" xlink:href="#DejaVuSans-117"/>
      <use x="468.457031" xlink:href="#DejaVuSans-101"/>
     </g>
    </g>
   </g>
   <g id="matplotlib.axis_8">
    <g id="ytick_14">
     <g id="line2d_48">
      <g>
       <use style="stroke:#000000;stroke-width:0.8;" x="279.2" xlink:href="#m19fccf84f1" y="298.603636"/>
      </g>
     </g>
     <g id="text_46">
      <!-- 0.0 -->
      <g transform="translate(256.296875 302.402855)scale(0.1 -0.1)">
       <use xlink:href="#DejaVuSans-48"/>
       <use x="63.623047" xlink:href="#DejaVuSans-46"/>
       <use x="95.410156" xlink:href="#DejaVuSans-48"/>
      </g>
     </g>
    </g>
    <g id="ytick_15">
     <g id="line2d_49">
      <g>
       <use style="stroke:#000000;stroke-width:0.8;" x="279.2" xlink:href="#m19fccf84f1" y="273.276921"/>
      </g>
     </g>
     <g id="text_47">
      <!-- 0.2 -->
      <g transform="translate(256.296875 277.07614)scale(0.1 -0.1)">
       <use xlink:href="#DejaVuSans-48"/>
       <use x="63.623047" xlink:href="#DejaVuSans-46"/>
       <use x="95.410156" xlink:href="#DejaVuSans-50"/>
      </g>
     </g>
    </g>
    <g id="ytick_16">
     <g id="line2d_50">
      <g>
       <use style="stroke:#000000;stroke-width:0.8;" x="279.2" xlink:href="#m19fccf84f1" y="247.950205"/>
      </g>
     </g>
     <g id="text_48">
      <!-- 0.4 -->
      <g transform="translate(256.296875 251.749424)scale(0.1 -0.1)">
       <use xlink:href="#DejaVuSans-48"/>
       <use x="63.623047" xlink:href="#DejaVuSans-46"/>
       <use x="95.410156" xlink:href="#DejaVuSans-52"/>
      </g>
     </g>
    </g>
    <g id="ytick_17">
     <g id="line2d_51">
      <g>
       <use style="stroke:#000000;stroke-width:0.8;" x="279.2" xlink:href="#m19fccf84f1" y="222.62349"/>
      </g>
     </g>
     <g id="text_49">
      <!-- 0.6 -->
      <defs>
       <path d="M 33.015625 40.375 
Q 26.375 40.375 22.484375 35.828125 
Q 18.609375 31.296875 18.609375 23.390625 
Q 18.609375 15.53125 22.484375 10.953125 
Q 26.375 6.390625 33.015625 6.390625 
Q 39.65625 6.390625 43.53125 10.953125 
Q 47.40625 15.53125 47.40625 23.390625 
Q 47.40625 31.296875 43.53125 35.828125 
Q 39.65625 40.375 33.015625 40.375 
z
M 52.59375 71.296875 
L 52.59375 62.3125 
Q 48.875 64.0625 45.09375 64.984375 
Q 41.3125 65.921875 37.59375 65.921875 
Q 27.828125 65.921875 22.671875 59.328125 
Q 17.53125 52.734375 16.796875 39.40625 
Q 19.671875 43.65625 24.015625 45.921875 
Q 28.375 48.1875 33.59375 48.1875 
Q 44.578125 48.1875 50.953125 41.515625 
Q 57.328125 34.859375 57.328125 23.390625 
Q 57.328125 12.15625 50.6875 5.359375 
Q 44.046875 -1.421875 33.015625 -1.421875 
Q 20.359375 -1.421875 13.671875 8.265625 
Q 6.984375 17.96875 6.984375 36.375 
Q 6.984375 53.65625 15.1875 63.9375 
Q 23.390625 74.21875 37.203125 74.21875 
Q 40.921875 74.21875 44.703125 73.484375 
Q 48.484375 72.75 52.59375 71.296875 
z
" id="DejaVuSans-54"/>
      </defs>
      <g transform="translate(256.296875 226.422709)scale(0.1 -0.1)">
       <use xlink:href="#DejaVuSans-48"/>
       <use x="63.623047" xlink:href="#DejaVuSans-46"/>
       <use x="95.410156" xlink:href="#DejaVuSans-54"/>
      </g>
     </g>
    </g>
    <g id="ytick_18">
     <g id="line2d_52">
      <g>
       <use style="stroke:#000000;stroke-width:0.8;" x="279.2" xlink:href="#m19fccf84f1" y="197.296774"/>
      </g>
     </g>
     <g id="text_50">
      <!-- 0.8 -->
      <g transform="translate(256.296875 201.095993)scale(0.1 -0.1)">
       <use xlink:href="#DejaVuSans-48"/>
       <use x="63.623047" xlink:href="#DejaVuSans-46"/>
       <use x="95.410156" xlink:href="#DejaVuSans-56"/>
      </g>
     </g>
    </g>
    <g id="text_51">
     <!-- pixel freq -->
     <g transform="translate(250.217187 271.615)rotate(-90)scale(0.1 -0.1)">
      <use xlink:href="#DejaVuSans-112"/>
      <use x="63.476562" xlink:href="#DejaVuSans-105"/>
      <use x="91.259766" xlink:href="#DejaVuSans-120"/>
      <use x="147.314453" xlink:href="#DejaVuSans-101"/>
      <use x="208.837891" xlink:href="#DejaVuSans-108"/>
      <use x="236.621094" xlink:href="#DejaVuSans-32"/>
      <use x="268.408203" xlink:href="#DejaVuSans-102"/>
      <use x="303.613281" xlink:href="#DejaVuSans-114"/>
      <use x="342.476562" xlink:href="#DejaVuSans-101"/>
      <use x="404" xlink:href="#DejaVuSans-113"/>
     </g>
    </g>
   </g>
   <g id="line2d_53">
    <path clip-path="url(#p6de2367b6d)" d="M 279.2 197.919358 
L 279.832216 289.363955 
L 281.096647 295.324345 
L 281.728863 297.117139 
L 282.361078 297.994833 
L 282.993294 298.383789 
L 284.257725 298.561523 
L 289.947667 298.601076 
L 412.59751 298.603618 
L 436.621706 298.538807 
L 437.886137 298.383015 
L 439.150569 297.982351 
L 439.782784 297.788783 
L 440.415 296.202913 
L 440.415 296.202913 
" style="fill:none;stroke:#0000ff;stroke-linecap:square;stroke-width:1.5;"/>
   </g>
   <g id="line2d_54">
    <path clip-path="url(#p6de2367b6d)" d="M 279.2 197.876364 
L 279.832216 289.431087 
L 281.096647 295.335557 
L 281.728863 297.115643 
L 282.361078 297.994483 
L 282.993294 298.384735 
L 284.257725 298.562781 
L 289.947667 298.601333 
L 418.919667 298.603562 
L 436.621706 298.539327 
L 437.886137 298.378932 
L 439.150569 297.968388 
L 439.782784 297.770162 
L 440.415 296.167851 
L 440.415 296.167851 
" style="fill:none;stroke:#008000;stroke-linecap:square;stroke-width:1.5;"/>
   </g>
   <g id="patch_21">
    <path d="M 279.2 303.64 
L 279.2 192.84 
" style="fill:none;stroke:#000000;stroke-linecap:square;stroke-linejoin:miter;stroke-width:0.8;"/>
   </g>
   <g id="patch_22">
    <path d="M 440.415 303.64 
L 440.415 192.84 
" style="fill:none;stroke:#000000;stroke-linecap:square;stroke-linejoin:miter;stroke-width:0.8;"/>
   </g>
   <g id="patch_23">
    <path d="M 279.2 303.64 
L 440.415 303.64 
" style="fill:none;stroke:#000000;stroke-linecap:square;stroke-linejoin:miter;stroke-width:0.8;"/>
   </g>
   <g id="patch_24">
    <path d="M 279.2 192.84 
L 440.415 192.84 
" style="fill:none;stroke:#000000;stroke-linecap:square;stroke-linejoin:miter;stroke-width:0.8;"/>
   </g>
   <g id="text_52">
    <!-- UADFV-cD/ -->
    <g transform="translate(327.384062 186.84)scale(0.12 -0.12)">
     <use xlink:href="#DejaVuSans-85"/>
     <use x="73.193359" xlink:href="#DejaVuSans-65"/>
     <use x="141.601562" xlink:href="#DejaVuSans-68"/>
     <use x="218.603516" xlink:href="#DejaVuSans-70"/>
     <use x="276.123047" xlink:href="#DejaVuSans-86"/>
     <use x="338.65625" xlink:href="#DejaVuSans-45"/>
     <use x="374.740234" xlink:href="#DejaVuSans-99"/>
     <use x="429.720703" xlink:href="#DejaVuSans-68"/>
     <use x="506.722656" xlink:href="#DejaVuSans-47"/>
    </g>
   </g>
   <g id="legend_4">
    <g id="patch_25">
     <path d="M 380.185312 230.19625 
L 433.415 230.19625 
Q 435.415 230.19625 435.415 228.19625 
L 435.415 199.84 
Q 435.415 197.84 433.415 197.84 
L 380.185312 197.84 
Q 378.185312 197.84 378.185312 199.84 
L 378.185312 228.19625 
Q 378.185312 230.19625 380.185312 230.19625 
z
" style="fill:#ffffff;opacity:0.8;stroke:#cccccc;stroke-linejoin:miter;"/>
    </g>
    <g id="line2d_55">
     <path d="M 382.185312 205.938437 
L 402.185312 205.938437 
" style="fill:none;stroke:#0000ff;stroke-linecap:square;stroke-width:1.5;"/>
    </g>
    <g id="line2d_56"/>
    <g id="text_53">
     <!-- real -->
     <g transform="translate(410.185312 209.438437)scale(0.1 -0.1)">
      <use xlink:href="#DejaVuSans-114"/>
      <use x="38.863281" xlink:href="#DejaVuSans-101"/>
      <use x="100.386719" xlink:href="#DejaVuSans-97"/>
      <use x="161.666016" xlink:href="#DejaVuSans-108"/>
     </g>
    </g>
    <g id="line2d_57">
     <path d="M 382.185312 220.616562 
L 402.185312 220.616562 
" style="fill:none;stroke:#008000;stroke-linecap:square;stroke-width:1.5;"/>
    </g>
    <g id="line2d_58"/>
    <g id="text_54">
     <!-- fake -->
     <g transform="translate(410.185312 224.116562)scale(0.1 -0.1)">
      <use xlink:href="#DejaVuSans-102"/>
      <use x="35.205078" xlink:href="#DejaVuSans-97"/>
      <use x="96.484375" xlink:href="#DejaVuSans-107"/>
      <use x="150.769531" xlink:href="#DejaVuSans-101"/>
     </g>
    </g>
   </g>
  </g>
 </g>
 <defs>
  <clipPath id="pbd2b76a45f">
   <rect height="110.8" width="161.215" x="60.59" y="25.44"/>
  </clipPath>
  <clipPath id="p136b1e6619">
   <rect height="110.8" width="161.215" x="279.2" y="25.44"/>
  </clipPath>
  <clipPath id="pd050cb19e8">
   <rect height="110.8" width="161.215" x="60.59" y="192.84"/>
  </clipPath>
  <clipPath id="p6de2367b6d">
   <rect height="110.8" width="161.215" x="279.2" y="192.84"/>
  </clipPath>
 </defs>
</svg>
